<?xml version="1.0" encoding="utf-8"?>
<!-- Generator: Adobe Illustrator 18.1.1, SVG Export Plug-In . SVG Version: 6.00 Build 0)  -->
<svg version="1.1" xmlns="http://www.w3.org/2000/svg" xmlns:xlink="http://www.w3.org/1999/xlink" x="0px" y="0px"
	 viewBox="0 0 138.1 184.7" enable-background="new 0 0 138.1 184.7" xml:space="preserve">
<g id="Layer_1">
	<g>
		<g>
			<g>
				<defs>
					<rect id="SVGID_184_" x="-209.2" y="59.9" width="2.8" height="1.5"/>
				</defs>
				<clipPath id="SVGID_2_">
					<use xlink:href="#SVGID_184_"  overflow="visible"/>
				</clipPath>
				<g clip-path="url(#SVGID_2_)">
					<g>
						<defs>
							<rect id="SVGID_186_" x="-325.6" y="-122.5" width="360.7" height="306.3"/>
						</defs>
						<clipPath id="SVGID_4_">
							<use xlink:href="#SVGID_186_"  overflow="visible"/>
						</clipPath>
						<rect x="-325.6" y="-122.5" clip-path="url(#SVGID_4_)" fill="#FF6D1F" width="360.7" height="306.3"/>
						
							<linearGradient id="SVGID_6_" gradientUnits="userSpaceOnUse" x1="-64885.5078" y1="143711.2188" x2="-64885.5078" y2="143732.6875" gradientTransform="matrix(1 0 0 1 64878.0547 -143678.1406)">
							<stop  offset="0" style="stop-color:#FF6D1F"/>
							<stop  offset="6.211489e-02" style="stop-color:#FF761F"/>
							<stop  offset="0.2553" style="stop-color:#FF8D21"/>
							<stop  offset="0.4636" style="stop-color:#FF9D21"/>
							<stop  offset="0.6958" style="stop-color:#FFA722"/>
							<stop  offset="1" style="stop-color:#FFAA22"/>
						</linearGradient>
						<path clip-path="url(#SVGID_4_)" fill="url(#SVGID_6_)" d="M3.5,41.6c0-0.3,0-0.5,0-0.8c0-4.2-3.4-7.7-7.7-7.7
							c-2.8,0-5.3,1.5-6.6,3.8c-0.7-0.5-1.6-0.7-2.5-0.7c-2.5,0-4.6,2-4.6,4.6c0,0.3,0,0.5,0.1,0.8c-3.4,0.2-6.1,3.1-6.1,6.5
							c0,3.6,2.9,6.5,6.5,6.5H2.4C6,54.5,9,51.6,9,48C9,44.8,6.6,42.1,3.5,41.6z"/>
						<g clip-path="url(#SVGID_4_)">
							
								<rect x="6.3" y="70.2" fill="none" stroke="#FFA779" stroke-width="0.75" stroke-miterlimit="10" width="14.3" height="3.9"/>
							<polyline fill="none" stroke="#FFA779" stroke-width="0.75" stroke-miterlimit="10" points="6.3,70.2 8.7,67.7 18.1,67.7 
								20.5,70.2 							"/>
							<path fill="none" stroke="#FFA779" stroke-width="0.75" stroke-miterlimit="10" d="M6.3,78v2.7c0,0.7,0.6,1.2,1.2,1.2h11.8
								c0.7,0,1.2-0.6,1.2-1.2V78"/>
							
								<circle fill="none" stroke="#FFCA22" stroke-width="0.75" stroke-linecap="round" stroke-miterlimit="10" cx="8.3" cy="72.1" r="1"/>
							<circle fill="none" stroke="#FF8A4C" stroke-width="0.75" stroke-miterlimit="10" cx="14.6" cy="72.1" r="0.5"/>
							<circle fill="none" stroke="#FF8A4C" stroke-width="0.75" stroke-miterlimit="10" cx="16.6" cy="72.1" r="0.5"/>
							<circle fill="none" stroke="#FF8A4C" stroke-width="0.75" stroke-miterlimit="10" cx="18.6" cy="72.1" r="0.5"/>
							<polyline fill="none" stroke="#FFA779" stroke-width="0.75" stroke-miterlimit="10" points="20.5,74.1 20.5,78 6.3,78 
								6.3,74.1 							"/>
							
								<circle fill="none" stroke="#FFCA22" stroke-width="0.75" stroke-linecap="round" stroke-miterlimit="10" cx="8.3" cy="76.1" r="1"/>
							<circle fill="none" stroke="#FF8A4C" stroke-width="0.75" stroke-miterlimit="10" cx="14.6" cy="76.1" r="0.5"/>
							<circle fill="none" stroke="#FF8A4C" stroke-width="0.75" stroke-miterlimit="10" cx="16.6" cy="76.1" r="0.5"/>
							<circle fill="none" stroke="#FF8A4C" stroke-width="0.75" stroke-miterlimit="10" cx="18.6" cy="76.1" r="0.5"/>
							<circle fill="none" stroke="#FF8A4C" stroke-width="0.75" stroke-miterlimit="10" cx="14.6" cy="80" r="0.5"/>
							<circle fill="none" stroke="#FF8A4C" stroke-width="0.75" stroke-miterlimit="10" cx="16.6" cy="80" r="0.5"/>
							<circle fill="none" stroke="#FF8A4C" stroke-width="0.75" stroke-miterlimit="10" cx="18.6" cy="80" r="0.5"/>
							
								<circle fill="none" stroke="#FFCA22" stroke-width="0.75" stroke-linecap="round" stroke-miterlimit="10" cx="8.3" cy="80" r="1"/>
						</g>
						<g opacity="0.75" clip-path="url(#SVGID_4_)">
							<g>
								<line fill="none" stroke="#FFA779" stroke-width="0.75" stroke-miterlimit="10" x1="-6.8" y1="125.7" x2="0.8" y2="125.7"/>
							</g>
						</g>
						
							<path clip-path="url(#SVGID_4_)" fill="none" stroke="#FFAA22" stroke-width="1.5" stroke-miterlimit="10" stroke-dasharray="4" d="
							M-27,9.9h20.1c4.9,0,8.9-4,8.9-8.9v-35.9"/>
						<g clip-path="url(#SVGID_4_)">
							<path fill="#FFAA22" d="M16.4,13.7C16.4,13.7,16.3,13.6,16.4,13.7c-0.1-0.1-0.1,0-0.2,0l-0.9,0.8c0,0,0,0.1,0,0.2
								c0,0,0.1,0,0.2,0l0.7-0.7l0,1.8c0,0.1,0,0.1,0.1,0.1c0.1,0,0.1,0,0.1-0.1L16.4,13.7C16.4,13.7,16.4,13.7,16.4,13.7z"/>
							<path fill="#FFAA22" d="M16.3,15.7l1.9,3c0,0,0,0.1,0,0.1c0,0,0,0.1-0.1,0.1l-9.4,1.8c-0.1,0-0.1,0-0.1-0.1c0,0,0-0.1,0-0.1
								l7.5-4.8C16.2,15.7,16.2,15.7,16.3,15.7C16.3,15.7,16.3,15.7,16.3,15.7C16.3,15.7,16.3,15.7,16.3,15.7z M17.9,18.7l-1.7-2.7
								l-6.9,4.4L17.9,18.7z"/>
							<path fill="#FFAA22" d="M15.9,15.1C15.9,15.1,15.8,15.2,15.9,15.1l-7,5.5c0,0-0.1,0-0.1,0c0,0,0-0.1,0-0.1l4.8-8.2
								c0,0,0.1-0.1,0.1-0.1c0,0,0.1,0,0.1,0L15.9,15.1C15.8,15,15.8,15,15.9,15.1C15.8,15,15.9,15.1,15.9,15.1z M9.2,20.1l6.4-5
								l-2-2.5L9.2,20.1z"/>
							<path fill="#FFAA22" d="M16.4,13.7C16.4,13.6,16.3,13.6,16.4,13.7c-0.1-0.1-0.2,0-0.2,0L15.6,15c0,0.1,0,0.1,0.1,0.1
								c0.1,0,0.1,0,0.1-0.1l0.5-1.4C16.4,13.7,16.4,13.7,16.4,13.7z"/>
							<path fill="#FFAA22" d="M13.7,12.3C13.7,12.2,13.6,12.2,13.7,12.3c-0.1,0-0.2,0-0.2,0.1l-0.2,4.6c0,0.1,0,0.1,0.1,0.1
								c0.1,0,0.1,0,0.1-0.1L13.7,12.3C13.7,12.3,13.7,12.3,13.7,12.3z"/>
							<path fill="#FFAA22" d="M18.2,18.7C18.2,18.7,18.2,18.6,18.2,18.7l-4.5-1.4c-0.1,0-0.1,0-0.1,0.1c0,0.1,0,0.1,0.1,0.1
								l4.4,1.3C18.2,18.9,18.2,18.8,18.2,18.7C18.2,18.7,18.2,18.7,18.2,18.7z"/>
						</g>
						
							<path clip-path="url(#SVGID_4_)" fill="none" stroke="#FFAA22" stroke-width="1.5" stroke-miterlimit="10" stroke-dasharray="4" d="
							M-3.1,138.7v3c0,4.3,3.4,7.7,7.7,7.7h27.8"/>
					</g>
				</g>
			</g>
		</g>
		<g>
			<g>
				<defs>
					<rect id="SVGID_211_" x="-209.2" y="79.2" width="2.8" height="1.5"/>
				</defs>
				<clipPath id="SVGID_7_">
					<use xlink:href="#SVGID_211_"  overflow="visible"/>
				</clipPath>
				<g clip-path="url(#SVGID_7_)">
					<g>
						<defs>
							<rect id="SVGID_213_" x="-325.6" y="-122.5" width="360.7" height="306.3"/>
						</defs>
						<clipPath id="SVGID_8_">
							<use xlink:href="#SVGID_213_"  overflow="visible"/>
						</clipPath>
						<rect x="-325.6" y="-122.5" clip-path="url(#SVGID_8_)" fill="#FF6D1F" width="360.7" height="306.3"/>
						
							<linearGradient id="SVGID_9_" gradientUnits="userSpaceOnUse" x1="-64885.5078" y1="143711.2188" x2="-64885.5078" y2="143732.6875" gradientTransform="matrix(1 0 0 1 64878.0547 -143678.1406)">
							<stop  offset="0" style="stop-color:#FF6D1F"/>
							<stop  offset="6.211489e-02" style="stop-color:#FF761F"/>
							<stop  offset="0.2553" style="stop-color:#FF8D21"/>
							<stop  offset="0.4636" style="stop-color:#FF9D21"/>
							<stop  offset="0.6958" style="stop-color:#FFA722"/>
							<stop  offset="1" style="stop-color:#FFAA22"/>
						</linearGradient>
						<path clip-path="url(#SVGID_8_)" fill="url(#SVGID_9_)" d="M3.5,41.6c0-0.3,0-0.5,0-0.8c0-4.2-3.4-7.7-7.7-7.7
							c-2.8,0-5.3,1.5-6.6,3.8c-0.7-0.5-1.6-0.7-2.5-0.7c-2.5,0-4.6,2-4.6,4.6c0,0.3,0,0.5,0.1,0.8c-3.4,0.2-6.1,3.1-6.1,6.5
							c0,3.6,2.9,6.5,6.5,6.5H2.4C6,54.5,9,51.6,9,48C9,44.8,6.6,42.1,3.5,41.6z"/>
						<g clip-path="url(#SVGID_8_)">
							
								<rect x="6.3" y="70.2" fill="none" stroke="#FFA779" stroke-width="0.75" stroke-miterlimit="10" width="14.3" height="3.9"/>
							<polyline fill="none" stroke="#FFA779" stroke-width="0.75" stroke-miterlimit="10" points="6.3,70.2 8.7,67.7 18.1,67.7 
								20.5,70.2 							"/>
							<path fill="none" stroke="#FFA779" stroke-width="0.75" stroke-miterlimit="10" d="M6.3,78v2.7c0,0.7,0.6,1.2,1.2,1.2h11.8
								c0.7,0,1.2-0.6,1.2-1.2V78"/>
							
								<circle fill="none" stroke="#FFCA22" stroke-width="0.75" stroke-linecap="round" stroke-miterlimit="10" cx="8.3" cy="72.1" r="1"/>
							<circle fill="none" stroke="#FF8A4C" stroke-width="0.75" stroke-miterlimit="10" cx="14.6" cy="72.1" r="0.5"/>
							<circle fill="none" stroke="#FF8A4C" stroke-width="0.75" stroke-miterlimit="10" cx="16.6" cy="72.1" r="0.5"/>
							<circle fill="none" stroke="#FF8A4C" stroke-width="0.75" stroke-miterlimit="10" cx="18.6" cy="72.1" r="0.5"/>
							<polyline fill="none" stroke="#FFA779" stroke-width="0.75" stroke-miterlimit="10" points="20.5,74.1 20.5,78 6.3,78 
								6.3,74.1 							"/>
							
								<circle fill="none" stroke="#FFCA22" stroke-width="0.75" stroke-linecap="round" stroke-miterlimit="10" cx="8.3" cy="76.1" r="1"/>
							<circle fill="none" stroke="#FF8A4C" stroke-width="0.75" stroke-miterlimit="10" cx="14.6" cy="76.1" r="0.5"/>
							<circle fill="none" stroke="#FF8A4C" stroke-width="0.75" stroke-miterlimit="10" cx="16.6" cy="76.1" r="0.5"/>
							<circle fill="none" stroke="#FF8A4C" stroke-width="0.75" stroke-miterlimit="10" cx="18.6" cy="76.1" r="0.5"/>
							<circle fill="none" stroke="#FF8A4C" stroke-width="0.75" stroke-miterlimit="10" cx="14.6" cy="80" r="0.5"/>
							<circle fill="none" stroke="#FF8A4C" stroke-width="0.75" stroke-miterlimit="10" cx="16.6" cy="80" r="0.5"/>
							<circle fill="none" stroke="#FF8A4C" stroke-width="0.75" stroke-miterlimit="10" cx="18.6" cy="80" r="0.5"/>
							
								<circle fill="none" stroke="#FFCA22" stroke-width="0.75" stroke-linecap="round" stroke-miterlimit="10" cx="8.3" cy="80" r="1"/>
						</g>
						<g opacity="0.75" clip-path="url(#SVGID_8_)">
							<g>
								<line fill="none" stroke="#FFA779" stroke-width="0.75" stroke-miterlimit="10" x1="-6.8" y1="125.7" x2="0.8" y2="125.7"/>
							</g>
						</g>
						
							<path clip-path="url(#SVGID_8_)" fill="none" stroke="#FFAA22" stroke-width="1.5" stroke-miterlimit="10" stroke-dasharray="4" d="
							M-27,9.9h20.1c4.9,0,8.9-4,8.9-8.9v-35.9"/>
						<g clip-path="url(#SVGID_8_)">
							<path fill="#FFAA22" d="M16.4,13.7C16.4,13.7,16.3,13.6,16.4,13.7c-0.1-0.1-0.1,0-0.2,0l-0.9,0.8c0,0,0,0.1,0,0.2
								c0,0,0.1,0,0.2,0l0.7-0.7l0,1.8c0,0.1,0,0.1,0.1,0.1c0.1,0,0.1,0,0.1-0.1L16.4,13.7C16.4,13.7,16.4,13.7,16.4,13.7z"/>
							<path fill="#FFAA22" d="M16.3,15.7l1.9,3c0,0,0,0.1,0,0.1c0,0,0,0.1-0.1,0.1l-9.4,1.8c-0.1,0-0.1,0-0.1-0.1c0,0,0-0.1,0-0.1
								l7.5-4.8C16.2,15.7,16.2,15.7,16.3,15.7C16.3,15.7,16.3,15.7,16.3,15.7C16.3,15.7,16.3,15.7,16.3,15.7z M17.9,18.7l-1.7-2.7
								l-6.9,4.4L17.9,18.7z"/>
							<path fill="#FFAA22" d="M15.9,15.1C15.9,15.1,15.8,15.2,15.9,15.1l-7,5.5c0,0-0.1,0-0.1,0c0,0,0-0.1,0-0.1l4.8-8.2
								c0,0,0.1-0.1,0.1-0.1c0,0,0.1,0,0.1,0L15.9,15.1C15.8,15,15.8,15,15.9,15.1C15.8,15,15.9,15.1,15.9,15.1z M9.2,20.1l6.4-5
								l-2-2.5L9.2,20.1z"/>
							<path fill="#FFAA22" d="M16.4,13.7C16.4,13.6,16.3,13.6,16.4,13.7c-0.1-0.1-0.2,0-0.2,0L15.6,15c0,0.1,0,0.1,0.1,0.1
								c0.1,0,0.1,0,0.1-0.1l0.5-1.4C16.4,13.7,16.4,13.7,16.4,13.7z"/>
							<path fill="#FFAA22" d="M13.7,12.3C13.7,12.2,13.6,12.2,13.7,12.3c-0.1,0-0.2,0-0.2,0.1l-0.2,4.6c0,0.1,0,0.1,0.1,0.1
								c0.1,0,0.1,0,0.1-0.1L13.7,12.3C13.7,12.3,13.7,12.3,13.7,12.3z"/>
							<path fill="#FFAA22" d="M18.2,18.7C18.2,18.7,18.2,18.6,18.2,18.7l-4.5-1.4c-0.1,0-0.1,0-0.1,0.1c0,0.1,0,0.1,0.1,0.1
								l4.4,1.3C18.2,18.9,18.2,18.8,18.2,18.7C18.2,18.7,18.2,18.7,18.2,18.7z"/>
						</g>
						
							<path clip-path="url(#SVGID_8_)" fill="none" stroke="#FFAA22" stroke-width="1.5" stroke-miterlimit="10" stroke-dasharray="4" d="
							M-3.1,138.7v3c0,4.3,3.4,7.7,7.7,7.7h27.8"/>
					</g>
				</g>
			</g>
		</g>
		<g>
			<g>
				<g>
					<defs>
						<rect id="SVGID_238_" x="-208.5" y="59.9" width="3.1" height="1.9"/>
					</defs>
					<clipPath id="SVGID_10_">
						<use xlink:href="#SVGID_238_"  overflow="visible"/>
					</clipPath>
					<g clip-path="url(#SVGID_10_)">
						<g>
							<defs>
								<rect id="SVGID_240_" x="-325.6" y="-122.5" width="360.7" height="306.3"/>
							</defs>
							<clipPath id="SVGID_11_">
								<use xlink:href="#SVGID_240_"  overflow="visible"/>
							</clipPath>
							<rect x="-325.6" y="-122.5" clip-path="url(#SVGID_11_)" fill="#FF6D1F" width="360.7" height="306.3"/>
							
								<linearGradient id="SVGID_12_" gradientUnits="userSpaceOnUse" x1="-64885.5078" y1="143711.2188" x2="-64885.5078" y2="143732.6875" gradientTransform="matrix(1 0 0 1 64878.0547 -143678.1406)">
								<stop  offset="0" style="stop-color:#FF6D1F"/>
								<stop  offset="6.211489e-02" style="stop-color:#FF761F"/>
								<stop  offset="0.2553" style="stop-color:#FF8D21"/>
								<stop  offset="0.4636" style="stop-color:#FF9D21"/>
								<stop  offset="0.6958" style="stop-color:#FFA722"/>
								<stop  offset="1" style="stop-color:#FFAA22"/>
							</linearGradient>
							<path clip-path="url(#SVGID_11_)" fill="url(#SVGID_12_)" d="M3.5,41.6c0-0.3,0-0.5,0-0.8c0-4.2-3.4-7.7-7.7-7.7
								c-2.8,0-5.3,1.5-6.6,3.8c-0.7-0.5-1.6-0.7-2.5-0.7c-2.5,0-4.6,2-4.6,4.6c0,0.3,0,0.5,0.1,0.8c-3.4,0.2-6.1,3.1-6.1,6.5
								c0,3.6,2.9,6.5,6.5,6.5H2.4C6,54.5,9,51.6,9,48C9,44.8,6.6,42.1,3.5,41.6z"/>
							<g clip-path="url(#SVGID_11_)">
								
									<rect x="6.3" y="70.2" fill="none" stroke="#FFA779" stroke-width="0.75" stroke-miterlimit="10" width="14.3" height="3.9"/>
								<polyline fill="none" stroke="#FFA779" stroke-width="0.75" stroke-miterlimit="10" points="6.3,70.2 8.7,67.7 18.1,67.7 
									20.5,70.2 								"/>
								<path fill="none" stroke="#FFA779" stroke-width="0.75" stroke-miterlimit="10" d="M6.3,78v2.7c0,0.7,0.6,1.2,1.2,1.2h11.8
									c0.7,0,1.2-0.6,1.2-1.2V78"/>
								
									<circle fill="none" stroke="#FFCA22" stroke-width="0.75" stroke-linecap="round" stroke-miterlimit="10" cx="8.3" cy="72.1" r="1"/>
								<circle fill="none" stroke="#FF8A4C" stroke-width="0.75" stroke-miterlimit="10" cx="14.6" cy="72.1" r="0.5"/>
								<circle fill="none" stroke="#FF8A4C" stroke-width="0.75" stroke-miterlimit="10" cx="16.6" cy="72.1" r="0.5"/>
								<circle fill="none" stroke="#FF8A4C" stroke-width="0.75" stroke-miterlimit="10" cx="18.6" cy="72.1" r="0.5"/>
								<polyline fill="none" stroke="#FFA779" stroke-width="0.75" stroke-miterlimit="10" points="20.5,74.1 20.5,78 6.3,78 
									6.3,74.1 								"/>
								
									<circle fill="none" stroke="#FFCA22" stroke-width="0.75" stroke-linecap="round" stroke-miterlimit="10" cx="8.3" cy="76.1" r="1"/>
								<circle fill="none" stroke="#FF8A4C" stroke-width="0.75" stroke-miterlimit="10" cx="14.6" cy="76.1" r="0.5"/>
								<circle fill="none" stroke="#FF8A4C" stroke-width="0.75" stroke-miterlimit="10" cx="16.6" cy="76.1" r="0.5"/>
								<circle fill="none" stroke="#FF8A4C" stroke-width="0.75" stroke-miterlimit="10" cx="18.6" cy="76.1" r="0.5"/>
								<circle fill="none" stroke="#FF8A4C" stroke-width="0.75" stroke-miterlimit="10" cx="14.6" cy="80" r="0.5"/>
								<circle fill="none" stroke="#FF8A4C" stroke-width="0.75" stroke-miterlimit="10" cx="16.6" cy="80" r="0.5"/>
								<circle fill="none" stroke="#FF8A4C" stroke-width="0.75" stroke-miterlimit="10" cx="18.6" cy="80" r="0.5"/>
								
									<circle fill="none" stroke="#FFCA22" stroke-width="0.75" stroke-linecap="round" stroke-miterlimit="10" cx="8.3" cy="80" r="1"/>
							</g>
							<g opacity="0.75" clip-path="url(#SVGID_11_)">
								<g>
									
										<line fill="none" stroke="#FFA779" stroke-width="0.75" stroke-miterlimit="10" x1="-6.8" y1="125.7" x2="0.8" y2="125.7"/>
								</g>
							</g>
							
								<path clip-path="url(#SVGID_11_)" fill="none" stroke="#FFAA22" stroke-width="1.5" stroke-miterlimit="10" stroke-dasharray="4" d="
								M-27,9.9h20.1c4.9,0,8.9-4,8.9-8.9v-35.9"/>
							<g clip-path="url(#SVGID_11_)">
								<path fill="#FFAA22" d="M16.4,13.7C16.4,13.7,16.3,13.6,16.4,13.7c-0.1-0.1-0.1,0-0.2,0l-0.9,0.8c0,0,0,0.1,0,0.2
									c0,0,0.1,0,0.2,0l0.7-0.7l0,1.8c0,0.1,0,0.1,0.1,0.1c0.1,0,0.1,0,0.1-0.1L16.4,13.7C16.4,13.7,16.4,13.7,16.4,13.7z"/>
								<path fill="#FFAA22" d="M16.3,15.7l1.9,3c0,0,0,0.1,0,0.1c0,0,0,0.1-0.1,0.1l-9.4,1.8c-0.1,0-0.1,0-0.1-0.1c0,0,0-0.1,0-0.1
									l7.5-4.8C16.2,15.7,16.2,15.7,16.3,15.7C16.3,15.7,16.3,15.7,16.3,15.7C16.3,15.7,16.3,15.7,16.3,15.7z M17.9,18.7l-1.7-2.7
									l-6.9,4.4L17.9,18.7z"/>
								<path fill="#FFAA22" d="M15.9,15.1C15.9,15.1,15.8,15.2,15.9,15.1l-7,5.5c0,0-0.1,0-0.1,0c0,0,0-0.1,0-0.1l4.8-8.2
									c0,0,0.1-0.1,0.1-0.1c0,0,0.1,0,0.1,0L15.9,15.1C15.8,15,15.8,15,15.9,15.1C15.8,15,15.9,15.1,15.9,15.1z M9.2,20.1l6.4-5
									l-2-2.5L9.2,20.1z"/>
								<path fill="#FFAA22" d="M16.4,13.7C16.4,13.6,16.3,13.6,16.4,13.7c-0.1-0.1-0.2,0-0.2,0L15.6,15c0,0.1,0,0.1,0.1,0.1
									c0.1,0,0.1,0,0.1-0.1l0.5-1.4C16.4,13.7,16.4,13.7,16.4,13.7z"/>
								<path fill="#FFAA22" d="M13.7,12.3C13.7,12.2,13.6,12.2,13.7,12.3c-0.1,0-0.2,0-0.2,0.1l-0.2,4.6c0,0.1,0,0.1,0.1,0.1
									c0.1,0,0.1,0,0.1-0.1L13.7,12.3C13.7,12.3,13.7,12.3,13.7,12.3z"/>
								<path fill="#FFAA22" d="M18.2,18.7C18.2,18.7,18.2,18.6,18.2,18.7l-4.5-1.4c-0.1,0-0.1,0-0.1,0.1c0,0.1,0,0.1,0.1,0.1
									l4.4,1.3C18.2,18.9,18.2,18.8,18.2,18.7C18.2,18.7,18.2,18.7,18.2,18.7z"/>
							</g>
							
								<path clip-path="url(#SVGID_11_)" fill="none" stroke="#FFAA22" stroke-width="1.5" stroke-miterlimit="10" stroke-dasharray="4" d="
								M-3.1,138.7v3c0,4.3,3.4,7.7,7.7,7.7h27.8"/>
						</g>
					</g>
				</g>
			</g>
			<g>
				<g>
					<defs>
						<rect id="SVGID_265_" x="-208.5" y="78.9" width="3.1" height="1.9"/>
					</defs>
					<clipPath id="SVGID_13_">
						<use xlink:href="#SVGID_265_"  overflow="visible"/>
					</clipPath>
					<g clip-path="url(#SVGID_13_)">
						<g>
							<defs>
								<rect id="SVGID_267_" x="-325.6" y="-122.5" width="360.7" height="306.3"/>
							</defs>
							<clipPath id="SVGID_14_">
								<use xlink:href="#SVGID_267_"  overflow="visible"/>
							</clipPath>
							<rect x="-325.6" y="-122.5" clip-path="url(#SVGID_14_)" fill="#FF6D1F" width="360.7" height="306.3"/>
							
								<linearGradient id="SVGID_15_" gradientUnits="userSpaceOnUse" x1="-64885.5078" y1="143711.2188" x2="-64885.5078" y2="143732.6875" gradientTransform="matrix(1 0 0 1 64878.0547 -143678.1406)">
								<stop  offset="0" style="stop-color:#FF6D1F"/>
								<stop  offset="6.211489e-02" style="stop-color:#FF761F"/>
								<stop  offset="0.2553" style="stop-color:#FF8D21"/>
								<stop  offset="0.4636" style="stop-color:#FF9D21"/>
								<stop  offset="0.6958" style="stop-color:#FFA722"/>
								<stop  offset="1" style="stop-color:#FFAA22"/>
							</linearGradient>
							<path clip-path="url(#SVGID_14_)" fill="url(#SVGID_15_)" d="M3.5,41.6c0-0.3,0-0.5,0-0.8c0-4.2-3.4-7.7-7.7-7.7
								c-2.8,0-5.3,1.5-6.6,3.8c-0.7-0.5-1.6-0.7-2.5-0.7c-2.5,0-4.6,2-4.6,4.6c0,0.3,0,0.5,0.1,0.8c-3.4,0.2-6.1,3.1-6.1,6.5
								c0,3.6,2.9,6.5,6.5,6.5H2.4C6,54.5,9,51.6,9,48C9,44.8,6.6,42.1,3.5,41.6z"/>
							<g clip-path="url(#SVGID_14_)">
								
									<rect x="6.3" y="70.2" fill="none" stroke="#FFA779" stroke-width="0.75" stroke-miterlimit="10" width="14.3" height="3.9"/>
								<polyline fill="none" stroke="#FFA779" stroke-width="0.75" stroke-miterlimit="10" points="6.3,70.2 8.7,67.7 18.1,67.7 
									20.5,70.2 								"/>
								<path fill="none" stroke="#FFA779" stroke-width="0.75" stroke-miterlimit="10" d="M6.3,78v2.7c0,0.7,0.6,1.2,1.2,1.2h11.8
									c0.7,0,1.2-0.6,1.2-1.2V78"/>
								
									<circle fill="none" stroke="#FFCA22" stroke-width="0.75" stroke-linecap="round" stroke-miterlimit="10" cx="8.3" cy="72.1" r="1"/>
								<circle fill="none" stroke="#FF8A4C" stroke-width="0.75" stroke-miterlimit="10" cx="14.6" cy="72.1" r="0.5"/>
								<circle fill="none" stroke="#FF8A4C" stroke-width="0.75" stroke-miterlimit="10" cx="16.6" cy="72.1" r="0.5"/>
								<circle fill="none" stroke="#FF8A4C" stroke-width="0.75" stroke-miterlimit="10" cx="18.6" cy="72.1" r="0.5"/>
								<polyline fill="none" stroke="#FFA779" stroke-width="0.75" stroke-miterlimit="10" points="20.5,74.1 20.5,78 6.3,78 
									6.3,74.1 								"/>
								
									<circle fill="none" stroke="#FFCA22" stroke-width="0.75" stroke-linecap="round" stroke-miterlimit="10" cx="8.3" cy="76.1" r="1"/>
								<circle fill="none" stroke="#FF8A4C" stroke-width="0.75" stroke-miterlimit="10" cx="14.6" cy="76.1" r="0.5"/>
								<circle fill="none" stroke="#FF8A4C" stroke-width="0.75" stroke-miterlimit="10" cx="16.6" cy="76.1" r="0.5"/>
								<circle fill="none" stroke="#FF8A4C" stroke-width="0.75" stroke-miterlimit="10" cx="18.6" cy="76.1" r="0.5"/>
								<circle fill="none" stroke="#FF8A4C" stroke-width="0.75" stroke-miterlimit="10" cx="14.6" cy="80" r="0.5"/>
								<circle fill="none" stroke="#FF8A4C" stroke-width="0.75" stroke-miterlimit="10" cx="16.6" cy="80" r="0.5"/>
								<circle fill="none" stroke="#FF8A4C" stroke-width="0.75" stroke-miterlimit="10" cx="18.6" cy="80" r="0.5"/>
								
									<circle fill="none" stroke="#FFCA22" stroke-width="0.75" stroke-linecap="round" stroke-miterlimit="10" cx="8.3" cy="80" r="1"/>
							</g>
							<g opacity="0.75" clip-path="url(#SVGID_14_)">
								<g>
									
										<line fill="none" stroke="#FFA779" stroke-width="0.75" stroke-miterlimit="10" x1="-6.8" y1="125.7" x2="0.8" y2="125.7"/>
								</g>
							</g>
							
								<path clip-path="url(#SVGID_14_)" fill="none" stroke="#FFAA22" stroke-width="1.5" stroke-miterlimit="10" stroke-dasharray="4" d="
								M-27,9.9h20.1c4.9,0,8.9-4,8.9-8.9v-35.9"/>
							<g clip-path="url(#SVGID_14_)">
								<path fill="#FFAA22" d="M16.4,13.7C16.4,13.7,16.3,13.6,16.4,13.7c-0.1-0.1-0.1,0-0.2,0l-0.9,0.8c0,0,0,0.1,0,0.2
									c0,0,0.1,0,0.2,0l0.7-0.7l0,1.8c0,0.1,0,0.1,0.1,0.1c0.1,0,0.1,0,0.1-0.1L16.4,13.7C16.4,13.7,16.4,13.7,16.4,13.7z"/>
								<path fill="#FFAA22" d="M16.3,15.7l1.9,3c0,0,0,0.1,0,0.1c0,0,0,0.1-0.1,0.1l-9.4,1.8c-0.1,0-0.1,0-0.1-0.1c0,0,0-0.1,0-0.1
									l7.5-4.8C16.2,15.7,16.2,15.7,16.3,15.7C16.3,15.7,16.3,15.7,16.3,15.7C16.3,15.7,16.3,15.7,16.3,15.7z M17.9,18.7l-1.7-2.7
									l-6.9,4.4L17.9,18.7z"/>
								<path fill="#FFAA22" d="M15.9,15.1C15.9,15.1,15.8,15.2,15.9,15.1l-7,5.5c0,0-0.1,0-0.1,0c0,0,0-0.1,0-0.1l4.8-8.2
									c0,0,0.1-0.1,0.1-0.1c0,0,0.1,0,0.1,0L15.9,15.1C15.8,15,15.8,15,15.9,15.1C15.8,15,15.9,15.1,15.9,15.1z M9.2,20.1l6.4-5
									l-2-2.5L9.2,20.1z"/>
								<path fill="#FFAA22" d="M16.4,13.7C16.4,13.6,16.3,13.6,16.4,13.7c-0.1-0.1-0.2,0-0.2,0L15.6,15c0,0.1,0,0.1,0.1,0.1
									c0.1,0,0.1,0,0.1-0.1l0.5-1.4C16.4,13.7,16.4,13.7,16.4,13.7z"/>
								<path fill="#FFAA22" d="M13.7,12.3C13.7,12.2,13.6,12.2,13.7,12.3c-0.1,0-0.2,0-0.2,0.1l-0.2,4.6c0,0.1,0,0.1,0.1,0.1
									c0.1,0,0.1,0,0.1-0.1L13.7,12.3C13.7,12.3,13.7,12.3,13.7,12.3z"/>
								<path fill="#FFAA22" d="M18.2,18.7C18.2,18.7,18.2,18.6,18.2,18.7l-4.5-1.4c-0.1,0-0.1,0-0.1,0.1c0,0.1,0,0.1,0.1,0.1
									l4.4,1.3C18.2,18.9,18.2,18.8,18.2,18.7C18.2,18.7,18.2,18.7,18.2,18.7z"/>
							</g>
							
								<path clip-path="url(#SVGID_14_)" fill="none" stroke="#FFAA22" stroke-width="1.5" stroke-miterlimit="10" stroke-dasharray="4" d="
								M-3.1,138.7v3c0,4.3,3.4,7.7,7.7,7.7h27.8"/>
						</g>
					</g>
				</g>
			</g>
		</g>
		<g>
			<g>
				<g>
					<g>
						<g>
							<defs>
								<path id="SVGID_294_" d="M-160.5,78.1c2.7,0,4.4-2.3,4.9-5.1c0.3-1.7,0.3-2.8,0.4-4.5c0.1-1.1,2.2-0.8,2.2-1.2
									c0-1.1,0.2-1.2-0.8-1.4c-4.5-0.7-10.7-1.1-15.2-0.4c-1,0.2-1.8,1.1-1.8,2.1c0,2.1,0,3.2,0.4,5.3c0.5,2.8,2.2,5.1,4.9,5.1"/>
							</defs>
							<use xlink:href="#SVGID_294_"  overflow="visible" fill="#FF6D1F"/>
							<clipPath id="SVGID_16_">
								<use xlink:href="#SVGID_294_"  overflow="visible"/>
							</clipPath>
							<g clip-path="url(#SVGID_16_)">
								<g>
									<defs>
										<rect id="SVGID_296_" x="-325.6" y="-122.5" width="360.7" height="306.3"/>
									</defs>
									<use xlink:href="#SVGID_296_"  overflow="visible" fill="#FF6D1F"/>
									<clipPath id="SVGID_17_">
										<use xlink:href="#SVGID_296_"  overflow="visible"/>
									</clipPath>
									<rect x="-325.6" y="-122.5" clip-path="url(#SVGID_17_)" fill="#FF6D1F" width="360.7" height="306.3"/>
									<path clip-path="url(#SVGID_17_)" fill="#FF6D1F" d="M3.5,41.6c0-0.3,0-0.5,0-0.8c0-4.2-3.4-7.7-7.7-7.7
										c-2.8,0-5.3,1.5-6.6,3.8c-0.7-0.5-1.6-0.7-2.5-0.7c-2.5,0-4.6,2-4.6,4.6c0,0.3,0,0.5,0.1,0.8c-3.4,0.2-6.1,3.1-6.1,6.5
										c0,3.6,2.9,6.5,6.5,6.5H2.4C6,54.5,9,51.6,9,48C9,44.8,6.6,42.1,3.5,41.6z"/>
									<g clip-path="url(#SVGID_17_)">
										<rect x="6.3" y="70.2" fill="#FF6D1F" width="14.3" height="3.9"/>
										<polyline fill="#FF6D1F" points="6.3,70.2 8.7,67.7 18.1,67.7 20.5,70.2 										"/>
										<path fill="#FF6D1F" d="M6.3,78v2.7c0,0.7,0.6,1.2,1.2,1.2h11.8c0.7,0,1.2-0.6,1.2-1.2V78"/>
										<circle fill="#FF6D1F" cx="8.3" cy="72.1" r="1"/>
										<circle fill="#FF6D1F" cx="14.6" cy="72.1" r="0.5"/>
										<circle fill="#FF6D1F" cx="16.6" cy="72.1" r="0.5"/>
										<circle fill="#FF6D1F" cx="18.6" cy="72.1" r="0.5"/>
										<polyline fill="#FF6D1F" points="20.5,74.1 20.5,78 6.3,78 6.3,74.1 										"/>
										<circle fill="#FF6D1F" cx="8.3" cy="76.1" r="1"/>
										<circle fill="#FF6D1F" cx="14.6" cy="76.1" r="0.5"/>
										<circle fill="#FF6D1F" cx="16.6" cy="76.1" r="0.5"/>
										<circle fill="#FF6D1F" cx="18.6" cy="76.1" r="0.5"/>
										<circle fill="#FF6D1F" cx="14.6" cy="80" r="0.5"/>
										<circle fill="#FF6D1F" cx="16.6" cy="80" r="0.5"/>
										<circle fill="#FF6D1F" cx="18.6" cy="80" r="0.5"/>
										<circle fill="#FF6D1F" cx="8.3" cy="80" r="1"/>
									</g>
									<g opacity="0.75" clip-path="url(#SVGID_17_)">
										<g>
											<line fill="#FF6D1F" x1="-6.8" y1="125.7" x2="0.8" y2="125.7"/>
										</g>
									</g>
									<path clip-path="url(#SVGID_17_)" fill="#FF6D1F" d="M-27,9.9h20.1c4.9,0,8.9-4,8.9-8.9v-35.9"/>
									<g clip-path="url(#SVGID_17_)">
										<path fill="#FF6D1F" d="M16.4,13.7C16.4,13.7,16.3,13.6,16.4,13.7c-0.1-0.1-0.1,0-0.2,0l-0.9,0.8c0,0,0,0.1,0,0.2
											c0,0,0.1,0,0.2,0l0.7-0.7l0,1.8c0,0.1,0,0.1,0.1,0.1c0.1,0,0.1,0,0.1-0.1L16.4,13.7C16.4,13.7,16.4,13.7,16.4,13.7z"/>
										<path fill="#FF6D1F" d="M16.3,15.7l1.9,3c0,0,0,0.1,0,0.1c0,0,0,0.1-0.1,0.1l-9.4,1.8c-0.1,0-0.1,0-0.1-0.1
											c0,0,0-0.1,0-0.1l7.5-4.8C16.2,15.7,16.2,15.7,16.3,15.7C16.3,15.7,16.3,15.7,16.3,15.7C16.3,15.7,16.3,15.7,16.3,15.7z
											 M17.9,18.7l-1.7-2.7l-6.9,4.4L17.9,18.7z"/>
										<path fill="#FF6D1F" d="M15.9,15.1C15.9,15.1,15.8,15.2,15.9,15.1l-7,5.5c0,0-0.1,0-0.1,0c0,0,0-0.1,0-0.1l4.8-8.2
											c0,0,0.1-0.1,0.1-0.1c0,0,0.1,0,0.1,0L15.9,15.1C15.8,15,15.8,15,15.9,15.1C15.8,15,15.9,15.1,15.9,15.1z M9.2,20.1l6.4-5
											l-2-2.5L9.2,20.1z"/>
										<path fill="#FF6D1F" d="M16.4,13.7C16.4,13.6,16.3,13.6,16.4,13.7c-0.1-0.1-0.2,0-0.2,0L15.6,15c0,0.1,0,0.1,0.1,0.1
											c0.1,0,0.1,0,0.1-0.1l0.5-1.4C16.4,13.7,16.4,13.7,16.4,13.7z"/>
										<path fill="#FF6D1F" d="M13.7,12.3C13.7,12.2,13.6,12.2,13.7,12.3c-0.1,0-0.2,0-0.2,0.1l-0.2,4.6c0,0.1,0,0.1,0.1,0.1
											c0.1,0,0.1,0,0.1-0.1L13.7,12.3C13.7,12.3,13.7,12.3,13.7,12.3z"/>
										<path fill="#FF6D1F" d="M18.2,18.7C18.2,18.7,18.2,18.6,18.2,18.7l-4.5-1.4c-0.1,0-0.1,0-0.1,0.1c0,0.1,0,0.1,0.1,0.1
											l4.4,1.3C18.2,18.9,18.2,18.8,18.2,18.7C18.2,18.7,18.2,18.7,18.2,18.7z"/>
									</g>
									<path clip-path="url(#SVGID_17_)" fill="#FF6D1F" d="M-3.1,138.7v3c0,4.3,3.4,7.7,7.7,7.7h27.8"/>
								</g>
							</g>
						</g>
					</g>
				</g>
			</g>
			<g>
				<g>
					<g>
						<defs>
							<path id="SVGID_300_" d="M-171,68.9c-0.9-0.7-1.8-0.7-2.6,0c-0.2-0.5-1.2-2.7-1.4-3.2c1.8,0.6,3.1,1.1,5.2,0.1
								C-170,66.2-170.8,68.4-171,68.9z"/>
						</defs>
						<use xlink:href="#SVGID_300_"  overflow="visible" fill="#FF6D1F"/>
						<clipPath id="SVGID_18_">
							<use xlink:href="#SVGID_300_"  overflow="visible"/>
						</clipPath>
						<g clip-path="url(#SVGID_18_)">
							<g>
								<defs>
									<rect id="SVGID_302_" x="-325.6" y="-122.5" width="360.7" height="306.3"/>
								</defs>
								<use xlink:href="#SVGID_302_"  overflow="visible" fill="#FF6D1F"/>
								<clipPath id="SVGID_19_">
									<use xlink:href="#SVGID_302_"  overflow="visible"/>
								</clipPath>
								<rect x="-325.6" y="-122.5" clip-path="url(#SVGID_19_)" fill="#FF6D1F" width="360.7" height="306.3"/>
								<path clip-path="url(#SVGID_19_)" fill="#FF6D1F" d="M3.5,41.6c0-0.3,0-0.5,0-0.8c0-4.2-3.4-7.7-7.7-7.7
									c-2.8,0-5.3,1.5-6.6,3.8c-0.7-0.5-1.6-0.7-2.5-0.7c-2.5,0-4.6,2-4.6,4.6c0,0.3,0,0.5,0.1,0.8c-3.4,0.2-6.1,3.1-6.1,6.5
									c0,3.6,2.9,6.5,6.5,6.5H2.4C6,54.5,9,51.6,9,48C9,44.8,6.6,42.1,3.5,41.6z"/>
								<g clip-path="url(#SVGID_19_)">
									<rect x="6.3" y="70.2" fill="#FF6D1F" width="14.3" height="3.9"/>
									<polyline fill="#FF6D1F" points="6.3,70.2 8.7,67.7 18.1,67.7 20.5,70.2 									"/>
									<path fill="#FF6D1F" d="M6.3,78v2.7c0,0.7,0.6,1.2,1.2,1.2h11.8c0.7,0,1.2-0.6,1.2-1.2V78"/>
									<circle fill="#FF6D1F" cx="8.3" cy="72.1" r="1"/>
									<circle fill="#FF6D1F" cx="14.6" cy="72.1" r="0.5"/>
									<circle fill="#FF6D1F" cx="16.6" cy="72.1" r="0.5"/>
									<circle fill="#FF6D1F" cx="18.6" cy="72.1" r="0.5"/>
									<polyline fill="#FF6D1F" points="20.5,74.1 20.5,78 6.3,78 6.3,74.1 									"/>
									<circle fill="#FF6D1F" cx="8.3" cy="76.1" r="1"/>
									<circle fill="#FF6D1F" cx="14.6" cy="76.1" r="0.5"/>
									<circle fill="#FF6D1F" cx="16.6" cy="76.1" r="0.5"/>
									<circle fill="#FF6D1F" cx="18.6" cy="76.1" r="0.5"/>
									<circle fill="#FF6D1F" cx="14.6" cy="80" r="0.5"/>
									<circle fill="#FF6D1F" cx="16.6" cy="80" r="0.5"/>
									<circle fill="#FF6D1F" cx="18.6" cy="80" r="0.5"/>
									<circle fill="#FF6D1F" cx="8.3" cy="80" r="1"/>
								</g>
								<g opacity="0.75" clip-path="url(#SVGID_19_)">
									<g>
										<line fill="#FF6D1F" x1="-6.8" y1="125.7" x2="0.8" y2="125.7"/>
									</g>
								</g>
								<path clip-path="url(#SVGID_19_)" fill="#FF6D1F" d="M-27,9.9h20.1c4.9,0,8.9-4,8.9-8.9v-35.9"/>
								<g clip-path="url(#SVGID_19_)">
									<path fill="#FF6D1F" d="M16.4,13.7C16.4,13.7,16.3,13.6,16.4,13.7c-0.1-0.1-0.1,0-0.2,0l-0.9,0.8c0,0,0,0.1,0,0.2
										c0,0,0.1,0,0.2,0l0.7-0.7l0,1.8c0,0.1,0,0.1,0.1,0.1c0.1,0,0.1,0,0.1-0.1L16.4,13.7C16.4,13.7,16.4,13.7,16.4,13.7z"/>
									<path fill="#FF6D1F" d="M16.3,15.7l1.9,3c0,0,0,0.1,0,0.1c0,0,0,0.1-0.1,0.1l-9.4,1.8c-0.1,0-0.1,0-0.1-0.1
										c0,0,0-0.1,0-0.1l7.5-4.8C16.2,15.7,16.2,15.7,16.3,15.7C16.3,15.7,16.3,15.7,16.3,15.7C16.3,15.7,16.3,15.7,16.3,15.7z
										 M17.9,18.7l-1.7-2.7l-6.9,4.4L17.9,18.7z"/>
									<path fill="#FF6D1F" d="M15.9,15.1C15.9,15.1,15.8,15.2,15.9,15.1l-7,5.5c0,0-0.1,0-0.1,0c0,0,0-0.1,0-0.1l4.8-8.2
										c0,0,0.1-0.1,0.1-0.1c0,0,0.1,0,0.1,0L15.9,15.1C15.8,15,15.8,15,15.9,15.1C15.8,15,15.9,15.1,15.9,15.1z M9.2,20.1l6.4-5
										l-2-2.5L9.2,20.1z"/>
									<path fill="#FF6D1F" d="M16.4,13.7C16.4,13.6,16.3,13.6,16.4,13.7c-0.1-0.1-0.2,0-0.2,0L15.6,15c0,0.1,0,0.1,0.1,0.1
										c0.1,0,0.1,0,0.1-0.1l0.5-1.4C16.4,13.7,16.4,13.7,16.4,13.7z"/>
									<path fill="#FF6D1F" d="M13.7,12.3C13.7,12.2,13.6,12.2,13.7,12.3c-0.1,0-0.2,0-0.2,0.1l-0.2,4.6c0,0.1,0,0.1,0.1,0.1
										c0.1,0,0.1,0,0.1-0.1L13.7,12.3C13.7,12.3,13.7,12.3,13.7,12.3z"/>
									<path fill="#FF6D1F" d="M18.2,18.7C18.2,18.7,18.2,18.6,18.2,18.7l-4.5-1.4c-0.1,0-0.1,0-0.1,0.1c0,0.1,0,0.1,0.1,0.1
										l4.4,1.3C18.2,18.9,18.2,18.8,18.2,18.7C18.2,18.7,18.2,18.7,18.2,18.7z"/>
								</g>
								<path clip-path="url(#SVGID_19_)" fill="#FF6D1F" d="M-3.1,138.7v3c0,4.3,3.4,7.7,7.7,7.7h27.8"/>
							</g>
						</g>
					</g>
				</g>
			</g>
		</g>
	</g>
	<g>
		<g>
			<g>
				<polyline fill="#FFCA22" points="69.2,151.7 69.2,170.4 65.6,168.5 65.6,151.7 				"/>
				<path fill="#FFFFFF" d="M69.2,170.6C69.1,170.6,69.1,170.6,69.2,170.6l-3.6-1.9c-0.1,0-0.1-0.1-0.1-0.2v-16.8
					c0-0.1,0.1-0.2,0.2-0.2c0.1,0,0.2,0.1,0.2,0.2v16.7l3.2,1.7v-18.4c0-0.1,0.1-0.2,0.2-0.2s0.2,0.1,0.2,0.2v18.7
					c0,0.1,0,0.1-0.1,0.2C69.2,170.6,69.2,170.6,69.2,170.6z"/>
			</g>
			<g>
				<polyline fill="#FFCA22" points="65.6,135.2 65.6,122.4 69.2,124.3 69.2,144.9 				"/>
				<path fill="#FFFFFF" d="M69.2,145.1c-0.1,0-0.2-0.1-0.2-0.2v-20.5l-3.2-1.7v12.5c0,0.1-0.1,0.2-0.2,0.2c-0.1,0-0.2-0.1-0.2-0.2
					v-12.9c0-0.1,0-0.1,0.1-0.2c0.1,0,0.1,0,0.2,0l3.6,1.9c0.1,0,0.1,0.1,0.1,0.2v20.6C69.4,145,69.3,145.1,69.2,145.1z"/>
			</g>
			<g>
				<line fill="#FFCA22" x1="72.7" y1="144.9" x2="72.7" y2="142.1"/>
				<path fill="#FFFFFF" d="M72.7,145.1c-0.1,0-0.2-0.1-0.2-0.2v-2.8c0-0.1,0.1-0.2,0.2-0.2c0.1,0,0.2,0.1,0.2,0.2v2.8
					C72.9,145,72.8,145.1,72.7,145.1z"/>
			</g>
			<g>
				<polyline fill="#FFCA22" points="69.2,151.7 69.2,170.4 72.7,168.5 72.7,151.7 				"/>
				<path fill="#FFFFFF" d="M69.2,170.6c0,0-0.1,0-0.1,0c-0.1,0-0.1-0.1-0.1-0.2v-18.7c0-0.1,0.1-0.2,0.2-0.2s0.2,0.1,0.2,0.2v18.4
					l3.2-1.7v-16.7c0-0.1,0.1-0.2,0.2-0.2c0.1,0,0.2,0.1,0.2,0.2v16.8c0,0.1,0,0.1-0.1,0.2L69.2,170.6
					C69.2,170.6,69.2,170.6,69.2,170.6z"/>
			</g>
			<g>
				<polyline fill="#FFCA22" points="72.7,135.2 72.7,122.4 69.2,124.3 69.2,144.9 				"/>
				<path fill="#FFFFFF" d="M69.2,145.1c-0.1,0-0.2-0.1-0.2-0.2v-20.6c0-0.1,0-0.1,0.1-0.2l3.6-1.9c0.1,0,0.1,0,0.2,0
					c0.1,0,0.1,0.1,0.1,0.2v12.9c0,0.1-0.1,0.2-0.2,0.2c-0.1,0-0.2-0.1-0.2-0.2v-12.5l-3.2,1.7v20.5C69.4,145,69.3,145.1,69.2,145.1
					z"/>
			</g>
			<g>
				<g>
					<polygon fill="#FFCA22" points="52.4,124.6 44,174.7 40.9,172.2 49.2,122.1 					"/>
					<path fill="#FFFFFF" d="M44,174.9c0,0-0.1,0-0.1,0l-3.2-2.5c-0.1,0-0.1-0.1-0.1-0.2l8.4-50.1c0-0.1,0.1-0.1,0.1-0.2
						c0.1,0,0.1,0,0.2,0l3.2,2.5c0.1,0,0.1,0.1,0.1,0.2l-8.4,50.1C44.2,174.8,44.2,174.8,44,174.9C44.1,174.9,44.1,174.9,44,174.9z
						 M41.1,172.1l2.8,2.2l8.3-49.6l-2.8-2.2L41.1,172.1z"/>
				</g>
				<g>
					<polyline fill="#FFCA22" points="52.6,144.9 56.2,123.3 52.4,124.6 44,174.7 47.9,173.4 51.5,151.7 					"/>
					<path fill="#FFFFFF" d="M44,174.9c0,0-0.1,0-0.1,0c-0.1,0-0.1-0.1-0.1-0.2l8.4-50.1c0-0.1,0.1-0.1,0.1-0.2l3.8-1.3
						c0.1,0,0.1,0,0.2,0c0.1,0,0.1,0.1,0.1,0.2l-3.6,21.5c0,0.1-0.1,0.2-0.2,0.2c-0.1,0-0.2-0.1-0.2-0.2l3.5-21.2l-3.4,1.1
						l-8.3,49.6l3.4-1.1l3.6-21.6c0-0.1,0.1-0.2,0.2-0.2c0.1,0,0.2,0.1,0.2,0.2l-3.6,21.7c0,0.1-0.1,0.1-0.1,0.2L44,174.9
						C44.1,174.9,44.1,174.9,44,174.9z"/>
				</g>
				<g>
					<polygon fill="#FFCA22" points="85.9,124.6 94.3,174.7 97.4,172.2 89.1,122.1 					"/>
					<path fill="#FFFFFF" d="M94.3,174.9C94.2,174.9,94.2,174.9,94.3,174.9c-0.1,0-0.2-0.1-0.2-0.2l-8.4-50.1c0-0.1,0-0.1,0.1-0.2
						l3.2-2.5c0.1,0,0.1-0.1,0.2,0c0.1,0,0.1,0.1,0.1,0.2l8.4,50.1c0,0.1,0,0.1-0.1,0.2l-3.2,2.5C94.4,174.9,94.3,174.9,94.3,174.9z
						 M86.1,124.7l8.3,49.6l2.8-2.2l-8.3-49.6L86.1,124.7z"/>
				</g>
				<g>
					<polyline fill="#FFCA22" points="85.6,144.6 82.1,123.3 85.9,124.6 94.3,174.7 90.4,173.4 86.8,151.7 					"/>
					<path fill="#FFFFFF" d="M94.3,174.9C94.2,174.9,94.2,174.9,94.3,174.9l-3.9-1.3c-0.1,0-0.1-0.1-0.1-0.2l-3.6-21.7
						c0-0.1,0.1-0.2,0.2-0.2c0.1,0,0.2,0.1,0.2,0.2l3.6,21.6l3.4,1.1l-8.3-49.6l-3.4-1.1l3.5,20.9c0,0.1-0.1,0.2-0.2,0.2
						c-0.1,0-0.2-0.1-0.2-0.2l-3.5-21.2c0-0.1,0-0.1,0.1-0.2c0.1,0,0.1-0.1,0.2,0l3.8,1.3c0.1,0,0.1,0.1,0.1,0.2l8.4,50.1
						c0,0.1,0,0.1-0.1,0.2C94.4,174.9,94.3,174.9,94.3,174.9z"/>
				</g>
			</g>
			<g>
				<g>
					<polyline fill="#FFCA22" points="53.2,144.8 69.2,136.1 69.1,140.1 60.4,144.9 					"/>
					<path fill="#FFFFFF" d="M60.4,145.1c-0.1,0-0.1,0-0.2-0.1c-0.1-0.1,0-0.2,0.1-0.3l8.6-4.7l0-3.6L53.3,145
						c-0.1,0.1-0.2,0-0.3-0.1c-0.1-0.1,0-0.2,0.1-0.3l16-8.7c0.1,0,0.1,0,0.2,0c0.1,0,0.1,0.1,0.1,0.2l0,4c0,0.1,0,0.1-0.1,0.2
						L60.4,145.1C60.5,145.1,60.5,145.1,60.4,145.1z"/>
				</g>
				<g>
					<polyline fill="#FFCA22" points="69.2,136.1 65.6,135.2 53.2,141.6 					"/>
					<path fill="#FFFFFF" d="M53.2,141.8c-0.1,0-0.1,0-0.2-0.1c-0.1-0.1,0-0.2,0.1-0.3l12.4-6.4c0,0,0.1,0,0.1,0l3.6,0.9
						c0.1,0,0.2,0.1,0.1,0.2c0,0.1-0.1,0.2-0.2,0.1l-3.5-0.9L53.2,141.8C53.2,141.8,53.2,141.8,53.2,141.8z"/>
				</g>
			</g>
			<g>
				<line fill="#FFCA22" x1="48.2" y1="151.7" x2="90.2" y2="151.7"/>
				<path fill="#FFFFFF" d="M90.2,151.9h-42c-0.1,0-0.2-0.1-0.2-0.2c0-0.1,0.1-0.2,0.2-0.2h42c0.1,0,0.2,0.1,0.2,0.2
					C90.4,151.8,90.3,151.9,90.2,151.9z"/>
			</g>
			<g>
				<line fill="#FFCA22" x1="65.6" y1="142.1" x2="65.6" y2="144.9"/>
				<path fill="#FFFFFF" d="M65.6,145.1c-0.1,0-0.2-0.1-0.2-0.2v-2.8c0-0.1,0.1-0.2,0.2-0.2c0.1,0,0.2,0.1,0.2,0.2v2.8
					C65.8,145,65.7,145.1,65.6,145.1z"/>
			</g>
			<g>
				<g>
					<polyline fill="#FFCA22" points="85.1,144.8 69.2,136.1 69.2,140.1 77.9,144.9 					"/>
					<path fill="#FFFFFF" d="M77.9,145.1C77.8,145.1,77.8,145.1,77.9,145.1l-8.8-4.8c-0.1,0-0.1-0.1-0.1-0.2l0-4
						c0-0.1,0-0.1,0.1-0.2c0.1,0,0.1,0,0.2,0l16,8.7c0.1,0.1,0.1,0.2,0.1,0.3c-0.1,0.1-0.2,0.1-0.3,0.1l-15.7-8.5l0,3.6l8.6,4.7
						c0.1,0.1,0.1,0.2,0.1,0.3C78,145.1,77.9,145.1,77.9,145.1z"/>
				</g>
				<g>
					<polyline fill="#FFCA22" points="69.2,136.1 72.7,135.2 85.1,141.6 					"/>
					<path fill="#FFFFFF" d="M85.1,141.8C85.1,141.8,85.1,141.8,85.1,141.8l-12.4-6.4l-3.5,0.9c-0.1,0-0.2,0-0.2-0.1
						c0-0.1,0-0.2,0.1-0.2l3.6-0.9c0,0,0.1,0,0.1,0l12.4,6.4c0.1,0.1,0.1,0.2,0.1,0.3C85.3,141.8,85.2,141.8,85.1,141.8z"/>
				</g>
			</g>
			<g>
				<polygon fill="#FFCA22" points="89.7,147.3 48.7,147.3 52.6,144.9 85.7,144.9 				"/>
				<path fill="#FFFFFF" d="M89.7,147.5C89.7,147.5,89.7,147.5,89.7,147.5h-41c-0.1,0-0.2-0.1-0.2-0.1c0-0.1,0-0.2,0.1-0.2l3.9-2.4
					c0,0,0.1,0,0.1,0h33c0,0,0.1,0,0.1,0l4,2.4c0.1,0,0.1,0.1,0.1,0.2C89.9,147.4,89.8,147.5,89.7,147.5z M49.4,147.1h39.6l-3.3-2
					H52.7L49.4,147.1z"/>
			</g>
		</g>
		<g>
			<path fill="#FFFFFF" d="M124,125.9H14.3c-3.1,0-5.6-2.5-5.6-5.6V10.6h121v109.7C129.7,123.4,127.2,125.9,124,125.9z"/>
		</g>
		<g>
			<g>
				<rect x="18.1" y="18.6" fill="#FFEAA7" width="0.5" height="100.9"/>
			</g>
			<g>
				<rect x="27.4" y="18.6" fill="#FFEAA7" width="0.5" height="100.9"/>
			</g>
			<g>
				<rect x="36.6" y="18.6" fill="#FFEAA7" width="0.5" height="100.9"/>
			</g>
			<g>
				<rect x="45.8" y="18.6" fill="#FFEAA7" width="0.5" height="100.9"/>
			</g>
			<g>
				<rect x="55" y="18.6" fill="#FFEAA7" width="0.5" height="100.9"/>
			</g>
			<g>
				<rect x="64.3" y="18.6" fill="#FFEAA7" width="0.5" height="100.9"/>
			</g>
			<g>
				<rect x="73.5" y="18.6" fill="#FFEAA7" width="0.5" height="100.9"/>
			</g>
			<g>
				<rect x="82.7" y="18.6" fill="#FFEAA7" width="0.5" height="100.9"/>
			</g>
			<g>
				<rect x="91.9" y="18.6" fill="#FFEAA7" width="0.5" height="100.9"/>
			</g>
			<g>
				<rect x="101.2" y="18.6" fill="#FFEAA7" width="0.5" height="100.9"/>
			</g>
			<g>
				<rect x="110.4" y="18.6" fill="#FFEAA7" width="0.5" height="100.9"/>
			</g>
			<g>
				<rect x="119.6" y="18.6" fill="#FFEAA7" width="0.5" height="100.9"/>
			</g>
		</g>
		<g>
			<g>
				<rect x="12.9" y="41.9" fill="#FFEAA7" width="112.4" height="0.5"/>
			</g>
			<g>
				<rect x="12.9" y="51.2" fill="#FFEAA7" width="112.4" height="0.5"/>
			</g>
			<g>
				<rect x="12.9" y="60.4" fill="#FFEAA7" width="112.4" height="0.5"/>
			</g>
			<g>
				<rect x="12.9" y="69.6" fill="#FFEAA7" width="112.4" height="0.5"/>
			</g>
			<g>
				<rect x="12.9" y="78.8" fill="#FFEAA7" width="112.4" height="0.5"/>
			</g>
			<g>
				<rect x="12.9" y="88.1" fill="#FFEAA7" width="112.4" height="0.5"/>
			</g>
			<g>
				<rect x="12.9" y="97.3" fill="#FFEAA7" width="112.4" height="0.5"/>
			</g>
			<g>
				<rect x="12.9" y="106.5" fill="#FFEAA7" width="112.4" height="0.5"/>
			</g>
			<g>
				<rect x="12.9" y="115.7" fill="#FFEAA7" width="112.4" height="0.5"/>
			</g>
			<g>
				<rect x="12.9" y="23.2" fill="#FFEAA7" width="112.4" height="0.5"/>
			</g>
			<g>
				<rect x="12.9" y="32.5" fill="#FFEAA7" width="112.4" height="0.5"/>
			</g>
		</g>
		<g>
			<rect x="6" y="8.9" fill="#0F3B7A" width="126.4" height="2.5"/>
		</g>
		<g opacity="0.15">
			<rect x="8.6" y="11.4" fill="#231F20" width="121" height="0.9"/>
		</g>
		<g>
			<linearGradient id="SVGID_20_" gradientUnits="userSpaceOnUse" x1="17.7108" y1="79.6214" x2="111.2355" y2="79.6214">
				<stop  offset="0" style="stop-color:#FF6D1F"/>
				<stop  offset="0.4867" style="stop-color:#FF8D21"/>
				<stop  offset="1" style="stop-color:#FFAA22"/>
			</linearGradient>
			<polygon fill="url(#SVGID_20_)" points="18.9,112.4 17.7,111.3 36.5,91.4 54.9,98.4 73.3,68.8 91.8,76.6 109.9,46.9 111.2,47.7 
				92.4,78.6 74,70.8 55.5,100.3 37,93.3 			"/>
		</g>
		<g>
			<path fill="#FF6D1F" d="M44.6,73.9c0,4.4-7.9,13.5-7.9,13.5s-7.9-9.1-7.9-13.5s3.5-7.9,7.9-7.9S44.6,69.5,44.6,73.9z"/>
		</g>
		<g>
			<g>
				<path fill="#FFFFFF" d="M36.7,76.9c-1.6,0-3-1.3-3-3c0-1.6,1.3-3,3-3c1.6,0,3,1.3,3,3C39.7,75.6,38.4,76.9,36.7,76.9z M36.7,72
					c-1.1,0-1.9,0.9-1.9,1.9s0.9,1.9,1.9,1.9s1.9-0.9,1.9-1.9S37.8,72,36.7,72z"/>
			</g>
			<g>
				<path fill="#FFFFFF" d="M36.7,80.4c-0.3,0-0.5-0.2-0.5-0.5v-3.4c0-0.3,0.2-0.5,0.5-0.5c0.3,0,0.5,0.2,0.5,0.5v3.4
					C37.3,80.1,37,80.4,36.7,80.4z"/>
			</g>
			<g>
				<path fill="#FFFFFF" d="M38.5,78.7H35c-0.3,0-0.5-0.2-0.5-0.5c0-0.3,0.2-0.5,0.5-0.5h3.5c0.3,0,0.5,0.2,0.5,0.5
					C39,78.5,38.8,78.7,38.5,78.7z"/>
			</g>
		</g>
		<g>
			<circle fill="#FFFFFF" cx="36.7" cy="92.9" r="1.5"/>
			<path fill="#FF6D1F" d="M36.7,95c-1.1,0-2.1-0.9-2.1-2.1c0-1.1,0.9-2.1,2.1-2.1s2.1,0.9,2.1,2.1C38.8,94,37.9,95,36.7,95z
				 M36.7,91.9c-0.6,0-1,0.5-1,1c0,0.6,0.5,1,1,1c0.6,0,1-0.5,1-1C37.8,92.3,37.3,91.9,36.7,91.9z"/>
		</g>
		<g>
			<path fill="#FF8A4C" d="M81.5,50.4c0,4.4-7.9,13.5-7.9,13.5s-7.9-9.1-7.9-13.5s3.5-7.9,7.9-7.9S81.5,46.1,81.5,50.4z"/>
		</g>
		<g>
			<g>
				<path fill="#FFFFFF" d="M73.6,53.5c-1.6,0-3-1.3-3-3c0-1.6,1.3-3,3-3s3,1.3,3,3C76.6,52.2,75.3,53.5,73.6,53.5z M73.6,48.6
					c-1.1,0-1.9,0.9-1.9,1.9c0,1.1,0.9,1.9,1.9,1.9s1.9-0.9,1.9-1.9C75.6,49.5,74.7,48.6,73.6,48.6z"/>
			</g>
			<g>
				<path fill="#FFFFFF" d="M73.6,56.9c-0.3,0-0.5-0.2-0.5-0.5V53c0-0.3,0.2-0.5,0.5-0.5c0.3,0,0.5,0.2,0.5,0.5v3.4
					C74.2,56.7,73.9,56.9,73.6,56.9z"/>
			</g>
			<g>
				<path fill="#FFFFFF" d="M75.4,55.3h-3.5c-0.3,0-0.5-0.2-0.5-0.5c0-0.3,0.2-0.5,0.5-0.5h3.5c0.3,0,0.5,0.2,0.5,0.5
					C75.9,55,75.7,55.3,75.4,55.3z"/>
			</g>
		</g>
		<g>
			<circle fill="#FFFFFF" cx="73.6" cy="69.8" r="1.5"/>
			<path fill="#FF8A4C" d="M73.6,71.9c-1.1,0-2.1-0.9-2.1-2.1c0-1.1,0.9-2.1,2.1-2.1c1.1,0,2.1,0.9,2.1,2.1
				C75.7,71,74.8,71.9,73.6,71.9z M73.6,68.8c-0.6,0-1,0.5-1,1c0,0.6,0.5,1,1,1c0.6,0,1-0.5,1-1C74.7,69.3,74.2,68.8,73.6,68.8z"/>
		</g>
		<g>
			<circle fill="#FFFFFF" cx="110.5" cy="47.3" r="1.5"/>
			<path fill="#FFAA22" d="M110.5,49.4c-1.1,0-2.1-0.9-2.1-2.1s0.9-2.1,2.1-2.1c1.1,0,2.1,0.9,2.1,2.1S111.7,49.4,110.5,49.4z
				 M110.5,46.3c-0.6,0-1,0.5-1,1c0,0.6,0.5,1,1,1s1-0.5,1-1C111.6,46.7,111.1,46.3,110.5,46.3z"/>
		</g>
		<g>
			<path fill="#FFAA22" d="M118.4,28.4c0,4.4-7.9,13.5-7.9,13.5s-7.9-9.1-7.9-13.5s3.5-7.9,7.9-7.9S118.4,24,118.4,28.4z"/>
		</g>
		<g>
			<g>
				<path fill="#FFFFFF" d="M110.5,31.4c-1.6,0-3-1.3-3-3c0-1.6,1.3-3,3-3c1.6,0,3,1.3,3,3C113.5,30.1,112.2,31.4,110.5,31.4z
					 M110.5,26.5c-1.1,0-1.9,0.9-1.9,1.9c0,1.1,0.9,1.9,1.9,1.9s1.9-0.9,1.9-1.9C112.5,27.4,111.6,26.5,110.5,26.5z"/>
			</g>
			<g>
				<path fill="#FFFFFF" d="M110.5,34.9c-0.3,0-0.5-0.2-0.5-0.5v-3.4c0-0.3,0.2-0.5,0.5-0.5s0.5,0.2,0.5,0.5v3.4
					C111.1,34.6,110.8,34.9,110.5,34.9z"/>
			</g>
			<g>
				<path fill="#FFFFFF" d="M112.3,33.2h-3.5c-0.3,0-0.5-0.2-0.5-0.5c0-0.3,0.2-0.5,0.5-0.5h3.5c0.3,0,0.5,0.2,0.5,0.5
					C112.8,33,112.6,33.2,112.3,33.2z"/>
			</g>
		</g>
	</g>
</g>
<g id="grid">
</g>
</svg>
