<?xml version="1.0" encoding="utf-8"?>
<!-- Generator: Adobe Illustrator 18.1.1, SVG Export Plug-In . SVG Version: 6.00 Build 0)  -->
<svg version="1.1" xmlns="http://www.w3.org/2000/svg" xmlns:xlink="http://www.w3.org/1999/xlink" x="0px" y="0px"
	 viewBox="0 0 129.4 196.7" enable-background="new 0 0 129.4 196.7" xml:space="preserve">
<g id="Layer_1">
	<g>
		<g>
			<path fill="#0F3B7A" d="M103.2,189.3H28.5c-1.3,0-2.4-1.1-2.4-2.4v-50.1c0-1.3,1.1-2.4,2.4-2.4h74.8c1.3,0,2.4,1.1,2.4,2.4v50.1
				C105.6,188.2,104.6,189.3,103.2,189.3z"/>
		</g>
		<g opacity="0.5">
			<path fill="#231F20" d="M100.6,187.4H31.1c-1.2,0-2.3-1-2.3-2.3v-47c0-1.2,1-2.3,2.3-2.3h69.6c1.2,0,2.3,1,2.3,2.3v47
				C102.9,186.4,101.9,187.4,100.6,187.4z"/>
		</g>
		<g>
			<path fill="#FFFFFF" d="M65.2,187l-34.6-4c-1.1-0.1-1.9-1.1-1.9-2.2v-46.5c0-1.3,1.1-2.3,2.4-2.2l34.1,3.9V187z"/>
		</g>
		<g>
			<path fill="#ECEFF4" d="M66.3,187l34.6-4c1.1-0.1,1.9-1.1,1.9-2.2v-46.5c0-1.3-1.1-2.3-2.4-2.2l-34.1,3.9"/>
		</g>
		<g>
			<polygon fill="#E2E8EF" points="72.9,145.9 96.2,143.1 96.2,141 72.9,143.8 			"/>
		</g>
		<g>
			<path fill="#E2E8EF" d="M66.3,187l34.6-4c1.1-0.1,1.9-1.1,1.9-2.2v-31.5L84.5,134l-18.2,2.1"/>
		</g>
		<g>
			<polygon fill="#D9E0E9" points="72.9,174.4 96.2,171.6 96.2,169.5 72.9,172.3 			"/>
		</g>
		<g>
			<polygon fill="#D9E0E9" points="72.9,163.2 96.2,160.1 96.2,158 72.9,161.1 			"/>
		</g>
		<g>
			<polygon fill="#D9E0E9" points="72.9,151.6 96.2,148.8 96.2,146.7 72.9,149.5 			"/>
		</g>
		<g>
			<polygon fill="#D9E0E9" points="72.9,157.2 96.2,154.5 96.2,152.4 72.9,155.1 			"/>
		</g>
		<g>
			<polygon fill="#D9E0E9" points="93.3,141.4 72.9,143.8 72.9,145.9 95.5,143.2 			"/>
		</g>
		<g>
			<polygon fill="#D9E0E9" points="72.9,168.7 96.2,165.9 96.2,163.8 72.9,166.6 			"/>
		</g>
		<g>
			<polygon fill="#D9E0E9" points="72.9,180.1 96.2,177.3 96.2,175.2 72.9,178 			"/>
		</g>
		<g>
			<path fill="#FFFFFF" d="M66.3,187l17.1-9.5c0.7-0.4,1.1-1.1,1.1-1.9v-45.9c0-1.6-1.8-2.7-3.2-1.9l-15,8.3"/>
		</g>
		<g>
			<path fill="#0F3B7A" d="M67.7,190.8H64c-0.6,0-1.2-0.5-1.2-1.2v-1.6h6v1.6C68.8,190.3,68.3,190.8,67.7,190.8z"/>
		</g>
		<linearGradient id="SVGID_2_" gradientUnits="userSpaceOnUse" x1="66.0136" y1="129.1605" x2="66.0136" y2="0.4397">
			<stop  offset="7.692921e-03" style="stop-color:#FF6D1F"/>
			<stop  offset="0.8486" style="stop-color:#FF6D1F;stop-opacity:0"/>
		</linearGradient>
		<path fill="url(#SVGID_2_)" d="M66,129.2c0,0,53.8-79.9,53.8-101.3S107.4,0.4,92.3,0.4H66H39.7c-15.1,0-27.5,6.1-27.5,27.5
			S66,129.2,66,129.2"/>
		<g>
			<g>
				<path fill="#FF6D1F" d="M54.7,60.8c-0.2,0-0.4-0.1-0.5-0.2l-8.3-8.3l8.3-8.3c0.3-0.3,0.7-0.3,1,0c0.3,0.3,0.3,0.7,0,1l-7.3,7.3
					l7.3,7.3c0.3,0.3,0.3,0.7,0,1C55.1,60.8,54.9,60.8,54.7,60.8z"/>
			</g>
			<g>
				<path fill="#FF6D1F" d="M77.3,60.8c-0.2,0-0.4-0.1-0.5-0.2c-0.3-0.3-0.3-0.7,0-1l7.3-7.3L76.8,45c-0.3-0.3-0.3-0.7,0-1
					c0.3-0.3,0.7-0.3,1,0l8.3,8.3l-8.3,8.3C77.7,60.8,77.5,60.8,77.3,60.8z"/>
			</g>
		</g>
		<g>
			<path fill="#FFCA22" d="M62.7,68.1c-0.1,0-0.1,0-0.2,0c-0.4-0.1-0.6-0.5-0.5-0.9l6.7-28.6c0.1-0.4,0.5-0.6,0.9-0.5
				c0.4,0.1,0.6,0.5,0.5,0.9l-6.7,28.6C63.3,67.9,63,68.1,62.7,68.1z"/>
		</g>
		<g>
			<polygon fill="#E6E7E8" points="59.4,174.4 36.1,171.6 36.1,169.5 59.4,172.3 			"/>
		</g>
		<g>
			<polygon fill="#E6E7E8" points="59.4,163.2 36.1,160.1 36.1,158 59.4,161.1 			"/>
		</g>
		<g>
			<polygon fill="#E6E7E8" points="59.4,168.7 36.1,165.9 36.1,163.8 59.4,166.6 			"/>
		</g>
		<g>
			<path fill="#FFCA22" d="M47.6,154.7l-10-1.2c-0.8-0.1-1.5-0.8-1.5-1.7v-10.8c0-1,0.9-1.8,1.9-1.7l10,1.2c0.8,0.1,1.5,0.8,1.5,1.7
				v10.8C49.5,154.1,48.6,154.9,47.6,154.7z"/>
		</g>
		<g>
			<polygon fill="#E6E7E8" points="59.4,180.1 36.1,177.3 36.1,175.2 59.4,178 			"/>
		</g>
		<g>
			<polygon fill="#E6E7E8" points="59.4,145.3 53.2,144.2 53.2,142.1 59.4,143.2 			"/>
		</g>
		<g>
			<polygon fill="#E6E7E8" points="59.4,150 53.2,148.9 53.2,146.8 59.4,147.9 			"/>
		</g>
		<g>
			<polygon fill="#E6E7E8" points="59.4,154.8 53.2,153.7 53.2,151.6 59.4,152.6 			"/>
		</g>
		<g opacity="0.5">
			<rect x="62.8" y="189.3" fill="#231F20" width="6" height="0.6"/>
		</g>
		<g>
			<polygon fill="#E6E7E8" points="70.1,171.6 80.1,166.1 80.1,164 70.1,169.4 			"/>
		</g>
		<g>
			<polygon fill="#E6E7E8" points="70.1,177 80.1,171.5 80.1,169.4 70.1,174.9 			"/>
		</g>
		<g>
			<polygon fill="#E6E7E8" points="70.1,161 80.1,155.5 80.1,153.4 70.1,158.9 			"/>
		</g>
		<g>
			<polygon fill="#E6E7E8" points="70.1,166.4 80.1,160.9 80.1,158.8 70.1,164.3 			"/>
		</g>
		<g>
			<polygon fill="#E6E7E8" points="70.1,155.7 80.1,150.2 80.1,148.1 70.1,153.6 			"/>
		</g>
		<g>
			<polygon fill="#E6E7E8" points="70.1,145.1 80.1,139.6 80.1,137.5 70.1,143 			"/>
		</g>
		<g>
			<polygon fill="#E6E7E8" points="70.1,150.5 80.1,145.1 80.1,142.9 70.1,148.4 			"/>
		</g>
		<g>
			<path fill="#FFD54E" d="M98.7,116.3c0.2,0.2,0.4,0.5,0.6,0.7c0.2,0.2,0.5,0.4,0.7,0.6c-0.2,0.2-0.5,0.4-0.7,0.6
				c-0.2,0.2-0.4,0.4-0.6,0.7c-0.2-0.2-0.4-0.5-0.6-0.7c-0.2-0.2-0.5-0.4-0.7-0.6c0.2-0.2,0.5-0.4,0.7-0.6
				C98.4,116.8,98.6,116.5,98.7,116.3 M98.7,115.2c-0.1,0.5-0.5,1-0.9,1.4c-0.5,0.5-1,0.8-1.4,0.9c0.5,0.1,1,0.5,1.5,0.9
				c0.5,0.5,0.8,1,0.9,1.4c0.1-0.5,0.5-1,0.9-1.4c0.5-0.5,1-0.8,1.4-0.9c-0.5-0.1-1-0.5-1.4-0.9C99.2,116.2,98.9,115.7,98.7,115.2
				L98.7,115.2z"/>
		</g>
		<g>
			<path fill="#FF8A4C" d="M29.2,91.8c-0.5-0.1-1-0.5-1.4-0.9c-0.5-0.5-0.8-1-0.9-1.5c-0.1,0.5-0.5,1-0.9,1.4s-1,0.8-1.4,0.9
				c0.5,0.1,1,0.5,1.5,0.9c0.5,0.5,0.8,1,0.9,1.4c0.1-0.5,0.5-1,0.9-1.4C28.2,92.3,28.7,92,29.2,91.8z"/>
		</g>
		<g>
			<path fill="#FFCA22" d="M105.6,90.5c0.2,0.2,0.4,0.5,0.6,0.7c0.2,0.2,0.5,0.4,0.7,0.6c-0.2,0.2-0.5,0.4-0.7,0.6
				c-0.2,0.2-0.4,0.4-0.6,0.7c-0.2-0.2-0.4-0.5-0.6-0.7c-0.2-0.2-0.5-0.4-0.7-0.6c0.2-0.2,0.5-0.4,0.7-0.6
				C105.3,91,105.5,90.8,105.6,90.5 M105.6,89.5c-0.1,0.5-0.5,1-0.9,1.4c-0.5,0.5-1,0.8-1.4,0.9c0.5,0.1,1,0.5,1.5,0.9
				c0.5,0.5,0.8,1,0.9,1.4c0.1-0.5,0.5-1,0.9-1.4c0.5-0.5,1-0.8,1.4-0.9c-0.5-0.1-1-0.5-1.4-0.9C106.1,90.4,105.8,89.9,105.6,89.5
				L105.6,89.5z"/>
		</g>
		<g>
			<path fill="#FFCA22" d="M43.3,117.6c-0.5-0.1-1-0.5-1.4-0.9c-0.5-0.5-0.8-1-0.9-1.5c-0.1,0.5-0.5,1-0.9,1.4
				c-0.5,0.5-1,0.8-1.4,0.9c0.5,0.1,1,0.5,1.5,0.9c0.5,0.5,0.8,1,0.9,1.4c0.1-0.5,0.5-1,0.9-1.4C42.3,118,42.8,117.7,43.3,117.6z"/>
		</g>
		<g>
			<path fill="#FFCA22" d="M16.8,109.1c0.2,0.2,0.4,0.5,0.6,0.7c0.2,0.2,0.5,0.4,0.7,0.6c-0.2,0.2-0.5,0.4-0.7,0.6
				c-0.2,0.2-0.4,0.4-0.6,0.7c-0.2-0.2-0.4-0.5-0.6-0.7c-0.2-0.2-0.5-0.4-0.7-0.6c0.2-0.2,0.5-0.4,0.7-0.6
				C16.4,109.6,16.6,109.4,16.8,109.1 M16.8,108c-0.1,0.5-0.5,1-0.9,1.4c-0.5,0.5-1,0.8-1.4,0.9c0.5,0.1,1,0.5,1.5,0.9
				c0.5,0.5,0.8,1,0.9,1.4c0.1-0.5,0.5-1,0.9-1.4c0.5-0.5,1-0.8,1.4-0.9c-0.5-0.1-1-0.5-1.4-0.9C17.2,109,16.9,108.5,16.8,108
				L16.8,108z"/>
		</g>
		<g>
			<path fill="#FF8A4C" d="M121,108.1c-0.5-0.1-1-0.5-1.4-0.9c-0.5-0.5-0.8-1-0.9-1.5c-0.1,0.5-0.5,1-0.9,1.4
				c-0.5,0.5-1,0.8-1.4,0.9c0.5,0.1,1,0.5,1.5,0.9c0.5,0.5,0.8,1,0.9,1.4c0.1-0.5,0.5-1,0.9-1.4C120,108.5,120.5,108.2,121,108.1z"
				/>
		</g>
	</g>
</g>
<g id="grid">
</g>
</svg>
