<?xml version="1.0" encoding="utf-8"?>
<!-- Generator: Adobe Illustrator 18.1.1, SVG Export Plug-In . SVG Version: 6.00 Build 0)  -->
<svg version="1.1" xmlns="http://www.w3.org/2000/svg" xmlns:xlink="http://www.w3.org/1999/xlink" x="0px" y="0px"
	 viewBox="0 0 128.8 188.9" enable-background="new 0 0 128.8 188.9" xml:space="preserve">
<g id="Layer_1">
	<g>
		<g>
			<polygon fill="#FFFFFF" points="75.7,184.9 54,184.9 56.9,165.2 72.7,165.2 			"/>
		</g>
		<g>
			<polygon fill="#F1F1F2" points="73.5,170.3 72.7,165.2 56.9,165.2 56.2,170.3 			"/>
		</g>
		<g>
			<path fill="#FFFFFF" d="M80.4,186.3H49.2c-0.5,0-0.9-0.3-0.9-0.6l0,0c0-0.3,0.4-0.6,0.9-0.6l16.4-3.9l14.8,3.9
				c0.5,0,0.9,0.3,0.9,0.6l0,0C81.4,186,80.9,186.3,80.4,186.3z"/>
		</g>
		<g>
			<path fill="#FFFFFF" d="M123.1,169.2H6.6c-2.4,0-4.4-2-4.4-4.4v-78c0-2.4,2-4.4,4.4-4.4h116.5c2.4,0,4.4,2,4.4,4.4v78
				C127.5,167.2,125.5,169.2,123.1,169.2z"/>
		</g>
		<g>
			<rect x="7.7" y="87.9" fill="#F1F1F2" width="114.3" height="69"/>
		</g>
		<g>
			<polygon fill="#BF5217" points="63.9,143.8 23.1,143.8 23.1,115.8 43.5,101.8 63.9,115.8 			"/>
		</g>
		<g>
			<path fill="#FFFFFF" d="M57.1,137.2H29.9c-2.5,0-4.5-2-4.5-4.5v-27.8c0-2.5,2-4.5,4.5-4.5h27.3c2.5,0,4.5,2,4.5,4.5v27.8
				C61.6,135.2,59.6,137.2,57.1,137.2z"/>
		</g>
		<g>
			<path fill="#FFC5A5" d="M55.1,127.8c-2.8,0-5-2.3-5-5c0-2.8,2.3-5,5-5c2.8,0,5,2.3,5,5C60.1,125.6,57.9,127.8,55.1,127.8z
				 M55.1,118.3c-2.5,0-4.5,2-4.5,4.5c0,2.5,2,4.5,4.5,4.5s4.5-2,4.5-4.5C59.6,120.3,57.6,118.3,55.1,118.3z"/>
		</g>
		<g>
			<circle fill="#FFC5A5" cx="55.1" cy="122.8" r="2.8"/>
		</g>
		<g>
			<polygon fill="#FF6D1F" points="63.9,143.8 23.1,143.8 23.1,115.8 			"/>
		</g>
		<g>
			<polyline fill="#FF8A4C" points="63.9,143.8 63.9,115.8 23.1,143.8 			"/>
		</g>
		<g>
			<circle fill="#E6E7E8" cx="64.8" cy="85" r="0.7"/>
		</g>
		<g>
			<circle fill="#E6E7E8" cx="64.8" cy="163.4" r="2.2"/>
		</g>
		<g>
			<circle fill="#FFFFFF" cx="64.8" cy="162.9" r="2.2"/>
		</g>
		<g>
			<path fill="#F1F1F2" d="M64.8,84.9c-0.3,0-0.5,0.2-0.6,0.4c0.1,0.2,0.3,0.4,0.6,0.4c0.3,0,0.5-0.2,0.6-0.4
				C65.3,85,65.1,84.9,64.8,84.9z"/>
		</g>
		<g>
			<path fill="#FFAA22" d="M20.6,47.2h-1.5c0-0.7,0-1.4,0.1-2.1l1.5,0.2C20.6,45.9,20.6,46.6,20.6,47.2z M21,43.4L19.5,43
				c0.2-0.7,0.4-1.4,0.6-2l1.4,0.5C21.4,42.1,21.2,42.7,21,43.4z M22.4,39.7L21,39c0.3-0.6,0.7-1.2,1.1-1.8l1.3,0.8
				C23,38.6,22.7,39.1,22.4,39.7z M24.5,36.5l-1.2-1c0.5-0.5,0.9-1.1,1.5-1.5l1,1.1C25.4,35.5,24.9,36,24.5,36.5z M27.3,33.8
				l-0.9-1.2c0.6-0.4,1.2-0.8,1.8-1.2l0.8,1.3C28.4,33.1,27.9,33.4,27.3,33.8z M30.7,31.9l-0.6-1.4c0.6-0.3,1.3-0.5,2-0.7l0.4,1.5
				C31.9,31.4,31.3,31.6,30.7,31.9z M34.4,30.8l-0.3-1.5c0.7-0.1,1.4-0.2,2.1-0.2l0.1,1.5C35.7,30.6,35.1,30.7,34.4,30.8z
				 M52.4,30.5h-1.8V29h1.8V30.5z M48.5,30.5h-2V29h2V30.5z M44.4,30.5h-2V29h2V30.5z M40.4,30.5h-2V29h2V30.5z"/>
		</g>
		<g>
			<polygon fill="#FF6D1F" points="35.9,102.2 31.8,102.2 32.5,100.4 36.5,100.4 			"/>
		</g>
		<g>
			<polygon fill="#0095FF" points="42.3,102.2 38.2,102.2 38.9,100.4 43,100.4 			"/>
		</g>
		<g>
			<polygon fill="#FF6D1F" points="48.8,102.2 44.7,102.2 45.3,100.4 49.4,100.4 			"/>
		</g>
		<g>
			<polygon fill="#0095FF" points="55.2,102.2 51.1,102.2 51.8,100.4 55.9,100.4 			"/>
		</g>
		<g>
			<path fill="#0095FF" d="M29.4,102.2l0.7-1.8h-0.2c-1.5,0-2.7,0.7-3.6,1.8H29.4z"/>
		</g>
		<g>
			<path fill="#FF6D1F" d="M58.2,100.5l-0.6,1.6h3.1C60.1,101.4,59.2,100.8,58.2,100.5z"/>
		</g>
		<g>
			<rect x="32.4" y="108.4" fill="#E6E7E8" width="21.1" height="2.1"/>
		</g>
		<g>
			<rect x="32.4" y="110.5" fill="#F1F1F2" width="21.1" height="2.1"/>
		</g>
		<g>
			<rect x="32.4" y="115.2" fill="#E6E7E8" width="11.4" height="2.1"/>
		</g>
		<g>
			<rect x="32.4" y="117.3" fill="#F1F1F2" width="11.4" height="2.1"/>
		</g>
		<g>
			<g>
				<g>
					<path fill="#FFFFFF" d="M29.9,63.4C29.9,63.5,29.9,63.5,29.9,63.4c-0.1,0.1-0.2,0.1-0.2,0l-1.2-1.3c-0.1-0.1-0.1-0.2,0-0.2
						c0.1-0.1,0.2-0.1,0.2,0l1,1l0.1-2.6c0-0.1,0.1-0.2,0.2-0.2c0.1,0,0.2,0.1,0.2,0.2L29.9,63.4C29.9,63.4,29.9,63.4,29.9,63.4z"/>
				</g>
			</g>
			<g>
				<g>
					<path fill="#FFFFFF" d="M30.1,60.5c0,0-0.1,0.1-0.1,0.1c0,0-0.1,0-0.1,0L19.5,53c-0.1,0-0.1-0.1-0.1-0.2c0-0.1,0.1-0.1,0.2-0.1
						l13.3,3.4c0.1,0,0.1,0.1,0.1,0.1c0,0.1,0,0.1,0,0.1L30.1,60.5C30.1,60.5,30.1,60.5,30.1,60.5z M20.4,53.2l9.5,6.9l2.7-3.8
						L20.4,53.2z"/>
				</g>
			</g>
			<g>
				<g>
					<path fill="#FFFFFF" d="M29.3,61.4C29.3,61.4,29.3,61.4,29.3,61.4l-3.4,3.8c0,0-0.1,0.1-0.1,0.1s-0.1,0-0.1-0.1l-6.2-12.3
						c0-0.1,0-0.2,0-0.2c0.1,0,0.1,0,0.2,0l9.5,8.5c0,0,0.1,0.1,0.1,0.1C29.3,61.4,29.3,61.4,29.3,61.4z M25.8,64.8l3.1-3.5
						l-8.8-7.8L25.8,64.8z"/>
				</g>
			</g>
			<g>
				<g>
					<path fill="#FFFFFF" d="M29.9,63.4C29.9,63.5,29.9,63.5,29.9,63.4c-0.2,0.1-0.3,0-0.3-0.1l-0.6-2c0-0.1,0-0.2,0.1-0.2
						c0.1,0,0.2,0,0.2,0.1l0.6,2C30,63.3,29.9,63.4,29.9,63.4z"/>
				</g>
			</g>
			<g>
				<g>
					<path fill="#FFFFFF" d="M25.9,65.2c0,0-0.1,0.1-0.1,0.1c-0.1,0-0.2-0.1-0.2-0.2l0.1-6.7c0-0.1,0.1-0.2,0.2-0.2
						c0.1,0,0.2,0.1,0.2,0.2L25.9,65.2C25.9,65.2,25.9,65.2,25.9,65.2z"/>
				</g>
			</g>
			<g>
				<g>
					<path fill="#FFFFFF" d="M33,56.4C33,56.4,33,56.4,33,56.4l-6.6,1.6c-0.1,0-0.2,0-0.2-0.1c0-0.1,0-0.2,0.1-0.2l6.5-1.5
						c0.1,0,0.2,0,0.2,0.1C33.1,56.3,33.1,56.3,33,56.4z"/>
				</g>
			</g>
		</g>
		<g>
			<g>
				<g>
					<path fill="#FFFFFF" d="M55.4,31.1C55.3,31.1,55.3,31.1,55.4,31.1c0,0.1,0.1,0.2,0.1,0.2l1.5,0.2c0.1,0,0.1,0,0.2-0.1
						c0-0.1,0-0.1-0.1-0.2L55.8,31l1.7-1.4c0.1,0,0.1-0.1,0-0.2c0-0.1-0.1-0.1-0.2,0L55.4,31.1C55.4,31,55.4,31.1,55.4,31.1z"/>
				</g>
			</g>
			<g>
				<g>
					<path fill="#FFFFFF" d="M57.3,29.5l1.3-4.1c0,0,0-0.1,0.1-0.1s0.1,0,0.1,0l9.2,7.3c0.1,0,0.1,0.1,0,0.2c0,0.1-0.1,0.1-0.2,0.1
						l-10.5-3.2c0,0-0.1,0-0.1-0.1C57.3,29.5,57.3,29.5,57.3,29.5C57.3,29.5,57.3,29.5,57.3,29.5z M58.8,25.6l-1.2,3.8l9.7,2.9
						L58.8,25.6z"/>
				</g>
			</g>
			<g>
				<g>
					<path fill="#FFFFFF" d="M57.1,30.4c0,0,0.1,0,0.1,0l10.7,2.1c0.1,0,0.1,0.1,0.1,0.1c0,0.1,0,0.1-0.1,0.1l-11.6,2.1
						c0,0-0.1,0-0.1,0c0,0,0-0.1,0-0.1L57.1,30.4C57,30.5,57,30.5,57.1,30.4C57.1,30.5,57.1,30.4,57.1,30.4z M67.2,32.7l-9.9-2
						l-0.8,3.9L67.2,32.7z"/>
				</g>
			</g>
			<g>
				<g>
					<path fill="#FFFFFF" d="M55.4,31.1C55.3,31.1,55.3,31.1,55.4,31.1c0,0.2,0.1,0.2,0.2,0.2l1.7-0.6c0.1,0,0.1-0.1,0.1-0.2
						c0-0.1-0.1-0.1-0.2-0.1L55.4,31.1C55.4,31,55.4,31.1,55.4,31.1z"/>
				</g>
			</g>
			<g>
				<g>
					<path fill="#FFFFFF" d="M56.2,34.8c0,0,0,0.1,0,0.1c0,0.1,0.1,0.1,0.2,0l4.5-3.5c0.1,0,0.1-0.1,0-0.2c0-0.1-0.1-0.1-0.2,0
						L56.2,34.8C56.2,34.7,56.2,34.7,56.2,34.8z"/>
				</g>
			</g>
			<g>
				<g>
					<path fill="#FFFFFF" d="M58.6,25.3C58.6,25.4,58.6,25.4,58.6,25.3l2.3,5.3c0,0.1,0.1,0.1,0.2,0.1c0.1,0,0.1-0.1,0.1-0.2
						l-2.3-5.2C58.8,25.2,58.7,25.2,58.6,25.3C58.6,25.2,58.6,25.3,58.6,25.3z"/>
				</g>
			</g>
		</g>
		<g>
			<g>
				<circle fill="#FF6D1F" cx="97.3" cy="9.6" r="6.5"/>
			</g>
			<g>
				<g>
					<circle fill="#FF6D1F" cx="103.5" cy="10.6" r="1.1"/>
				</g>
				<g>
					<circle fill="#FF6D1F" cx="90.7" cy="8.5" r="1.1"/>
				</g>
				<g>
					<g>
						<circle fill="#FF6D1F" cx="96.1" cy="15.9" r="1.1"/>
					</g>
					<g>
						<circle fill="#FF6D1F" cx="98.2" cy="3.1" r="1.1"/>
					</g>
				</g>
			</g>
			<g>
				<g>
					<circle fill="#FF6D1F" cx="100.9" cy="14.8" r="1.1"/>
				</g>
				<g>
					<circle fill="#FF6D1F" cx="93.3" cy="4.3" r="1.1"/>
				</g>
				<g>
					<g>
						<circle fill="#FF6D1F" cx="91.9" cy="13.3" r="1.1"/>
					</g>
					<g>
						<circle fill="#FF6D1F" cx="102.4" cy="5.7" r="1.1"/>
					</g>
				</g>
			</g>
			<g>
				<g>
					<circle fill="#FF6D1F" cx="102.5" cy="12.2" r="1"/>
				</g>
				<g>
					<circle fill="#FF6D1F" cx="91.7" cy="6.9" r="1"/>
				</g>
				<g>
					<g>
						<circle fill="#FF6D1F" cx="94.5" cy="14.9" r="1"/>
					</g>
					<g>
						<circle fill="#FF6D1F" cx="99.7" cy="4.1" r="1"/>
					</g>
				</g>
			</g>
			<g>
				<g>
					<circle fill="#FF6D1F" cx="99.1" cy="15.2" r="1"/>
				</g>
				<g>
					<circle fill="#FF6D1F" cx="95.1" cy="3.8" r="1"/>
				</g>
				<g>
					<g>
						<circle fill="#FF6D1F" cx="91.4" cy="11.5" r="1"/>
					</g>
					<g>
						<circle fill="#FF6D1F" cx="102.8" cy="7.6" r="1"/>
					</g>
				</g>
			</g>
			<g>
				<g>
					<circle fill="#FF6D1F" cx="101.9" cy="13.2" r="1"/>
				</g>
				<g>
					<circle fill="#FF6D1F" cx="92.4" cy="5.9" r="1"/>
				</g>
				<g>
					<g>
						<circle fill="#FF6D1F" cx="93.4" cy="14.3" r="1"/>
					</g>
					<g>
						<circle fill="#FF6D1F" cx="100.8" cy="4.8" r="1"/>
					</g>
				</g>
			</g>
			<g>
				<g>
					<circle fill="#FF6D1F" cx="97.9" cy="15.5" r="1"/>
				</g>
				<g>
					<circle fill="#FF6D1F" cx="96.3" cy="3.6" r="1"/>
				</g>
				<g>
					<g>
						<circle fill="#FF6D1F" cx="91.2" cy="10.3" r="1"/>
					</g>
					<g>
						<circle fill="#FF6D1F" cx="103.1" cy="8.8" r="1"/>
					</g>
				</g>
			</g>
		</g>
		<g>
			<rect x="7.7" y="87.9" fill="#E6E7E8" width="114.3" height="4.3"/>
		</g>
		<g opacity="0.1">
			<path fill="#231F20" d="M92.5,14.2C92.5,14.2,92.5,14.2,92.5,14.2c0,0.3,0.1,0.7,0.4,0.9c0.2,0.2,0.5,0.2,0.7,0.2
				c0.1,0.2,0.2,0.4,0.5,0.5c0.3,0.2,0.7,0.1,1,0c-0.1,0.6,0.3,1.1,0.9,1.2c0.6,0.1,1.1-0.3,1.3-0.9c0,0,0,0,0,0
				c0.2,0.3,0.5,0.4,0.9,0.4c0.3,0,0.5-0.2,0.7-0.4c0.2,0.1,0.5,0.1,0.7,0c0.3-0.1,0.6-0.4,0.7-0.7c0.3,0.4,1,0.6,1.4,0.2
				c0.5-0.3,0.6-1,0.3-1.5c0,0,0,0,0,0c0.3,0,0.6-0.1,0.9-0.4c0.2-0.2,0.2-0.5,0.2-0.7c0.2-0.1,0.4-0.2,0.5-0.5
				c0.1-0.2,0.1-0.5,0.1-0.8c-1.9-0.4-4-0.5-6.2-0.3c-2.3,0.2-4.5,0.8-6.5,1.7c0,0.2,0,0.5,0.2,0.7C91.3,14.4,92,14.5,92.5,14.2z"/>
		</g>
		<g>
			<circle fill="#D0D2D3" cx="11.1" cy="90.1" r="0.8"/>
		</g>
		<g>
			<circle fill="#D0D2D3" cx="14.6" cy="90.1" r="0.8"/>
		</g>
		<g>
			<circle fill="#D0D2D3" cx="18" cy="90.1" r="0.8"/>
		</g>
		<g>
			<path fill="#FFFFFF" d="M96.5,156.9H95v-1.4h1.5V156.9z M96.5,153.4H95v-2h1.5V153.4z M96.5,149.4H95v-2h1.5V149.4z M96.5,145.3
				H95v-2h1.5V145.3z M96.5,141.2H95v-2h1.5V141.2z M96.5,137.2H95v-2h1.5V137.2z M96.5,133.1H95v-2h1.5V133.1z M96.5,129H95v-2h1.5
				V129z M96.5,125H95v-2h1.5V125z M96.5,120.9H95v-0.6c0-0.4,0-0.9-0.1-1.3l1.5-0.2c0.1,0.5,0.1,1,0.1,1.5V120.9z M94.5,117.1
				c-0.2-0.6-0.5-1.2-0.8-1.7l1.3-0.7c0.4,0.6,0.6,1.3,0.9,2L94.5,117.1z M92.7,113.8c-0.4-0.5-0.9-0.9-1.3-1.3l1-1.2
				c0.6,0.5,1.1,1,1.5,1.5L92.7,113.8z M89.8,111.4c-0.6-0.3-1.1-0.6-1.7-0.8l0.5-1.5c0.7,0.2,1.4,0.5,2,0.9L89.8,111.4z
				 M86.2,110.3c-0.4-0.1-0.9-0.1-1.3-0.1h-0.6v-1.5h0.6c0.5,0,1,0,1.5,0.1L86.2,110.3z M82.2,110.2h-2v-1.5h2V110.2z M78.1,110.2
				h-2v-1.5h2V110.2z M74.1,110.2h-2v-1.5h2V110.2z"/>
		</g>
		<g>
			<path fill="#FFFFFF" d="M121.6,140.1h-2v-1.5h2V140.1z M117.5,140.1h-2v-1.5h2V140.1z M113.5,140.1h-2v-1.5h2V140.1z
				 M109.4,140.1h-2v-1.5h2V140.1z M105.3,140.1h-2v-1.5h2V140.1z M101.3,140.1h-2v-1.5h2V140.1z"/>
		</g>
		<g>
			<path fill="#FFFFFF" d="M17.3,134.9h-2v-1.5h2V134.9z M13.2,134.9h-2v-1.5h2V134.9z M9.1,134.9H7.7v-1.5h1.5V134.9z"/>
		</g>
		<g>
			<path fill="#FFFFFF" d="M39,156.7l-1.5,0c0-0.8,0.2-1.5,0.4-2.3l1.4,0.6C39.1,155.5,39,156.1,39,156.7z M40.3,153.5l-1.1-1
				c0.5-0.6,1.1-1,1.8-1.4l0.7,1.4C41.1,152.7,40.7,153,40.3,153.5z M43.3,151.9l-0.2-1.5c0.2,0,0.5,0,0.8,0h1.4v1.5h-1.4
				C43.7,151.9,43.5,151.9,43.3,151.9z M73.7,151.9h-1.9v-1.5l2,0l0,1.5L73.7,151.9z M69.7,151.9h-2v-1.5h2V151.9z M65.6,151.9h-2
				v-1.5h2V151.9z M61.5,151.9h-2v-1.5h2V151.9z M57.5,151.9h-2v-1.5h2V151.9z M53.4,151.9h-2v-1.5h2V151.9z M49.3,151.9h-2v-1.5h2
				V151.9z M75.9,151.6l-0.4-1.5c0.6-0.1,1.2-0.4,1.7-0.7l0.7,1.4C77.4,151.1,76.7,151.4,75.9,151.6z M79.8,149.6l-1-1.2
				c0.5-0.4,0.9-0.9,1.3-1.4l1.2,0.9C80.9,148.5,80.4,149.1,79.8,149.6z M82.4,146l-1.4-0.6c0.2-0.6,0.4-1.2,0.5-1.8l1.5,0.2
				C82.9,144.6,82.7,145.3,82.4,146z M83.2,141.8h-1.5v-2h1.5V141.8z M83.2,137.7h-1.5v-2h1.5V137.7z M83.2,133.6h-1.5v-2h1.5V133.6
				z"/>
		</g>
		<g>
			<path fill="#FFFFFF" d="M82.1,103.8h-1.5v-2h1.5V103.8z M82.1,99.7h-1.5v-2h1.5V99.7z M82.1,95.6h-1.5v-2h1.5V95.6z"/>
		</g>
		<g>
			<path fill="#FFFFFF" d="M10.9,109.1h-2v-1.5h2V109.1z M13.1,109l-0.3-1.5c0.6-0.1,1.1-0.3,1.6-0.7l0.8,1.3
				C14.6,108.5,13.9,108.8,13.1,109z M17,106.6l-1.2-1c0.4-0.5,0.7-1,0.9-1.5l1.4,0.5C17.8,105.3,17.4,106,17,106.6z M18.4,102.4
				h-1.5v-2h1.5V102.4z M18.4,98.3h-1.5v-2h1.5V98.3z M18.4,94.2h-1.5v-2h1.5V94.2z"/>
		</g>
		<g>
			<path fill="#FFFFFF" d="M121.9,104.5h-0.9V103h0.9V104.5z M119,104.5h-2V103h2V104.5z M115,104.5h-2V103h2V104.5z M110.9,104.5
				h-2V103h2V104.5z M106.7,104.4c-0.7-0.1-1.4-0.4-2.1-0.7l0.7-1.4c0.5,0.3,1.1,0.5,1.7,0.6L106.7,104.4z M102.7,102.3
				c-0.5-0.5-1-1.1-1.4-1.8l1.3-0.8c0.3,0.5,0.7,1,1.1,1.4L102.7,102.3z M100.5,98.5c-0.2-0.6-0.2-1.3-0.2-1.9v-0.3h1.5v0.3
				c0,0.5,0.1,1,0.2,1.5L100.5,98.5z M101.8,94.2h-1.5v-2h1.5V94.2z"/>
		</g>
		<g>
			<g>
				<circle fill="#FFEAA7" cx="118.9" cy="37.5" r="4.4"/>
			</g>
			<g>
				<circle fill="#FFD54E" cx="118.9" cy="37.5" r="3.1"/>
			</g>
			<g>
				<path fill="#FFDF7A" d="M118.9,34.8c1.7,0,3,1.3,3.1,2.9c-0.1,1.6-1.5,2.9-3.1,2.9s-3-1.3-3.1-2.9
					C115.9,36.1,117.2,34.8,118.9,34.8z"/>
			</g>
			<g>
				<path fill="#FFEAA7" d="M118.3,38.5h1.1c0.6,0,1-0.5,1-1l0,0c0-0.6-0.5-1-1-1h-1.1c-0.6,0-1,0.5-1,1l0,0
					C117.3,38,117.7,38.5,118.3,38.5z"/>
			</g>
		</g>
		<g>
			<path fill="#FFAA22" d="M92.5,128.2L92.5,128.2l-0.1-1.5h0.1c0.6,0,1.2,0,1.9-0.1l0.2,1.5C93.8,128.2,93.2,128.2,92.5,128.2z
				 M90.3,128.2h-2v-1.5h2V128.2z M86.3,128.2h-2v-1.5h2V128.2z M82.2,128.2h-2v-1.5h2V128.2z M78.1,128.2h-2v-1.5h2V128.2z
				 M74.1,128.2h-2v-1.5h2V128.2z M96.6,127.7l-0.3-1.5c0.6-0.1,1.3-0.3,1.9-0.5l0.5,1.4C98,127.4,97.3,127.6,96.6,127.7z
				 M100.6,126.3l-0.7-1.4c0.6-0.3,1.1-0.6,1.7-1l0.8,1.3C101.8,125.6,101.2,126,100.6,126.3z M104.1,124l-1-1.2
				c0.5-0.4,1-0.9,1.4-1.3l1.1,1.1C105.2,123,104.7,123.5,104.1,124z M107,120.9l-1.2-0.9c0.4-0.5,0.7-1.1,1.1-1.6l1.3,0.8
				C107.9,119.7,107.5,120.3,107,120.9z M109.2,117.2l-1.4-0.6c0.3-0.6,0.5-1.2,0.7-1.8l1.5,0.4
				C109.7,115.9,109.5,116.6,109.2,117.2z M110.4,113.2l-1.5-0.3c0.1-0.6,0.2-1.3,0.2-1.9l1.5,0.1
				C110.6,111.8,110.5,112.5,110.4,113.2z M110.7,109h-1.5v-2h1.5V109z M110.7,104.9h-1.5v-2h1.5V104.9z M110.7,100.9h-1.5v-2h1.5
				V100.9z M110.7,96.8h-1.5v-2h1.5V96.8z M110.7,92.7h-1.5v-2h1.5V92.7z M110.7,88.7h-1.5v-2h1.5V88.7z M110.7,84.6h-1.5v-2h1.5
				V84.6z M109.1,80.6c-0.1-0.6-0.2-1.3-0.3-1.9l1.5-0.3c0.1,0.7,0.2,1.4,0.3,2.1L109.1,80.6z M108.3,76.8c-0.2-0.6-0.4-1.2-0.7-1.8
				l1.4-0.7c0.3,0.6,0.6,1.3,0.8,2L108.3,76.8z M106.6,73.3c-0.3-0.5-0.7-1.1-1.1-1.6l1.2-1c0.4,0.6,0.9,1.1,1.2,1.7L106.6,73.3z
				 M104.2,70.2c-0.5-0.5-0.9-0.9-1.5-1.3l0.9-1.2c0.6,0.4,1.1,0.9,1.6,1.4L104.2,70.2z M101.2,67.9c-0.6-0.3-1.1-0.6-1.7-0.9
				l0.6-1.4c0.6,0.3,1.3,0.6,1.9,1L101.2,67.9z M97.6,66.2c-0.6-0.2-1.2-0.4-1.9-0.5l0.3-1.5c0.7,0.1,1.4,0.3,2.1,0.5L97.6,66.2z
				 M93.8,65.5c-0.4,0-0.9-0.1-1.4-0.1h-0.6v-1.5h0.6c0.5,0,1,0,1.5,0.1L93.8,65.5z M89.8,65.4h-2v-1.5h2V65.4z M85.8,65.4h-2v-1.5
				h2V65.4z M81.7,65.4h-2v-1.5h2V65.4z M77.6,65.4h-2v-1.5h2V65.4z M73.6,65.4h-2v-1.5h2V65.4z M69.5,65.4h-2v-1.5h2V65.4z
				 M65.4,65.4h-2v-1.5h2V65.4z M61.3,65.4h-2v-1.5h2V65.4z M57.3,65.4h-2v-1.5h2V65.4z M53.2,65.4h-2v-1.5h2V65.4z M49.1,65.4h-2
				v-1.5h2V65.4z M45.1,65.4h-2v-1.5h2V65.4z M41,65.4h-2v-1.5h2V65.4z M36.9,65.4h-2v-1.5h2V65.4z"/>
		</g>
		<g>
			<g>
				<circle fill="#FFEAA7" cx="80.4" cy="37.5" r="4.4"/>
			</g>
			<g>
				<circle fill="#FFD54E" cx="80.4" cy="37.5" r="3.1"/>
			</g>
			<g>
				<path fill="#FFDF7A" d="M80.4,34.8c-1.7,0-3,1.3-3.1,2.9c0.1,1.6,1.5,2.9,3.1,2.9s3-1.3,3.1-2.9C83.4,36.1,82.1,34.8,80.4,34.8z
					"/>
			</g>
			<g>
				<path fill="#FFEAA7" d="M81,38.5h-1.1c-0.6,0-1-0.5-1-1l0,0c0-0.6,0.5-1,1-1H81c0.6,0,1,0.5,1,1l0,0C82,38,81.6,38.5,81,38.5z"
					/>
			</g>
		</g>
		<g>
			<circle fill="#FFEAA7" cx="99.9" cy="34.9" r="19"/>
		</g>
		<g>
			<path fill="#FFAA22" d="M102.8,46c0,1.6-1.3,2.8-2.8,2.8s-2.8-1.3-2.8-2.8H102.8z"/>
		</g>
		<g>
			<path fill="#FFD54E" d="M101.8,41.5c0,1.1-0.9,1.9-1.9,1.9c-1.1,0-1.9-0.9-1.9-1.9c0-1.1,0.9-3.9,1.9-3.9
				C101,37.6,101.8,40.4,101.8,41.5z"/>
		</g>
		<g>
			<path fill="#0F3B7A" d="M112.4,20.7c-2.2,0.8-4.3,1.9-6.2,3.4c-2.9-3.5-15.3-5.2-22.1,0.9c-4.8,4.3-4.1,14.1-4.1,14.1
				c2.8,0.3,8.3-5,8.3-5l-3.8,5.7c0.5,0,0.9-0.1,1.4-0.2c3.7-1.4,9.1-7.6,9.1-7.6c0.5,2.8-3.2,6.2-3.2,6.2c0.8-0.3,1.9-0.6,2.9-1.1
				c1.5-0.7,9.8-5.7,11.7-9.7c2,2.2,4.6,4.7,4.4,4.5c-0.3-0.3-0.3-2-0.3-2s1.2,2.7,2.6,3.9c0.1,0.1,0.4,0.3,0.4,0.3s-0.6-1.4,0-2.5
				c0,0,3.2,4.3,5.8,5.4c0,0,0,0,0,0c0.1-0.7,0.1-1.4,0.1-2.1C119.6,29.3,116.4,24.2,112.4,20.7z"/>
		</g>
		<g opacity="0.15">
			<path fill="#231F20" d="M112.4,20.7c-2.2,0.8-4.3,1.9-6.2,3.4c-2.9-3.5-15.3-5.2-22.1,0.9c-1.1,1-1.9,2.3-2.5,3.6l34.8-3.4
				C115.3,23.5,113.9,22,112.4,20.7z"/>
		</g>
		<g>
			<path fill="#FF8A4C" d="M114.4,22.6l-31.8,3.1c-0.7-6.8,5.9-13,14.7-13.8S113.8,15.8,114.4,22.6z"/>
		</g>
		<g opacity="5.000000e-02">
			<path fill="#231F20" d="M84.1,19.4c-1.1,1.9-1.7,4.1-1.5,6.3l31.8-3.1c-0.2-2.2-1.2-4.2-2.7-5.8L84.1,19.4z"/>
		</g>
		<g>
			<g>
				<path fill="#FF8A4C" d="M116.2,25l-34.7,3.4c-0.4,0-0.7-0.3-0.7-0.6c0.1-2.6,0.6-4.2,1.5-6.8c0.2-0.5,0.6-0.8,1.2-0.9l29.1-2.9
					c0.5-0.1,1.1,0.2,1.3,0.7c1.5,2.4,2.2,3.9,2.8,6.4C116.8,24.6,116.5,24.9,116.2,25z"/>
			</g>
		</g>
		<g>
			<path fill="#FFC5A5" d="M96.2,25.2c0,0-0.1,0-0.1,0c0,0-0.1-0.1-0.1-0.1l-0.4-3.9c0-0.1,0.1-0.2,0.2-0.2l5.5-0.6
				c0.1,0,0.1,0,0.1,0c0,0,0.1,0.1,0.1,0.1l0.4,3.9c0,0.1-0.1,0.2-0.2,0.2L96.2,25.2C96.2,25.2,96.2,25.2,96.2,25.2z M96,21.3
				l0.4,3.6l5.1-0.6l-0.4-3.6L96,21.3z"/>
		</g>
		<g>
			
				<rect x="97.3" y="21.9" transform="matrix(0.9941 -0.1087 0.1087 0.9941 -1.8907 10.8685)" fill="#FFC5A5" width="2.8" height="1.7"/>
		</g>
	</g>
</g>
<g id="grid">
</g>
</svg>
