<?xml version="1.0" encoding="utf-8"?>
<!-- Generator: Adobe Illustrator 18.1.1, SVG Export Plug-In . SVG Version: 6.00 Build 0)  -->
<svg version="1.1" id="Layer_1" xmlns="http://www.w3.org/2000/svg" xmlns:xlink="http://www.w3.org/1999/xlink" x="0px" y="0px"
	 viewBox="0 0 1200 1000" enable-background="new 0 0 1200 1000" xml:space="preserve">
<g id="Layer_1_1_">
	<g>
		<g>
			<path fill="#0095FF" d="M611.5,470.9c-2.3,0.6-4-0.6-5.8-1.7c-0.6-0.6-1.7-0.6-2.9-0.6s-1.2,1.2-1.7,1.2c-2.3,1.2-3.5,4-6.3,4
				c-0.6,0-1.2,0.6-1.7,0c-1.2-0.6-2.9-1.2-4-2.3c-0.6-0.6-0.6-1.7-0.6-2.3c-4.6-0.6-5.2-1.2-6.9-4c2.3,0.6,4,1.7,6.3,0
				c1.7-1.2,3.5,1.7,5.8,0.6c1.7-1.2,4-1.2,6.3-1.7c0.6,1.2,1.2,1.7,2.3,2.9c-0.6-2.3,2.3-2.9,3.5-4.6c0,0.6,0.6,1.7,0.6,1.7
				c4.6,0,8.6,0,13.3,0c-1.2,0.6-1.7,1.2-1.7,1.7c-0.6-1.2-1.2-0.6-2.3,0c-0.6,0-1.7,0.6-2.3,0c-2.3-1.7-5.2-0.6-8.1-1.2
				c0.6,1.2,0.6,1.7,1.2,1.7c2.9,1.2,5.8,3.5,9.8,4c-1.2,0.6-1.7,0.6-2.9,0.6"/>
			<path fill="#0095FF" d="M593.7,475.5c-0.6,0-1.2,0-1.7-0.6c-0.6-0.6-1.2-0.6-1.7-0.6c-0.6-0.6-1.7-0.6-2.3-1.2
				c-0.6-0.6-1.2-1.7-1.2-2.3c-4-0.6-5.2-1.2-6.9-4.6l-1.7-2.9l3.5,0.6c0.6,0,1.2,0,1.7,0.6c1.7,0.6,2.3,0.6,3.5,0s2.9-0.6,4,0
				c1.2,0.6,1.7,0.6,2.3,0c1.7-0.6,2.9-1.2,4.6-1.2c0.6,0,1.2,0,1.7-0.6h1.2l0.6,0.6h1.2l0,0c0.6-0.6,1.2-0.6,1.2-1.2l1.7-4l1.7,4.6
				h16.1l-6.9,6.3l-0.6-1.2c0,0,0,0-0.6,0c-0.6,0.6-2.9,0.6-4,0c-0.6-0.6-1.2-0.6-2.3-0.6c1.7,1.2,4,1.7,6.3,2.3l7.5,1.2l-10.4,2.9
				l0.6-1.2c-0.6,0-0.6,0-1.2-0.6v0.6c-3.5,1.2-5.8-0.6-7.5-2.3c0,0,0,0-0.6,0l0.6,4l-2.3-2.9l0,0c-0.6,0.6-1.2,1.2-1.7,1.7
				c-1.2,1.2-2.3,2.3-5.2,2.9C594.8,475.5,594.2,475.5,593.7,475.5z M587.9,467.4h0.6h1.2l0.6,1.2c0,0.6,0,0.6,0,1.2v0.6
				c0,0,1.2,0.6,1.7,0.6c0.6,0.6,1.7,0.6,2.3,1.2h0.6c1.2,0,1.7-0.6,2.9-1.7c0.6-0.6,1.7-1.7,2.3-2.3l0,0l-1.2-1.7
				c-0.6,0-0.6,0-1.2,0c-1.2,0-2.9,0.6-4,1.2c-1.7,1.2-3.5,0.6-5.2,0c-0.6,0-0.6-0.6-1.2-0.6l0,0
				C588.5,467.4,587.9,467.4,587.9,467.4z"/>
		</g>
		<g>
			<rect x="604" y="64" fill="#FFCA22" width="21.3" height="70.3"/>
		</g>
		<g>
			<path fill="#BF981A" d="M776.4,948.7h-8.1c-20.7-12.7-81.8-21.9-153.3-21.9s-132.6,9.2-153.3,21.9h-7.5v7.5
				c0,0.6-0.6,1.2-0.6,1.7c0,17.3,72,31.1,161.4,31.1c86.5,0,157.3-13.3,161.4-30h0.6v-10.4H776.4z"/>
		</g>
		<g>
			<ellipse fill="#FFCA22" cx="615" cy="948.7" rx="161.4" ry="31.1"/>
		</g>
		<g>
			<g>
				<path fill="#FFCA22" d="M615,868c-219,0-397.7-178.1-397.7-397.7S395.4,72.6,615,72.6v22.5c-206.9,0-375.2,168.3-375.2,375.2
					S408.1,845.5,615,845.5V868z"/>
			</g>
		</g>
		<g>
			<g opacity="0.15">
				<path fill="#231F20" d="M730.3,925.6h-5.8c-15-7.5-58.2-13.3-109.5-13.3c-51.3,0-94.5,5.8-109.5,13.3h-5.2v4.6
					c0,0.6,0,0.6,0,1.2c0,10.4,51.3,19,115.3,19c61.7,0,112.4-8.1,114.7-18.4h0.6v-6.3H730.3z"/>
			</g>
			<g>
				<ellipse fill="#FFCA22" cx="615" cy="925.6" rx="115.3" ry="19"/>
			</g>
		</g>
		<g opacity="0.15">
			<path fill="#231F20" d="M597.7,819v102c0,2.3,7.5,4,16.7,4c9.2,0,16.7-1.7,16.7-4V819H597.7z"/>
		</g>
		<g>
			<path fill="#FFCA22" d="M597.7,814.4v102c0,2.3,7.5,4,16.7,4c9.2,0,16.7-1.7,16.7-4v-102H597.7z"/>
		</g>
		<g>
			<path fill="#FFCA22" d="M634.6,64h-39.8v-9.2c0-5.8,4.6-11,11-11h18.4c5.8,0,11,4.6,11,11V64H634.6z"/>
		</g>
		<g opacity="0.15">
			<path fill="#231F20" d="M597.7,825.9c5.8,0,11,0.6,16.7,0.6s11.5,0,16.7-0.6v-11.5h-34v11.5H597.7z"/>
		</g>
		<g opacity="0.15">
			<rect x="604" y="64" fill="#231F20" width="21.3" height="4"/>
		</g>
		<g>
			<circle fill="#0F3B7A" cx="615" cy="470.9" r="349.3"/>
		</g>
		<g>
			<path fill="#FF6D1F" d="M501.4,147.6c-0.6,0-1.2-0.6-1.7-0.6c-1.7,0.6-3.5,1.2-5.2,2.3c-1.2,0.6-1.2,2.3-2.3,4c4,0,6.9,0,9.8,0
				c0,1.7,0,2.9,0,3.5c-3.5,1.7-6.9,1.2-9.2,3.5c-1.2,1.2-2.3,2.3-3.5,2.9c-2.9,0.6-2.9,3.5-4,5.2c2.3,1.2,4.6,2.3,6.9,3.5
				c0,0.6,0,1.7-0.6,2.3c-3.5,4-7,7.1-11.3,8.6c3.1,0,5.7,0,8.4,0c4,0,7.5-1.7,9.8-5.2c0.6-0.6,0.6-1.7,1.2-1.7
				c2.3-0.6,2.3-2.3,2.9-4c-1.7-2.9-5.2-1.2-7.5-2.3c0-1.2,0-1.7,0-2.3c2.3-1.2,4.6-2.3,6.9-1.7c2.3,0.6,4,1.2,6.3,1.2
				c1.7,2.3,3.5,0.6,5.8,0c1.2-0.6,2.3-1.2,4-2.3c4,2.9,8.6,4.6,10.4,9.8c1.2,2.9,2.9,5.2,6.3,5.8c0.6,0,1.2,0.6,2.3,1.7
				c-2.9,1.2-4.6,2.3-6.3,2.3c-1.7,0-3.5-1.2-5.8-1.7c-2.9,1.7-6.3,2.3-7.5,6.3c-2.3-0.6-4.6,0-6.9-0.6c-3.5-1.2-6.9-0.6-9.2,2.3
				c1.7,0.6,2.9,1.7,5.2,0.6c2.9-1.7,6.3-1.2,9.2-1.7c0.6,1.2,1.2,1.7,1.7,2.3c1.2,1.7,2.3,4,4,5.2c1.7,1.2,3.5,1.7,5.2,3.5
				c1.7,1.2,4,1.2,5.8,1.2c1.2,0,2.3-0.6,3.5-1.2c-2.3-1.7-4.6-2.9-6.9-4.6c4.6-3.5,7.5,0.6,11,1.2c2.9-2.9,3.5-5.2,0.6-8.6
				c-0.6-0.6-0.6-1.7-1.2-2.9c1.2-0.6,2.9-1.7,4-2.3c2.9,1.7,5.8,2.9,8.6,4.6c2.9-0.6,4-3.5,5.8-5.2c-1.2-2.9-3.5-3.5-5.8-4.6
				c-2.3-0.6-2.9-2.9-4-4.6c-0.6-1.2-0.6-2.3,0.6-3.5c0-0.6,0-1.7-0.6-2.3c-1.2-0.6-2.9-1.7-4.6-1.7c-4-0.6-7.5-1.7-8.6-5.8
				c0-0.6-0.6-1.2-1.2-1.7c-3.5,2.9-6.9,2.9-10.4,0.6c-1.2-0.6-1.7-1.7-2.9-2.3c-1.7-1.2-2.9-2.3-5.2-1.7c-3.5,1.2-8.1,1.2-10.4,4.6
				c-0.6,1.2-1.7,1.7-2.9,2.9c-0.6-0.6-1.2-1.7-2.3-2.9c2.3-1.7,4-3.5,5.8-5.2c0-2.1,0-3.2,0-4.2c-0.6-0.4-1.2-0.7-1.7-1
				C503.2,148.1,502,148.1,501.4,147.6z"/>
			<path fill="#FF6D1F" d="M477.8,183c0,1.1,0,2.1,0,3.2c-0.6,0-1.2,0-1.2,0.6c-1.7,1.7-2.9,3.5-4.6,5.2c0.6,1.2,1.7,1.7,4,1.2
				c3.5-1.7,6.9-1.7,10.4,0.6l0.6,0.6c0,0,0.6,0,0.6,0.6c0.6-1.2,1.2-2.3,1.7-3.5c-1.7-1.2-2.9-2.3-4.6-2.9
				c-1.7-1.2-3.5-1.2-5.2-1.7c0-1.6,0-2.7,0-3.8c-0.4,0.1-0.8,0.2-1.2,0.3C478.2,183.2,478,183.1,477.8,183z"/>
			<path fill="#FF6D1F" d="M477.2,182.7c0.2,0.1,0.4,0.2,0.6,0.3c0-0.1,0-0.2,0-0.3C477.6,182.7,477.4,182.7,477.2,182.7z"/>
			<path fill="#FF6D1F" d="M479,176.9c-1.7,0-2.9-2.9-4.6-0.6c0,0-1.2-0.6-1.7-0.6c-0.6-1.2-1.2-2.3-2.3-3.5
				c2.9-2.3,2.3-5.8,2.3-8.6c3.5-2.3,6.3-2.9,9.8-2.9c2.3,0,4-1.2,5.2-2.9c-1.7-1.2-4-1.7-5.8-1.7c-2.3,0.6-4,1.2-6.3,1.7
				c-2.9,0.6-4,2.9-4,5.8c0,0.6,0,1.2,0,1.2c-2.9,1.2-4.6,1.7-6.9,2.9c0-1.7-0.6-3.5,0.6-4.6c2.3-1.7,2.9-4.6,4.6-7.5
				c-2.9,0.6-5.2,1.2-7.5,2.3c-1.2,0.6-3.5,0-4,2.3c-0.6,1.7-2.3,1.7-3.5,0.6c0,0-0.2,0-0.4-0.2c-0.7,0.3-1.3,0.7-2,1
				c1.6,1,3.5,1.7,3.5,4.3c2.3-0.6,4.6-1.7,6.9-2.3c0,1.7,0,3.5-0.6,4.6s-2.3,1.7-3.5,2.9c1.7,1.2,2.9,2.3,4,2.9
				c-0.6,2.9-2.9,4.6-5.2,5.2c-2.9,0-5.2,1.7-7.5,3.5c0-2.3,0-3.5,0-5.2c2.3-1.2,4-1.7,6.9-3.5c-2.9-0.6-4.6-1.2-6.3-1.2
				c-1.7,0.6-3.5,1.7-5.2,2.3c1.2,1.2,2.3,2.3,3.5,2.9c-0.6,1.7,1.2,4.6-1.7,5.8c-3.5-2.9-6.3-5.8-11.5-2.9c-1.2,0.6-2.9,0.6-4,0
				c-2.6-0.5-5.2-1.5-7.8-2.5c-67.6,44.2-118.9,111.3-143,190.1c0.5,0.6,0.9,1.5,0.9,2c0.6,1.7-0.6,1.7,0,3.5
				c1.7,1.7,3.5,3.5,5.2,5.2c1.7,2.3,2.9,4.6,4.6,6.3c1.7,2.3,2.9,5.2,2.9,8.1c0,2.3-1.2,5.2-2.3,7.5c1.2,1.2,2.9,2.3,4,3.5
				c2.3,2.9,5.8,4.6,9.2,6.3c6.3,2.9,12.1,6.3,19,8.6c4.6,1.7,4.6,2.3,9.2,0c0.6-0.6,1.2-1.2,2.3-1.2c0.6,0,1.7-0.6,2.3,0
				c2.9,1.7,6.3,2.9,7.5,5.8c1.7,4,5.2,4.6,8.6,6.9c1.2,0.6,2.9,0.6,3.5,1.2c1.2,1.2,2.9,1.2,4.6,1.2c1.2,0,2.3-1.2,3.5-1.7
				c1.2,1.2,1.7,2.3,2.9,2.9c-1.7,1.2,0,2.3,0,3.5c0.6,1.2,2.3,2.3,3.5,3.5c1.2,2.3,3.5,0,4,2.3c-1.7,0-2.3,0.6-3.5,2.3
				c1.2,1.7,1.7,2.9,3.5,4c1.2,0.6,2.3,1.7,3.5,2.3c1.7,1.2,2.9,2.9,4,4c1.2-0.6,1.2-0.6,1.7-0.6c1.7,1.2,4,3.5,5.8,4s4,3.5,5.2,0.6
				c0-1.7-0.6-2.9,0-3.5c2.9-2.9,7.5-3.5,11,0.6c-0.6,1.2-1.2,2.3-1.7,3.5c0.6,0,1.2,0.6,1.7,0.6c-1.2,1.2,0,1.7,0,2.9
				c0.6,1.2,1.7,2.3,1.2,4c-0.6,1.2,0.6,2.3,1.2,3.5c0.6,1.2,0.6,2.3,0,3.5c-1.2,2.3-1.2,5.2-2.3,7.5c-1.2,2.3-3.5,4.6-5.2,6.3
				c-4,4.6-6.9,9.2-9.2,15c-1.2,2.3,0,4.6,2.9,5.2c0.6,0,1.7,1.2,2.3,1.2c-2.3,3.5-4,6.3-6.3,9.2c0.6,1.2,0.6,2.3,1.2,4
				c0.6,2.3,1.2,4,3.5,5.2c1.7,0.6,3.5,2.9,4.6,4.6c1.7,4,4,7.5,5.2,11.5c1.2,4.6,4.6,7.5,6.9,11c1.7,2.3,3.5,3.5,4,6.3
				c0,1.7,1.7,3.5,2.9,5.2c1.7,2.9,3.5,4.6,5.2,5.2c5.2,2.3,9.8,4.6,13.8,8.1c4,1.2,5.2,5.8,8.1,8.1c0.6,0.6,1.2,1.2,1.2,2.3
				c0.6,4,1.7,8.1,2.3,12.7c0,0.6,0,1.7,0,2.3c-1.7,2.3,0,5.2-1.7,7.5c-1.2,1.2,0,2.9,1.2,3.5c1.7,2.3,1.7,5.2,0.6,6.9
				c-0.6,1.7-0.6,3.5-0.6,5.2c0,4.6,0,9.2,1.2,13.3c0.6,2.3,0.6,5.2,1.2,7.5c1.2,3.5,1.7,6.9,1.7,10.4c0,2.3,0,5.2,0,7.5
				c0,1.7,1.2,4-1.2,5.2c0.6,3.5-1.2,6.9,2.3,9.8c0.6,0.6,1.2,2.3,0.6,2.9c-1.2,1.7-1.2,2.9,0,4.6c0.6,1.7,0.6,2.9,2.3,4.6
				c2.3,2.3,4.6,4.6,6.9,6.9c-1.7,1.7-2.3,4,0.6,5.8c1.2,1.2,2.3,2.3,2.3,3.5c0,1.2-0.6,2.9-1.2,4.6c0,0.6,0,1.7,0,1.7
				c-1.7,1.2-2.9,1.7-5.2,2.9c6.3,1.7,8.6,5.8,9.8,10.4c0.6,2.3,1.2,4,2.3,5.8c1.2,1.7,3.5,3.5,4,5.8c0,0.6,0.6,0.6,1.2,0.6
				c3.5,1.2,4.6,3.5,5.8,6.3c1.7-0.6,3.5-1.2,4.6-0.6c1.2,0.6,2.3,1.2,4,1.2c1.2,0,2.9,0.6,4.6,1.2c-0.6,1.7-0.6,2.9-1.2,4.6
				c1.2,1.2,2.3,2.3,3.5,3.5c1.7,0.6,3.5,1.2,4.6,1.7c1.2,0.6,2.3,2.3,4,0c1.2,1.7,2.3-0.6,3.5,0c1.7,0.6,3.5,0,4.6,0
				c1.2,0,1.7,0,2.9,0c-6.3-1.2-10.4-5.8-16.1-8.6c0-2.3,0-5.2,0-8.1c-1.2,0-1.7,0-2.9,0c-1.2,0-1.7,0-2.9,0c-2.9,0-4-1.7-2.9-4
				c1.2-2.9,2.9-5.8,4-9.2c0.6-0.6,1.7-1.7,0.6-2.9c-1.2-1.2,0-4-2.3-4.6c-3.5-1.2-4.6-4-6.3-6.3c1.7-2.3,3.5-4.6,5.2-6.9
				c-0.6-1.2-1.2-2.9-0.6-4s1.7-2.3,3.5-3.5c-5.2-0.6-6.3-4.6-6.9-6.3c0.6-1.7,0.6-2.9,1.2-4c2.9,1.7,5.2,2.3,7.5,3.5
				c1.2-1.7,1.7-4,2.9-5.8c-1.2-1.7-1.7-2.9-2.3-4c1.2-2.3,2.9-2.3,4.6-1.7c4,0.6,7.5-1.2,11-3.5c1.2-1.2,4-4.6,3.5-5.8
				c-1.2-2.9-2.9-5.8-4-8.1c-0.6-1.2-2.3-1.2-3.5-1.7c-0.6-0.6-1.2-0.6-1.7-1.2c0,0,0-0.6-0.6-1.2c0.6-0.6,1.2-1.2,1.2-1.7
				c3.5,1.2,6.3,1.7,8.6,3.5c1.7,1.2,3.5,0.6,5.8,1.2c1.2-2.3,4.6-1.7,5.2-4.6c3.5-4,4.6-8.6,8.1-12.7c1.7-1.7,3.5-4,2.9-6.9
				c-0.6-1.7,0.6-3.5,1.7-5.2c2.9-4,4-8.1,1.7-13.3c-0.6-1.2-0.6-1.7-1.2-2.9c3.5-2.9,6.9-5.8,10.4-7.5c2.9-1.2,5.8-2.3,8.1-5.2
				c1.2,0.6,2.3,1.2,4,1.2c1.2,0,2.9,0,4-0.6c1.7-0.6,2.9-2.3,4-2.9c1.2-0.6,1.7-2.9,2.3-4c0.6-0.6,0-1.7,0.6-2.3
				c4-7.5,4.6-16.1,5.8-24.2c0.6-1.7,1.2-4.6-1.2-6.3c0-4-0.6-8.6,4.6-11c0.6-0.6,1.2-1.2,1.2-1.7c2.3-5.2,5.2-9.8,9.2-13.8
				c0.6-0.6,0.6-1.2,1.2-1.7c0.6-2.3,1.7-5.2,2.3-7.5c0-1.2-0.6-2.3-1.2-4c-0.6-3.5-1.7-4.6-5.2-5.2c-2.9-0.6-5.8-1.7-8.1-3.5
				c-2.9-1.7-5.2-4-6.9-7.5c-4,0-8.1-1.7-12.7-1.2h-0.6c-4-2.9-6.9-0.6-9.8,2.3c-1.7-2.3-1.7-2.3-0.6-5.8c-1.7-2.9-5.2-3.5-7.5-5.2
				s-4,0-5.8,0.6c-1.2,0.6-1.7,1.2-2.3,2.3c-1.7,2.3-4,3.5-6.9,1.7c-0.6,0-1.2,0-1.7-0.6c4-0.6,5.2-3.5,7.5-5.2
				c-0.6-1.2-1.2-2.3-2.3-2.9c-2.9-1.7-4-1.7-6.9,0.6c-2.3,2.3-4,4-6.3,6.3c0,0-0.6,0-1.2,0c-0.6-0.6-1.2-1.2-1.7-1.7
				c1.7-2.3,3.5-4.6,5.2-5.8c3.5-1.7,4-5.2,5.8-7.5c-0.6-1.2-2.9-0.6-2.3-2.3c0-1.7-1.2-2.9-1.2-4.6s-1.2-3.5-1.7-4.6
				c-1.7-2.3-4-4.6-6.3-6.3c-1.7-1.2-3.5-3.5-5.8-1.2c-0.6-0.6-0.6-1.2-1.2-1.7c-0.6,0-1.7-0.6-2.3,0c-2.9,1.7-5.2,0.6-7.5,0
				c-4-1.2-8.1-3.5-9.2-7.5c-1.7-4-5.2-5.2-7.5-7.5c-2.9-2.9-7.5-3.5-11-5.2c-1.7-1.2-3.5-1.7-5.8-0.6c-0.6,0.6-2.3,0.6-2.9,0
				c-2.9-1.2-5.8-2.3-8.6-2.3c-1.2-1.7-4,0-4.6-2.3s-2.9-2.3-4.6-3.5c-2.9-1.7-3.5,0.6-5.2,1.7c-0.6,0.6-1.7,1.2-2.3,1.7
				c-1.2,0.6-1.2,2.3-0.6,3.5c0.6,0.6,1.2,1.2,1.7,1.7c-1.2,1.7-2.3,3.5-4,5.2c-1.2-1.7-2.3-3.5-2.3-4.6c0-0.6,0.6-1.7,1.2-2.9
				c0-1.2,0-2.3,0-3.5c0-0.6,0.6-1.7,0.6-2.3c-0.6,0-1.2,0-1.7-0.6c0.6,0,4-2.3,4-2.9c-4.6-1.2-5.8,3.5-9.2,5.2
				c-5.2,0-7.5,1.7-9.8,6.3c-1.2,2.3-2.3,5.2-5.2,5.8c-0.6,0-1.2,1.2-1.7,1.7c-2.3-1.7-4.6-4-7.5-5.2c-4-1.2-8.1,1.2-11.5,2.9
				c-2.3-1.2-4.6-2.3-6.3-3.5c-1.2-1.7-1.2-3.5-2.9-4.6c0.6-2.9-3.5-1.2-3.5-2.9c0.6,0,1.2,0,1.7,0c0.6-2.3,1.2-4,1.7-6.3
				c0.6-3.5,0-7.5,1.2-10.4c1.2-2.9,0.6-4.6-0.6-6.3c-3.5,0-6.9-2.3-9.8-1.2c-3.5,1.7-6.9-0.6-9.8,1.7c0.6-1.7-2.3-2.3-1.2-4
				c1.7-2.9,2.9-6.3,4-9.2c2.3-4.6,4-8.6,6.3-13.3c-4.6-2.3-4.6-2.3-8.1-1.2c-0.6,0-1.7,0.6-2.3,0.6c-2.9,0-4,1.7-4.6,4
				c-2.3,5.8-3.5,6.3-8.6,8.6c-2.9,1.2-5.8,0-8.1,1.7c-0.6,0.6-1.7,0-2.9-0.6c-5.8-1.7-8.1-6.3-9.8-11.5c-0.6-2.3-1.2-4.6-1.7-6.9
				c-0.6-1.7-0.6-2.9,0-4.6c1.7-4.6,2.9-8.6,4.6-13.3c-1.2,0-2.3-0.6-2.9-0.6c2.9-0.6,4-1.7,4.6-5.2c0-2.3,1.7-5.2,5.2-6.3
				c4-1.7,7.5-4,11.5-6.3c3.5-2.3,6.9-3.5,11-0.6c2.9,1.7,6.3,2.3,9.2,2.9c1.2-3.5,2.9-6.9,7.5-6.3c1.7-1.7,2.9-1.2,4.6,0
				c2.3,1.2,5.2,1.7,7.5,2.9c0.6,0.6,1.7,0,2.3,0c1.2,0,1.7-0.6,2.9-1.2c1.7,1.7,3.5,3.5,5.2,5.2c0,1.2,0,2.3-0.6,3.5
				c-0.6,1.7-1.2,4,0,5.8c0.6,1.2,1.2,2.9,1.2,4c0.6,2.3,1.7,4,4,4.6c1.2-1.7,2.3-3.5,3.5-5.8c0.6-1.2,0.6-2.3,0-2.9
				c-1.7-1.7-0.6-3.5-1.2-5.8c0-1.2,0-2.3-0.6-3.5c-1.2-2.9-1.2-5.8,0-8.6c1.2-2.3,2.9-5.2,4.6-6.9c2.9-2.3,6.3-4,9.2-6.3
				c1.2-0.6,2.3-2.3,4-2.3c4.6-1.2,7.5-4,10.4-7.5c1.7-1.7,2.3-4,2.3-6.3c-2.9-3.5,0-5.8,1.7-8.1c0.6,1.2,1.7,2.3,2.9,4
				c0-1.7,0-3.5,0-4c2.3-2.9,4.6-4.6,7.5-5.8c1.7-0.6,2.9-1.2,3.5-3.5c1.2-2.3,3.5-3.5,5.8-4c3.5-1.2,7.5-1.7,11-4
				c0.6-0.6,1.2-0.6,1.7-1.7c1.2-4,1.2-4,5.2-6.3c3.5-1.7,6.9-3.5,10.4-4.6c1.2-0.6,2.3-1.2,2.3-2.9c0,0,0.6,0,0.6-0.6
				c0,0.6,0.6,1.2,0.6,1.7c2.9-2.3,6.3-2.9,9.8-2.9c0.6,0,1.7,0.6,2.9,1.7c-4,2.3-8.6,2.9-11.5,6.3c2.9,1.2,2.9,1.2,5.2,0
				c2.3-1.2,4.6-3.5,7.5-3.5c4.6-0.6,8.1-2.3,12.1-5.8c-1.7,0-3.5,0-4,0.6c-2.3,1.2-4,1.2-6.3,0c-2.3-1.2-4-2.3-4.6-4.6
				c-0.6-1.2-0.6-1.7-1.2-2.9c2.9-2.3,5.8-4,6.3-7.5c-8.1-1.7-14.4,2.9-20.7,5.8c-1.7-1.7-1.7-3.5,0-4c4-1.2,6.9-3.5,11-4.6
				c6.3-2.3,9.2-4,14.4-4c1.7,0,3.5,0.6,5.2,1.2c2.3,0.6,4.6,0,6.9-0.6c4.6-1.2,8.6-1.7,12.7-4c1.2-0.6,2.9-1.2,4.6-1.2
				c0,1.2,0,2.3,0,4c-2.3,0.6-3.5,2.9-4.6,4.6c-1.2,1.7-4.6,2.9-5.2,4.6c-0.6,2.3-4,2.3-4.6,5.2c2.3,0,4.6-0.6,6.9,0
				c6.3,2.3,12.1,0.6,17.9-1.7c-0.6-0.6-1.2-1.2-1.2-1.2c0-2.9-2.9-4-4.6-4.6c-2.3-0.6-3.5-1.2-4.6-3.5c0,0,0-0.6-0.6-1.2
				c1.2-1.2,2.3-1.7,2.9-2.9c-1.7-3.5-1.7-4,0-5.8c2.9-1.7,3.5-4,4.6-6.3c-1.2-1.2-2.3-2.9-3.5-4c-3.5-0.6-6.9,0-9.2,2.3
				c-1.2-0.6-1.7-1.2-2.3-1.7c1.7-1.2,2.9-2.3,4.6-3.5c-1.7-2.9-3.5-5.8-4.6-8.6c0.6-1.2,1.2-2.3,1.7-3.5c-1.2-2.3-2.9-4-1.2-6.9
				c0.6-1.2-0.6-3.5-1.2-4.6c-5.2,3.5-9.8,6.3-14.4,8.6c-2.3-1.7-4-3.5-5.8-5.2c0,0,0.6-0.6,0.6-1.2c0.6-0.6,0.6-1.2,0.6-1.7
				c0.6-1.7,0.6-4-1.2-5.2c-2.3-1.7-4.6-2.9-6.9-4c-2.9-1.2-5.8-1.2-8.6-1.7c-4,0-6.9,1.7-8.6,5.2c-1.2,2.9-2.9,6.3-6.3,8.1
				c-2.9,1.2-2.3,2.3-1.7,5.8c0.6,1.2,1.2,2.9,0.6,3.5c-2.3,2.3-2.9,5.8-6.3,7.5c-1.7,0.6-3.5,1.7-5.2,2.3c-6.3,2.9-6.9,4-9.2,10.4
				c0,0.6,0,0.6,0,1.2c-1.2,4-4.6,5.2-7.5,6.3c-0.6,0-1.7,0-1.7-0.6c-1.2-1.7-2.3-3.5-2.9-5.2c0-0.6,0.6-1.7,0.6-2.9
				c0.6-2.3,1.2-5.2,2.9-7.5c0.6-1.2,0-1.7-0.6-1.7c-0.6-0.6-1.2,0-1.7-0.6c-3.5-1.2-6.9-1.7-10.4-4c-2.9-1.7-5.8-4-9.8-3.5
				c-2.3,0-4.6-1.2-5.2-4c0-1.2-0.6-2.3-1.2-3.5c-0.6-0.6-1.7-1.2-2.3-1.2c1.7-5.2,4.6-8.1,9.2-9.8c1.7-0.6,2.9-2.3,4-2.9
				c1.7-1.2,4-2.3,5.8-2.9c2.3-1.2,4.6-1.7,6.9-2.3c0.6,0,1.2-1.7,1.2-1.7c-1.7-1.7,0.6-2.3,1.2-3.5c4,1.7,11.5,0.6,17.9-2.9
				c-1.7-1.2-2.9-2.9-4-3.5c0.6-1.2,0.6-1.7,1.2-2.9c1.2,1.2,1.7,1.7,2.3,1.7c1.7,1.2,4,1.7,6.3,0c0.6-0.6,1.2-0.6,1.7-1.2
				c0,0,0.2,0,0.5,0c-0.7-0.3-1.3-0.6-1.7-0.6C476.7,179.8,477.8,178.1,479,176.9z"/>
			<path fill="#FF6D1F" d="M479.5,183c0.3-0.1,0.6-0.2,0.8-0.2c-0.3,0-0.5,0-0.8,0C479.5,182.8,479.5,182.9,479.5,183z"/>
			<path fill="#FF6D1F" d="M505.5,149.3c0,0.1,0,0.2,0,0.4c0.9,0.5,1.9,1,2.9,1.4c1.7,0.6,3.5-0.6,5.2-1.2c-1.6,0-3.1,0-4.6,0
				C507.8,149.9,507.2,149.3,505.5,149.3z"/>
			<path fill="#FF6D1F" d="M534.9,144.1c3.5-2.3,6.9-4.6,11-5.2c1.2-2.3,4,0,5.8-2.3c1.2-1.7,3.5-2.3,5.8-3.5c1.7-1.2,4-2.3,6.3-2.3
				c2.9,0,5.8-0.6,8.6-1.2c1.7-0.6,3.5-1.2,5.2-1.2s3.5-0.6,5.2-1.2c3.4-1.5,7.1-3.3,11-5.1c-19.9,1.2-39.4,4.1-58.3,8.5
				c0,0.1,0.1,0.1,0.1,0.1c1.7,0,4-0.6,5.8,0c4,1.2,7.5,1.7,11.5,0c0.6-0.6,1.7,0.6,3.5,1.2c-1.7,1.2-2.9,2.9-4.6,2.9
				c-4.6,0-9.2,0-13.8,0c-2.3-2.3-4.6-0.6-8.1,0.6c1.2,1.2,2.3,2.3,3.5,3.5c-1.2,1.7-2.9,1.7-5.2,0.6c-1.7-0.6-2.9-0.6-4.6,0
				c1.4,0.5,2.5,1,3.7,1.7c0.1,0,0.2,0,0.3,0C530.3,140.6,532.6,143.5,534.9,144.1z"/>
			<path fill="#FF6D1F" d="M519.3,144.5c3.4-0.1,6.2-1.1,8.6-2.7c-0.3-0.2-0.6-0.4-0.9-0.6c-2.3,0-5,0.6-7.8,1.1
				C519.3,143.2,519.3,143.8,519.3,144.5z"/>
			<path fill="#FF6D1F" d="M514.7,144.1c0-1.7,0-3.5,0-5.8c1.9-1,3.9-2.3,5.8-3.8c-3.3,0.9-6.5,1.9-9.8,2.9c0.9,0.3,1.8,0.7,2.8,1.5
				c0,1.2,0,2.9,0,4.6c-1.2,0-2.3,0-2.9,0c1.7,1.7,6.3,1.7,5.2,6.3c-0.6,0-1.7,0-2.3,0c0,0,0,0,0,0c2,0,4.1,0,6.3,0
				c2.3,2.3,4.6,0.6,6.3-0.6c1.7-0.6,2.9-1.7,4.6-2.3c-3.5-2.9-8.1-0.6-11.5-1.7c0-0.3,0-0.5,0-0.7
				C517.9,144.5,516.4,144.4,514.7,144.1z"/>
		</g>
		<g>
			<g>
				<path fill="#FF6D1F" d="M742.9,235.7c-3.5,0-6.9,0-11,0c-1.7,2.9-4.6,3.5-6.9,4c-0.6,0-0.6,0.6-1.2,1.2c0.6,1.2,1.7,1.7,2.3,2.3
					c-1.2,3.5-4.6,5.8-0.6,9.2c3.5-2.9,8.1-2.9,11.5-4.6c0-2.9,0.6-5.2,0.6-6.9c-0.6,0-1.7-0.6-3.5-0.6c2.3-1.2,4,0,5.8-1.2
					c1.2-1.2,3.5-2.3,4.6-2.9c1.2-0.6,2.9-0.6,4-0.6c2.3,0.6,1.2,2.9,2.9,4.6c1.2,1.2,0,2.9-1.7,3.5c-1.7,0.6-2.9,1.2-4.6,1.2
					c1.2,2.9,1.2,2.9-1.7,4.6c1.7,2.3,5.8,0.6,7.5,3.5c-3.5,1.2-6.9,2.3-9.8,3.5c4,0.6,7.5-1.2,11.5-1.2c4-0.6,8.1-1.2,12.7-1.7
					c-0.6-0.6-1.7-1.7-2.3-2.3c1.7-1.2,3.5-2.9,5.2-4c-1.7-2.3-3.5-1.7-5.2-0.6c-1.2-2.3-2.3-4.6-3.5-6.9c-0.6-0.6-3.5-5.2-3.5-5.8
					c-1.2-1.2-2.3-2.3-4.6-2.3c-0.6,0-1.2-1.2-1.7-1.7c1.7-1.2,2.9-2.9,4.6-4c-0.6,0-1.7,0-2.3,0s-1.7-0.6-2.3-1.2
					c0-0.6,0-1.2,0.6-2.3c-4,0.6-4.6,4-6.3,6.3C743.5,231.7,745.2,233.4,742.9,235.7z"/>
			</g>
			<g>
				<path fill="#FF6D1F" d="M688.2,196c0,0,0,0,0.6,0.6c1.7-1.2,4-1.2,5.8,0c2.3,2.9,5.2,2.9,8.6,1.7c5.2-1.7,11-2.9,15.6-6.9
					l-0.6-0.6c-2.3-2.3-5.2-4-9.2-2.3c-1.7,1.2-4.6,2.3-6.9,0c-0.6-0.6-2.3,0-3.5,0.6c-1.2,0.6-2.3,1.2-2.9,1.7
					c-1.7,0-2.9,0.6-4.6,1.2C688.2,193.1,689.9,195.4,688.2,196z"/>
			</g>
			<g>
				<path fill="#FF6D1F" d="M412.1,401.7c1.7,0.6,2.9-1.2,4.6,0c1.2,0.6,3.5,0,5.2,1.2c0.6,0.6,2.3,0,2.9,0c1.7-0.6,2.9-1.2,4.6-1.7
					c-2.3-2.3-2.3-2.3-6.3-3.5c-1.7-0.6-4-1.2-5.2-2.9c-2.9-2.9-6.3-4-9.8-5.8c-4.6-1.7-9.2-1.7-13.8-1.2c-2.9,0-5.2,1.7-7.5,3.5
					c-0.6,0-0.6,1.2-0.6,2.3c2.9-1.2,5.2-1.7,7.5-2.9c1.2-0.6,2.3-1.2,3.5-0.6c2.9,1.2,5.8,1.2,8.6,2.9c2.9,2.3,5.8,4,9.2,6.3
					c-1.2,0.6-1.7,1.2-2.9,1.7C411.5,401.7,412.1,401.7,412.1,401.7z"/>
			</g>
			<g>
				<path fill="#FF6D1F" d="M798.8,225.4c-0.6,0.6-1.2,1.7-1.7,1.7c-1.7,0.6-2.3,1.7-2.9,2.9c-1.2,1.7-0.6,2.9,0,4.6
					c0.6,0.6,0,2.3,0,3.5c2.3,0.6,4-0.6,5.2-1.7c-0.6-0.6-0.6-0.6-1.2-1.2c2.3-1.7,1.7,1.2,2.9,1.7c0.6-0.6,1.2-1.7,1.7-2.3
					c0.6,0.6,1.7,1.2,2.3,2.3c3.5-3.5,3.5-3.5,1.2-6.3c-1.2,1.2-2.3,2.3-3.5,2.3s-2.9,0.6-4,0.6
					C798.3,230.5,801.2,228.2,798.8,225.4z"/>
			</g>
			<g>
				<path fill="#FF6D1F" d="M416.1,382.1c3.5,0,6.9,0,9.8,0c0,4,1.7,8.1,1.2,12.1c0,0,0,0,0.6,0.6c1.2,0,2.3,0,4,0
					c-0.6-3.5-2.3-0.6-2.9-1.2c-0.6-4-1.2-8.6-1.7-12.7c-2.9,0-5.8,0-8.6,0c-1.7,0-2.3-1.2-2.9-2.3c0-0.6,0-1.7,0-2.9
					c2.3,0,4.6,0,6.3,0c-0.6-2.3,1.2-4.6-2.3-6.3c0.6,1.7,0.6,3.5,1.2,5.2c-2.3,0-3.5,0-5.2,0c0-1.7,0-2.9,0-4
					c0.6,0,1.2-0.6,1.7-0.6v-0.6c-0.6,0-1.2,0-1.7,0s-1.2,0-1.7,0.6c0.6,0.6,1.2,1.7,0,2.3c2.9,2.9,0,4.6-0.6,5.8
					C413.8,379.3,415,380.4,416.1,382.1z"/>
			</g>
			<g>
				<path fill="#FF6D1F" d="M441.5,404c0,2.9,0,5.2,0,7.5c4-1.2,7.5-1.7,12.1-2.9C449.6,406.3,446.1,403.5,441.5,404z"/>
			</g>
			<g>
				<path fill="#FF6D1F" d="M431.1,411.5c3.5-1.7,5.8,0,8.6,1.2c0-2.9,0-5.8,0-8.1c-2.3,0-4,0-6.3,0c0.6,1.2,1.2,2.3,2.3,4
					c-1.7,0.6-2.9,1.7-4.6,1.7s-3.5-1.2-5.8,0C428.2,410.4,430,412.1,431.1,411.5z"/>
			</g>
			<g>
				<path fill="#FF6D1F" d="M485.3,435.7c-1.2-0.6-2.9,0.6-2.9,1.7c0,2.3-1.2,2.3-2.9,2.9c-1.2,0-1.7,1.7-1.2,2.9s1.2,1.7,1.7,2.3
					c2.3,0,3.5-1.2,3.5-2.3c0-1.7,0.6-1.7,2.3-1.7c1.7,0,2.3-1.2,2.3-2.9C487,437.5,485.9,436.3,485.3,435.7z"/>
			</g>
			<g>
				<g>
					<path fill="#FF6D1F" d="M840.3,209.8c3.5,1.7,6.9,4,11,3.5c-4-3.5-7.5-6.9-11.5-10.4C838.6,205.8,838.6,209.2,840.3,209.8z"/>
				</g>
				<g>
					<path fill="#FF6D1F" d="M953.3,449.6c-4-1.7-8.1-3.5-6.9-9.2c-1.7,0-2.9,0-4.6,0v-0.6c1.2,0,2.3-0.6,2.9-0.6
						c-1.7-2.3-3.5-4.6-5.2-6.3c-1.2-1.2-2.9-2.3-4.6-3.5c-1.7-1.2-2.9-2.9-4.6-4c-1.2-0.6-2.9-1.7-2.9-4c0-1.7-0.6-3.5-1.7-5.2
						s-2.3-3.5-4-5.2c-3.5-3.5-5.2-6.9-4.6-12.1c0-1.7,0-2.9-1.7-4c-1.7-2.3-3.5-4.6-4.6-6.9c-1.2-2.9-1.7-5.8-3.5-8.1
						c-4.6-6.9-7.5-15-13.3-21.3c0.6-1.2,1.2-1.7,1.7-2.3c2.9,3.5,5.2,5.8,7.5,9.2c1.2-2.3-0.6-5.2,2.3-6.9c0.6,1.7,1.7,4,2.3,5.8
						c0.6,3.5,1.7,5.8,4,8.6c2.3,2.9,4.6,5.8,6.3,8.6c1.2,1.7,2.3,4,4,5.2c2.3,1.7,2.9,4.6,3.5,6.9c1.2,4.6,2.3,9.8,7.5,12.1
						c1.2,0.6,1.7,1.7,2.3,2.9c1.7,4,4.6,7.5,6.9,9.2c0.6,3.5,1.7,5.8,1.7,8.1c-0.6,4,2.3,6.9,3.5,10.4c0,0.6,1.7,1.7,2.3,1.7
						c2.3-1.2,5.2-0.6,7.5-1.7c1.2-0.6,2.9-1.2,4-1.7c-4.6-47.3-19-91.6-40.9-130.8c-1.7,0.6-4,1.2-5.8,0.6
						c-2.9-1.2-5.8-1.7-8.6-3.5c-1.2-0.6-2.3-1.7-4-1.7c-3.5-0.6-6.3-1.2-9.8-1.2c-1.7,0-2.9,1.2-4.6,2.3s-3.5,3.5-6.3,1.2
						c0,0-0.6,0-1.2,0c-5.2,0.6-6.3,0.6-9.8-2.3c-1.7-1.2-3.5,0-5.2-1.7c1.7,0,2.9-0.6,4-0.6c1.2-3.5,1.2-6.9,3.5-10.4
						c5.2-8.1,4-8.6,12.7-12.1c0.6,1.2,1.2,2.9,2.3,2.9c1.2,0.6,2.9,0,3.5,2.3c-0.6,0.6-1.2,0.6-2.9,1.7c2.3,1.7,4,2.9,5.8,4
						c2.9-1.2,5.2-2.9,8.1-4c-2.9-0.6-5.8,0-6.3-3.5c1.7-1.2,4-2.3,6.3-2.9c-14.4-20.7-30.5-40.3-49-57.6c-2.3,0-4.6,0.6-6.9,1.2
						c-0.6,0-0.6,0.6-1.2,0.6c-1.2,0-1.7,0-2.9,0c-0.6,1.2-0.6,1.7-1.2,2.9c0,0,0.6,0,1.2,0.6c1.7,0.6,2.3-1.7,4-2.3
						c1.7,1.2,2.9,2.9,4.6,4.6c-1.2,1.2-2.3,2.3-3.5,3.5c-2.3-1.2-4.6-2.9-7.5-2.3c-1.2,2.3-2.3,4.6-0.6,7.5c0.6,1.2,0,2.3-1.7,2.9
						c0-6.3,0-13.3,0-20.2c2.3,0,4.6,0,6.9,0c2.3,0,4.6,0,7.5,0c-0.6-0.6-0.6-0.6-1.2-1.2c-4.6,0-9.8,0-15,0c0,7.5,0,15.6,0,22.5
						c-1.7,1.2-4,1.7-5.8,2.9c-2.3-2.3-5.2-2.3-8.1-1.2s-5.8,2.3-8.1,3.5c-1.7-1.2-3.5-2.9-5.8-2.9s-4.6,1.2-7.5,2.3
						c-0.6-0.6-0.6-1.2-1.2-1.7c-2.9-2.9-4-2.9-6.9,1.2c-1.2,1.7-2.3,2.9-4.6,2.3c-1.2-0.6-1.2,0.6-1.2,1.7h-0.6
						c0-0.6-0.6-1.2-0.6-2.3c-1.2,1.7-4,0.6-4.6,2.3c-2.3,4-6.3,5.2-9.2,8.6c-1.2,1.2-3.5,1.2-4.6,1.7c-1.2,1.2-2.3,2.9-2.9,4
						c-0.6,0.6-0.6,1.2-1.2,1.2c-1.7,1.2-4,1.7-5.8,2.9c-1.7-2.3-2.9,0-4,0.6c-2.3,1.7-4,1.7-7.5,1.2c-1.7,0-3.5,0-4,2.9
						c1.2,0.6,2.9,1.2,4,1.7c2.3,0.6,4.6,1.2,5.8,3.5c1.7,2.9,3.5,6.3,1.2,9.8c-0.6,0.6,0,1.2,0,2.3c0,2.3-1.2,4-2.9,5.8
						c-2.3,0-4.6,0-6.9,0c-2.3,0-4.6,0-6.3-1.2c-2.9-1.2-6.3-1.2-9.8-1.2s-5.2,2.3-5.2,6.3c1.2,0,1.7,0.6,2.9,0.6
						c-0.6,0.6-1.7,1.2-1.7,2.3c-0.6,3.5-1.2,6.3-2.3,9.8c-0.6,2.9-1.7,5.2,0,8.1c0,0.6,0,1.2,0,1.7c-1.7,1.7,0,2.3,1.2,2.9
						c1.2,0,2.3,0,2.9,0c0.6-1.2,0.6-1.7,0.6-2.3c1.2,4,5.2,4.6,8.1,6.9c2.3-2.9,5.8-2.9,8.6-2.3c2.3,0,4-0.6,6.3-1.7
						c3.5-1.7,5.2-4.6,7.5-6.3c0-1.7,0-2.9,0-4.6c4,0.6,8.1-0.6,11.5,1.2c1.7,0.6,2.3,0,3.5-3.5c-4.6,1.7-9.2,1.2-13.8,1.2
						c2.3-3.5,2.3-3.5,5.2-5.8c2.3-1.2,4-2.3,6.3-4c1.2-0.6,1.7-1.2,2.9-2.3c-1.7-1.2-2.9-1.7-4-2.9c2.3-1.2,4.6-2.9,6.9-3.5
						s5.2,0.6,8.1,1.2c0,1.2,0,1.7,0.6,2.9c3.5,0,6.9,0,10.4,0c-0.6,2.3,0,4,2.9,4c0-1.7,0-3.5,0-4.6c-2.3-0.6-4-1.2-5.8-1.2
						c-2.3,0-4.6,0-6.9,0c0-2.3,0-4.6,0.6-6.3c0.6,0.6,0,1.2,0.6,1.7c0,1.2,1.2,2.3,2.3,2.3c1.7,0,2.9-1.2,2.9-1.7
						c0-3.5,2.9-3.5,4.6-4.6c2.9,1.2,4.6,2.9,5.8,5.8c0.6,1.7,1.2,4,3.5,4.6c1.2,0.6,2.3,1.7,2.9,4c0,1.7,1.2,2.9,4,1.7
						c0.6,0,0.6,0,1.2,0c0,0.6,0,1.2,0,1.7c-4.6,0-9.2,0-13.8,0c-2.9,0-5.2,0.6-6.3,3.5c0.6,2.3,1.7,4,2.3,6.3
						c1.2-0.6,1.7-1.2,2.9-1.7c0-2.3,0-4.6,0-6.9c5.2,0,10.4,0,15.6,0c0.6-0.6,0.6-1.2,0.6-2.3c2.3,1.7,5.8,2.3,6.9,4.6
						c1.2,1.7,2.3,3.5,2.9,5.8c-1.7,1.7,0,3.5-1.2,5.8c-1.2,0-2.9,0-4.6,0c-4-0.6-4.6-0.6-8.1,0.6c2.9,1.7,6.3,2.9,9.2,4.6
						c0.6-1.7,0-4.6,3.5-4c0.6,0,1.2-0.6,1.2-0.6c-0.6-2.3,1.2-2.9,2.3-4c1.2-1.2,1.2-2.3,0.6-3.5c-0.6-1.2-1.2-1.7-1.7-2.9
						c2.3-4,5.8,0.6,8.6-1.2c-2.9-1.7-5.8-3.5-8.6-4.6c-5.2-2.9-8.1-5.2-11.5-9.2c-1.2-1.7-2.3-4-5.2-3.5c-0.6,0-1.2-0.6-1.2-0.6
						c0.6-3.5-2.3-3.5-4-4c2.3-1.2,5.2-2.9,7.5-4c1.2,1.2,2.9,1.7,4,2.9c-1.2,0.6-1.7,0.6-2.9,1.2c5.2,1.2,9.2,3.5,12.1,6.9
						c1.2,1.2,2.9,1.7,4.6,1.7c0.6,0,1.7,0.6,2.3,0.6c3.5,1.7,5.8,6.3,6.3,10.4c0,4,1.7,6.9,5.8,8.6c1.7,0.6,2.9,0.6,4.6,1.2
						c1.2,0,1.7,0.6,3.5,1.7c-1.2,0.6-1.7,1.2-2.9,1.7c-1.2,0-1.7,0-3.5,0c1.7,2.3,2.9,4.6,4.6,6.3c2.9,2.3-0.6,5.2,1.7,7.5
						c2.9-0.6,5.8,0.6,9.2,1.7c2.9,0.6,5.2,1.7,7.5-1.2c-2.3-0.6-4.6-1.7-7.5-1.7s-5.8,0-8.6,0c0-4.6,0-8.1,3.5-11
						c-1.7-3.5-3.5-6.3-5.2-9.8c2.9-2.9,2.9-2.9,5.8-1.2c2.3-4,4.6-5.2,8.6-3.5c0-0.6,0.6-1.2,1.2-2.3c0.6,1.7,0.6,2.9,0.6,4
						c0.6-0.6,0.6-1.2,1.2-1.2c2.3-0.6,4.6-0.6,6.9-1.2c1.2,0,2.3,0.6,4.6,1.2c-2.3,1.2-3.5,2.3-5.2,3.5c-0.6,0.6-1.7,0.6-1.7,0.6
						c-2.9-2.9-4,0.6-6.3,1.2c2.9,1.7,5.2,3.5,4.6,7.5c0,1.7,1.2,4,2.3,5.2c2.3,2.3,5.2,2.3,8.1,3.5c1.7,0.6,2.3-1.2,3.5-1.7
						c0.6,0,1.2,0,1.7,0c2.3,0,4.6,0,6.3,2.3c1.2,1.2,2.3,1.2,3.5,1.2c1.7,0,3.5-0.6,4.6-1.7c2.3-1.2,4.6-2.3,7.5-1.2
						c0.6,1.2,1.2,2.3,2.3,3.5c-0.6,0-1.2,0.6-2.3,0.6c0,1.7,0,3.5,0,4.6c2.9,0,2.9,0,2.9,2.3c-0.6-0.6-0.6-0.6-1.2-1.2
						c-0.6,0-1.2,0-1.2,0c-0.6,1.2-1.2,2.3-1.7,4c0,1.2,0.6,2.3,0.6,3.5c-0.6,0-1.2,0-1.7,0.6c0,1.7,0,3.5-0.6,4.6
						c0,1.2-1.2,3.5-1.7,3.5c-2.9,0-0.6,2.9-2.3,3.5c-0.6-1.7-1.7-2.9-2.9-1.7c-1.7,1.7-3.5,0.6-5.2,0c-2.3-1.2-4.6-1.7-7.5,0
						c-4,1.7-8.6,0-12.7-0.6c-2.9-0.6-9.2-1.7-9.2-1.7l-1.2-0.6c-2.3-1.2-4.6-2.3-6.3-3.5c-3.5-1.7-6.9-2.9-11.5-2.3
						c-2.3,2.3-3.5,4.6-1.7,6.9c-1.7,2.3-2.9,4-4.6,5.8c-3.5-1.7-6.3-2.9-9.8-3.5c-4.6-0.6-4.6-1.2-8.1-5.2c0-2.3-2.3-2.3-2.9-2.3
						c-1.7,0-3.5-1.2-5.2-1.2c-2.3-0.6-4.6,0-6.3-1.2s-3.5-2.9-5.2-4.6c-0.6-0.6-0.6-0.6-1.2-1.2c0.6-2.3,1.7-4,2.3-6.3
						c-0.6-1.2-3.5-2.3-1.2-4.6c0,0,0-0.6,0-1.2c-0.6-1.2-4-2.3-5.8-1.7c-2.3,0.6-4,1.7-6.3,2.3c-2.9,0.6-5.2,0-8.1,0
						c-2.3,0-5.2,0.6-7.5-1.2c-2.3-1.2-4,0.6-6.3,1.2c-5.2,0.6-9.8,2.3-13.8,5.8c-1.7,1.2-2.9,1.7-4.6,2.9c-1.7,0.6-9.2-0.6-11-1.7
						c-1.2-1.2-2.9-1.7-4-2.3c-0.6,0.6-0.6,0.6-1.2,1.2c-2.3,4.6-6.3,8.1-11,11c-4,2.3-4.6,4-6.3,8.6c-1.2,2.3-1.2,4.6-1.2,6.9
						c-3.5,5.2-14.4,11-14.4,11l-1.2,1.2c-0.6,1.2-1.2,1.7-1.7,2.9c-1.2,1.7-2.9,3.5-4,5.8c-2.9,5.2-5.2,10.4-9.2,15
						c-1.2,1.2-2.3,2.9-1.7,5.2c0,0,1.2,1.2-1.7,1.2c2.3,4,4.6,7.5,4,11.5c2.3,3.5,0,6.9-0.6,10.4c0.6,0,1.2,0.6,1.7,0.6
						c-2.3,2.3-4,4.6-6.3,7.5c3.5,2.3,2.3,6.9,6.3,9.2c-1.7,0-3.5,0.6-4.6,0.6c1.2,2.3,1.7,2.9,4.6,3.5c-0.6,0-1.2,0.6-2.3,0.6
						c0.6,0.6,1.2,1.7,1.7,1.7c2.3-0.6,3.5,1.2,4.6,2.9c1.7,2.9,3.5,5.2,5.2,7.5c1.2,1.2,1.7,2.9,2.3,4.6c0,2.3,1.2,4,2.9,5.8
						c3.5,3.5,6.9,6.9,11.5,10.4c1.7,1.2,2.9,2.3,5.2,2.9c2.3,0.6,4.6,1.2,6.9,1.7c2.3-1.7,5.8-1.7,8.6-2.9c1.7-0.6,3.5,0,5.2-1.2
						c1.2-0.6,3.5,0.6,5.2,0.6c0-0.6,0.6-1.2,1.2-2.3c0.6,1.7,0.6,2.9,0.6,4c4.6-1.7,9.2-2.9,13.8-4.6c1.2-0.6,1.2-1.7,1.7-2.9h0.6
						c0,0.6,0.6,1.2,0.6,1.7c2.3-1.2,1.7-2.9,1.7-4.6c0,0,1.2,2.3,1.2,3.5c1.2-0.6,2.3-1.2,3.5-1.7c0-1.7,1.2-3.5,1.2,0
						c1.7,0,2.9-0.6,3.5-0.6c1.7,0.6,2.9,1.7,4.6,2.3c2.9,1.2,4,3.5,4,6.3c0,0.6,0,1.2,0,1.7c4,0.6,7.5-2.9,11.5,0
						c0-0.6,0.6-1.2,0.6-2.3c0.6,1.2,0.6,3.5,1.2,3.5c2.9,0,2.3,2.9,3.5,4c2.3,1.7,0,4,1.7,5.8c6.3,0,1.2,6.3-1.2,6.3
						c-0.6,2.9-1.2,5.2-1.7,6.9c-0.6,1.7-0.6,2.9,0,4.6c1.2,3.5,3.5,5.2,5.8,7.5c3.5,2.9,6.3,6.3,6.9,11c-1.7,0-3.5,0-4.6,0
						c0,2.3,0,4,0,6.3c2.3,0,4.6,0,6.9,0c0.6,1.2,0.6,1.7,1.2,2.3c1.7,2.3,3.5,4,1.7,6.9c-0.6,1.2,0,2.9,0.6,4.6s0.6,4,1.7,5.8
						c1.7,2.3,0.6,3.5,0,5.2c-1.2,2.3-1.7,4.6-3.5,6.3c-1.7,2.3-1.7,4.6-2.9,6.9c-0.6,1.2,0,2.9-1.2,4c-1.7,2.9-1.7,5.2-1.2,8.6
						c1.2,0,1.7,0.6,3.5,0.6c-2.3,0.6-3.5,1.7-2.9,3.5c0,0.6,0,1.2,0.6,1.2c1.2,2.3,2.9,4.6,4,7.5s2.9,5.2,4,8.1
						c1.2,2.9,1.7,5.8,2.3,8.6s2.3,5.8,1.7,8.6c-0.6,3.5,1.2,5.8,1.2,9.2c0,4,1.7,6.3,5.2,7.5c0,0.6-0.6,1.2-0.6,1.7
						c1.2,1.7,3.5,2.9,3.5,4.6c0.6,3.5,2.9,5.8,4.6,8.1c1.2,1.2,1.2,2.3,0.6,4c-1.7,4,0,6.9,4,9.8c1.2,0.6,1.7,1.7,2.9,1.2
						c1.7-1.2,3.5-0.6,5.2-1.2c6.9-2.3,6.9-2.3,14.4,0c0.6,0,1.2,0,1.7,0c6.9-3.5,13.8-6.9,18.4-13.3c2.3-2.9,4.6-5.2,6.9-7.5
						c1.2-1.2,1.7-2.3,2.3-3.5c1.2-2.3,2.9-4,4.6-5.2c0.6-0.6,1.7-1.2,2.3-1.7c0-0.6-0.6-1.2-0.6-1.2c-1.7-2.3-1.7-5.2-0.6-8.1
						c0.6-2.3,2.3-3.5,5.2-4c1.2-0.6,2.3-1.2,3.5-1.7c2.9-1.2,4-4,5.2-6.3c1.2-2.3,0-4-1.2-6.3c-0.6-1.2-1.2-1.7-1.7-2.9
						c-1.7-2.9-1.2-4.6,1.2-6.9c1.2-1.2,2.9-2.9,4-4c0.6-1.2,1.7-1.7,2.3-2.9c1.2-2.9,2.9-4.6,5.8-5.2c1.7-0.6,2.9-1.7,4.6-2.3
						c5.2-2.3,6.9-7.5,9.8-12.1c0-0.6,0-1.7,0-1.7c-1.7-2.3-0.6-5.2-1.7-7.5c-0.6-1.2-0.6-3.5,0-4.6c1.2-1.7,0.6-2.3-0.6-4
						c-2.3-5.2-6.3-10.4-5.2-16.7c-2.9-4,0-7.5,0.6-11c0.6-2.3,1.7-4,2.9-5.8c2.3-4,6.3-6.9,9.2-10.4c1.2-1.2,1.7-2.3,2.3-3.5
						c4-5.8,9.2-10.4,15-14.4c1.7-1.2,4-2.9,5.8-4c0-4.6,0.6-8.6,0.6-13.3c0-7.5-0.6-15.6-0.6-23.1c-2.3,0.6-4.6,1.2-6.3,1.7
						C955.6,450.1,954.5,450.1,953.3,449.6z"/>
				</g>
				<g>
					<path fill="#FF6D1F" d="M831.1,198.8c0.6-0.6,1.2-0.6,1.7-1.2c-6.3-4.6-12.1-9.2-18.4-13.8c-1.7,1.7-4,2.9-5.2,5.2
						c-1.7,2.9-3.5,5.2-5.8,6.3c-1.7,1.2-2.9,2.3-4.6,3.5c-1.7,1.2-4,2.3-6.3,2.9c-4.6,1.2-8.1,3.5-10.4,7.5
						c0.6,1.2,0.6,2.3,1.2,2.9c1.7,1.2-1.2,1.7,0,2.9c0,0,0,0.6,0,1.2c0.6,1.2,3.5,4.6,5.8,5.8c1.7,0.6,4,0.6,5.8-0.6
						c1.7-1.2,4-2.3,6.3-3.5c2.9,2.9,5.2,5.8,6.3,9.8c0.6,2.9,2.3,5.2,4.6,6.3c5.8-1.2,8.6-3.5,9.8-8.6c0.6-1.2,0.6-2.9,1.7-4
						c0.6-1.2,2.3-1.7,3.5-2.3c1.7-1.2,3.5-2.3,3.5-5.2c-3.5-0.6-6.3-2.9-7.5-6.9C825.9,201.7,825.9,201.2,831.1,198.8z"/>
				</g>
				<g>
					<path fill="#FF6D1F" d="M909.5,283c0,0,0,0.6-0.6,0.6c0.6,0,1.2,0.6,1.2,0.6C910.1,283.6,909.5,283.6,909.5,283z"/>
				</g>
			</g>
			<g>
				<path fill="#FF6D1F" d="M497.4,748.1c-1.2,0-2.3-0.6-3.5-0.6c0-0.6,0-0.6,0.6-0.6c2.3,0,4,0,6.9,0c0,2.9,0,5.8,0,8.1h-0.6
					c0-1.2-0.6-1.7-0.6-2.9c-1.7,0-4,0-6.9,0C494.5,749.9,495.7,749.3,497.4,748.1z M421.3,299.7c-1.7-2.3,1.7-4,1.2-6.3
					c0,0.6,0.6,1.2,0.6,1.7c2.3-1.2,4.6-1.7,7.5-2.9c0.6,1.2,1.7,2.3,2.3,3.5C430,297.4,426.5,300.3,421.3,299.7z M451.3,287
					c-1.7,2.3-3.5,4-6.3,4c-1.7,0-4,1.2-6.3-1.7C443.2,287.6,446.1,284.7,451.3,287z M425.4,270.9c0,0,0,0.6-0.6,1.2
					c-1.2,1.7-1.2,2.9,0.6,4c1.2,0.6,1.7,1.7,2.9,2.9c1.7-1.2,2.9-1.7,4.6-2.3c2.9,1.2,5.2,2.9,6.3,5.8c-0.6,1.2-1.2,2.9-2.3,3.5
					s-2.9-0.6-4-1.2c-1.2,3.5-2.9,5.8-6.9,6.3c-1.2-0.6-2.9-1.7-4.6-2.9c1.7-2.3,2.9-4,4.6-6.3c-4-1.7-7.5,0.6-10.4,2.3
					c-2.3,1.7-4.6,4-5.2,8.1c-0.6,3.5-3.5,6.3-6.9,8.1c-1.2-1.2-2.3-2.3-3.5-3.5c2.3-4.6,4.6-8.6,7.5-13.3c1.7-2.3,4.6-3.5,6.9-4.6
					s5.2-1.2,7.5-1.2c-0.6-1.7-2.3-2.3-2.9-1.7c-2.3,1.7-4,1.2-5.8-0.6c-2.9-2.3-5.2-2.3-8.1,0c-2.9,1.7-4.6,1.2-8.6-1.2
					c2.3-1.7,4.6-2.9,6.9-4.6c-1.2,0-2.3-0.6-3.5-0.6v-0.6c1.2,0,2.9,0,4,0.6c1.7,1.2,2.3-0.6,3.5-0.6c1.2,0,2.3-1.2,4-1.2
					c1.2,0,1.7-0.6,2.9-0.6c3.5-1.7,3.5-1.7,6.9,0C423.6,266.9,423.6,269.2,425.4,270.9z"/>
			</g>
			<g>
				<path fill="#FF6D1F" d="M437.5,173.5c1.2-0.6,2.9-1.2,4.6-2.3c-1.2-0.6-2.3-1.7-3.5-2.3c-3.5,2.3-6.9,4.6-11,6.3
					C430.5,176.4,434,175.8,437.5,173.5z"/>
			</g>
			<g>
				<path fill="#FF6D1F" d="M276.7,386.2c0-0.6-0.6-1.2-0.6-1.2c0,0.6,0,1.2-0.6,1.7c0.6,0,0.6,0.6,1.2,0.6
					C276.7,386.7,277.2,386.2,276.7,386.2z"/>
			</g>
			<g>
				<path fill="#FF6D1F" d="M669.7,125.6C669.7,125.6,669.2,125.6,669.7,125.6c-2.3,0.6-4,0.6-5.8,1.2s-3.5,0.6-5.2,1.2
					s-3.5,1.2-5.2,1.2c-4.6,0-9.2,1.7-13.8,1.2c-0.6,0-1.2,0-1.7,0.6c-2.9,1.7-5.8,1.2-8.1,0.6c-2.3-0.6-4-0.6-6.3-0.6
					c-2.3-0.6-4.6-1.2-6.3-1.2c-4,0-8.1,0.6-12.7,1.2c-0.6,0-0.6,0-1.2,0c-4,2.3-8.6,2.9-12.7,5.2c-4,2.9-8.6,3.5-13.3,3.5
					c-4,0.6-8.6,1.2-13.3,1.7c3.5,1.7,0,2.9,0.6,4.6c5.8,2.3,7.5,2.9,13.3,1.7c4-0.6,7.5,0,11.5,1.2c1.7,0.6,2.9,2.3,4.6,4
					c1.7,1.7,2.3,4,4,5.8c1.7,1.7,1.2,4,0,5.8c2.9,1.2,6.3,2.3,5.8,6.3c0,0,0,0,0.6,0.6c1.2,1.2,0.6,2.3,0,3.5
					c-1.2,2.3-2.3,4-4.6,5.2c-4.6,1.7-8.1,4.6-9.2,9.8c0,0.6,0,0.6,0.6,1.2c2.3,2.3,1.7,4.6,0.6,7.5c-0.6,0.6-1.2,1.7-0.6,2.3
					c1.2,2.3,1.2,5.2,3.5,7.5c2.9,2.9,6.3,4,9.2,5.8c1.7,1.2,3.5,1.7,4.6,1.2c2.3-1.2,4.6-1.7,5.8-3.5c2.3-3.5,5.2-6.9,7.5-11
					c2.9-4,6.3-6.3,11-8.1c1.7-0.6,2.9-1.2,5.2-1.2c1.7,0,3.5-0.6,5.2-1.2c2.3-0.6,4.6-1.2,6.9-2.3c3.5-2.9,7.5-5.2,12.1-6.9
					c1.7-0.6,3.5-1.7,5.2-0.6c2.9,1.2,5.8,0.6,8.1,0c5.8-1.7,11.5-2.3,17.9-3.5c-2.3-2.3-4-4-7.5-1.7c-1.2,0.6-3.5,0.6-4.6-1.7
					c1.2-0.6,2.3-0.6,3.5-1.2l0.6-0.6c-0.6-0.6-1.2-1.2-2.3-1.7c1.2-1.2,2.3-2.9,4-1.2c1.2,1.2,2.9,2.3,4,2.9c1.2,0.6,2.9,1.7,4,1.7
					s2.3-1.2,3.5-1.2c-2.3-4.6-8.6-4.6-11.5-8.6c0.6-0.6,1.2-1.2,1.7-1.7c1.7,0.6,3.5,2.3,5.8,0c0,0,1.2,0,1.7,0
					c3.5-1.2,6.9-2.9,9.8-4l0.6-0.6c1.2-4,4.6-6.3,7.5-9.2c-0.6-1.2-1.2-2.3-1.7-3.5c1.7-1.7,2.9-2.9,4.6-4.6
					C700.3,131.4,685.3,128,669.7,125.6z"/>
			</g>
		</g>
		<g>
			<circle fill="none" cx="615" cy="470.9" r="349.3"/>
		</g>
		<g opacity="0.15">
			<path fill="#231F20" d="M587.3,818.4c9.8,0.6,19,1.2,28.8,1.2c193.1,0,349.3-156.2,349.3-349.3c0-6.3,0-13.3-0.6-19.6
				C944.1,647.3,785.6,802.9,587.3,818.4z"/>
		</g>
		<g>
			<path fill="#FFFFFF" d="M337.8,645.5c-4.6-1.7-8.6-2.9-13.3-4.6l1.7-5.2c4,1.7,8.6,2.9,13.3,4.6L337.8,645.5z M311.8,636.3
				c-4.6-1.7-8.6-3.5-13.3-5.2l1.7-4.6c4,1.7,8.6,3.5,12.7,4.6L311.8,636.3z M285.3,626.5c-4.6-1.7-8.6-3.5-12.7-5.8l2.3-4.6
				c4,1.7,8.6,3.5,12.7,5.8L285.3,626.5z M259.9,615c-4-2.3-8.6-4-12.7-6.3l2.3-4.6c4,2.3,8.1,4,12.1,6.3L259.9,615z M235.2,601.7
				c-4-2.3-8.1-4.6-12.1-7.5l2.9-4.6c3.5,2.3,7.5,4.6,11.5,6.9L235.2,601.7z M211.5,586.7c-4-2.9-7.5-5.8-11-8.6l3.5-4
				c3.5,2.9,6.9,5.8,11,8.6L211.5,586.7z M190.2,568.3c-3.5-3.5-6.9-6.9-9.2-11l4-2.9c2.3,3.5,5.8,6.9,8.6,10.4L190.2,568.3z
				 M173.5,545.2c-2.3-4.6-3.5-9.2-4.6-13.8l5.2-0.6c0.6,4,2.3,8.1,4,12.7L173.5,545.2z M174.1,517.6l-5.2-1.2
				c1.2-4.6,2.9-9.2,5.2-13.8l4.6,2.9C176.4,509.5,174.6,513.5,174.1,517.6z M186.7,495.1l-3.5-3.5c2.9-3.5,6.9-6.3,11-9.2l2.9,4
				C193.1,489.3,189.6,492.2,186.7,495.1z"/>
		</g>
		<g>
			<path fill="none" stroke="#FF6D1F" stroke-width="3" stroke-miterlimit="10" stroke-dasharray="4" d="M338.9,643.2"/>
		</g>
		<g>
			<path fill="#FFFFFF" d="M572.3,694.5c-4.6-0.6-9.2-1.2-13.8-1.7l0.6-5.2c4.6,0.6,9.2,1.2,13.8,1.7L572.3,694.5z M544.7,691.1
				c-4.6-0.6-9.2-1.2-13.8-2.3l0.6-5.2c4.6,0.6,9.2,1.2,13.8,2.3L544.7,691.1z M517.6,686.5l-1.7-0.6l1.2-5.2l1.7,0.6L517.6,686.5z"
				/>
		</g>
		<g>
			<path fill="#FFFFFF" d="M739.5,706.6h-4v-5.2h4c3.5,0,6.9,0,10.4,0v5.2C746.4,706.6,742.9,706.6,739.5,706.6z M722.2,706.6
				c-4.6,0-9.2,0-13.8-0.6v-5.2c4.6,0,9.2,0,13.8,0.6V706.6z M763.7,706.6v-5.2c4.6,0,9.2,0,13.8-0.6v5.2
				C772.9,706.6,768.3,706.6,763.7,706.6z M693.9,706.1c-4.6,0-9.2-0.6-13.8-0.6v-5.2c4.6,0,9.2,0.6,13.8,0.6V706.1z M791.4,705.5
				v-5.2c4.6,0,9.2-0.6,13.8-0.6l0.6,5.2C801.2,704.9,796.5,705.5,791.4,705.5z M666.3,704.3c-4.6-0.6-9.2-0.6-13.8-1.2l0.6-5.2
				c4.6,0.6,9.2,0.6,13.8,1.2L666.3,704.3z M819.6,703.7l-0.6-5.2c4.6-0.6,9.2-0.6,13.8-1.2l0.6,5.2
				C828.8,702.6,824.2,703.2,819.6,703.7z M638.6,702.6c-4.6-0.6-9.2-0.6-13.8-1.2l0.6-5.2c4.6,0.6,9.2,0.6,13.8,1.2L638.6,702.6z
				 M847.3,700.9l-0.6-5.2c4.6-0.6,9.2-1.2,13.8-1.7l0.6,5.2C856.5,699.7,851.9,700.3,847.3,700.9z M611,699.7
				c-4.6-0.6-9.2-1.2-13.8-1.7l0.6-5.2c4.6,0.6,9.2,1.2,13.8,1.7L611,699.7z M874.9,696.8l-0.6-5.2c4.6-0.6,9.2-1.7,13.8-2.3
				l1.2,5.2C884.1,695.1,879.5,696.3,874.9,696.8z M902,691.6l-1.2-5.2c4.6-1.2,9.2-2.3,13.3-3.5l1.2,5.2
				C911.2,689.3,906.6,690.5,902,691.6z M929.1,684.7l-1.7-5.2c4.6-1.2,8.6-2.9,13.3-4l1.7,5.2C938.3,681.8,933.7,683,929.1,684.7z
				 M955.6,675.5l-1.7-4.6c4.6-1.7,8.6-3.5,12.7-5.8l2.3,4.6C964.8,671.5,960.2,673.2,955.6,675.5z M981,662.8l-2.9-4.6
				c4-2.3,8.1-5.2,11.5-7.5l2.9,4C989,657.6,985.6,660.5,981,662.8z M1003.5,645.5l-4-3.5c3.5-3.5,5.8-6.9,8.1-10.4l4.6,2.9
				C1009.8,638,1006.9,642.1,1003.5,645.5z M1017.9,620.7l-5.2-1.2c0.6-1.7,0.6-2.9,0.6-4.6s0.6-3.5,0.6-5.2c0-1.2,0-2.3,0-3.5
				l5.2-0.6c0,1.2,0,2.3,0,3.5c0,1.7,0,4-0.6,5.8C1018.4,617.3,1018.4,619,1017.9,620.7z M1011,593.7c-1.7-4-3.5-8.1-5.8-12.1
				l4.6-2.9c2.9,4,4.6,8.6,6.3,12.7L1011,593.7z M997.1,570.6c-2.9-3.5-5.8-6.3-9.2-9.8l3.5-4c3.5,3.5,6.9,6.9,9.8,10.4L997.1,570.6
				z"/>
		</g>
		<g>
			<g>
				<polygon fill="#FFC5A5" points="914.7,356.2 846.1,390.2 843.8,408.1 				"/>
			</g>
			<g>
				<polygon fill="#FFFFFF" points="832.3,363.1 846.1,390.2 914.7,356.2 				"/>
			</g>
			<g>
				<polygon fill="#FFFFFF" points="865.7,422.5 849.6,396.5 914.7,356.2 				"/>
			</g>
			<g>
				<polygon fill="#FF8A4C" points="849.6,396.5 843.8,408.1 852.4,401.7 				"/>
			</g>
			<g>
				<polygon fill="#FFE2D2" points="865.7,422.5 872,382.7 849.6,396.5 				"/>
			</g>
			<g>
				<polygon fill="#FFE2D2" points="832.3,363.1 869.2,378.7 846.1,390.2 				"/>
			</g>
		</g>
		<g>
			<path fill="#FFFFFF" d="M401.2,501.4v-5.2c4.6,0,9.2,0,13.8,0v5.2C410.4,501.4,405.8,501.4,401.2,501.4z M387.3,501.4
				c-4.6,0-9.2,0-13.8-0.6v-5.2c4.6,0,9.2,0,13.8,0.6V501.4z M428.8,500.9v-5.2c4.6,0,9.2-0.6,13.8-0.6v5.2
				C438,500.3,433.4,500.9,428.8,500.9z M359.1,500.3c-4.6,0-9.2-0.6-13.8-0.6l0.6-5.2c4.6,0.6,9.2,0.6,13.8,0.6L359.1,500.3z
				 M457.1,499.7l-0.6-5.2c4.6,0,9.2-0.6,13.8-1.2l0.6,5.2C466.3,499.1,461.7,499.1,457.1,499.7z M331.4,498.6
				c-4.6-0.6-9.2-1.2-13.8-1.2l0.6-5.2c4.6,0.6,9.2,1.2,13.8,1.2L331.4,498.6z M484.7,497.4l-0.6-5.2c4.6-0.6,9.2-0.6,13.8-1.2
				l0.6,5.2C493.9,496.3,489.3,496.8,484.7,497.4z M303.7,495.1c-4.6-0.6-9.2-1.2-13.8-2.3l1.2-5.2c4.6,0.6,9.2,1.7,13.8,2.3
				L303.7,495.1z M512.4,494.5l-0.6-5.2c4.6-0.6,9.2-1.2,13.8-1.7l0.6,5.2C521.6,493.4,517,493.9,512.4,494.5z M540.1,491.1
				l-0.6-5.2c4.6-0.6,9.2-1.2,13.8-1.7l0.6,5.2C549.3,489.9,544.7,490.5,540.1,491.1z M276.1,490.5c-4.6-1.2-9.2-1.7-13.8-2.9
				l1.2-5.2c4.6,1.2,8.6,2.3,13.3,2.9L276.1,490.5z M567.7,487l-0.6-5.2c4.6-0.6,9.2-1.7,13.8-2.3l1.2,5.2
				C576.9,485.3,572.3,486.5,567.7,487z M249,484.1c-4.6-1.2-9.2-2.9-13.3-4l1.7-5.2c4,1.7,8.6,2.9,13.3,4L249,484.1z M594.8,482.4
				l-1.2-5.2c4.6-0.6,9.2-1.7,13.8-2.9l1.2,5.2C604,480.7,599.4,481.3,594.8,482.4z M622.5,476.7l-1.2-5.2c4.6-1.2,9.2-1.7,13.8-2.9
				l1.2,5.2C631.7,474.9,627.1,476.1,622.5,476.7z M222.5,474.4c-4.6-1.7-8.6-4-12.7-5.8l2.3-4.6c4,1.7,8.1,4,12.1,5.8L222.5,474.4z
				 M649.6,470.9l-1.2-5.2c4.6-1.2,9.2-2.3,13.3-3.5l1.2,5.2C658.8,468.6,654.2,469.7,649.6,470.9z M676.7,464l-1.2-5.2
				c4.6-1.2,9.2-2.3,13.3-3.5l1.2,5.2C685.9,461.7,681.3,462.8,676.7,464z M197.7,461.7c-4-2.9-8.1-5.8-11.5-8.6l3.5-4
				c2.9,2.9,6.9,5.8,11,8.1L197.7,461.7z M703.7,456.5l-1.2-5.2c4.6-1.2,8.6-2.3,13.3-4l1.7,5.2
				C712.4,454.2,707.8,455.3,703.7,456.5z M730.3,449l-1.7-5.2c4.6-1.2,8.6-2.9,13.3-4l1.7,5.2C738.9,446.1,734.9,447.3,730.3,449z
				 M176.4,442.1c-2.9-4-5.2-8.1-6.9-12.7l4.6-1.7c1.7,4,3.5,8.1,6.3,11.5L176.4,442.1z M756.8,439.8l-1.7-5.2
				c4.6-1.7,8.6-2.9,13.3-4.6l1.7,4.6C765.4,436.9,760.8,438.6,756.8,439.8z M782.7,430.5l-1.7-4.6c4.6-1.7,8.6-3.5,12.7-5.2
				l1.7,4.6C791.4,427.1,787.3,428.8,782.7,430.5z M808.6,420.2l-2.3-4.6c4-1.7,8.6-3.5,12.7-5.8l2.3,4.6
				C817.3,416.1,813.3,418.4,808.6,420.2z M166,415.6c0-1.2,0-2.9,0-4c0-3.5,0.6-6.9,1.2-10.4l5.2,1.2c-0.6,2.9-1.2,6.3-1.2,9.2
				c0,1.2,0,2.3,0,3.5L166,415.6z M175.8,389l-4.6-2.3c1.7-4,4-8.1,6.9-12.1l4.6,2.9C179.8,381,177.5,385,175.8,389z M190.8,366.6
				l-4-3.5c2.9-3.5,6.3-6.9,9.8-10.4l3.5,3.5C196.5,359.7,193.1,363.1,190.8,366.6z"/>
		</g>
		<g>
			<path fill="#FFFFFF" d="M932,347.6l-3.5-4c3.5-2.9,6.9-6.3,9.8-9.8l4,3.5C938.9,341.2,935.4,344.7,932,347.6z M951,327.4l-4-3.5
				c2.9-3.5,5.8-7.5,8.1-11l4.6,2.9C957.3,319.3,954.5,323.3,951,327.4z M966,302.6l-4.6-1.7c1.7-4,2.9-8.6,3.5-12.7l5.2,0.6
				C968.9,293.4,967.7,298,966,302.6z M964.3,274.9c0-0.6,0-1.2,0-1.7c-0.6-3.5-1.7-7.5-3.5-11l4.6-2.3c1.7,4,2.9,8.1,4,12.1
				c0,0.6,0,1.2,0.6,1.7L964.3,274.9z M953.3,251.3c-2.9-3.5-5.8-6.3-9.2-9.2l3.5-4c4,3.5,7.5,6.9,10.4,10.4L953.3,251.3z
				 M933.1,234c-3.5-2.3-7.5-4.6-12.1-6.9l2.3-4.6c4.6,2.3,8.6,4.6,12.1,6.9L933.1,234z"/>
		</g>
		<g>
			<g>
				<polygon fill="#FFC5A5" points="376.4,653 477.2,661.7 488.2,681.8 				"/>
			</g>
			<g>
				<polygon fill="#FFFFFF" points="480.7,621.9 477.2,661.7 376.4,653 				"/>
			</g>
			<g>
				<polygon fill="#FFFFFF" points="468.6,710.7 475.5,671.5 376.4,653 				"/>
			</g>
			<g>
				<polygon fill="#FF8A4C" points="475.5,671.5 488.2,681.8 474.9,678.4 				"/>
			</g>
			<g>
				<polygon fill="#FFE2D2" points="468.6,710.7 442.1,665.1 475.5,671.5 				"/>
			</g>
			<g>
				<polygon fill="#FFE2D2" points="480.7,621.9 442.7,658.8 477.2,661.7 				"/>
			</g>
		</g>
	</g>
</g>
<g id="grid">
</g>
</svg>
