<?xml version="1.0" encoding="utf-8"?>
<!-- Generator: Adobe Illustrator 18.1.1, SVG Export Plug-In . SVG Version: 6.00 Build 0)  -->
<svg version="1.1" xmlns="http://www.w3.org/2000/svg" xmlns:xlink="http://www.w3.org/1999/xlink" x="0px" y="0px"
	 viewBox="0 0 143.3 201.3" enable-background="new 0 0 143.3 201.3" xml:space="preserve">
<g id="Layer_1">
	<g>
		<g>
			<g>
				<path fill="#FFAA22" d="M113.7,36.3c-2.2,0-3.9-1.8-3.9-3.9s1.8-3.9,3.9-3.9c2.2,0,3.9,1.8,3.9,3.9S115.9,36.3,113.7,36.3z
					 M113.7,28.9c-1.9,0-3.5,1.6-3.5,3.5s1.6,3.5,3.5,3.5c1.9,0,3.5-1.6,3.5-3.5S115.7,28.9,113.7,28.9z"/>
			</g>
			<g>
				<g>
					<path fill="#FFAA22" d="M112.8,31.7h-0.4c0-0.2-0.2-0.4-0.4-0.4s-0.4,0.2-0.4,0.4h-0.4c0-0.4,0.3-0.8,0.8-0.8
						S112.8,31.3,112.8,31.7z"/>
				</g>
				<g>
					<path fill="#FFAA22" d="M116.2,31.7h-0.4c0-0.2-0.2-0.4-0.4-0.4c-0.2,0-0.4,0.2-0.4,0.4h-0.4c0-0.4,0.3-0.8,0.8-0.8
						S116.2,31.3,116.2,31.7z"/>
				</g>
			</g>
			<g>
				<path fill="#FFAA22" d="M113.7,34.7c-1,0-1.8-0.8-1.8-1.8v-0.2h3.6v0.2C115.5,33.9,114.7,34.7,113.7,34.7z M112.4,33.1
					c0.1,0.7,0.7,1.2,1.4,1.2c0.7,0,1.3-0.5,1.4-1.2H112.4z"/>
			</g>
		</g>
		<g>
			<path fill="#FFAA22" d="M26.6,49.8c0,0-0.1,0-0.1,0c-0.1-0.1-3.1-2.3-3.1-4c0-1.2,0.9-1.9,1.7-1.9c0.5,0,1.1,0.3,1.5,1
				c0.4-0.8,1-1,1.5-1c0.8,0,1.7,0.7,1.7,1.9c0,1.7-2.9,3.9-3.1,4C26.7,49.8,26.7,49.8,26.6,49.8z M25.1,44.4
				c-0.6,0-1.3,0.5-1.3,1.4c0,1.3,2.2,3.1,2.8,3.5c0.6-0.4,2.8-2.2,2.8-3.5c0-0.9-0.6-1.4-1.3-1.4c-0.6,0-1.1,0.5-1.3,1.3
				c0,0.1-0.1,0.2-0.2,0.2l0,0c-0.1,0-0.2-0.1-0.2-0.2C26.2,44.9,25.7,44.4,25.1,44.4z"/>
		</g>
		<g>
			<path fill="#FFCA22" d="M114.1,96.6H36.9v-1.5c0-1.4,1.1-2.5,2.5-2.5h72.2c1.4,0,2.5,1.1,2.5,2.5V96.6z"/>
		</g>
		<g>
			<rect x="71.7" y="96.6" fill="#FFCA22" width="7.6" height="13.3"/>
		</g>
		<g opacity="0.1">
			<rect x="71.7" y="96.6" fill="#231F20" width="7.6" height="1.4"/>
		</g>
		<g>
			<path fill="#FFCA22" d="M119.7,193.1H31.3l5.3-77.3c0.2-2.9,2.6-5.2,5.6-5.2h66.7c3,0,5.4,2.3,5.6,5.2L119.7,193.1z"/>
		</g>
		<g>
			<g>
				<g>
					<path fill="#3F6295" d="M83.4,41.3H67.6c-1,0-1.8,0.9-1.8,2.1v9.4h3.8v-9.3h12v9.3h3.8v-9.4C85.3,42.3,84.4,41.3,83.4,41.3z"/>
				</g>
				<g>
					<rect x="69.4" y="41.3" fill="#0F3B7A" width="12.1" height="3.5"/>
				</g>
				<g>
					<g>
						<path fill="#3F6295" d="M78.6,41.3v1.4c0,0.2,0.1,0.4,0.3,0.4c0.2,0,0.3-0.2,0.3-0.4v-1.4H78.6z"/>
					</g>
					<g>
						<path fill="#3F6295" d="M76.9,41.3v1.4c0,0.2,0.1,0.4,0.3,0.4c0.2,0,0.3-0.2,0.3-0.4v-1.4H76.9z"/>
					</g>
					<g>
						<path fill="#3F6295" d="M75.2,41.3v1.4c0,0.2,0.1,0.4,0.3,0.4c0.2,0,0.3-0.2,0.3-0.4v-1.4H75.2z"/>
					</g>
					<g>
						<path fill="#3F6295" d="M73.4,41.3v1.4c0,0.2,0.1,0.4,0.3,0.4c0.2,0,0.3-0.2,0.3-0.4v-1.4H73.4z"/>
					</g>
					<g>
						<path fill="#3F6295" d="M71.7,41.3v1.4c0,0.2,0.1,0.4,0.3,0.4c0.2,0,0.3-0.2,0.3-0.4v-1.4H71.7z"/>
					</g>
				</g>
			</g>
			<g opacity="0.15">
				<rect x="65.7" y="49.5" fill="#231F20" width="3.8" height="0.4"/>
			</g>
			<g opacity="0.15">
				<rect x="81.5" y="49.5" fill="#231F20" width="3.8" height="0.4"/>
			</g>
			<g>
				<rect x="43.3" y="50.2" fill="#0F3B7A" width="64.5" height="42.5"/>
			</g>
			<g opacity="0.35">
				<polygon fill="#231F20" points="107.7,50.6 43.3,50.6 43.3,65.5 55.1,73.4 95.9,73.4 107.7,65.5 				"/>
			</g>
			<g>
				<polygon fill="#0F3B7A" points="108.7,64.2 95.9,72.7 55.1,72.7 42.3,64.2 42.3,49.9 108.7,49.9 				"/>
			</g>
			<g>
				<polygon fill="#FFAA22" points="61,81.3 58.3,83.5 55.6,81.3 55.6,49.9 61,49.9 				"/>
			</g>
			<g opacity="0.15">
				<rect x="55.6" y="71.6" fill="#231F20" width="5.4" height="0.4"/>
			</g>
			<g>
				<path fill="#FFFFFF" d="M61,70.6h-5.4c-0.5,0-0.8,0.4-0.8,0.8v4.3c0,0.5,0.4,0.8,0.8,0.8H61c0.5,0,0.8-0.4,0.8-0.8v-4.3
					C61.8,70.9,61.5,70.6,61,70.6z M60.8,75.4h-5.1v-3.8h5.1V75.4z"/>
			</g>
			<g>
				<path fill="#FFFFFF" d="M57.9,74.2h0.8v-4.4c0-0.2-0.2-0.4-0.4-0.4l0,0c-0.2,0-0.4,0.2-0.4,0.4V74.2z"/>
			</g>
			<g opacity="0.15">
				<rect x="55.6" y="76.5" fill="#231F20" width="5.4" height="0.4"/>
			</g>
			<g opacity="0.15">
				<path fill="#231F20" d="M58.3,67.1c0.2,0,0.4,0.1,0.5,0.3c0-0.1,0-0.1,0-0.2c0-0.3-0.2-0.5-0.5-0.5c-0.3,0-0.5,0.2-0.5,0.5
					c0,0.1,0,0.1,0,0.2C57.9,67.3,58.1,67.1,58.3,67.1z"/>
			</g>
			<g>
				<path fill="#FFFFFF" d="M58.3,66.6c-0.4,0-0.8,0.4-0.8,0.8c0,0.4,0.4,0.8,0.8,0.8c0.4,0,0.8-0.4,0.8-0.8
					C59.1,66.9,58.7,66.6,58.3,66.6z M58.3,67.8c-0.3,0-0.5-0.2-0.5-0.5s0.2-0.5,0.5-0.5c0.3,0,0.5,0.2,0.5,0.5S58.6,67.8,58.3,67.8
					z"/>
			</g>
			<g>
				<g>
					<polygon fill="#FFAA22" points="90.5,81.3 93.2,83.5 95.9,81.3 95.9,49.9 90.5,49.9 					"/>
				</g>
				<g opacity="0.15">
					<rect x="90.5" y="71.6" fill="#231F20" width="5.4" height="0.4"/>
				</g>
				<g>
					<path fill="#FFFFFF" d="M89.7,71.4v4.3c0,0.5,0.4,0.8,0.8,0.8h5.4c0.5,0,0.8-0.4,0.8-0.8v-4.3c0-0.5-0.4-0.8-0.8-0.8h-5.4
						C90,70.6,89.7,70.9,89.7,71.4z M90.6,71.6h5.1v3.8h-5.1V71.6z"/>
				</g>
				<g>
					<path fill="#FFFFFF" d="M93.6,74.2h-0.8v-4.4c0-0.2,0.2-0.4,0.4-0.4l0,0c0.2,0,0.4,0.2,0.4,0.4V74.2z"/>
				</g>
				<g opacity="0.15">
					<rect x="90.5" y="76.5" fill="#231F20" width="5.4" height="0.4"/>
				</g>
				<g opacity="0.15">
					<path fill="#231F20" d="M93.2,67.1c-0.2,0-0.4,0.1-0.5,0.3c0-0.1,0-0.1,0-0.2c0-0.3,0.2-0.5,0.5-0.5c0.3,0,0.5,0.2,0.5,0.5
						c0,0.1,0,0.1,0,0.2C93.6,67.3,93.4,67.1,93.2,67.1z"/>
				</g>
				<g>
					<path fill="#FFFFFF" d="M92.4,67.4c0,0.4,0.4,0.8,0.8,0.8c0.4,0,0.8-0.4,0.8-0.8c0-0.4-0.4-0.8-0.8-0.8
						C92.8,66.6,92.4,66.9,92.4,67.4z M92.7,67.4c0-0.3,0.2-0.5,0.5-0.5c0.3,0,0.5,0.2,0.5,0.5s-0.2,0.5-0.5,0.5
						C92.9,67.8,92.7,67.6,92.7,67.4z"/>
				</g>
			</g>
		</g>
		<g>
			<path fill="#FFA779" d="M127,52.9c0,0,2.6-1.9,2.6-3.2c0-1.6-2.1-2.1-2.6-0.2c-0.5-1.9-2.6-1.4-2.6,0.2
				C124.4,51.1,127,52.9,127,52.9z"/>
		</g>
		<g opacity="0.1">
			<polygon fill="#231F20" points="119.6,191.3 31.4,191.3 31.3,193.1 119.7,193.1 			"/>
		</g>
		<g>
			<path fill="#FFCA22" d="M125.8,199.9H25.2v-4.1c0-1.8,1.5-3.3,3.3-3.3h94c1.8,0,3.3,1.5,3.3,3.3V199.9z"/>
		</g>
		<g>
			<g>
				<circle fill="#FFFFFF" cx="75.5" cy="152" r="44.3"/>
			</g>
			<g>
				<g>
					<g>
						<defs>
							<path id="SVGID_306_" d="M75.5,191.5c-21.8,0-39.6-17.8-39.6-39.6s17.8-39.6,39.6-39.6s39.6,17.8,39.6,39.6
								S97.3,191.5,75.5,191.5z M75.5,117.2c-19.2,0-34.8,15.6-34.8,34.8s15.6,34.8,34.8,34.8c19.2,0,34.8-15.6,34.8-34.8
								S94.7,117.2,75.5,117.2z"/>
						</defs>
						<clipPath id="SVGID_2_">
							<use xlink:href="#SVGID_306_"  overflow="visible"/>
						</clipPath>
						<rect x="40.7" y="186.5" clip-path="url(#SVGID_2_)" fill="#FF721F" width="69.5" height="0.2"/>
						<rect x="40.7" y="185.6" clip-path="url(#SVGID_2_)" fill="#FF731F" width="69.5" height="0.8"/>
						<rect x="40.7" y="184.8" clip-path="url(#SVGID_2_)" fill="#FF741F" width="69.5" height="0.8"/>
						<rect x="40.7" y="184" clip-path="url(#SVGID_2_)" fill="#FF751F" width="69.5" height="0.8"/>
						<rect x="40.7" y="183.1" clip-path="url(#SVGID_2_)" fill="#FF761F" width="69.5" height="0.8"/>
						<rect x="40.7" y="182.3" clip-path="url(#SVGID_2_)" fill="#FF771F" width="69.5" height="0.8"/>
						<rect x="40.7" y="181.4" clip-path="url(#SVGID_2_)" fill="#FF781F" width="69.5" height="0.8"/>
						<rect x="40.7" y="180.6" clip-path="url(#SVGID_2_)" fill="#FF791F" width="69.5" height="0.8"/>
						<rect x="40.7" y="179.7" clip-path="url(#SVGID_2_)" fill="#FF7A1F" width="69.5" height="0.8"/>
						<rect x="40.7" y="178.9" clip-path="url(#SVGID_2_)" fill="#FF7B1F" width="69.5" height="0.8"/>
						<rect x="40.7" y="178.1" clip-path="url(#SVGID_2_)" fill="#FF7C1F" width="69.5" height="0.8"/>
						<rect x="40.7" y="177.2" clip-path="url(#SVGID_2_)" fill="#FF7D1F" width="69.5" height="0.8"/>
						<rect x="40.7" y="176.4" clip-path="url(#SVGID_2_)" fill="#FF7E1F" width="69.5" height="0.8"/>
						<rect x="40.7" y="175.5" clip-path="url(#SVGID_2_)" fill="#FF7F1F" width="69.5" height="0.8"/>
						<rect x="40.7" y="174.7" clip-path="url(#SVGID_2_)" fill="#FF801F" width="69.5" height="0.8"/>
						<rect x="40.7" y="173.9" clip-path="url(#SVGID_2_)" fill="#FF811F" width="69.5" height="0.8"/>
						<rect x="40.7" y="173" clip-path="url(#SVGID_2_)" fill="#FF821F" width="69.5" height="0.8"/>
						<rect x="40.7" y="172.2" clip-path="url(#SVGID_2_)" fill="#FF831F" width="69.5" height="0.8"/>
						<rect x="40.7" y="171.3" clip-path="url(#SVGID_2_)" fill="#FF841F" width="69.5" height="0.8"/>
						<rect x="40.7" y="170.5" clip-path="url(#SVGID_2_)" fill="#FF851F" width="69.5" height="0.8"/>
						<rect x="40.7" y="169.6" clip-path="url(#SVGID_2_)" fill="#FF861F" width="69.5" height="0.8"/>
						<rect x="40.7" y="168.8" clip-path="url(#SVGID_2_)" fill="#FF871F" width="69.5" height="0.8"/>
						<rect x="40.7" y="168" clip-path="url(#SVGID_2_)" fill="#FF881F" width="69.5" height="0.8"/>
						<rect x="40.7" y="167.1" clip-path="url(#SVGID_2_)" fill="#FF891F" width="69.5" height="0.8"/>
						<rect x="40.7" y="166.3" clip-path="url(#SVGID_2_)" fill="#FF8A1F" width="69.5" height="0.8"/>
						<rect x="40.7" y="165.4" clip-path="url(#SVGID_2_)" fill="#FF8B1F" width="69.5" height="0.8"/>
						<rect x="40.7" y="164.6" clip-path="url(#SVGID_2_)" fill="#FF8C1F" width="69.5" height="0.8"/>
						<rect x="40.7" y="163.7" clip-path="url(#SVGID_2_)" fill="#FF8D1F" width="69.5" height="0.8"/>
						<rect x="40.7" y="162.9" clip-path="url(#SVGID_2_)" fill="#FF8E1F" width="69.5" height="0.8"/>
						<rect x="40.7" y="162.1" clip-path="url(#SVGID_2_)" fill="#FF8F1F" width="69.5" height="0.8"/>
						<rect x="40.7" y="161.2" clip-path="url(#SVGID_2_)" fill="#FF901F" width="69.5" height="0.8"/>
						<rect x="40.7" y="160.4" clip-path="url(#SVGID_2_)" fill="#FF911F" width="69.5" height="0.8"/>
						<rect x="40.7" y="159.5" clip-path="url(#SVGID_2_)" fill="#FF921F" width="69.5" height="0.8"/>
						<rect x="40.7" y="158.7" clip-path="url(#SVGID_2_)" fill="#FF931F" width="69.5" height="0.8"/>
						<rect x="40.7" y="157.8" clip-path="url(#SVGID_2_)" fill="#FF941F" width="69.5" height="0.8"/>
						<rect x="40.7" y="157" clip-path="url(#SVGID_2_)" fill="#FF951F" width="69.5" height="0.8"/>
						<rect x="40.7" y="156.2" clip-path="url(#SVGID_2_)" fill="#FF961F" width="69.5" height="0.8"/>
						<rect x="40.7" y="155.3" clip-path="url(#SVGID_2_)" fill="#FF971F" width="69.5" height="0.8"/>
						<rect x="40.7" y="154.5" clip-path="url(#SVGID_2_)" fill="#FF981F" width="69.5" height="0.8"/>
						<rect x="40.7" y="153.6" clip-path="url(#SVGID_2_)" fill="#FF991F" width="69.5" height="0.8"/>
						<rect x="40.7" y="152.8" clip-path="url(#SVGID_2_)" fill="#FF9A1F" width="69.5" height="0.8"/>
						<rect x="40.7" y="152" clip-path="url(#SVGID_2_)" fill="#FF9B1F" width="69.5" height="0.8"/>
						<rect x="40.7" y="151.1" clip-path="url(#SVGID_2_)" fill="#FF9D1F" width="69.5" height="0.8"/>
						<rect x="40.7" y="150.3" clip-path="url(#SVGID_2_)" fill="#FF9E1F" width="69.5" height="0.8"/>
						<rect x="40.7" y="149.4" clip-path="url(#SVGID_2_)" fill="#FF9F1F" width="69.5" height="0.8"/>
						<rect x="40.7" y="148.6" clip-path="url(#SVGID_2_)" fill="#FFA01F" width="69.5" height="0.8"/>
						<rect x="40.7" y="147.7" clip-path="url(#SVGID_2_)" fill="#FFA11F" width="69.5" height="0.8"/>
						<rect x="40.7" y="146.9" clip-path="url(#SVGID_2_)" fill="#FFA21F" width="69.5" height="0.8"/>
						<rect x="40.7" y="146.1" clip-path="url(#SVGID_2_)" fill="#FFA31F" width="69.5" height="0.8"/>
						<rect x="40.7" y="145.2" clip-path="url(#SVGID_2_)" fill="#FFA41F" width="69.5" height="0.8"/>
						<rect x="40.7" y="144.4" clip-path="url(#SVGID_2_)" fill="#FFA51F" width="69.5" height="0.8"/>
						<rect x="40.7" y="143.5" clip-path="url(#SVGID_2_)" fill="#FFA61F" width="69.5" height="0.8"/>
						<rect x="40.7" y="142.7" clip-path="url(#SVGID_2_)" fill="#FFA71F" width="69.5" height="0.8"/>
						<rect x="40.7" y="141.8" clip-path="url(#SVGID_2_)" fill="#FFA81F" width="69.5" height="0.8"/>
						<rect x="40.7" y="141" clip-path="url(#SVGID_2_)" fill="#FFA91F" width="69.5" height="0.8"/>
						<rect x="40.7" y="140.2" clip-path="url(#SVGID_2_)" fill="#FFAA1F" width="69.5" height="0.8"/>
						<rect x="40.7" y="139.3" clip-path="url(#SVGID_2_)" fill="#FFAB1F" width="69.5" height="0.8"/>
						<rect x="40.7" y="138.5" clip-path="url(#SVGID_2_)" fill="#FFAC1F" width="69.5" height="0.8"/>
						<rect x="40.7" y="137.6" clip-path="url(#SVGID_2_)" fill="#FFAD1F" width="69.5" height="0.8"/>
						<rect x="40.7" y="136.8" clip-path="url(#SVGID_2_)" fill="#FFAE1F" width="69.5" height="0.8"/>
						<rect x="40.7" y="135.9" clip-path="url(#SVGID_2_)" fill="#FFAF1F" width="69.5" height="0.8"/>
						<rect x="40.7" y="135.1" clip-path="url(#SVGID_2_)" fill="#FFB01F" width="69.5" height="0.8"/>
						<rect x="40.7" y="134.3" clip-path="url(#SVGID_2_)" fill="#FFB11F" width="69.5" height="0.8"/>
						<rect x="40.7" y="133.4" clip-path="url(#SVGID_2_)" fill="#FFB21F" width="69.5" height="0.8"/>
						<rect x="40.7" y="132.6" clip-path="url(#SVGID_2_)" fill="#FFB31F" width="69.5" height="0.8"/>
						<rect x="40.7" y="131.7" clip-path="url(#SVGID_2_)" fill="#FFB41F" width="69.5" height="0.8"/>
						<rect x="40.7" y="130.9" clip-path="url(#SVGID_2_)" fill="#FFB51F" width="69.5" height="0.8"/>
						<rect x="40.7" y="130.1" clip-path="url(#SVGID_2_)" fill="#FFB61F" width="69.5" height="0.8"/>
						<rect x="40.7" y="129.2" clip-path="url(#SVGID_2_)" fill="#FFB71F" width="69.5" height="0.8"/>
						<rect x="40.7" y="128.4" clip-path="url(#SVGID_2_)" fill="#FFB81F" width="69.5" height="0.8"/>
						<rect x="40.7" y="127.5" clip-path="url(#SVGID_2_)" fill="#FFB91F" width="69.5" height="0.8"/>
						<rect x="40.7" y="126.7" clip-path="url(#SVGID_2_)" fill="#FFBA1F" width="69.5" height="0.8"/>
						<rect x="40.7" y="125.8" clip-path="url(#SVGID_2_)" fill="#FFBB1F" width="69.5" height="0.8"/>
						<rect x="40.7" y="125" clip-path="url(#SVGID_2_)" fill="#FFBC1F" width="69.5" height="0.8"/>
						<rect x="40.7" y="124.2" clip-path="url(#SVGID_2_)" fill="#FFBD1F" width="69.5" height="0.8"/>
						<rect x="40.7" y="123.3" clip-path="url(#SVGID_2_)" fill="#FFBE1F" width="69.5" height="0.8"/>
						<rect x="40.7" y="122.5" clip-path="url(#SVGID_2_)" fill="#FFBF1F" width="69.5" height="0.8"/>
						<rect x="40.7" y="121.6" clip-path="url(#SVGID_2_)" fill="#FFC01F" width="69.5" height="0.8"/>
						<rect x="40.7" y="120.8" clip-path="url(#SVGID_2_)" fill="#FFC11F" width="69.5" height="0.8"/>
						<rect x="40.7" y="119.9" clip-path="url(#SVGID_2_)" fill="#FFC21F" width="69.5" height="0.8"/>
						<rect x="40.7" y="119.1" clip-path="url(#SVGID_2_)" fill="#FFC31F" width="69.5" height="0.8"/>
						<rect x="40.7" y="118.3" clip-path="url(#SVGID_2_)" fill="#FFC41F" width="69.5" height="0.8"/>
						<rect x="40.7" y="117.4" clip-path="url(#SVGID_2_)" fill="#FFC51F" width="69.5" height="0.8"/>
						<rect x="40.7" y="117.2" clip-path="url(#SVGID_2_)" fill="#FFC61F" width="69.5" height="0.2"/>
						<rect x="35.9" y="191.5" clip-path="url(#SVGID_2_)" fill="#FF6D1F" width="79.2" height="0"/>
						<rect x="35.9" y="190.7" clip-path="url(#SVGID_2_)" fill="#FF6D1F" width="79.2" height="0.8"/>
						<rect x="35.9" y="189.9" clip-path="url(#SVGID_2_)" fill="#FF6E1F" width="79.2" height="0.8"/>
						<rect x="35.9" y="189" clip-path="url(#SVGID_2_)" fill="#FF6F1F" width="79.2" height="0.8"/>
						<rect x="35.9" y="188.2" clip-path="url(#SVGID_2_)" fill="#FF701F" width="79.2" height="0.8"/>
						<rect x="35.9" y="187.3" clip-path="url(#SVGID_2_)" fill="#FF711F" width="79.2" height="0.8"/>
						<rect x="35.9" y="186.5" clip-path="url(#SVGID_2_)" fill="#FF721F" width="79.2" height="0.8"/>
						<rect x="35.9" y="185.6" clip-path="url(#SVGID_2_)" fill="#FF731F" width="79.2" height="0.8"/>
						<rect x="35.9" y="184.8" clip-path="url(#SVGID_2_)" fill="#FF741F" width="79.2" height="0.8"/>
						<rect x="35.9" y="184" clip-path="url(#SVGID_2_)" fill="#FF751F" width="79.2" height="0.8"/>
						<rect x="35.9" y="183.1" clip-path="url(#SVGID_2_)" fill="#FF761F" width="79.2" height="0.8"/>
						<rect x="35.9" y="182.3" clip-path="url(#SVGID_2_)" fill="#FF771F" width="79.2" height="0.8"/>
						<rect x="35.9" y="181.4" clip-path="url(#SVGID_2_)" fill="#FF781F" width="79.2" height="0.8"/>
						<rect x="35.9" y="180.6" clip-path="url(#SVGID_2_)" fill="#FF791F" width="79.2" height="0.8"/>
						<rect x="35.9" y="179.7" clip-path="url(#SVGID_2_)" fill="#FF7A1F" width="79.2" height="0.8"/>
						<rect x="35.9" y="178.9" clip-path="url(#SVGID_2_)" fill="#FF7B1F" width="79.2" height="0.8"/>
						<rect x="35.9" y="178.1" clip-path="url(#SVGID_2_)" fill="#FF7C1F" width="79.2" height="0.8"/>
						<rect x="35.9" y="177.2" clip-path="url(#SVGID_2_)" fill="#FF7D1F" width="79.2" height="0.8"/>
						<rect x="35.9" y="176.4" clip-path="url(#SVGID_2_)" fill="#FF7E1F" width="79.2" height="0.8"/>
						<rect x="35.9" y="175.5" clip-path="url(#SVGID_2_)" fill="#FF7F1F" width="79.2" height="0.8"/>
						<rect x="35.9" y="174.7" clip-path="url(#SVGID_2_)" fill="#FF801F" width="79.2" height="0.8"/>
						<rect x="35.9" y="173.9" clip-path="url(#SVGID_2_)" fill="#FF811F" width="79.2" height="0.8"/>
						<rect x="35.9" y="173" clip-path="url(#SVGID_2_)" fill="#FF821F" width="79.2" height="0.8"/>
						<rect x="35.9" y="172.2" clip-path="url(#SVGID_2_)" fill="#FF831F" width="79.2" height="0.8"/>
						<rect x="35.9" y="171.3" clip-path="url(#SVGID_2_)" fill="#FF841F" width="79.2" height="0.8"/>
						<rect x="35.9" y="170.5" clip-path="url(#SVGID_2_)" fill="#FF851F" width="79.2" height="0.8"/>
						<rect x="35.9" y="169.6" clip-path="url(#SVGID_2_)" fill="#FF861F" width="79.2" height="0.8"/>
						<rect x="35.9" y="168.8" clip-path="url(#SVGID_2_)" fill="#FF871F" width="79.2" height="0.8"/>
						<rect x="35.9" y="168" clip-path="url(#SVGID_2_)" fill="#FF881F" width="79.2" height="0.8"/>
						<rect x="35.9" y="167.1" clip-path="url(#SVGID_2_)" fill="#FF891F" width="79.2" height="0.8"/>
						<rect x="35.9" y="166.3" clip-path="url(#SVGID_2_)" fill="#FF8A1F" width="79.2" height="0.8"/>
						<rect x="35.9" y="165.4" clip-path="url(#SVGID_2_)" fill="#FF8B1F" width="79.2" height="0.8"/>
						<rect x="35.9" y="164.6" clip-path="url(#SVGID_2_)" fill="#FF8C1F" width="79.2" height="0.8"/>
						<rect x="35.9" y="163.7" clip-path="url(#SVGID_2_)" fill="#FF8D1F" width="79.2" height="0.8"/>
						<rect x="35.9" y="162.9" clip-path="url(#SVGID_2_)" fill="#FF8E1F" width="79.2" height="0.8"/>
						<rect x="35.9" y="162.1" clip-path="url(#SVGID_2_)" fill="#FF8F1F" width="79.2" height="0.8"/>
						<rect x="35.9" y="161.2" clip-path="url(#SVGID_2_)" fill="#FF901F" width="79.2" height="0.8"/>
						<rect x="35.9" y="160.4" clip-path="url(#SVGID_2_)" fill="#FF911F" width="79.2" height="0.8"/>
						<rect x="35.9" y="159.5" clip-path="url(#SVGID_2_)" fill="#FF921F" width="79.2" height="0.8"/>
						<rect x="35.9" y="158.7" clip-path="url(#SVGID_2_)" fill="#FF931F" width="79.2" height="0.8"/>
						<rect x="35.9" y="157.8" clip-path="url(#SVGID_2_)" fill="#FF941F" width="79.2" height="0.8"/>
						<rect x="35.9" y="157" clip-path="url(#SVGID_2_)" fill="#FF951F" width="79.2" height="0.8"/>
						<rect x="35.9" y="156.2" clip-path="url(#SVGID_2_)" fill="#FF961F" width="79.2" height="0.8"/>
						<rect x="35.9" y="155.3" clip-path="url(#SVGID_2_)" fill="#FF971F" width="79.2" height="0.8"/>
						<rect x="35.9" y="154.5" clip-path="url(#SVGID_2_)" fill="#FF981F" width="79.2" height="0.8"/>
						<rect x="35.9" y="153.6" clip-path="url(#SVGID_2_)" fill="#FF991F" width="79.2" height="0.8"/>
						<rect x="35.9" y="152.8" clip-path="url(#SVGID_2_)" fill="#FF9A1F" width="79.2" height="0.8"/>
						<rect x="35.9" y="152" clip-path="url(#SVGID_2_)" fill="#FF9B1F" width="79.2" height="0.8"/>
						<rect x="35.9" y="151.1" clip-path="url(#SVGID_2_)" fill="#FF9D1F" width="79.2" height="0.8"/>
						<rect x="35.9" y="150.3" clip-path="url(#SVGID_2_)" fill="#FF9E1F" width="79.2" height="0.8"/>
						<rect x="35.9" y="149.4" clip-path="url(#SVGID_2_)" fill="#FF9F1F" width="79.2" height="0.8"/>
						<rect x="35.9" y="148.6" clip-path="url(#SVGID_2_)" fill="#FFA01F" width="79.2" height="0.8"/>
						<rect x="35.9" y="147.7" clip-path="url(#SVGID_2_)" fill="#FFA11F" width="79.2" height="0.8"/>
						<rect x="35.9" y="146.9" clip-path="url(#SVGID_2_)" fill="#FFA21F" width="79.2" height="0.8"/>
						<rect x="35.9" y="146.1" clip-path="url(#SVGID_2_)" fill="#FFA31F" width="79.2" height="0.8"/>
						<rect x="35.9" y="145.2" clip-path="url(#SVGID_2_)" fill="#FFA41F" width="79.2" height="0.8"/>
						<rect x="35.9" y="144.4" clip-path="url(#SVGID_2_)" fill="#FFA51F" width="79.2" height="0.8"/>
						<rect x="35.9" y="143.5" clip-path="url(#SVGID_2_)" fill="#FFA61F" width="79.2" height="0.8"/>
						<rect x="35.9" y="142.7" clip-path="url(#SVGID_2_)" fill="#FFA71F" width="79.2" height="0.8"/>
						<rect x="35.9" y="141.8" clip-path="url(#SVGID_2_)" fill="#FFA81F" width="79.2" height="0.8"/>
						<rect x="35.9" y="141" clip-path="url(#SVGID_2_)" fill="#FFA91F" width="79.2" height="0.8"/>
						<rect x="35.9" y="140.2" clip-path="url(#SVGID_2_)" fill="#FFAA1F" width="79.2" height="0.8"/>
						<rect x="35.9" y="139.3" clip-path="url(#SVGID_2_)" fill="#FFAB1F" width="79.2" height="0.8"/>
						<rect x="35.9" y="138.5" clip-path="url(#SVGID_2_)" fill="#FFAC1F" width="79.2" height="0.8"/>
						<rect x="35.9" y="137.6" clip-path="url(#SVGID_2_)" fill="#FFAD1F" width="79.2" height="0.8"/>
						<rect x="35.9" y="136.8" clip-path="url(#SVGID_2_)" fill="#FFAE1F" width="79.2" height="0.8"/>
						<rect x="35.9" y="135.9" clip-path="url(#SVGID_2_)" fill="#FFAF1F" width="79.2" height="0.8"/>
						<rect x="35.9" y="135.1" clip-path="url(#SVGID_2_)" fill="#FFB01F" width="79.2" height="0.8"/>
						<rect x="35.9" y="134.3" clip-path="url(#SVGID_2_)" fill="#FFB11F" width="79.2" height="0.8"/>
						<rect x="35.9" y="133.4" clip-path="url(#SVGID_2_)" fill="#FFB21F" width="79.2" height="0.8"/>
						<rect x="35.9" y="132.6" clip-path="url(#SVGID_2_)" fill="#FFB31F" width="79.2" height="0.8"/>
						<rect x="35.9" y="131.7" clip-path="url(#SVGID_2_)" fill="#FFB41F" width="79.2" height="0.8"/>
						<rect x="35.9" y="130.9" clip-path="url(#SVGID_2_)" fill="#FFB51F" width="79.2" height="0.8"/>
						<rect x="35.9" y="130.1" clip-path="url(#SVGID_2_)" fill="#FFB61F" width="79.2" height="0.8"/>
						<rect x="35.9" y="129.2" clip-path="url(#SVGID_2_)" fill="#FFB71F" width="79.2" height="0.8"/>
						<rect x="35.9" y="128.4" clip-path="url(#SVGID_2_)" fill="#FFB81F" width="79.2" height="0.8"/>
						<rect x="35.9" y="127.5" clip-path="url(#SVGID_2_)" fill="#FFB91F" width="79.2" height="0.8"/>
						<rect x="35.9" y="126.7" clip-path="url(#SVGID_2_)" fill="#FFBA1F" width="79.2" height="0.8"/>
						<rect x="35.9" y="125.8" clip-path="url(#SVGID_2_)" fill="#FFBB1F" width="79.2" height="0.8"/>
						<rect x="35.9" y="125" clip-path="url(#SVGID_2_)" fill="#FFBC1F" width="79.2" height="0.8"/>
						<rect x="35.9" y="124.2" clip-path="url(#SVGID_2_)" fill="#FFBD1F" width="79.2" height="0.8"/>
						<rect x="35.9" y="123.3" clip-path="url(#SVGID_2_)" fill="#FFBE1F" width="79.2" height="0.8"/>
						<rect x="35.9" y="122.5" clip-path="url(#SVGID_2_)" fill="#FFBF1F" width="79.2" height="0.8"/>
						<rect x="35.9" y="121.6" clip-path="url(#SVGID_2_)" fill="#FFC01F" width="79.2" height="0.8"/>
						<rect x="35.9" y="120.8" clip-path="url(#SVGID_2_)" fill="#FFC11F" width="79.2" height="0.8"/>
						<rect x="35.9" y="119.9" clip-path="url(#SVGID_2_)" fill="#FFC21F" width="79.2" height="0.8"/>
						<rect x="35.9" y="119.1" clip-path="url(#SVGID_2_)" fill="#FFC31F" width="79.2" height="0.8"/>
						<rect x="35.9" y="118.3" clip-path="url(#SVGID_2_)" fill="#FFC41F" width="79.2" height="0.8"/>
						<rect x="35.9" y="117.4" clip-path="url(#SVGID_2_)" fill="#FFC51F" width="79.2" height="0.8"/>
						<rect x="35.9" y="116.6" clip-path="url(#SVGID_2_)" fill="#FFC61F" width="79.2" height="0.8"/>
						<rect x="35.9" y="115.7" clip-path="url(#SVGID_2_)" fill="#FFC71F" width="79.2" height="0.8"/>
						<rect x="35.9" y="114.9" clip-path="url(#SVGID_2_)" fill="#FFC81F" width="79.2" height="0.8"/>
						<rect x="35.9" y="114" clip-path="url(#SVGID_2_)" fill="#FFC91F" width="79.2" height="0.8"/>
						<rect x="35.9" y="113.2" clip-path="url(#SVGID_2_)" fill="#FFCA1F" width="79.2" height="0.8"/>
						<rect x="35.9" y="112.4" clip-path="url(#SVGID_2_)" fill="#FFCB1F" width="79.2" height="0.8"/>
					</g>
				</g>
			</g>
			<g>
				<g>
					<g>
						<rect x="75.3" y="107.7" fill="#FFFFFF" width="0.4" height="9.5"/>
					</g>
					<g>
						<rect x="75.3" y="186.8" fill="#FFFFFF" width="0.4" height="9.5"/>
					</g>
				</g>
				<g>
					<g>
						<rect x="110.3" y="151.8" fill="#FFFFFF" width="9.5" height="0.4"/>
					</g>
					<g>
						<rect x="31.2" y="151.8" fill="#FFFFFF" width="9.5" height="0.4"/>
					</g>
				</g>
			</g>
			<g>
				<circle fill="#F1F1F2" cx="75.5" cy="152" r="22.6"/>
			</g>
			<g>
				<circle fill="#FFBB4E" cx="75.5" cy="152" r="5"/>
			</g>
			<g opacity="0.15">
				<circle fill="#231F20" cx="75.5" cy="152.8" r="3.5"/>
			</g>
			<g>
				<path fill="#0F3B7A" d="M73.2,152.2l1.6-26.8c0.1-1.1,1.4-1.1,1.4,0l1.6,26.8H73.2z"/>
			</g>
			<g>
				<circle fill="#FFBB4E" cx="75.5" cy="152" r="3.5"/>
			</g>
			<g>
				<g>
					<g>
						
							<rect x="103.3" y="119.2" transform="matrix(0.7078 0.7065 -0.7065 0.7078 117.8446 -36.8549)" fill="#FFFFFF" width="0.4" height="9.5"/>
					</g>
					<g>
						
							<rect x="47.3" y="175.2" transform="matrix(0.7065 0.7078 -0.7078 0.7065 141.3135 19.1896)" fill="#FFFFFF" width="0.4" height="9.5"/>
					</g>
				</g>
				<g>
					<g>
						
							<rect x="98.7" y="179.7" transform="matrix(0.7071 0.7071 -0.7071 0.7071 157.5515 -20.4558)" fill="#FFFFFF" width="9.5" height="0.4"/>
					</g>
					<g>
						
							<rect x="42.8" y="123.8" transform="matrix(0.7071 0.7071 -0.7071 0.7071 101.6091 2.7186)" fill="#FFFFFF" width="9.5" height="0.4"/>
					</g>
				</g>
			</g>
			<g>
				<g>
					<g>
						
							<rect x="111.9" y="132.3" transform="matrix(0.3777 0.9259 -0.9259 0.3777 196.6874 -18.5327)" fill="#FFFFFF" width="0.4" height="9.5"/>
					</g>
					<g>
						
							<rect x="38.7" y="162.1" transform="matrix(0.3772 0.9261 -0.9261 0.3772 178.7788 67.9575)" fill="#FFFFFF" width="0.4" height="9.5"/>
					</g>
				</g>
				<g>
					<g>
						
							<rect x="85.7" y="188.4" transform="matrix(0.3773 0.9261 -0.9261 0.3773 230.981 33.7123)" fill="#FFFFFF" width="9.5" height="0.4"/>
					</g>
					<g>
						
							<rect x="55.8" y="115.1" transform="matrix(0.3773 0.9261 -0.9261 0.3773 144.5373 15.7329)" fill="#FFFFFF" width="9.5" height="0.4"/>
					</g>
				</g>
			</g>
			<g>
				<g>
					<g>
						
							<rect x="107.2" y="167.1" transform="matrix(0.9216 0.388 -0.388 0.9216 73.7015 -30.3309)" fill="#FFFFFF" width="9.5" height="0.4"/>
					</g>
					<g>
						
							<rect x="34.3" y="136.4" transform="matrix(0.9216 0.388 -0.388 0.9216 56.0768 -4.4417)" fill="#FFFFFF" width="9.5" height="0.4"/>
					</g>
				</g>
				<g>
					<g>
						
							<rect x="59.9" y="183.7" transform="matrix(0.9217 0.3879 -0.3879 0.9217 77.814 -8.5748)" fill="#FFFFFF" width="0.4" height="9.5"/>
					</g>
					<g>
						
							<rect x="90.6" y="110.8" transform="matrix(0.9217 0.3879 -0.3879 0.9217 51.9304 -26.1958)" fill="#FFFFFF" width="0.4" height="9.5"/>
					</g>
				</g>
			</g>
		</g>
		<g>
			<g>
				<rect x="49.1" y="23.8" fill="#FFA779" width="0.4" height="1.6"/>
			</g>
			<g>
				<rect x="49.1" y="30.3" fill="#FFA779" width="0.4" height="1.6"/>
			</g>
			<g>
				<rect x="51.8" y="27.7" fill="#FFA779" width="1.6" height="0.4"/>
			</g>
			<g>
				<rect x="45.2" y="27.7" fill="#FFA779" width="1.6" height="0.4"/>
			</g>
			<g>
				
					<rect x="51.5" y="24.7" transform="matrix(0.7078 0.7065 -0.7065 0.7078 33.1537 -29.0305)" fill="#FFA779" width="0.4" height="1.6"/>
			</g>
			<g>
				
					<rect x="46.8" y="29.4" transform="matrix(0.7078 0.7065 -0.7065 0.7078 35.0766 -24.3944)" fill="#FFA779" width="0.4" height="1.6"/>
			</g>
			<g>
				
					<rect x="50.8" y="30" transform="matrix(0.707 0.7072 -0.7072 0.707 36.4933 -27.6896)" fill="#FFA779" width="1.6" height="0.4"/>
			</g>
			<g>
				
					<rect x="46.2" y="25.3" transform="matrix(0.707 0.7072 -0.7072 0.707 31.8503 -25.7668)" fill="#FFA779" width="1.6" height="0.4"/>
			</g>
		</g>
		<g>
			<g>
				<path fill="#FFAA22" d="M77.2,20.9c0.2,0.3,0.4,0.6,0.6,0.8c0.2,0.2,0.5,0.5,0.8,0.6c-0.3,0.2-0.5,0.4-0.8,0.6
					c-0.2,0.2-0.5,0.5-0.6,0.8c-0.2-0.3-0.4-0.5-0.6-0.8c-0.3-0.3-0.5-0.5-0.8-0.6c0.3-0.2,0.5-0.4,0.8-0.6
					C76.8,21.5,77,21.2,77.2,20.9 M77.2,20c-0.1,0.5-0.5,1-0.9,1.4s-1,0.8-1.4,0.9c0.5,0.1,1,0.5,1.5,0.9c0.5,0.5,0.8,1,0.9,1.4
					c0.2-0.5,0.5-1,0.9-1.4c0.5-0.5,1-0.8,1.4-0.9c-0.5-0.1-1-0.5-1.4-0.9C77.7,21,77.4,20.4,77.2,20L77.2,20z"/>
			</g>
		</g>
		<g>
			<path fill="#FFA779" d="M29.2,74.2c-0.3-0.1-0.6-0.3-0.8-0.5c-0.3-0.3-0.5-0.6-0.5-0.8c-0.1,0.3-0.3,0.6-0.5,0.8
				c-0.3,0.3-0.6,0.4-0.8,0.5c0.3,0.1,0.6,0.3,0.8,0.5c0.3,0.3,0.4,0.6,0.5,0.8c0.1-0.3,0.3-0.5,0.5-0.8
				C28.7,74.5,29,74.3,29.2,74.2z"/>
		</g>
		<g>
			<path fill="#FFA779" d="M29.6,24.6c-0.3-0.1-0.7-0.3-1.1-0.7c-0.3-0.3-0.6-0.7-0.7-1.1c-0.1,0.3-0.3,0.7-0.7,1.1
				s-0.7,0.6-1.1,0.7c0.3,0.1,0.7,0.3,1.1,0.7c0.3,0.3,0.6,0.7,0.7,1.1c0.1-0.3,0.3-0.7,0.7-1.1C28.9,25,29.3,24.7,29.6,24.6z"/>
		</g>
		<g>
			<g>
				<rect x="123.9" y="70.2" fill="#FFAA22" width="0.4" height="1.6"/>
			</g>
			<g>
				<rect x="123.9" y="76.7" fill="#FFAA22" width="0.4" height="1.6"/>
			</g>
			<g>
				<rect x="126.6" y="74" fill="#FFAA22" width="1.6" height="0.4"/>
			</g>
			<g>
				<rect x="120" y="74" fill="#FFAA22" width="1.6" height="0.4"/>
			</g>
			<g>
				
					<rect x="126.2" y="71.1" transform="matrix(0.7078 0.7065 -0.7065 0.7078 87.7662 -68.2907)" fill="#FFAA22" width="0.4" height="1.6"/>
			</g>
			<g>
				
					<rect x="121.6" y="75.8" transform="matrix(0.7078 0.7065 -0.7065 0.7078 89.6891 -63.6547)" fill="#FFAA22" width="0.4" height="1.6"/>
			</g>
			<g>
				
					<rect x="125.6" y="76.4" transform="matrix(0.707 0.7072 -0.7072 0.707 91.1947 -66.9708)" fill="#FFAA22" width="1.6" height="0.4"/>
			</g>
			<g>
				
					<rect x="121" y="71.7" transform="matrix(0.707 0.7072 -0.7072 0.707 86.5518 -65.048)" fill="#FFAA22" width="1.6" height="0.4"/>
			</g>
		</g>
		<g>
			<g>
				<path fill="#FFAA22" d="M10.3,60.2c0.1,0.2,0.3,0.4,0.5,0.6c0.2,0.2,0.4,0.3,0.6,0.5c-0.2,0.1-0.4,0.3-0.6,0.5
					c-0.2,0.2-0.3,0.4-0.5,0.6c-0.1-0.2-0.3-0.4-0.5-0.6c-0.2-0.2-0.4-0.3-0.6-0.5c0.2-0.1,0.4-0.3,0.6-0.5
					C10,60.6,10.1,60.4,10.3,60.2 M10.3,59.3c-0.1,0.4-0.4,0.8-0.8,1.2c-0.4,0.4-0.8,0.6-1.2,0.8c0.4,0.1,0.8,0.4,1.2,0.8
					c0.4,0.4,0.6,0.8,0.8,1.2c0.1-0.4,0.4-0.8,0.8-1.2c0.4-0.4,0.8-0.6,1.2-0.8c-0.4-0.1-0.8-0.4-1.2-0.8
					C10.7,60.1,10.4,59.7,10.3,59.3L10.3,59.3z"/>
			</g>
		</g>
		<g>
			<g>
				<path fill="#FFAA22" d="M136.9,26.8c0.1,0.2,0.3,0.4,0.5,0.6c0.2,0.2,0.4,0.3,0.6,0.5c-0.2,0.1-0.4,0.3-0.6,0.5
					c-0.2,0.2-0.3,0.4-0.5,0.6c-0.1-0.2-0.3-0.4-0.5-0.6c-0.2-0.2-0.4-0.3-0.6-0.5c0.2-0.1,0.4-0.3,0.6-0.5
					C136.6,27.2,136.8,27,136.9,26.8 M136.9,25.9c-0.1,0.4-0.4,0.8-0.8,1.2c-0.4,0.4-0.8,0.6-1.2,0.8c0.4,0.1,0.8,0.4,1.2,0.8
					c0.4,0.4,0.6,0.8,0.8,1.2c0.1-0.4,0.4-0.8,0.8-1.2c0.4-0.4,0.8-0.6,1.2-0.8c-0.4-0.1-0.8-0.4-1.2-0.8
					C137.3,26.7,137,26.3,136.9,25.9L136.9,25.9z"/>
			</g>
		</g>
		<g>
			<path fill="#FFA779" d="M97.9,13.8c-0.4-0.1-0.8-0.4-1.2-0.8c-0.4-0.4-0.7-0.8-0.8-1.2c-0.1,0.4-0.4,0.8-0.8,1.2
				c-0.4,0.4-0.8,0.6-1.2,0.8c0.4,0.1,0.8,0.4,1.2,0.8c0.4,0.4,0.6,0.8,0.8,1.2c0.1-0.4,0.4-0.8,0.8-1.2
				C97.1,14.2,97.5,14,97.9,13.8z"/>
		</g>
	</g>
</g>
<g id="grid">
</g>
</svg>
