<?xml version="1.0" encoding="utf-8"?>
<!-- Generator: Adobe Illustrator 18.1.1, SVG Export Plug-In . SVG Version: 6.00 Build 0)  -->
<svg version="1.1" xmlns="http://www.w3.org/2000/svg" xmlns:xlink="http://www.w3.org/1999/xlink" x="0px" y="0px"
	 viewBox="0 0 180 196.7" enable-background="new 0 0 180 196.7" xml:space="preserve">
<g id="Layer_1">
	<g>
		<g>
			<linearGradient id="SVGID_2_" gradientUnits="userSpaceOnUse" x1="61.0212" y1="81.7088" x2="61.0212" y2="112.9741">
				<stop  offset="0" style="stop-color:#FF8A4C"/>
				<stop  offset="0.1272" style="stop-color:#FF965F;stop-opacity:0.6969"/>
				<stop  offset="0.3005" style="stop-color:#FFA272;stop-opacity:0.2841"/>
				<stop  offset="0.4197" style="stop-color:#FFA779;stop-opacity:0"/>
			</linearGradient>
			<path fill="url(#SVGID_2_)" d="M66.8,113H55.2c-8.6,0-15.6-7-15.6-15.6v0c0-8.6,7-15.6,15.6-15.6h11.6c8.6,0,15.6,7,15.6,15.6v0
				C82.4,105.9,75.4,113,66.8,113z"/>
			<g>
				<polygon fill="#FFBB4E" points="67,81.7 55.3,81.7 56.5,76.8 65.8,76.8 				"/>
			</g>
			<g opacity="0.1">
				<path fill="#231F20" d="M56,78.9c0.7,0.1,1.5,0.1,2.3,0.1c2.7,0,5.3-0.4,7.8-1.3l-0.2-1h-9.3L56,78.9z"/>
			</g>
			<g>
				<circle fill="#FFBB4E" cx="61.6" cy="53.4" r="24.7"/>
			</g>
			<g>
				<path fill="#FFFFFF" d="M74.1,67.9c0,2-1.7,3.7-3.7,3.7s-3.7-1.7-3.7-3.7H74.1z"/>
			</g>
			<g>
				<path fill="#FFFFFF" d="M143.1,73.8H98.4c-1.4,0-2.6-1.2-2.6-2.6v-7.3l-7.5-7.5c-0.1-0.1-0.1-0.2-0.1-0.3c0-0.1,0.1-0.2,0.3-0.2
					h7.3V35.6c0-1.4,1.2-2.6,2.6-2.6h44.7c1.4,0,2.6,1.2,2.6,2.6v35.6C145.7,72.7,144.5,73.8,143.1,73.8z M89.3,56.5l7.1,7.1
					c0.1,0.1,0.1,0.1,0.1,0.2v7.4c0,1.1,0.9,2,2,2h44.7c1.1,0,2-0.9,2-2V35.6c0-1.1-0.9-2-2-2H98.4c-1.1,0-2,0.9-2,2v20.7
					c0,0.2-0.1,0.3-0.3,0.3H89.3z"/>
			</g>
			<g opacity="0.1">
				<path fill="#231F20" d="M61.6,28.8c-12.7,0-23.1,9.6-24.5,21.9l11,8.6c0-2.4,0.8-5.3,4.8-8.2c6.6-4.7,22.2-5.6,31-8.2
					C79.9,34.5,71.4,28.8,61.6,28.8z"/>
			</g>
			<g>
				<path fill="#FFFFFF" d="M88.7,36.4c-1.1,0.3-2.7-0.3-2.7-0.3c-0.6,0.2,1.8,0.5,2.6-0.6c0.6-0.8,0.5-2.8,0.5-2.8
					c-2.2,2.6-6.3,1.6-13-2.5c-6.6-4.1-22.5-9.5-33.4,2.5C27.5,49.4,36.1,64,39.4,68c3.1,3.7,4.4,4.7,2.5,7.6
					c-0.2,0.3,4.8-0.3,3.7-4.1c-1.7-5.7-8.4-8.5-4.1-13.8c1.5-1.8,3.1-1.3,4-0.6c0.3,0.3,2.7,2.6,2.7,2.1c-0.3-2.6-0.1-6.2,4.8-9.7
					c7.9-5.6,29.3-5.8,35.5-10.1c3.5-2.4,2.3-5.5,2.5-4.8S89.9,36,88.7,36.4"/>
			</g>
			<g>
				<g>
					<g>
						<defs>
							<path id="SVGID_341_" d="M67.7,57.1c0,2.9-2.6,5.2-5.9,5.2s-5.5-2.3-5.9-5.2c-0.2-1.5,0.1-3.4,0.6-4.4
								c0.1-0.2,0.3-0.4,0.5-0.4c0.9-0.1,3.1-0.4,4.8-0.4C65,52,67.7,54.3,67.7,57.1z"/>
						</defs>
						<clipPath id="SVGID_4_">
							<use xlink:href="#SVGID_341_"  overflow="visible"/>
						</clipPath>
						<rect x="55.7" y="52" clip-path="url(#SVGID_4_)" fill="#FFAA22" width="12" height="0.3"/>
						<rect x="55.7" y="52.3" clip-path="url(#SVGID_4_)" fill="#FFAA22" width="12" height="0.3"/>
						<rect x="55.7" y="52.6" clip-path="url(#SVGID_4_)" fill="#FFAA22" width="12" height="0.3"/>
						<rect x="55.7" y="52.9" clip-path="url(#SVGID_4_)" fill="#FFAB22" width="12" height="0.3"/>
						<rect x="55.7" y="53.2" clip-path="url(#SVGID_4_)" fill="#FFAB22" width="12" height="0.3"/>
						<rect x="55.7" y="53.5" clip-path="url(#SVGID_4_)" fill="#FFAB22" width="12" height="0.3"/>
						<rect x="55.7" y="53.8" clip-path="url(#SVGID_4_)" fill="#FFAC22" width="12" height="0.3"/>
						<rect x="55.7" y="54.2" clip-path="url(#SVGID_4_)" fill="#FFAC22" width="12" height="0.3"/>
						<rect x="55.7" y="54.5" clip-path="url(#SVGID_4_)" fill="#FFAD22" width="12" height="0.3"/>
						<rect x="55.7" y="54.8" clip-path="url(#SVGID_4_)" fill="#FFAE22" width="12" height="0.3"/>
						<rect x="55.7" y="55.1" clip-path="url(#SVGID_4_)" fill="#FFAE22" width="12" height="0.3"/>
						<rect x="55.7" y="55.4" clip-path="url(#SVGID_4_)" fill="#FFAF22" width="12" height="0.3"/>
						<rect x="55.7" y="55.7" clip-path="url(#SVGID_4_)" fill="#FFB021" width="12" height="0.3"/>
						<rect x="55.7" y="56" clip-path="url(#SVGID_4_)" fill="#FFB121" width="12" height="0.3"/>
						<rect x="55.7" y="56.4" clip-path="url(#SVGID_4_)" fill="#FFB221" width="12" height="0.3"/>
						<rect x="55.7" y="56.7" clip-path="url(#SVGID_4_)" fill="#FFB321" width="12" height="0.3"/>
						<rect x="55.7" y="57" clip-path="url(#SVGID_4_)" fill="#FFB421" width="12" height="0.3"/>
						<rect x="55.7" y="57.3" clip-path="url(#SVGID_4_)" fill="#FFB521" width="12" height="0.3"/>
						<rect x="55.7" y="57.6" clip-path="url(#SVGID_4_)" fill="#FFB621" width="12" height="0.3"/>
						<rect x="55.7" y="57.9" clip-path="url(#SVGID_4_)" fill="#FFB721" width="12" height="0.3"/>
						<rect x="55.7" y="58.2" clip-path="url(#SVGID_4_)" fill="#FFB821" width="12" height="0.3"/>
						<rect x="55.7" y="58.6" clip-path="url(#SVGID_4_)" fill="#FFBA21" width="12" height="0.3"/>
						<rect x="55.7" y="58.9" clip-path="url(#SVGID_4_)" fill="#FFBB20" width="12" height="0.3"/>
						<rect x="55.7" y="59.2" clip-path="url(#SVGID_4_)" fill="#FFBC20" width="12" height="0.3"/>
						<rect x="55.7" y="59.5" clip-path="url(#SVGID_4_)" fill="#FFBE20" width="12" height="0.3"/>
						<rect x="55.7" y="59.8" clip-path="url(#SVGID_4_)" fill="#FFBF20" width="12" height="0.3"/>
						<rect x="55.7" y="60.1" clip-path="url(#SVGID_4_)" fill="#FFC120" width="12" height="0.3"/>
						<rect x="55.7" y="60.4" clip-path="url(#SVGID_4_)" fill="#FFC220" width="12" height="0.3"/>
						<rect x="55.7" y="60.8" clip-path="url(#SVGID_4_)" fill="#FFC420" width="12" height="0.3"/>
						<rect x="55.7" y="61.1" clip-path="url(#SVGID_4_)" fill="#FFC61F" width="12" height="0.3"/>
						<rect x="55.7" y="61.4" clip-path="url(#SVGID_4_)" fill="#FFC71F" width="12" height="0.3"/>
						<rect x="55.7" y="61.7" clip-path="url(#SVGID_4_)" fill="#FFC91F" width="12" height="0.3"/>
						<rect x="55.7" y="62" clip-path="url(#SVGID_4_)" fill="#FFCB1F" width="12" height="0.3"/>
						<rect x="55.7" y="62.3" clip-path="url(#SVGID_4_)" fill="#FFCB1F" width="12" height="0"/>
					</g>
				</g>
				<g>
					<g>
						<defs>
							<path id="SVGID_343_" d="M73.6,57.1c0,2.9,2.6,5.2,5.9,5.2s5.5-2.3,5.9-5.2c0.2-1.5-0.1-3.4-0.6-4.4
								c-0.1-0.2-0.3-0.4-0.5-0.4c-0.9-0.1-3.1-0.4-4.8-0.4C76.3,52,73.6,54.3,73.6,57.1z"/>
						</defs>
						<clipPath id="SVGID_6_">
							<use xlink:href="#SVGID_343_"  overflow="visible"/>
						</clipPath>
						<rect x="73.6" y="52" clip-path="url(#SVGID_6_)" fill="#FFAA22" width="12" height="0.3"/>
						<rect x="73.6" y="52.3" clip-path="url(#SVGID_6_)" fill="#FFAA22" width="12" height="0.3"/>
						<rect x="73.6" y="52.6" clip-path="url(#SVGID_6_)" fill="#FFAA22" width="12" height="0.3"/>
						<rect x="73.6" y="52.9" clip-path="url(#SVGID_6_)" fill="#FFAB22" width="12" height="0.3"/>
						<rect x="73.6" y="53.2" clip-path="url(#SVGID_6_)" fill="#FFAB22" width="12" height="0.3"/>
						<rect x="73.6" y="53.5" clip-path="url(#SVGID_6_)" fill="#FFAB22" width="12" height="0.3"/>
						<rect x="73.6" y="53.8" clip-path="url(#SVGID_6_)" fill="#FFAC22" width="12" height="0.3"/>
						<rect x="73.6" y="54.2" clip-path="url(#SVGID_6_)" fill="#FFAC22" width="12" height="0.3"/>
						<rect x="73.6" y="54.5" clip-path="url(#SVGID_6_)" fill="#FFAD22" width="12" height="0.3"/>
						<rect x="73.6" y="54.8" clip-path="url(#SVGID_6_)" fill="#FFAE22" width="12" height="0.3"/>
						<rect x="73.6" y="55.1" clip-path="url(#SVGID_6_)" fill="#FFAE22" width="12" height="0.3"/>
						<rect x="73.6" y="55.4" clip-path="url(#SVGID_6_)" fill="#FFAF22" width="12" height="0.3"/>
						<rect x="73.6" y="55.7" clip-path="url(#SVGID_6_)" fill="#FFB021" width="12" height="0.3"/>
						<rect x="73.6" y="56" clip-path="url(#SVGID_6_)" fill="#FFB121" width="12" height="0.3"/>
						<rect x="73.6" y="56.4" clip-path="url(#SVGID_6_)" fill="#FFB221" width="12" height="0.3"/>
						<rect x="73.6" y="56.7" clip-path="url(#SVGID_6_)" fill="#FFB321" width="12" height="0.3"/>
						<rect x="73.6" y="57" clip-path="url(#SVGID_6_)" fill="#FFB421" width="12" height="0.3"/>
						<rect x="73.6" y="57.3" clip-path="url(#SVGID_6_)" fill="#FFB521" width="12" height="0.3"/>
						<rect x="73.6" y="57.6" clip-path="url(#SVGID_6_)" fill="#FFB621" width="12" height="0.3"/>
						<rect x="73.6" y="57.9" clip-path="url(#SVGID_6_)" fill="#FFB721" width="12" height="0.3"/>
						<rect x="73.6" y="58.2" clip-path="url(#SVGID_6_)" fill="#FFB821" width="12" height="0.3"/>
						<rect x="73.6" y="58.6" clip-path="url(#SVGID_6_)" fill="#FFBA21" width="12" height="0.3"/>
						<rect x="73.6" y="58.9" clip-path="url(#SVGID_6_)" fill="#FFBB20" width="12" height="0.3"/>
						<rect x="73.6" y="59.2" clip-path="url(#SVGID_6_)" fill="#FFBC20" width="12" height="0.3"/>
						<rect x="73.6" y="59.5" clip-path="url(#SVGID_6_)" fill="#FFBE20" width="12" height="0.3"/>
						<rect x="73.6" y="59.8" clip-path="url(#SVGID_6_)" fill="#FFBF20" width="12" height="0.3"/>
						<rect x="73.6" y="60.1" clip-path="url(#SVGID_6_)" fill="#FFC120" width="12" height="0.3"/>
						<rect x="73.6" y="60.4" clip-path="url(#SVGID_6_)" fill="#FFC220" width="12" height="0.3"/>
						<rect x="73.6" y="60.8" clip-path="url(#SVGID_6_)" fill="#FFC420" width="12" height="0.3"/>
						<rect x="73.6" y="61.1" clip-path="url(#SVGID_6_)" fill="#FFC61F" width="12" height="0.3"/>
						<rect x="73.6" y="61.4" clip-path="url(#SVGID_6_)" fill="#FFC71F" width="12" height="0.3"/>
						<rect x="73.6" y="61.7" clip-path="url(#SVGID_6_)" fill="#FFC91F" width="12" height="0.3"/>
						<rect x="73.6" y="62" clip-path="url(#SVGID_6_)" fill="#FFCB1F" width="12" height="0.3"/>
						<rect x="73.6" y="62.3" clip-path="url(#SVGID_6_)" fill="#FFCB1F" width="12" height="0"/>
					</g>
				</g>
				<g>
					<g>
						<path fill="#FFAA22" d="M72.5,55.3c-1.3-1-2.3-1-3.6,0c-0.3-0.3-0.4-0.5-0.6-0.8c1.7-1.4,3.2-1.4,4.9,0
							C72.9,54.8,72.7,55,72.5,55.3z"/>
					</g>
				</g>
				<g>
					<path fill="#FFAA22" d="M69.3,55.5c-0.8-3-3.8-5.2-7.4-5.2c-2.1,0-5.3,0.2-6.8,0.4c-0.5,0-1,0.4-1.1,1c-0.2,1.1,0,2.8,0.2,4.3
						c0.1,0.6,0.5,1,1.1,1.1c-0.2-1.7,0.2-3.6,0.6-4.7c0.1-0.3,0.4-0.4,0.6-0.5c1-0.1,3.4-0.5,5.3-0.5c3.5,0,6.4,2.5,6.5,5.6
						C69,56.9,69.5,56.2,69.3,55.5z"/>
				</g>
				<g>
					<path fill="#FFAA22" d="M87.3,51.7c-0.1-0.5-0.5-0.9-1.1-1c-1.5-0.1-4.7-0.4-6.8-0.4c-3.6,0-6.6,2.2-7.4,5.2
						c-0.2,0.7,0.3,1.4,1,1.5c0.1-3.1,3-5.6,6.5-5.6c1.9,0,4.3,0.3,5.3,0.5c0.3,0,0.5,0.2,0.6,0.5c0.5,1,0.8,3,0.6,4.7
						c0.6-0.1,1-0.5,1.1-1.1C87.3,54.4,87.5,52.8,87.3,51.7z"/>
				</g>
				<g>
					<path fill="#FFD54E" d="M61.8,51.4c-1.9,0-4.3,0.3-5.3,0.5c-0.3,0-0.5,0.2-0.6,0.5c-0.5,1.1-0.8,3.1-0.6,4.8
						c0.4,3.1,2.9,5.7,6.5,5.7c3.6,0,6.5-2.6,6.5-5.7C68.3,54,65.4,51.4,61.8,51.4z M61.8,62.3c-3.2,0-5.5-2.3-5.9-5.2
						c-0.2-1.5,0.1-3.4,0.6-4.4c0.1-0.2,0.3-0.4,0.5-0.4c0.9-0.1,3.1-0.4,4.8-0.4c3.2,0,5.9,2.3,5.9,5.2C67.7,60,65,62.3,61.8,62.3z
						"/>
				</g>
				<g>
					<path fill="#FFD54E" d="M85.4,52.3c-0.1-0.3-0.4-0.4-0.6-0.5c-1-0.1-3.4-0.5-5.3-0.5c-3.6,0-6.5,2.6-6.5,5.7
						c0,3.2,2.9,5.7,6.5,5.7c3.6,0,6.1-2.6,6.5-5.7C86.2,55.5,85.9,53.4,85.4,52.3z M85.4,57.1c-0.4,2.8-2.6,5.2-5.9,5.2
						c-3.2,0-5.9-2.3-5.9-5.2c0-2.9,2.6-5.2,5.9-5.2c1.7,0,3.9,0.3,4.8,0.4c0.2,0,0.4,0.2,0.5,0.4C85.3,53.7,85.6,55.6,85.4,57.1z"
						/>
				</g>
			</g>
			<g>
				<ellipse fill="#FFBB4E" cx="61.2" cy="81.7" rx="5.8" ry="0.6"/>
			</g>
			<g>
				<rect x="115.6" y="67.1" fill="#FFCC7A" width="11.9" height="0.6"/>
			</g>
			<g>
				<rect x="127.5" y="67.1" fill="#FFD54E" width="5.9" height="0.6"/>
			</g>
			<g>
				<rect x="102.3" y="40.7" fill="#FFCC7A" width="6.8" height="0.6"/>
			</g>
			<g>
				<rect x="115.6" y="40.7" fill="#FF6D1F" width="8.9" height="0.6"/>
			</g>
			<g>
				<rect x="124.5" y="40.7" fill="#FFD54E" width="4.5" height="0.6"/>
			</g>
			<g>
				<rect x="130.9" y="40.7" fill="#FF8A4C" width="10.4" height="0.6"/>
			</g>
			<g>
				<rect x="102.3" y="45.1" fill="#FFCC7A" width="6.8" height="0.6"/>
			</g>
			<g>
				<rect x="115.7" y="45.1" fill="#FFEED3" width="4.4" height="0.6"/>
			</g>
			<g>
				<rect x="120.1" y="45.1" fill="#FFCA22" width="4.5" height="0.6"/>
			</g>
			<g>
				<rect x="124.5" y="45.1" fill="#FF6D1F" width="10.4" height="0.6"/>
			</g>
			<g>
				<rect x="102.3" y="49.4" fill="#FFCC7A" width="6.8" height="0.6"/>
			</g>
			<g>
				<rect x="115.6" y="49.4" fill="#FFCA22" width="11.9" height="0.6"/>
			</g>
			<g>
				<rect x="127.5" y="49.4" fill="#6F89AF" width="5.9" height="0.6"/>
			</g>
			<g>
				<rect x="132.9" y="49.4" fill="#FFCC7A" width="6.3" height="0.6"/>
			</g>
			<g>
				<rect x="102.3" y="53.9" fill="#FFCC7A" width="6.8" height="0.6"/>
			</g>
			<g>
				<rect x="115.7" y="53.9" fill="#FFEED3" width="4.4" height="0.6"/>
			</g>
			<g>
				<rect x="120.1" y="53.9" fill="#FF6D1F" width="4.5" height="0.6"/>
			</g>
			<g>
				<rect x="124.5" y="53.9" fill="#FFD54E" width="10.4" height="0.6"/>
			</g>
			<g>
				<rect x="102.3" y="58.4" fill="#FFCC7A" width="6.8" height="0.6"/>
			</g>
			<g>
				<rect x="115.6" y="58.4" fill="#FF6D1F" width="8.9" height="0.6"/>
			</g>
			<g>
				<rect x="124.5" y="58.4" fill="#FFD54E" width="4.5" height="0.6"/>
			</g>
			<g>
				<rect x="130.9" y="58.4" fill="#FF8A4C" width="10.4" height="0.6"/>
			</g>
			<g>
				<rect x="102.3" y="62.8" fill="#FFCC7A" width="6.8" height="0.6"/>
			</g>
			<g>
				<rect x="115.7" y="62.8" fill="#FFEED3" width="4.4" height="0.6"/>
			</g>
			<g>
				<rect x="120.1" y="62.8" fill="#FFCA22" width="4.5" height="0.6"/>
			</g>
			<g>
				<rect x="124.5" y="62.8" fill="#FF6D1F" width="10.4" height="0.6"/>
			</g>
			<g>
				<rect x="102.3" y="67.1" fill="#FFCC7A" width="6.8" height="0.6"/>
			</g>
			<g>
				<rect x="132.9" y="67.1" fill="#FF8A4C" width="6.3" height="0.6"/>
			</g>
		</g>
		<g>
			<linearGradient id="SVGID_7_" gradientUnits="userSpaceOnUse" x1="82.4477" y1="93.9299" x2="82.4477" y2="134.6394">
				<stop  offset="4.105548e-03" style="stop-color:#FFCA22"/>
				<stop  offset="5.992152e-02" style="stop-color:#FFC522"/>
				<stop  offset="0.3065" style="stop-color:#FFB622"/>
				<stop  offset="0.5914" style="stop-color:#FFAD22"/>
				<stop  offset="1" style="stop-color:#FFAA22"/>
			</linearGradient>
			<path fill="url(#SVGID_7_)" d="M109.4,134.6H55.5c-1.3,0-2.3-1-2.3-2.3v-36c0-1.3,1-2.3,2.3-2.3h53.8c1.3,0,2.3,1,2.3,2.3v36
				C111.7,133.6,110.7,134.6,109.4,134.6z M55.5,94.5c-1,0-1.8,0.8-1.8,1.8v36c0,1,0.8,1.8,1.8,1.8h53.8c1,0,1.8-0.8,1.8-1.8v-36
				c0-1-0.8-1.8-1.8-1.8H55.5z"/>
		</g>
		<g>
			<linearGradient id="SVGID_8_" gradientUnits="userSpaceOnUse" x1="82.4477" y1="96.4919" x2="82.4477" y2="128.9453">
				<stop  offset="4.105548e-03" style="stop-color:#FFCA22"/>
				<stop  offset="5.992152e-02" style="stop-color:#FFC522"/>
				<stop  offset="0.3065" style="stop-color:#FFB622"/>
				<stop  offset="0.5914" style="stop-color:#FFAD22"/>
				<stop  offset="1" style="stop-color:#FFAA22"/>
			</linearGradient>
			<path fill="url(#SVGID_8_)" d="M109.1,128.9H55.8V96.5h53.4V128.9z M56.3,128.4h52.2V97.1H56.3V128.4z"/>
		</g>
		<linearGradient id="SVGID_9_" gradientUnits="userSpaceOnUse" x1="129.3478" y1="137.5466" x2="129.3478" y2="176.2402">
			<stop  offset="0" style="stop-color:#FFCC7A"/>
			<stop  offset="0.6773" style="stop-color:#FFCC7A;stop-opacity:0"/>
		</linearGradient>
		<path fill="url(#SVGID_9_)" d="M136.5,176.2h-14.3c-10.6,0-19.3-8.7-19.3-19.3v0c0-10.6,8.7-19.3,19.3-19.3h14.3
			c10.6,0,19.3,8.7,19.3,19.3v0C155.9,167.5,147.2,176.2,136.5,176.2z"/>
		<g>
			<polygon fill="#FFBB4E" points="122.6,138 137.1,138 135.6,131.9 124.1,131.9 			"/>
		</g>
		<g opacity="0.1">
			<path fill="#231F20" d="M123.5,134.5c0.9,0.1,1.9,0.1,2.8,0.1c3.4,0,6.6-0.6,9.6-1.6l-0.3-1.2h-11.5L123.5,134.5z"/>
		</g>
		<g>
			<circle fill="#FFBB4E" cx="129.3" cy="103" r="30.5"/>
		</g>
		<g>
			<path fill="#FFFFFF" d="M113.8,120.8c0,2.5,2,4.6,4.6,4.6s4.6-2,4.6-4.6H113.8z"/>
		</g>
		<g>
			<ellipse fill="#FFBB4E" cx="129.8" cy="138" rx="7.2" ry="0.8"/>
		</g>
		<g>
			<path fill="#0F3B7A" d="M151.7,103.7c8.5,4.7,0.7,21.8,0.6,22c5.7-5.8,9.2-13.7,9.2-22.5c0-0.8,0-1.7-0.1-2.5
				C155.8,99.8,144.7,98.5,151.7,103.7z"/>
		</g>
		<g opacity="0.1">
			<path fill="#231F20" d="M119,74.2c-11.8,4.2-20.2,15.5-20.2,28.7c0,1.4,0.1,2.8,0.3,4.2c9.9-4.4,17.4-13,19.9-23.5V74.2z"/>
		</g>
		<g>
			<path fill="#0B2C5C" d="M157.3,100.2c-5.4-0.6-11.2-0.6-5.6,3.5c8.5,4.7,0.7,21.8,0.6,22c0-0.1,0.1-0.1,0.1-0.2
				C156.6,118.1,158.5,109.3,157.3,100.2z"/>
		</g>
		<g>
			<path fill="#0F3B7A" d="M129.3,71.1c-17.8,0-32.2,14.4-32.2,32.2c0,1.1,0.1,2.1,0.2,3.1c10.4-3.6,18.5-12.3,21-23.2
				c3.3,14.3,16.1,25,31.3,25c4.1,0,8.1-0.8,11.8-2.2c0.1-0.9,0.1-1.7,0.1-2.6C161.5,85.5,147.1,71.1,129.3,71.1z"/>
		</g>
		<g>
			<g opacity="0.5">
				<g>
					<defs>
						<path id="SVGID_348_" d="M120.7,107.1c1.3,5.9,0.6,7.1,3.9,7.1h8.7c0.9,0,1.6-0.7,1.7-1.5l1.3-10.3c0-0.9-0.7-1.5-1.5-1.5
							h-15.4L120.7,107.1"/>
					</defs>
					<clipPath id="SVGID_10_">
						<use xlink:href="#SVGID_348_"  overflow="visible"/>
					</clipPath>
					<rect x="119.4" y="100.8" clip-path="url(#SVGID_10_)" fill="#FF8A4C" width="16.9" height="0.3"/>
					<rect x="119.4" y="101.1" clip-path="url(#SVGID_10_)" fill="#FF8E47" width="16.9" height="0.3"/>
					<rect x="119.4" y="101.4" clip-path="url(#SVGID_10_)" fill="#FF9143" width="16.9" height="0.3"/>
					<rect x="119.4" y="101.8" clip-path="url(#SVGID_10_)" fill="#FF943F" width="16.9" height="0.3"/>
					<rect x="119.4" y="102.1" clip-path="url(#SVGID_10_)" fill="#FF973B" width="16.9" height="0.3"/>
					<rect x="119.4" y="102.4" clip-path="url(#SVGID_10_)" fill="#FF9938" width="16.9" height="0.3"/>
					<rect x="119.4" y="102.7" clip-path="url(#SVGID_10_)" fill="#FF9B35" width="16.9" height="0.3"/>
					<rect x="119.4" y="103" clip-path="url(#SVGID_10_)" fill="#FF9D33" width="16.9" height="0.3"/>
					<rect x="119.4" y="103.3" clip-path="url(#SVGID_10_)" fill="#FF9F30" width="16.9" height="0.3"/>
					<rect x="119.4" y="103.7" clip-path="url(#SVGID_10_)" fill="#FFA12E" width="16.9" height="0.3"/>
					<rect x="119.4" y="104" clip-path="url(#SVGID_10_)" fill="#FFA22C" width="16.9" height="0.3"/>
					<rect x="119.4" y="104.3" clip-path="url(#SVGID_10_)" fill="#FFA32B" width="16.9" height="0.3"/>
					<rect x="119.4" y="104.6" clip-path="url(#SVGID_10_)" fill="#FFA429" width="16.9" height="0.3"/>
					<rect x="119.4" y="104.9" clip-path="url(#SVGID_10_)" fill="#FFA528" width="16.9" height="0.3"/>
					<rect x="119.4" y="105.3" clip-path="url(#SVGID_10_)" fill="#FFA627" width="16.9" height="0.3"/>
					<rect x="119.4" y="105.6" clip-path="url(#SVGID_10_)" fill="#FFA726" width="16.9" height="0.3"/>
					<rect x="119.4" y="105.9" clip-path="url(#SVGID_10_)" fill="#FFA726" width="16.9" height="0.3"/>
					<rect x="119.4" y="106.2" clip-path="url(#SVGID_10_)" fill="#FFA825" width="16.9" height="0.3"/>
					<rect x="119.4" y="106.5" clip-path="url(#SVGID_10_)" fill="#FFA824" width="16.9" height="0.3"/>
					<rect x="119.4" y="106.8" clip-path="url(#SVGID_10_)" fill="#FFA924" width="16.9" height="0.3"/>
					<rect x="119.4" y="107.2" clip-path="url(#SVGID_10_)" fill="#FFA924" width="16.9" height="0.3"/>
					<rect x="119.4" y="107.5" clip-path="url(#SVGID_10_)" fill="#FFA923" width="16.9" height="0.3"/>
					<rect x="119.4" y="107.8" clip-path="url(#SVGID_10_)" fill="#FFA923" width="16.9" height="0.3"/>
					<rect x="119.4" y="108.1" clip-path="url(#SVGID_10_)" fill="#FFA923" width="16.9" height="0.3"/>
					<rect x="119.4" y="108.4" clip-path="url(#SVGID_10_)" fill="#FFAA23" width="16.9" height="0.3"/>
					<rect x="119.4" y="108.7" clip-path="url(#SVGID_10_)" fill="#FFAA22" width="16.9" height="0.3"/>
					<rect x="119.4" y="109.1" clip-path="url(#SVGID_10_)" fill="#FFAA22" width="16.9" height="0.3"/>
					<rect x="119.4" y="109.4" clip-path="url(#SVGID_10_)" fill="#FFAA22" width="16.9" height="0.3"/>
					<rect x="119.4" y="109.7" clip-path="url(#SVGID_10_)" fill="#FFAA22" width="16.9" height="0.3"/>
					<rect x="119.4" y="110" clip-path="url(#SVGID_10_)" fill="#FFAA22" width="16.9" height="0.3"/>
					<rect x="119.4" y="110.3" clip-path="url(#SVGID_10_)" fill="#FFAA22" width="16.9" height="0.3"/>
					<rect x="119.4" y="110.7" clip-path="url(#SVGID_10_)" fill="#FFAA22" width="16.9" height="0.3"/>
					<rect x="119.4" y="111" clip-path="url(#SVGID_10_)" fill="#FFAA22" width="16.9" height="0.3"/>
					<rect x="119.4" y="111.3" clip-path="url(#SVGID_10_)" fill="#FFAA22" width="16.9" height="0.3"/>
					<rect x="119.4" y="111.6" clip-path="url(#SVGID_10_)" fill="#FFAA22" width="16.9" height="0.3"/>
					<rect x="119.4" y="111.9" clip-path="url(#SVGID_10_)" fill="#FFAA22" width="16.9" height="0.3"/>
					<rect x="119.4" y="112.2" clip-path="url(#SVGID_10_)" fill="#FFAA22" width="16.9" height="0.3"/>
					<rect x="119.4" y="112.6" clip-path="url(#SVGID_10_)" fill="#FFAA22" width="16.9" height="0.3"/>
					<rect x="119.4" y="112.9" clip-path="url(#SVGID_10_)" fill="#FFAA22" width="16.9" height="0.3"/>
					<rect x="119.4" y="113.2" clip-path="url(#SVGID_10_)" fill="#FFAA22" width="16.9" height="0.3"/>
					<rect x="119.4" y="113.5" clip-path="url(#SVGID_10_)" fill="#FFAA22" width="16.9" height="0.3"/>
					<rect x="119.4" y="113.8" clip-path="url(#SVGID_10_)" fill="#FFAA22" width="16.9" height="0.3"/>
					<rect x="119.4" y="114.2" clip-path="url(#SVGID_10_)" fill="#FFAA22" width="16.9" height="0"/>
				</g>
			</g>
			<g opacity="0.5">
				<g>
					<defs>
						<path id="SVGID_350_" d="M115,107.1c-1.3,5.9-0.6,7.1-3.9,7.1h-8.7c-0.9,0-1.6-0.7-1.7-1.5l-1.3-10.3c0-0.9,0.7-1.5,1.5-1.5
							h15.4L115,107.1"/>
					</defs>
					<clipPath id="SVGID_11_">
						<use xlink:href="#SVGID_350_"  overflow="visible"/>
					</clipPath>
					<rect x="99.4" y="100.8" clip-path="url(#SVGID_11_)" fill="#FF8A4C" width="16.9" height="0.3"/>
					<rect x="99.4" y="101.1" clip-path="url(#SVGID_11_)" fill="#FF8E47" width="16.9" height="0.3"/>
					<rect x="99.4" y="101.4" clip-path="url(#SVGID_11_)" fill="#FF9143" width="16.9" height="0.3"/>
					<rect x="99.4" y="101.8" clip-path="url(#SVGID_11_)" fill="#FF943F" width="16.9" height="0.3"/>
					<rect x="99.4" y="102.1" clip-path="url(#SVGID_11_)" fill="#FF973B" width="16.9" height="0.3"/>
					<rect x="99.4" y="102.4" clip-path="url(#SVGID_11_)" fill="#FF9938" width="16.9" height="0.3"/>
					<rect x="99.4" y="102.7" clip-path="url(#SVGID_11_)" fill="#FF9B35" width="16.9" height="0.3"/>
					<rect x="99.4" y="103" clip-path="url(#SVGID_11_)" fill="#FF9D33" width="16.9" height="0.3"/>
					<rect x="99.4" y="103.3" clip-path="url(#SVGID_11_)" fill="#FF9F30" width="16.9" height="0.3"/>
					<rect x="99.4" y="103.7" clip-path="url(#SVGID_11_)" fill="#FFA12E" width="16.9" height="0.3"/>
					<rect x="99.4" y="104" clip-path="url(#SVGID_11_)" fill="#FFA22C" width="16.9" height="0.3"/>
					<rect x="99.4" y="104.3" clip-path="url(#SVGID_11_)" fill="#FFA32B" width="16.9" height="0.3"/>
					<rect x="99.4" y="104.6" clip-path="url(#SVGID_11_)" fill="#FFA429" width="16.9" height="0.3"/>
					<rect x="99.4" y="104.9" clip-path="url(#SVGID_11_)" fill="#FFA528" width="16.9" height="0.3"/>
					<rect x="99.4" y="105.3" clip-path="url(#SVGID_11_)" fill="#FFA627" width="16.9" height="0.3"/>
					<rect x="99.4" y="105.6" clip-path="url(#SVGID_11_)" fill="#FFA726" width="16.9" height="0.3"/>
					<rect x="99.4" y="105.9" clip-path="url(#SVGID_11_)" fill="#FFA726" width="16.9" height="0.3"/>
					<rect x="99.4" y="106.2" clip-path="url(#SVGID_11_)" fill="#FFA825" width="16.9" height="0.3"/>
					<rect x="99.4" y="106.5" clip-path="url(#SVGID_11_)" fill="#FFA824" width="16.9" height="0.3"/>
					<rect x="99.4" y="106.8" clip-path="url(#SVGID_11_)" fill="#FFA924" width="16.9" height="0.3"/>
					<rect x="99.4" y="107.2" clip-path="url(#SVGID_11_)" fill="#FFA924" width="16.9" height="0.3"/>
					<rect x="99.4" y="107.5" clip-path="url(#SVGID_11_)" fill="#FFA923" width="16.9" height="0.3"/>
					<rect x="99.4" y="107.8" clip-path="url(#SVGID_11_)" fill="#FFA923" width="16.9" height="0.3"/>
					<rect x="99.4" y="108.1" clip-path="url(#SVGID_11_)" fill="#FFA923" width="16.9" height="0.3"/>
					<rect x="99.4" y="108.4" clip-path="url(#SVGID_11_)" fill="#FFAA23" width="16.9" height="0.3"/>
					<rect x="99.4" y="108.7" clip-path="url(#SVGID_11_)" fill="#FFAA22" width="16.9" height="0.3"/>
					<rect x="99.4" y="109.1" clip-path="url(#SVGID_11_)" fill="#FFAA22" width="16.9" height="0.3"/>
					<rect x="99.4" y="109.4" clip-path="url(#SVGID_11_)" fill="#FFAA22" width="16.9" height="0.3"/>
					<rect x="99.4" y="109.7" clip-path="url(#SVGID_11_)" fill="#FFAA22" width="16.9" height="0.3"/>
					<rect x="99.4" y="110" clip-path="url(#SVGID_11_)" fill="#FFAA22" width="16.9" height="0.3"/>
					<rect x="99.4" y="110.3" clip-path="url(#SVGID_11_)" fill="#FFAA22" width="16.9" height="0.3"/>
					<rect x="99.4" y="110.7" clip-path="url(#SVGID_11_)" fill="#FFAA22" width="16.9" height="0.3"/>
					<rect x="99.4" y="111" clip-path="url(#SVGID_11_)" fill="#FFAA22" width="16.9" height="0.3"/>
					<rect x="99.4" y="111.3" clip-path="url(#SVGID_11_)" fill="#FFAA22" width="16.9" height="0.3"/>
					<rect x="99.4" y="111.6" clip-path="url(#SVGID_11_)" fill="#FFAA22" width="16.9" height="0.3"/>
					<rect x="99.4" y="111.9" clip-path="url(#SVGID_11_)" fill="#FFAA22" width="16.9" height="0.3"/>
					<rect x="99.4" y="112.2" clip-path="url(#SVGID_11_)" fill="#FFAA22" width="16.9" height="0.3"/>
					<rect x="99.4" y="112.6" clip-path="url(#SVGID_11_)" fill="#FFAA22" width="16.9" height="0.3"/>
					<rect x="99.4" y="112.9" clip-path="url(#SVGID_11_)" fill="#FFAA22" width="16.9" height="0.3"/>
					<rect x="99.4" y="113.2" clip-path="url(#SVGID_11_)" fill="#FFAA22" width="16.9" height="0.3"/>
					<rect x="99.4" y="113.5" clip-path="url(#SVGID_11_)" fill="#FFAA22" width="16.9" height="0.3"/>
					<rect x="99.4" y="113.8" clip-path="url(#SVGID_11_)" fill="#FFAA22" width="16.9" height="0.3"/>
					<rect x="99.4" y="114.2" clip-path="url(#SVGID_11_)" fill="#FFAA22" width="16.9" height="0"/>
				</g>
			</g>
			<g>
				<g>
					<path fill="#FFEAA7" d="M111.2,114.6h-8.9c-1,0-1.9-0.8-2.1-1.8l-1.3-10.5c0-1.1,0.8-1.9,1.9-1.9h16.1l-1.4,6.7
						c-0.3,1.3-0.5,2.3-0.6,3.2C114.2,113.6,114,114.6,111.2,114.6z M100.8,101c-0.7,0-1.3,0.6-1.3,1.3l1.3,10.4
						c0.1,0.8,0.7,1.3,1.5,1.3h8.9c2.4,0,2.5-0.6,3.1-3.8c0.2-0.9,0.4-1.9,0.6-3.2l1.2-6H100.8z"/>
				</g>
				<g>
					<path fill="#FFEAA7" d="M133.2,114.6h-8.9c-2.9,0-3.1-1-3.6-4.3c-0.2-0.9-0.4-1.9-0.6-3.2l-1.4-6.7h16.1c1,0,1.9,0.8,1.9,1.9
						l-1.3,10.5C135.2,113.8,134.3,114.6,133.2,114.6z M119.4,101l1.2,6c0.3,1.3,0.5,2.4,0.6,3.2c0.6,3.2,0.7,3.8,3.1,3.8h8.9
						c0.8,0,1.4-0.6,1.5-1.3l1.3-10.5c0-0.7-0.6-1.3-1.3-1.3H119.4z"/>
				</g>
				<g>
					<rect x="115.3" y="100.4" fill="#FFEAA7" width="4.3" height="0.6"/>
				</g>
				<g>
					<rect x="116.1" y="102.2" fill="#FFEAA7" width="3.3" height="0.6"/>
				</g>
			</g>
		</g>
		<g>
			<path fill="#0F3B7A" d="M109.6,120.1c2,0,2.5-2.2,4.5-2.5c2.1-0.3,3.6,0.6,3.6,0.6s1.5-0.9,3.6-0.6c2.1,0.3,2.5,2.5,4.5,2.5
				c1.4,0,2.3-1.2,2.3-1c-0.1,0.2-3.1,6.1-9.5,2.3c-0.6-0.3-1-0.6-1-0.6s-0.4,0.3-1,0.6c-6.4,3.8-9.4-2-9.5-2.3
				C107.2,118.9,108.2,120.1,109.6,120.1z"/>
		</g>
		<g>
			<path fill="#FFBB4E" d="M130.2,182.5v-1.7h1.9c0.1,0,0.2,0,0.4,0l0.1,1.7c-0.1,0-0.3,0-0.4,0H130.2z M127.9,182.5h-2.3v-1.7h2.3
				V182.5z M123.3,182.5H121v-1.7h2.3V182.5z M118.8,182.5h-2.3v-1.7h2.3V182.5z M114.2,182.5h-2.3v-1.7h2.3V182.5z M109.7,182.5
				h-2.3v-1.7h2.3V182.5z M105.1,182.5h-2.3v-1.7h2.3V182.5z M100.5,182.5h-2.3v-1.7h2.3V182.5z M96,182.5h-2.3v-1.7H96V182.5z
				 M91.4,182.5h-2.3v-1.7h2.3V182.5z M86.9,182.5h-2.3v-1.7h2.3V182.5z M82.3,182.5H80v-1.7h2.3V182.5z M77.7,182.5h-2.3v-1.7h2.3
				V182.5z M73.2,182.5h-1.6c-0.3,0-0.5,0-0.8,0l0.1-1.7c0.2,0,0.4,0,0.6,0h1.6V182.5z M134.9,182.1l-0.4-1.6
				c0.7-0.2,1.3-0.4,1.9-0.8l0.8,1.5C136.5,181.6,135.7,181.9,134.9,182.1z M68.4,182c-0.8-0.2-1.5-0.6-2.3-1l0.9-1.5
				c0.6,0.3,1.2,0.6,1.9,0.8L68.4,182z M139.2,179.8l-1.1-1.3c0.5-0.5,1-1,1.4-1.5l1.4,1C140.4,178.6,139.9,179.2,139.2,179.8z
				 M64.2,179.6c-0.6-0.6-1.1-1.2-1.6-1.9l1.4-1c0.4,0.6,0.8,1.1,1.4,1.6L64.2,179.6z M142.1,175.8l-1.6-0.7c0.3-0.6,0.5-1.3,0.6-2
				l1.7,0.3C142.7,174.3,142.4,175.1,142.1,175.8z M61.4,175.5c-0.3-0.8-0.5-1.6-0.6-2.4l1.7-0.2c0.1,0.7,0.3,1.4,0.5,2L61.4,175.5z
				 M143,171h-1.7v-2.3h1.7V171z M62.4,170.7h-1.7v-2.3h1.7V170.7z M143,166.5h-1.7v-2.3h1.7V166.5z M62.4,166.2h-1.7v-2h1.7V166.2z
				"/>
		</g>
		<g>
			<path fill="#FFBB4E" d="M23.5,135.5h-2.2v-1.7h2.2V135.5z M19,135.5h-2.3v-1.7H19V135.5z M14.4,135.5c-0.8,0-1.7-0.1-2.5-0.4
				l0.5-1.6c0.7,0.2,1.4,0.3,2,0.3L14.4,135.5z M9.6,134.2c-0.7-0.4-1.4-0.9-2-1.5l1.2-1.2c0.5,0.5,1.1,0.9,1.7,1.2L9.6,134.2z
				 M6,130.8c-0.5-0.7-0.8-1.4-1.1-2.2l1.6-0.6c0.2,0.7,0.5,1.3,0.9,1.9L6,130.8z M4.4,126.2c0-0.3,0-0.6,0-1v-1.4h1.7v1.4
				c0,0.3,0,0.5,0,0.8L4.4,126.2z M6.1,121.6H4.4v-2.3h1.7V121.6z M6.1,117H4.4v-2.3h1.7V117z M6.1,112.4H4.4v-2.3h1.7V112.4z
				 M6.1,107.9H4.4v-2.3h1.7V107.9z M6.1,103.3H4.4V101h1.7V103.3z M6.1,98.8H4.4v-2.3h1.7V98.8z M6.1,94.2H4.4v-2.3h1.7V94.2z
				 M6.1,89.6H4.4v-2.3h1.7V89.6z M6.1,85.1H4.4v-2.3h1.7V85.1z M6.1,80.5H4.4v-2.3h1.7V80.5z M6.1,76H4.4v-2.3h1.7V76z M6.1,71.4
				H4.4v-2.3h1.7V71.4z M6.1,66.8H4.4v-2.3h1.7V66.8z M6.1,62.3H4.4v-1.5c0-0.3,0-0.6,0-0.9l1.7,0.1c0,0.2,0,0.5,0,0.8V62.3z
				 M6.5,58.1l-1.6-0.6C5.2,56.7,5.6,56,6,55.3l1.4,0.9C7.1,56.8,6.8,57.4,6.5,58.1z M8.8,54.6l-1.2-1.2c0.6-0.6,1.3-1.1,2-1.5
				l0.8,1.5C9.8,53.7,9.3,54.1,8.8,54.6z M12.3,52.6l-0.5-1.6c0.8-0.2,1.6-0.4,2.4-0.4l0.1,1.7C13.7,52.3,13,52.4,12.3,52.6z
				 M23.5,52.3h-2.3v-1.7h2.3V52.3z M18.9,52.3h-2.3v-1.7h2.3V52.3z"/>
		</g>
		<g>
			<path fill="#FFBB4E" d="M152.9,54.3v-1.7c0.7,0,1.4-0.1,2.1-0.2l0.4,1.7C154.6,54.2,153.7,54.3,152.9,54.3z M157.7,53.1l-0.8-1.5
				c0.6-0.3,1.2-0.7,1.7-1.1l1.1,1.3C159.1,52.3,158.4,52.8,157.7,53.1z M161.4,50l-1.4-1c0.4-0.6,0.8-1.2,1-1.8l1.6,0.7
				C162.4,48.6,161.9,49.3,161.4,50z M163.4,45.5l-1.7-0.3c0.1-0.5,0.1-1,0.1-1.6v-0.5h1.7v0.5C163.6,44.2,163.5,44.9,163.4,45.5z
				 M163.6,40.8h-1.7v-2.3h1.7V40.8z M163.6,36.2h-1.7v-2.3h1.7V36.2z M163.6,31.7h-1.7v-2.3h1.7V31.7z M163.6,27.1h-1.7v-2.3h1.7
				V27.1z M163.6,22.5h-1.7v-2.3h1.7V22.5z M161.8,18c0-0.7-0.1-1.4-0.3-2l1.6-0.5c0.2,0.8,0.4,1.6,0.4,2.4L161.8,18z M62.6,17.1
				h-1.7v-1.5c0-0.3,0-0.6,0.1-0.9l1.7,0.2c0,0.2,0,0.5,0,0.7V17.1z M160.7,14.1c-0.3-0.6-0.7-1.2-1.2-1.7l1.3-1.1
				c0.6,0.6,1,1.3,1.4,2L160.7,14.1z M63.2,13l-1.5-0.7c0.4-0.8,0.9-1.5,1.4-2.1l1.2,1.2C63.8,11.8,63.4,12.4,63.2,13z M158,11
				c-0.6-0.4-1.2-0.7-1.8-1l0.6-1.6c0.8,0.3,1.5,0.7,2.2,1.2L158,11z M65.9,10.1l-0.8-1.5c0.8-0.4,1.6-0.7,2.4-0.8l0.3,1.7
				C67.1,9.6,66.5,9.8,65.9,10.1z M154.1,9.5c-0.4-0.1-0.8-0.1-1.2-0.1H152V7.7h0.9c0.5,0,1,0,1.4,0.1L154.1,9.5z M149.7,9.4h-2.3
				V7.7h2.3V9.4z M145.1,9.4h-2.3V7.7h2.3V9.4z M140.6,9.4h-2.3V7.7h2.3V9.4z M136,9.4h-2.3V7.7h2.3V9.4z M131.4,9.4h-2.3V7.7h2.3
				V9.4z M126.9,9.4h-2.3V7.7h2.3V9.4z M122.3,9.4h-2.3V7.7h2.3V9.4z M117.8,9.4h-2.3V7.7h2.3V9.4z M113.2,9.4h-2.3V7.7h2.3V9.4z
				 M108.7,9.4h-2.3V7.7h2.3V9.4z M104.1,9.4h-2.3V7.7h2.3V9.4z M99.5,9.4h-2.3V7.7h2.3V9.4z M95,9.4h-2.3V7.7H95V9.4z M90.4,9.4
				h-2.3V7.7h2.3V9.4z M85.9,9.4h-2.3V7.7h2.3V9.4z M81.3,9.4H79V7.7h2.3V9.4z M76.7,9.4h-2.3V7.7h2.3V9.4z M72.2,9.4h-2.3V7.7h2.3
				V9.4z"/>
		</g>
		<g opacity="0.75">
			<g>
				<rect x="16.8" y="28.8" fill="#FF6D1F" width="0.4" height="1.6"/>
			</g>
			<g>
				<rect x="16.8" y="35.3" fill="#FF6D1F" width="0.4" height="1.6"/>
			</g>
			<g>
				<rect x="19.5" y="32.7" fill="#FF6D1F" width="1.6" height="0.4"/>
			</g>
			<g>
				<rect x="12.9" y="32.7" fill="#FF6D1F" width="1.6" height="0.4"/>
			</g>
			<g>
				
					<rect x="19.2" y="29.7" transform="matrix(0.7078 0.7065 -0.7065 0.7078 27.2382 -4.7684)" fill="#FF6D1F" width="0.4" height="1.6"/>
			</g>
			<g>
				
					<rect x="14.5" y="34.4" transform="matrix(0.7071 0.7071 -0.7071 0.7071 29.2003 -0.1029)" fill="#FF6D1F" width="0.4" height="1.6"/>
			</g>
			<g>
				
					<rect x="18.6" y="35" transform="matrix(0.707 0.7072 -0.7072 0.707 30.5692 -3.3954)" fill="#FF6D1F" width="1.6" height="0.4"/>
			</g>
			<g>
				
					<rect x="13.9" y="30.3" transform="matrix(0.7071 0.7071 -0.7071 0.7071 25.9063 -1.4673)" fill="#FF6D1F" width="1.6" height="0.4"/>
			</g>
		</g>
		<g opacity="0.75">
			<g>
				<rect x="165.2" y="134.7" fill="#FF6D1F" width="0.4" height="1.6"/>
			</g>
			<g>
				<rect x="165.2" y="141.3" fill="#FF6D1F" width="0.4" height="1.6"/>
			</g>
			<g>
				<rect x="167.9" y="138.6" fill="#FF6D1F" width="1.6" height="0.4"/>
			</g>
			<g>
				<rect x="161.3" y="138.6" fill="#FF6D1F" width="1.6" height="0.4"/>
			</g>
			<g>
				
					<rect x="167.5" y="135.6" transform="matrix(0.7071 0.7071 -0.7071 0.7071 145.6275 -78.6452)" fill="#FF6D1F" width="0.4" height="1.6"/>
			</g>
			<g>
				
					<rect x="162.9" y="140.3" transform="matrix(0.7078 0.7065 -0.7065 0.7078 147.3591 -73.9721)" fill="#FF6D1F" width="0.4" height="1.6"/>
			</g>
			<g>
				
					<rect x="166.9" y="140.9" transform="matrix(0.707 0.7072 -0.7072 0.707 148.9476 -77.283)" fill="#FF6D1F" width="1.6" height="0.4"/>
			</g>
			<g>
				
					<rect x="162.3" y="136.3" transform="matrix(0.707 0.7072 -0.7072 0.707 144.2883 -75.3532)" fill="#FF6D1F" width="1.6" height="0.4"/>
			</g>
		</g>
		<g opacity="0.75">
			<rect x="158.4" y="69.5" fill="#FF6D1F" width="3" height="0.4"/>
		</g>
		<g opacity="0.75">
			<g>
				<g>
					<rect x="25.4" y="79.5" fill="#FF6D1F" width="0.4" height="3.2"/>
				</g>
				<g>
					<rect x="24" y="80.9" fill="#FF6D1F" width="3.2" height="0.4"/>
				</g>
			</g>
			<g>
				<rect x="25.4" y="79.5" fill="#FF6D1F" width="0.4" height="3.2"/>
			</g>
		</g>
		<g opacity="0.75">
			<g>
				<g>
					<rect x="153.3" y="168" fill="#FF6D1F" width="0.4" height="3.2"/>
				</g>
				<g>
					<rect x="152" y="169.3" fill="#FF6D1F" width="3.2" height="0.4"/>
				</g>
			</g>
			<g>
				<rect x="153.3" y="168" fill="#FF6D1F" width="0.4" height="3.2"/>
			</g>
		</g>
		<g opacity="0.75">
			<rect x="39" y="10.7" fill="#FF6D1F" width="3" height="0.4"/>
		</g>
		<g opacity="0.75">
			<g>
				<g>
					<rect x="174.9" y="85" fill="#FF6D1F" width="0.4" height="3.2"/>
				</g>
				<g>
					<rect x="173.5" y="86.4" fill="#FF6D1F" width="3.2" height="0.4"/>
				</g>
			</g>
			<g>
				<rect x="174.9" y="85" fill="#FF6D1F" width="0.4" height="3.2"/>
			</g>
		</g>
		<g>
			<path fill="#0F3B7A" d="M150.3,102.9c6.9,3.8,0.6,17.6,0.5,17.8c4.6-4.7,7.4-11.1,7.4-18.2c0-0.7,0-1.4-0.1-2
				C153.5,99.8,144.6,98.8,150.3,102.9z"/>
		</g>
		<g>
			<linearGradient id="SVGID_12_" gradientUnits="userSpaceOnUse" x1="96.9369" y1="151.424" x2="96.9369" y2="192.1332">
				<stop  offset="4.105548e-03" style="stop-color:#FFCA22"/>
				<stop  offset="5.992152e-02" style="stop-color:#FFC522"/>
				<stop  offset="0.3065" style="stop-color:#FFB622"/>
				<stop  offset="0.5914" style="stop-color:#FFAD22"/>
				<stop  offset="1" style="stop-color:#FFAA22"/>
			</linearGradient>
			<path fill="url(#SVGID_12_)" d="M123.9,192.1H70c-1.3,0-2.3-1-2.3-2.3v-36c0-1.3,1-2.3,2.3-2.3h53.8c1.3,0,2.3,1,2.3,2.3v36
				C126.2,191.1,125.1,192.1,123.9,192.1z M70,152c-1,0-1.8,0.8-1.8,1.8v36c0,1,0.8,1.8,1.8,1.8h53.8c1,0,1.8-0.8,1.8-1.8v-36
				c0-1-0.8-1.8-1.8-1.8H70z"/>
		</g>
		<g>
			<linearGradient id="SVGID_13_" gradientUnits="userSpaceOnUse" x1="96.9369" y1="153.9859" x2="96.9369" y2="186.4394">
				<stop  offset="4.105548e-03" style="stop-color:#FFCA22"/>
				<stop  offset="5.992152e-02" style="stop-color:#FFC522"/>
				<stop  offset="0.3065" style="stop-color:#FFB622"/>
				<stop  offset="0.5914" style="stop-color:#FFAD22"/>
				<stop  offset="1" style="stop-color:#FFAA22"/>
			</linearGradient>
			<path fill="url(#SVGID_13_)" d="M123.6,186.4H70.2V154h53.4V186.4z M70.8,185.9h52.2v-31.3H70.8V185.9z"/>
		</g>
		<g>
			<path fill="#FF6D1F" d="M29.4,157.3v-44.1c0-1.6,1.3-2.8,2.8-2.8h55.3c1.6,0,2.8,1.3,2.8,2.8v25.6h9.3l-9.3,9.3v9.2
				c0,1.6-1.3,2.8-2.8,2.8H32.2C30.7,160.1,29.4,158.9,29.4,157.3z"/>
		</g>
		<g>
			<rect x="52.8" y="150.9" fill="#FFCA22" width="14.7" height="0.8"/>
		</g>
		<g>
			<rect x="67.5" y="150.9" fill="#FFCC7A" width="7.3" height="0.8"/>
		</g>
		<g>
			<rect x="36.3" y="118.2" fill="#FF8A4C" width="8.4" height="0.8"/>
		</g>
		<g>
			<rect x="52.8" y="118.2" fill="#FFAA22" width="11.1" height="0.8"/>
		</g>
		<g>
			<rect x="63.8" y="118.2" fill="#FFD54E" width="5.5" height="0.8"/>
		</g>
		<g>
			<rect x="71.7" y="118.2" fill="#FFA779" width="12.9" height="0.8"/>
		</g>
		<g>
			<rect x="36.3" y="123.7" fill="#FF8A4C" width="8.4" height="0.8"/>
		</g>
		<g>
			<rect x="52.9" y="123.7" fill="#FFEED3" width="5.4" height="0.8"/>
		</g>
		<g>
			<rect x="58.3" y="123.7" fill="#FFCA22" width="5.5" height="0.8"/>
		</g>
		<g>
			<rect x="63.8" y="123.7" fill="#FF8A4C" width="12.9" height="0.8"/>
		</g>
		<g>
			<rect x="36.3" y="129" fill="#FF8A4C" width="8.4" height="0.8"/>
		</g>
		<g>
			<rect x="52.8" y="129" fill="#FFCA22" width="14.7" height="0.8"/>
		</g>
		<g>
			<rect x="67.5" y="129" fill="#6F89AF" width="7.3" height="0.8"/>
		</g>
		<g>
			<rect x="74.2" y="129" fill="#FFCC7A" width="7.8" height="0.8"/>
		</g>
		<g>
			<rect x="36.3" y="134.5" fill="#FF8A4C" width="8.4" height="0.8"/>
		</g>
		<g>
			<rect x="52.9" y="134.5" fill="#FFEED3" width="5.4" height="0.8"/>
		</g>
		<g>
			<rect x="58.3" y="134.5" fill="#FFCA22" width="5.5" height="0.8"/>
		</g>
		<g>
			<rect x="63.8" y="134.5" fill="#FFAA22" width="12.9" height="0.8"/>
		</g>
		<g>
			<rect x="36.3" y="140.1" fill="#FF8A4C" width="8.4" height="0.8"/>
		</g>
		<g>
			<rect x="52.8" y="140.1" fill="#FFA779" width="11.1" height="0.8"/>
		</g>
		<g>
			<rect x="63.8" y="140.1" fill="#FFD54E" width="5.5" height="0.8"/>
		</g>
		<g>
			<rect x="71.7" y="140.1" fill="#FFA779" width="12.9" height="0.8"/>
		</g>
		<g>
			<rect x="36.3" y="145.6" fill="#FF8A4C" width="8.4" height="0.8"/>
		</g>
		<g>
			<rect x="52.9" y="145.6" fill="#3F6295" width="5.4" height="0.8"/>
		</g>
		<g>
			<rect x="58.3" y="145.6" fill="#FFCA22" width="5.5" height="0.8"/>
		</g>
		<g>
			<rect x="63.8" y="145.6" fill="#FFAA22" width="12.9" height="0.8"/>
		</g>
		<g>
			<rect x="36.3" y="150.9" fill="#FF8A4C" width="8.4" height="0.8"/>
		</g>
		<g>
			<rect x="74.2" y="150.9" fill="#FFA779" width="7.8" height="0.8"/>
		</g>
	</g>
</g>
<g id="grid">
</g>
</svg>
