<?xml version="1.0" encoding="utf-8"?>
<!-- Generator: Adobe Illustrator 18.1.1, SVG Export Plug-In . SVG Version: 6.00 Build 0)  -->
<svg version="1.1" xmlns="http://www.w3.org/2000/svg" xmlns:xlink="http://www.w3.org/1999/xlink" x="0px" y="0px"
	 viewBox="0 0 141.5 184.3" enable-background="new 0 0 141.5 184.3" xml:space="preserve">
<g id="Layer_1">
	<g>
		<linearGradient id="SVGID_2_" gradientUnits="userSpaceOnUse" x1="70.1024" y1="69.0842" x2="70.1024" y2="128.9464">
			<stop  offset="4.105548e-03" style="stop-color:#FFCA22"/>
			<stop  offset="0.8619" style="stop-color:#FFCA22;stop-opacity:0"/>
		</linearGradient>
		<rect x="34.8" y="69.1" fill="url(#SVGID_2_)" width="70.6" height="59.9"/>
		<g>
			<path fill="#FFCA22" d="M34.8,68.1v-3c0-1.5,1.3-2.7,2.8-2.7h64.9c1.6,0,2.8,1.2,2.8,2.7v3"/>
		</g>
		<g>
			<g>
				<rect x="41.8" y="83.2" fill="#FF6D1F" width="28.5" height="1.3"/>
			</g>
			<g>
				<rect x="70.1" y="83.2" fill="#FF8A4C" width="28.5" height="1.3"/>
			</g>
		</g>
		<g>
			<circle fill="#FFFFFF" cx="38.1" cy="65.1" r="0.6"/>
		</g>
		<g>
			<circle fill="#FFFFFF" cx="41.8" cy="65.1" r="0.6"/>
		</g>
		<g>
			<circle fill="#FFFFFF" cx="45.3" cy="65.1" r="0.6"/>
		</g>
		<g>
			<rect x="41.8" y="77" fill="#FF6D1F" width="35.3" height="1.3"/>
		</g>
		<g>
			<g>
				<rect x="41.8" y="89.3" fill="#FF6D1F" width="20.4" height="1.3"/>
			</g>
			<g>
				<rect x="62.1" y="89.3" fill="#FF8A4C" width="20.4" height="1.3"/>
			</g>
			<g>
				<rect x="81.9" y="89.3" fill="#FF6D1F" width="16.8" height="1.3"/>
			</g>
		</g>
		<g>
			<g>
				<rect x="41.8" y="95.5" fill="#FF6D1F" width="15.5" height="1.3"/>
			</g>
			<g>
				<rect x="57.1" y="95.5" fill="#FF8A4C" width="15.5" height="1.3"/>
			</g>
			<g>
				<rect x="72.1" y="95.5" fill="#FF6D1F" width="15.5" height="1.3"/>
			</g>
			<g>
				<rect x="86.9" y="95.5" fill="#FF8A4C" width="11.8" height="1.3"/>
			</g>
		</g>
		<g>
			<g>
				<rect x="41.8" y="101.6" fill="#FF6D1F" width="12.5" height="1.3"/>
			</g>
			<g>
				<rect x="54.2" y="101.6" fill="#FF8A4C" width="12.5" height="1.3"/>
			</g>
			<g>
				<rect x="66.3" y="101.6" fill="#FF6D1F" width="10.3" height="1.3"/>
			</g>
		</g>
		<g>
			<g>
				<rect x="41.8" y="107.8" fill="#FF6D1F" width="6.8" height="1.3"/>
			</g>
			<g>
				<rect x="48.6" y="107.8" fill="#FF8A4C" width="6.8" height="1.3"/>
			</g>
			<g>
				<rect x="55.2" y="107.8" fill="#FF6D1F" width="6.8" height="1.3"/>
			</g>
			<g>
				<rect x="61.8" y="107.8" fill="#FF8A4C" width="6.8" height="1.3"/>
			</g>
		</g>
		<g>
			<g>
				
					<rect x="98.8" y="55.2" transform="matrix(0.7071 0.7071 -0.7071 0.7071 87.3049 -48.5969)" fill="#0095FF" width="7" height="51.8"/>
			</g>
			<g>
				
					<rect x="116.7" y="62.6" transform="matrix(0.7071 0.7071 -0.7071 0.7071 79.9192 -66.4275)" fill="#0F3B7A" width="7" height="1.4"/>
			</g>
			<g>
				<polygon fill="#FFEAA7" points="86.5,101.9 81.5,96.9 80.1,103.3 				"/>
			</g>
			<g>
				<polygon fill="#231F20" points="80.7,100.8 80.1,103.3 82.6,102.7 				"/>
			</g>
			<g opacity="0.1">
				
					<rect x="99.3" y="54" transform="matrix(0.7071 0.7071 -0.7071 0.7071 86.0738 -48.0869)" fill="#231F20" width="3.5" height="51.8"/>
			</g>
			<g>
				
					<rect x="116.7" y="62.6" transform="matrix(0.7071 0.7071 -0.7071 0.7071 79.9192 -66.4275)" fill="#FF6D1F" width="7" height="1.4"/>
			</g>
			<g opacity="0.1">
				<polygon fill="#231F20" points="81.5,96.9 80.1,103.3 84,99.4 				"/>
			</g>
			<g>
				<path fill="#3F6295" d="M125,61.3l-2.9-2.9c-0.6-0.6-1.4-0.6-2,0l-1.9,1.9l4.9,4.9l1.9-1.9C125.6,62.8,125.6,61.9,125,61.3z"/>
			</g>
			<g opacity="0.1">
				<path fill="#231F20" d="M123.6,59.8l-1.5-1.5c-0.6-0.6-1.4-0.6-2,0l-1.9,1.9l2.5,2.5L123.6,59.8z"/>
			</g>
			<g opacity="0.1">
				
					<rect x="117.2" y="61.3" transform="matrix(0.7071 0.7071 -0.7071 0.7071 78.6882 -65.9176)" fill="#231F20" width="3.5" height="1.4"/>
			</g>
		</g>
		<g>
			<path fill="#FF8A4C" d="M37.8,149.9h-2v-1.5h2V149.9z M33.7,149.9h-2v-1.5h2V149.9z M29.6,149.9h-2v-1.5h2V149.9z M25.5,149.9h-2
				v-1.5h2V149.9z M21.4,149.9h-2v-1.5h2V149.9z M17.3,149.9h-2v-1.5h2V149.9z M13.1,149.8c-0.7-0.1-1.5-0.2-2.2-0.4l0.4-1.5
				c0.6,0.2,1.2,0.3,1.8,0.3L13.1,149.8z M8.9,148.6c-0.6-0.4-1.2-0.8-1.8-1.3l1-1.1c0.5,0.4,1,0.8,1.5,1.1L8.9,148.6z M5.6,145.6
				c-0.4-0.6-0.8-1.2-1.1-1.9l1.4-0.6c0.2,0.6,0.6,1.1,0.9,1.6L5.6,145.6z M3.9,141.6c-0.1-0.6-0.2-1.2-0.2-1.9v-0.3h1.5v0.3
				c0,0.5,0,1.1,0.1,1.6L3.9,141.6z M5.3,137.4H3.7v-2h1.5V137.4z M5.3,133.3H3.7v-2h1.5V133.3z M5.3,129.2H3.7v-2h1.5V129.2z
				 M5.3,125.1H3.7v-2h1.5V125.1z M5.3,121H3.7v-2h1.5V121z M5.3,116.9H3.7v-0.2c0-0.6,0.1-1.3,0.2-1.9l1.5,0.3
				c-0.1,0.5-0.2,1.1-0.2,1.6V116.9z M6,113.2l-1.4-0.6c0.3-0.7,0.7-1.3,1.1-1.9l1.2,0.9C6.6,112.1,6.2,112.6,6,113.2z M8.2,110.2
				l-1-1.2c0.6-0.5,1.2-0.9,1.8-1.3l0.7,1.3C9.2,109.4,8.7,109.8,8.2,110.2z M11.4,108.4l-0.4-1.5c0.7-0.2,1.4-0.3,2.2-0.4l0.1,1.5
				C12.7,108.1,12,108.2,11.4,108.4z M25.5,108.1h-2v-1.5h2V108.1z M21.4,108.1h-2v-1.5h2V108.1z M17.3,108.1h-2v-1.5h2V108.1z"/>
		</g>
		<g>
			<linearGradient id="SVGID_4_" gradientUnits="userSpaceOnUse" x1="85.7872" y1="172.9674" x2="99.746" y2="172.9674">
				<stop  offset="0" style="stop-color:#FFAA22"/>
				<stop  offset="0.3373" style="stop-color:#FFAF22"/>
				<stop  offset="0.7317" style="stop-color:#FFBD20"/>
				<stop  offset="1" style="stop-color:#FFCB1F"/>
			</linearGradient>
			<path fill="url(#SVGID_4_)" d="M92.8,179.9l-7-7l7-7l7,7L92.8,179.9z M86.5,173l6.3,6.3L99,173l-6.3-6.3L86.5,173z"/>
		</g>
		<g>
			<path fill="#FF8A4C" d="M81.4,173.7h-2v-1.5h2V173.7z M77.3,173.7h-2v-1.5h2V173.7z M73.2,173.7h-2v-1.5h2V173.7z M69.1,173.7h-2
				v-1.5h2V173.7z M65,173.7h-2v-1.5h2V173.7z M60.9,173.7h-0.5c-0.6,0-1.1-0.1-1.7-0.2l0.3-1.5c0.4,0.1,0.9,0.1,1.4,0.1h0.5V173.7z
				 M56.6,172.8c-0.7-0.4-1.3-0.8-1.8-1.3l1.1-1.1c0.4,0.4,0.9,0.8,1.5,1.1L56.6,172.8z M53.4,169.7c-0.4-0.7-0.7-1.4-0.9-2.1
				l1.5-0.4c0.1,0.6,0.4,1.2,0.7,1.7L53.4,169.7z M53.8,165.4h-1.5v-2h1.5V165.4z"/>
		</g>
		<g>
			<path fill="#FF8A4C" d="M62.8,58h-1.5v-2h1.5V58z M62.8,53.9h-1.5v-2h1.5V53.9z M61.2,49.8c-0.1-0.6-0.2-1.2-0.4-1.8l1.5-0.5
				c0.2,0.7,0.4,1.4,0.4,2.2L61.2,49.8z M60.1,46.3c-0.3-0.5-0.7-1.1-1.1-1.5l1.1-1c0.5,0.5,0.9,1.1,1.3,1.8L60.1,46.3z M57.6,43.5
				c-0.5-0.4-1.1-0.7-1.6-0.9l0.6-1.4c0.7,0.3,1.3,0.7,1.9,1.1L57.6,43.5z M54.2,42.1c-0.5-0.1-1.1-0.1-1.6-0.1h-0.3v-1.5h0.3
				c0.6,0,1.3,0.1,1.9,0.2L54.2,42.1z M50.2,41.9h-2v-1.5h2V41.9z M46.1,41.9h-2v-1.5h2V41.9z"/>
		</g>
		<g>
			<path fill="#FF8A4C" d="M84.1,56.5h-1.5v-2h1.5V56.5z M84.1,52.4h-1.5v-2h1.5V52.4z M84.1,48.3h-1.5v-2h1.5V48.3z M84.1,44.2
				h-1.5v-2h1.5V44.2z M84.1,40.1h-1.5v-2h1.5V40.1z M84.1,36h-1.5v-2h1.5V36z M84.1,31.9h-1.5v-2h1.5V31.9z M84.1,27.8h-1.5v-2h1.5
				V27.8z"/>
		</g>
		<g>
			<path fill="#FF8A4C" d="M29.4,77.8h-0.7v-1.5h0.7V77.8z M26.7,77.8h-2v-1.5h2V77.8z M22.6,77.8h-2v-1.5h2V77.8z M18.5,77.8h-2
				v-1.5h2V77.8z M14.4,77.8h-1.7c-0.1,0-0.3,0-0.4,0l0.1-1.5c0.1,0,0.2,0,0.3,0h1.7V77.8z M10.1,77.4c-0.7-0.2-1.4-0.5-2-0.9
				l0.8-1.3c0.5,0.3,1.1,0.6,1.7,0.8L10.1,77.4z M6.4,75.1c-0.5-0.5-1-1.1-1.4-1.8l1.3-0.8c0.3,0.5,0.7,1,1.1,1.5L6.4,75.1z
				 M4.1,71.3c-0.2-0.7-0.3-1.5-0.4-2.2l1.5-0.1c0,0.6,0.1,1.2,0.3,1.8L4.1,71.3z M5.3,67H3.7v-2h1.5V67z M5.3,62.9H3.7v-2h1.5V62.9
				z M5.3,58.9H3.7v-2h1.5V58.9z M5.3,54.8H3.7v-2h1.5V54.8z M5.3,50.7H3.7v-1.3c0-0.3,0-0.6,0-0.8l1.5,0.1c0,0.2,0,0.5,0,0.7V50.7z
				 M5.7,46.9l-1.4-0.5c0.2-0.7,0.6-1.4,1-2l1.3,0.9C6.2,45.7,5.9,46.3,5.7,46.9z M7.7,43.8l-1-1.1c0.6-0.5,1.2-0.9,1.8-1.3l0.7,1.4
				C8.7,43.1,8.2,43.4,7.7,43.8z M11,42.1l-0.4-1.5c0.7-0.2,1.4-0.3,2.1-0.3h0.1v1.5h-0.1C12.2,41.9,11.6,42,11,42.1z M16.9,41.9h-2
				v-1.5h2V41.9z"/>
		</g>
		<g>
			<path fill="#FF8A4C" d="M119.6,157.4h-0.1v-1.5h0.1c0.6,0,1.2-0.1,1.7-0.2l0.3,1.5C121,157.3,120.3,157.4,119.6,157.4z
				 M117.4,157.4h-2v-1.5h2V157.4z M113.3,157.4h-2v-1.5h2V157.4z M109.2,157.4h-2v-1.5h2V157.4z M105.1,157.4h-2v-1.5h2V157.4z
				 M101,157.4h-2v-1.5h2V157.4z M96.8,157.2c-0.7-0.2-1.4-0.4-2.1-0.7l0.7-1.4c0.6,0.3,1.1,0.5,1.8,0.6L96.8,157.2z M123.7,156.4
				l-0.7-1.4c0.6-0.3,1.1-0.6,1.5-1l1,1.2C125,155.7,124.4,156.1,123.7,156.4z M92.8,155.3c-0.6-0.5-1.1-1-1.5-1.6l1.2-0.9
				c0.4,0.5,0.8,1,1.3,1.4L92.8,155.3z M127.1,153.5l-1.3-0.9c0.4-0.5,0.7-1.1,0.9-1.6l1.4,0.6C127.8,152.2,127.5,152.9,127.1,153.5
				z M90.2,151.7c-0.3-0.7-0.5-1.4-0.6-2.2l1.5-0.2c0.1,0.6,0.2,1.2,0.5,1.8L90.2,151.7z M128.7,149.4l-1.5-0.2c0-0.3,0.1-0.6,0.1-1
				v-1h1.5v1C128.7,148.6,128.7,149,128.7,149.4z M91,147.4h-1.5v-2H91V147.4z M128.7,145.2h-1.5v-2h1.5V145.2z M91,143.3h-1.5v-2
				H91V143.3z M91,139.2h-1.5v-2H91V139.2z M91,135.1h-1.5v-2H91V135.1z"/>
		</g>
		<g>
			<path fill="#FF8A4C" d="M24.4,163h-1.5v-2h1.5V163z M24.4,158.9h-1.5v-2h1.5V158.9z M24.4,154.8h-1.5v-2h1.5V154.8z"/>
		</g>
		<g>
			<path fill="#FF8A4C" d="M101.4,40.1h-2v-1.5h2V40.1z M97.3,40.1h-2v-1.5h2V40.1z M93.2,40.1h-2v-1.5h2V40.1z M89.1,40.1h-2v-1.5
				h2V40.1z"/>
		</g>
		<g>
			<linearGradient id="SVGID_6_" gradientUnits="userSpaceOnUse" x1="104.2293" y1="37.9775" x2="116.0489" y2="37.9775">
				<stop  offset="0" style="stop-color:#FFAA22"/>
				<stop  offset="0.3373" style="stop-color:#FFAF22"/>
				<stop  offset="0.7317" style="stop-color:#FFBD20"/>
				<stop  offset="1" style="stop-color:#FFCB1F"/>
			</linearGradient>
			<path fill="url(#SVGID_6_)" d="M116,43.6h-11.8l5.9-11.2L116,43.6z M105.1,43.1h10.1l-5.1-9.6L105.1,43.1z"/>
		</g>
		<g>
			<path fill="#FF8A4C" d="M128.7,120.2h-1.5v-2h1.5V120.2z M128.7,116.1h-1.5v-2h1.5V116.1z M127.2,112.1c-0.1-0.6-0.2-1.2-0.4-1.8
				l1.5-0.5c0.2,0.7,0.4,1.4,0.4,2.2L127.2,112.1z M126.1,108.5c-0.3-0.5-0.7-1.1-1.1-1.5l1.2-1c0.5,0.6,0.9,1.2,1.3,1.8
				L126.1,108.5z M123.6,105.7c-0.5-0.4-1-0.7-1.6-1l0.6-1.4c0.7,0.3,1.3,0.7,1.9,1.1L123.6,105.7z M120.2,104.1
				c-0.6-0.1-1.2-0.2-1.9-0.2l0-1.5c0.7,0,1.5,0.1,2.2,0.3L120.2,104.1z M116.3,103.9h-2v-1.5h2V103.9z M112.2,103.9h-2v-1.5h2
				V103.9z"/>
		</g>
		<g>
			<g>
				<linearGradient id="SVGID_7_" gradientUnits="userSpaceOnUse" x1="30.1336" y1="36.3458" x2="34.306" y2="36.3458">
					<stop  offset="0" style="stop-color:#FFAA22"/>
					<stop  offset="0.3373" style="stop-color:#FFAF22"/>
					<stop  offset="0.7317" style="stop-color:#FFBD20"/>
					<stop  offset="1" style="stop-color:#FFCB1F"/>
				</linearGradient>
				<path fill="url(#SVGID_7_)" d="M34,37.2c-1.1-0.8-2.5-1.3-3.8-1.2l0-0.5c1.4-0.1,3,0.4,4.2,1.3L34,37.2z"/>
			</g>
			<g>
				<linearGradient id="SVGID_8_" gradientUnits="userSpaceOnUse" x1="37.8472" y1="39.4293" x2="39.642" y2="39.4293">
					<stop  offset="0" style="stop-color:#FFAA22"/>
					<stop  offset="0.3373" style="stop-color:#FFAF22"/>
					<stop  offset="0.7317" style="stop-color:#FFBD20"/>
					<stop  offset="1" style="stop-color:#FFCB1F"/>
				</linearGradient>
				<path fill="url(#SVGID_8_)" d="M37.8,40.3v-0.5c0.7,0,1.3-0.6,1.3-1.3h0.5C39.6,39.5,38.9,40.3,37.8,40.3z"/>
			</g>
			<g>
				<linearGradient id="SVGID_9_" gradientUnits="userSpaceOnUse" x1="21.2749" y1="39.4553" x2="38.0896" y2="39.4553">
					<stop  offset="0" style="stop-color:#FFAA22"/>
					<stop  offset="0.3373" style="stop-color:#FFAF22"/>
					<stop  offset="0.7317" style="stop-color:#FFBD20"/>
					<stop  offset="1" style="stop-color:#FFCB1F"/>
				</linearGradient>
				<path fill="url(#SVGID_9_)" d="M30.5,46.5c-3.3,0-5.8-1.3-6.9-3.7h-2.2v-3.6h1.6c0.3-1.7,1.4-3.3,3-4.3
					c-0.1-0.7-0.6-1.3-1.2-1.6L24.3,33l0.4-0.2c0.5-0.3,1-0.4,1.5-0.4c1,0,1.9,0.5,2.5,1.4c0.6-0.1,1.2-0.1,1.8-0.1
					c4.2,0,7.6,2.9,7.6,6.4C38.1,43.6,34.7,46.5,30.5,46.5z M21.8,42.3h2.1l0.1,0.2c1,2.3,3.4,3.5,6.5,3.5c3.9,0,7.1-2.7,7.1-5.9
					c0-3.2-3.2-5.9-7.1-5.9c-0.6,0-1.3,0-1.8,0.1l-0.2,0l-0.1-0.2c-0.4-0.8-1.3-1.3-2.1-1.3c-0.3,0-0.6,0.1-0.8,0.2
					c0.6,0.5,1,1.1,1.1,1.9l0,0.2l-0.1,0.1c-1.6,1-2.7,2.6-3,4.3l0,0.2h-1.5V42.3z"/>
			</g>
			<g>
				<linearGradient id="SVGID_10_" gradientUnits="userSpaceOnUse" x1="27.4321" y1="46.9669" x2="27.9439" y2="46.9669">
					<stop  offset="0" style="stop-color:#FFAA22"/>
					<stop  offset="0.3373" style="stop-color:#FFAF22"/>
					<stop  offset="0.7317" style="stop-color:#FFBD20"/>
					<stop  offset="1" style="stop-color:#FFCB1F"/>
				</linearGradient>
				<rect x="27.4" y="45.9" fill="url(#SVGID_10_)" width="0.5" height="2.2"/>
			</g>
			<g>
				<linearGradient id="SVGID_11_" gradientUnits="userSpaceOnUse" x1="32.9735" y1="46.9273" x2="33.4853" y2="46.9273">
					<stop  offset="0" style="stop-color:#FFAA22"/>
					<stop  offset="0.3373" style="stop-color:#FFAF22"/>
					<stop  offset="0.7317" style="stop-color:#FFBD20"/>
					<stop  offset="1" style="stop-color:#FFCB1F"/>
				</linearGradient>
				<rect x="33" y="45.8" fill="url(#SVGID_11_)" width="0.5" height="2.3"/>
			</g>
			<g>
				<linearGradient id="SVGID_12_" gradientUnits="userSpaceOnUse" x1="25.2769" y1="38.8396" x2="27.0203" y2="38.8396">
					<stop  offset="0" style="stop-color:#FFAA22"/>
					<stop  offset="0.3373" style="stop-color:#FFAF22"/>
					<stop  offset="0.7317" style="stop-color:#FFBD20"/>
					<stop  offset="1" style="stop-color:#FFCB1F"/>
				</linearGradient>
				<path fill="url(#SVGID_12_)" d="M26.1,39.7c-0.5,0-0.9-0.4-0.9-0.9c0-0.5,0.4-0.9,0.9-0.9s0.9,0.4,0.9,0.9
					C27,39.3,26.6,39.7,26.1,39.7z M26.1,38.5c-0.2,0-0.4,0.2-0.4,0.4s0.2,0.4,0.4,0.4c0.2,0,0.4-0.2,0.4-0.4S26.3,38.5,26.1,38.5z"
					/>
			</g>
		</g>
		<g>
			<g>
				<linearGradient id="SVGID_13_" gradientUnits="userSpaceOnUse" x1="119.0348" y1="129.5793" x2="136.1314" y2="129.5793">
					<stop  offset="0" style="stop-color:#FFAA22"/>
					<stop  offset="0.3373" style="stop-color:#FFAF22"/>
					<stop  offset="0.7317" style="stop-color:#FFBD20"/>
					<stop  offset="1" style="stop-color:#FFCB1F"/>
				</linearGradient>
				<path fill="url(#SVGID_13_)" d="M136.1,135H119v-10.9h17.1V135z M119.5,134.5h16.1v-9.9h-16.1V134.5z"/>
			</g>
			<g>
				<linearGradient id="SVGID_14_" gradientUnits="userSpaceOnUse" x1="120.6727" y1="131.0895" x2="137.5139" y2="131.0895">
					<stop  offset="0" style="stop-color:#FFAA22"/>
					<stop  offset="0.3373" style="stop-color:#FFAF22"/>
					<stop  offset="0.7317" style="stop-color:#FFBD20"/>
					<stop  offset="1" style="stop-color:#FFCB1F"/>
				</linearGradient>
				<polygon fill="url(#SVGID_14_)" points="137.5,136.4 120.7,136.4 120.7,135.9 137,135.9 137,125.8 137.5,125.8 				"/>
			</g>
			<g>
				<linearGradient id="SVGID_15_" gradientUnits="userSpaceOnUse" x1="122.0546" y1="132.4715" x2="138.8958" y2="132.4715">
					<stop  offset="0" style="stop-color:#FFAA22"/>
					<stop  offset="0.3373" style="stop-color:#FFAF22"/>
					<stop  offset="0.7317" style="stop-color:#FFBD20"/>
					<stop  offset="1" style="stop-color:#FFCB1F"/>
				</linearGradient>
				<polygon fill="url(#SVGID_15_)" points="138.9,137.8 122.1,137.8 122.1,137.3 138.4,137.3 138.4,127.2 138.9,127.2 				"/>
			</g>
			<g>
				<linearGradient id="SVGID_16_" gradientUnits="userSpaceOnUse" x1="121.3639" y1="132.6891" x2="123.4371" y2="132.6891">
					<stop  offset="0" style="stop-color:#FFAA22"/>
					<stop  offset="0.3373" style="stop-color:#FFAF22"/>
					<stop  offset="0.7317" style="stop-color:#FFBD20"/>
					<stop  offset="1" style="stop-color:#FFCB1F"/>
				</linearGradient>
				<rect x="121.4" y="132.4" fill="url(#SVGID_16_)" width="2.1" height="0.5"/>
			</g>
			<g>
				<linearGradient id="SVGID_17_" gradientUnits="userSpaceOnUse" x1="131.7295" y1="126.4697" x2="133.8027" y2="126.4697">
					<stop  offset="0" style="stop-color:#FFAA22"/>
					<stop  offset="0.3373" style="stop-color:#FFAF22"/>
					<stop  offset="0.7317" style="stop-color:#FFBD20"/>
					<stop  offset="1" style="stop-color:#FFCB1F"/>
				</linearGradient>
				<rect x="131.7" y="126.2" fill="url(#SVGID_17_)" width="2.1" height="0.5"/>
			</g>
			<g>
				<linearGradient id="SVGID_18_" gradientUnits="userSpaceOnUse" x1="124.5632" y1="129.5793" x2="130.6034" y2="129.5793">
					<stop  offset="0" style="stop-color:#FFAA22"/>
					<stop  offset="0.3373" style="stop-color:#FFAF22"/>
					<stop  offset="0.7317" style="stop-color:#FFBD20"/>
					<stop  offset="1" style="stop-color:#FFCB1F"/>
				</linearGradient>
				<path fill="url(#SVGID_18_)" d="M127.6,132.6c-1.7,0-3-1.4-3-3c0-1.7,1.4-3,3-3s3,1.4,3,3C130.6,131.2,129.2,132.6,127.6,132.6z
					 M127.6,127.1c-1.4,0-2.5,1.1-2.5,2.5c0,1.4,1.1,2.5,2.5,2.5s2.5-1.1,2.5-2.5C130.1,128.2,129,127.1,127.6,127.1z"/>
			</g>
		</g>
		<g>
			<g>
				<linearGradient id="SVGID_19_" gradientUnits="userSpaceOnUse" x1="76.5962" y1="12.4969" x2="90.0022" y2="12.4969">
					<stop  offset="0" style="stop-color:#FFAA22"/>
					<stop  offset="0.3373" style="stop-color:#FFAF22"/>
					<stop  offset="0.7317" style="stop-color:#FFBD20"/>
					<stop  offset="1" style="stop-color:#FFCB1F"/>
				</linearGradient>
				<path fill="url(#SVGID_19_)" d="M90,21.3H76.6V3.7h8.6L90,8.6V21.3z M77.1,20.7h12.4V8.8L85,4.3h-7.8V20.7z"/>
			</g>
			<g>
				<linearGradient id="SVGID_20_" gradientUnits="userSpaceOnUse" x1="84.8016" y1="6.4709" x2="89.7462" y2="6.4709">
					<stop  offset="0" style="stop-color:#FFAA22"/>
					<stop  offset="0.3373" style="stop-color:#FFAF22"/>
					<stop  offset="0.7317" style="stop-color:#FFBD20"/>
					<stop  offset="1" style="stop-color:#FFCB1F"/>
				</linearGradient>
				<polygon fill="url(#SVGID_20_)" points="89.7,8.9 84.8,8.9 84.8,4 85.3,4 85.3,8.4 89.7,8.4 				"/>
			</g>
			<g>
				<linearGradient id="SVGID_21_" gradientUnits="userSpaceOnUse" x1="79.0253" y1="13.53" x2="87.5891" y2="13.53">
					<stop  offset="0" style="stop-color:#FFAA22"/>
					<stop  offset="0.3373" style="stop-color:#FFAF22"/>
					<stop  offset="0.7317" style="stop-color:#FFBD20"/>
					<stop  offset="1" style="stop-color:#FFCB1F"/>
				</linearGradient>
				<polygon fill="url(#SVGID_21_)" points="79.4,15.9 79,15.5 82.3,12.5 84.5,14 87.2,11.1 87.6,11.5 84.6,14.7 82.4,13.2 				"/>
			</g>
			<g>
				<linearGradient id="SVGID_22_" gradientUnits="userSpaceOnUse" x1="78.9408" y1="13.9309" x2="87.5291" y2="13.9309">
					<stop  offset="0" style="stop-color:#FFAA22"/>
					<stop  offset="0.3373" style="stop-color:#FFAF22"/>
					<stop  offset="0.7317" style="stop-color:#FFBD20"/>
					<stop  offset="1" style="stop-color:#FFCB1F"/>
				</linearGradient>
				<polygon fill="url(#SVGID_22_)" points="87.5,18.3 78.9,18.3 78.9,9.5 79.5,9.5 79.5,17.8 87.5,17.8 				"/>
			</g>
		</g>
		<g>
			<g>
				<linearGradient id="SVGID_23_" gradientUnits="userSpaceOnUse" x1="49.2679" y1="151.61" x2="54.1076" y2="151.61">
					<stop  offset="0" style="stop-color:#FFAA22"/>
					<stop  offset="0.3373" style="stop-color:#FFAF22"/>
					<stop  offset="0.7317" style="stop-color:#FFBD20"/>
					<stop  offset="1" style="stop-color:#FFCB1F"/>
				</linearGradient>
				<path fill="url(#SVGID_23_)" d="M51.7,154c-1.3,0-2.4-1.1-2.4-2.4c0-1.3,1.1-2.4,2.4-2.4c1.3,0,2.4,1.1,2.4,2.4
					C54.1,152.9,53,154,51.7,154z M51.7,149.7c-1.1,0-1.9,0.9-1.9,1.9c0,1.1,0.9,1.9,1.9,1.9s1.9-0.9,1.9-1.9
					C53.6,150.6,52.7,149.7,51.7,149.7z"/>
			</g>
			<g>
				<linearGradient id="SVGID_24_" gradientUnits="userSpaceOnUse" x1="57.9237" y1="144.0361" x2="60.5997" y2="144.0361">
					<stop  offset="0" style="stop-color:#FFAA22"/>
					<stop  offset="0.3373" style="stop-color:#FFAF22"/>
					<stop  offset="0.7317" style="stop-color:#FFBD20"/>
					<stop  offset="1" style="stop-color:#FFCB1F"/>
				</linearGradient>
				<path fill="url(#SVGID_24_)" d="M59.3,145.4c-0.7,0-1.3-0.6-1.3-1.3c0-0.7,0.6-1.3,1.3-1.3s1.3,0.6,1.3,1.3
					C60.6,144.8,60,145.4,59.3,145.4z M59.3,143.2c-0.5,0-0.8,0.4-0.8,0.8c0,0.5,0.4,0.8,0.8,0.8s0.8-0.4,0.8-0.8
					C60.1,143.6,59.7,143.2,59.3,143.2z"/>
			</g>
			<g>
				<linearGradient id="SVGID_25_" gradientUnits="userSpaceOnUse" x1="45.6193" y1="151.6534" x2="57.7617" y2="151.6534">
					<stop  offset="0" style="stop-color:#FFAA22"/>
					<stop  offset="0.3373" style="stop-color:#FFAF22"/>
					<stop  offset="0.7317" style="stop-color:#FFBD20"/>
					<stop  offset="1" style="stop-color:#FFCB1F"/>
				</linearGradient>
				<path fill="url(#SVGID_25_)" d="M53.4,157.6H50v-1.4c-0.5-0.2-1-0.5-1.5-0.9l-1.2,0.7l-1.7-2.9l1.2-0.7c0-0.3-0.1-0.6-0.1-0.9
					c0-0.3,0-0.6,0.1-0.9l-1.2-0.7l1.7-2.9l1.2,0.7c0.5-0.4,1-0.7,1.5-0.9v-1.3h3.4v1.3c0.6,0.2,1,0.5,1.4,0.9l1.2-0.7l1.7,2.9
					l-1.2,0.7c0,0.3,0.1,0.6,0.1,0.8c0,0.3,0,0.6-0.1,0.8l1.2,0.7l-1.7,2.9l-1.2-0.7c-0.4,0.4-0.9,0.7-1.4,0.9V157.6z M50.6,157.1
					h2.4v-1.2l0.2-0.1c0.7-0.2,1.1-0.5,1.6-0.9l0.1-0.1l1.1,0.6l1.2-2.1l-1.1-0.6l0-0.2c0.1-0.3,0.1-0.6,0.1-0.9
					c0-0.3,0-0.6-0.1-0.9l0-0.2l1.1-0.6l-1.2-2.1l-1.1,0.6l-0.1-0.1c-0.5-0.4-0.9-0.7-1.6-0.9l-0.2-0.1v-1.2h-2.4v1.2l-0.2,0.1
					c-0.6,0.2-1.1,0.4-1.6,0.9l-0.1,0.1l-1.1-0.6l-1.2,2.1l1.1,0.6l0,0.2c-0.1,0.3-0.1,0.6-0.1,0.9c0,0.3,0,0.6,0.1,0.9l0,0.2
					l-1.1,0.6l1.2,2.1l1.1-0.6l0.1,0.1c0.5,0.5,1,0.8,1.6,0.9l0.2,0.1V157.1z"/>
			</g>
			<g>
				<linearGradient id="SVGID_26_" gradientUnits="userSpaceOnUse" x1="55.74" y1="144.036" x2="62.7883" y2="144.036">
					<stop  offset="0" style="stop-color:#FFAA22"/>
					<stop  offset="0.3373" style="stop-color:#FFAF22"/>
					<stop  offset="0.7317" style="stop-color:#FFBD20"/>
					<stop  offset="1" style="stop-color:#FFCB1F"/>
				</linearGradient>
				<path fill="url(#SVGID_26_)" d="M60.3,147.5h-2v-0.9c-0.3-0.1-0.6-0.3-0.8-0.5l-0.8,0.5l-1-1.7l0.8-0.5c0-0.2,0-0.3,0-0.5
					c0-0.1,0-0.3,0-0.5l-0.8-0.5l1-1.7l0.8,0.5c0.2-0.2,0.5-0.3,0.8-0.5v-0.9h2v0.9c0.3,0.1,0.5,0.3,0.8,0.5l0.8-0.5l1,1.7l-0.8,0.5
					c0,0.2,0,0.3,0,0.5c0,0.2,0,0.3,0,0.5l0.8,0.5l-1,1.7l-0.8-0.5c-0.2,0.2-0.5,0.3-0.8,0.5V147.5z M58.8,147h0.9v-0.8l0.2-0.1
					c0.3-0.1,0.6-0.3,0.9-0.5l0.1-0.1l0.6,0.4l0.5-0.8l-0.7-0.4l0-0.2c0-0.2,0.1-0.3,0.1-0.5c0-0.2,0-0.3-0.1-0.5l0-0.2l0.7-0.4
					l-0.5-0.8l-0.6,0.4l-0.1-0.1c-0.3-0.2-0.6-0.4-0.9-0.5l-0.2-0.1V141h-0.9v0.8l-0.2,0.1c-0.4,0.1-0.7,0.3-0.9,0.5l-0.1,0.1
					l-0.7-0.4l-0.5,0.8l0.7,0.4l0,0.2c0,0.2-0.1,0.4-0.1,0.5c0,0.2,0,0.3,0.1,0.5l0,0.2l-0.7,0.4l0.5,0.8l0.7-0.4l0.1,0.1
					c0.2,0.2,0.6,0.4,0.9,0.5l0.2,0.1V147z"/>
			</g>
		</g>
		<g>
			<g>
				<linearGradient id="SVGID_27_" gradientUnits="userSpaceOnUse" x1="16.0104" y1="175.8851" x2="30.9318" y2="175.8851">
					<stop  offset="0" style="stop-color:#FFAA22"/>
					<stop  offset="0.3373" style="stop-color:#FFAF22"/>
					<stop  offset="0.7317" style="stop-color:#FFBD20"/>
					<stop  offset="1" style="stop-color:#FFCB1F"/>
				</linearGradient>
				<path fill="url(#SVGID_27_)" d="M29.9,181.1H17v-3.5h-1v-5.2c0-0.7,0.5-1.4,1.4-1.8l0.1,0l12,0c0.9,0.3,1.4,1,1.4,1.8v5.2h-1
					V181.1z M17.5,180.6h11.9v-3.5h1v-4.7c0-0.5-0.4-1-1-1.3H17.6c-0.6,0.3-1,0.8-1,1.3v4.7h1V180.6z"/>
			</g>
			<g>
				<linearGradient id="SVGID_28_" gradientUnits="userSpaceOnUse" x1="21.4763" y1="176.8788" x2="25.4663" y2="176.8788">
					<stop  offset="0" style="stop-color:#FFAA22"/>
					<stop  offset="0.3373" style="stop-color:#FFAF22"/>
					<stop  offset="0.7317" style="stop-color:#FFBD20"/>
					<stop  offset="1" style="stop-color:#FFCB1F"/>
				</linearGradient>
				<path fill="url(#SVGID_28_)" d="M25.5,178.1h-4v-2.5h4V178.1z M22,177.6h3v-1.5h-3V177.6z"/>
			</g>
			<g>
				<linearGradient id="SVGID_29_" gradientUnits="userSpaceOnUse" x1="20.4822" y1="169.6738" x2="26.46" y2="169.6738">
					<stop  offset="0" style="stop-color:#FFAA22"/>
					<stop  offset="0.3373" style="stop-color:#FFAF22"/>
					<stop  offset="0.7317" style="stop-color:#FFBD20"/>
					<stop  offset="1" style="stop-color:#FFCB1F"/>
				</linearGradient>
				<path fill="url(#SVGID_29_)" d="M26.5,171.2h-6v-0.8c0-1.2,0.9-2.2,2-2.2h1.9c1.1,0,2,1,2,2.2V171.2z M21,170.7h5v-0.2
					c0-1-0.7-1.7-1.5-1.7h-1.9c-0.8,0-1.5,0.8-1.5,1.7V170.7z"/>
			</g>
			<g>
				<linearGradient id="SVGID_31_" gradientUnits="userSpaceOnUse" x1="16.8925" y1="177.3759" x2="21.7322" y2="177.3759">
					<stop  offset="0" style="stop-color:#FFAA22"/>
					<stop  offset="0.3373" style="stop-color:#FFAF22"/>
					<stop  offset="0.7317" style="stop-color:#FFBD20"/>
					<stop  offset="1" style="stop-color:#FFCB1F"/>
				</linearGradient>
				<rect x="16.9" y="177.1" fill="url(#SVGID_31_)" width="4.8" height="0.5"/>
			</g>
			<g>
				<linearGradient id="SVGID_33_" gradientUnits="userSpaceOnUse" x1="25.2104" y1="177.3759" x2="30.0496" y2="177.3759">
					<stop  offset="0" style="stop-color:#FFAA22"/>
					<stop  offset="0.3373" style="stop-color:#FFAF22"/>
					<stop  offset="0.7317" style="stop-color:#FFBD20"/>
					<stop  offset="1" style="stop-color:#FFCB1F"/>
				</linearGradient>
				<rect x="25.2" y="177.1" fill="url(#SVGID_33_)" width="4.8" height="0.5"/>
			</g>
		</g>
		<g>
			<circle fill="#FFA779" cx="23.6" cy="88.7" r="0.9"/>
		</g>
		<g>
			<circle fill="#FFA779" cx="114.1" cy="92.9" r="0.9"/>
		</g>
		<g>
			<path fill="#FFA779" d="M15.3,97.7c-0.6,0-1-0.5-1-1s0.5-1,1-1c0.6,0,1,0.5,1,1S15.9,97.7,15.3,97.7z M15.3,95.8
				c-0.4,0-0.8,0.4-0.8,0.8c0,0.4,0.4,0.8,0.8,0.8c0.4,0,0.8-0.4,0.8-0.8C16.1,96.2,15.8,95.8,15.3,95.8z"/>
		</g>
		<g>
			<circle fill="#FFA779" cx="76.6" cy="140.8" r="0.9"/>
		</g>
		<g>
			<circle fill="#FFA779" cx="19.3" cy="125.8" r="0.9"/>
		</g>
		<g>
			<path fill="#FFA779" d="M121.8,82.1c-0.6,0-1-0.5-1-1s0.5-1,1-1c0.6,0,1,0.5,1,1S122.4,82.1,121.8,82.1z M121.8,80.3
				c-0.4,0-0.8,0.4-0.8,0.8c0,0.4,0.4,0.8,0.8,0.8c0.4,0,0.8-0.4,0.8-0.8C122.6,80.7,122.2,80.3,121.8,80.3z"/>
		</g>
		<g>
			<path fill="#FFA779" d="M101.1,142.8c-0.6,0-1-0.5-1-1s0.5-1,1-1s1,0.5,1,1S101.7,142.8,101.1,142.8z M101.1,140.9
				c-0.4,0-0.8,0.4-0.8,0.8c0,0.4,0.4,0.8,0.8,0.8s0.8-0.4,0.8-0.8C101.9,141.3,101.5,140.9,101.1,140.9z"/>
		</g>
		<g>
			<path fill="#FFA779" d="M25.6,137.5c-0.6,0-1-0.5-1-1s0.5-1,1-1c0.6,0,1,0.5,1,1S26.2,137.5,25.6,137.5z M25.6,135.7
				c-0.4,0-0.8,0.4-0.8,0.8s0.4,0.8,0.8,0.8c0.4,0,0.8-0.4,0.8-0.8S26.1,135.7,25.6,135.7z"/>
		</g>
		<g>
			<path fill="#FFA779" d="M72.6,52.5c-0.6,0-1-0.5-1-1s0.5-1,1-1c0.6,0,1,0.5,1,1S73.2,52.5,72.6,52.5z M72.6,50.6
				c-0.4,0-0.8,0.4-0.8,0.8c0,0.4,0.4,0.8,0.8,0.8c0.4,0,0.8-0.4,0.8-0.8C73.4,51,73,50.6,72.6,50.6z"/>
		</g>
		<g>
			<circle fill="#FFA779" cx="72.3" cy="38.1" r="0.9"/>
		</g>
	</g>
</g>
<g id="grid">
</g>
</svg>
