<?xml version="1.0" encoding="utf-8"?>
<!-- Generator: Adobe Illustrator 18.1.1, SVG Export Plug-In . SVG Version: 6.00 Build 0)  -->
<svg version="1.1" xmlns="http://www.w3.org/2000/svg" xmlns:xlink="http://www.w3.org/1999/xlink" x="0px" y="0px"
	 viewBox="0 0 189.4 183.8" enable-background="new 0 0 189.4 183.8" xml:space="preserve">
<g id="Layer_1">
	<g>
		<radialGradient id="SVGID_2_" cx="94.7153" cy="94.7153" r="94.7153" gradientUnits="userSpaceOnUse">
			<stop  offset="0" style="stop-color:#FFAA22"/>
			<stop  offset="0.8619" style="stop-color:#FFAA22;stop-opacity:0"/>
		</radialGradient>
		<circle fill="url(#SVGID_2_)" cx="94.7" cy="94.7" r="94.7"/>
		<g opacity="0.5">
			<g>
				<path fill="#FFAA22" d="M25.4,56.3l18.8-10.9l18.8,10.9c1.5,0.8,2.4,2.4,2.4,4.1v19c0,1.7-0.9,3.2-2.4,4.1L44.3,94.3L25.4,83.4
					c-1.5-0.8-2.4-2.4-2.4-4.1v-19C23.1,58.7,24,57.1,25.4,56.3z"/>
			</g>
			<g>
				
					<rect x="45.7" y="47.5" transform="matrix(0.7071 0.7071 -0.7071 0.7071 53.6047 -15.8132)" fill="#FF8A4C" width="0.4" height="18.5"/>
			</g>
			<g>
				
					<rect x="43.2" y="63.1" transform="matrix(0.7071 0.7071 -0.7071 0.7071 60.1598 -18.525)" fill="#FFCA22" width="18.5" height="0.4"/>
			</g>
			<g>
				
					<rect x="40.9" y="58.7" transform="matrix(0.7071 0.7071 -0.7071 0.7071 64.8455 -7.2136)" fill="#FF8A4C" width="0.4" height="32"/>
			</g>
			<g>
				
					<rect x="47.2" y="72.8" transform="matrix(0.7071 0.7071 -0.7071 0.7071 68.5517 -19.4411)" fill="#FFCA22" width="21.2" height="0.4"/>
			</g>
			<g>
				
					<rect x="57.8" y="69.6" transform="matrix(0.7071 0.7071 -0.7071 0.7071 73.5601 -17.5965)" fill="#FF8A4C" width="0.4" height="20.9"/>
			</g>
			<g>
				
					<rect x="30.7" y="56.4" transform="matrix(0.7071 0.7071 -0.7071 0.7071 50.9037 -9.5941)" fill="#FF8A4C" width="12.7" height="0.4"/>
			</g>
			<g>
				
					<rect x="26.3" y="61.7" transform="matrix(0.7071 0.7071 -0.7071 0.7071 54.8163 -8.5585)" fill="#FFCA22" width="22.9" height="0.4"/>
			</g>
			<g>
				
					<rect x="36.8" y="82.6" transform="matrix(0.7071 0.7071 -0.7071 0.7071 72.0607 -8.3262)" fill="#FFCA22" width="18.5" height="0.4"/>
			</g>
			<g>
				
					<rect x="24.1" y="63.1" transform="matrix(0.7071 0.7071 -0.7071 0.7071 55.2972 -6.8032)" fill="#FFCA22" width="23.5" height="0.4"/>
			</g>
			<g>
				
					<rect x="28.4" y="56" transform="matrix(0.7071 0.7071 -0.7071 0.7071 53.5444 -1.5167)" fill="#FF8A4C" width="0.4" height="15.7"/>
			</g>
			<g>
				
					<rect x="36" y="66.5" transform="matrix(0.7071 0.7071 -0.7071 0.7071 62.1888 -4.237)" fill="#FFCA22" width="0.4" height="12.9"/>
			</g>
			<g>
				
					<rect x="26.3" y="68.6" transform="matrix(0.7071 0.7071 -0.7071 0.7071 58.0645 -2.5285)" fill="#FFCA22" width="11.7" height="0.4"/>
			</g>
			<g>
				
					<rect x="42.7" y="82" transform="matrix(0.7071 0.7071 -0.7071 0.7071 74.4249 -4.7642)" fill="#FFCA22" width="0.4" height="11"/>
			</g>
			<g>
				
					<rect x="49.8" y="56.5" transform="matrix(0.7071 0.7071 -0.7071 0.7071 57.3791 -25.0513)" fill="#FF8A4C" width="18.4" height="0.4"/>
			</g>
			<g>
				
					<rect x="62.4" y="56.4" transform="matrix(0.7071 0.7071 -0.7071 0.7071 59.4022 -27.2973)" fill="#FF8A4C" width="0.4" height="3.4"/>
			</g>
			<g>
				
					<rect x="33.6" y="54.6" transform="matrix(0.7071 0.7071 -0.7071 0.7071 50.324 -11.8922)" fill="#FF8A4C" width="11.9" height="0.4"/>
			</g>
			<g>
				
					<rect x="39.9" y="78.3" transform="matrix(0.7071 0.7071 -0.7071 0.7071 69.0464 -9.7394)" fill="#FF8A4C" width="12.7" height="0.4"/>
			</g>
			<g>
				
					<rect x="42.8" y="77.1" transform="matrix(0.7071 0.7071 -0.7071 0.7071 70.4138 -6.4386)" fill="#FFCA22" width="0.4" height="9.3"/>
			</g>
			<g>
				
					<rect x="22.8" y="79.2" transform="matrix(0.7071 0.7071 -0.7071 0.7071 64.4728 3.1444)" fill="#FFCA22" width="11.3" height="0.4"/>
			</g>
			<g>
				
					<rect x="42.9" y="76" transform="matrix(0.7084 0.7058 -0.7058 0.7084 67.3348 -7.8097)" fill="#FF8A4C" width="0.4" height="3.2"/>
			</g>
			<g>
				
					<rect x="59.1" y="80" transform="matrix(0.7072 0.7071 -0.7071 0.7072 74.8983 -20.4704)" fill="#FF8A4C" width="6.1" height="0.4"/>
			</g>
			<g>
				
					<rect x="63" y="75.4" transform="matrix(0.7072 0.707 -0.707 0.7072 72.3083 -23.408)" fill="#FF8A4C" width="2.8" height="0.4"/>
			</g>
			<g>
				<rect x="51.9" y="62.8" fill="#FF8A4C" width="1.1" height="1.1"/>
			</g>
			<g>
				<rect x="50.1" y="86.8" fill="#FFCA22" width="1.1" height="1.1"/>
			</g>
			<g>
				<rect x="38.7" y="62.9" fill="#FF8A4C" width="1.1" height="1.1"/>
			</g>
			<g>
				<rect x="31.9" y="82.8" fill="#FFCA22" width="1.1" height="1.1"/>
			</g>
			<g>
				<rect x="32" y="59.4" fill="#FF8A4C" width="1.1" height="1.1"/>
			</g>
			<g>
				<rect x="45.7" y="77.9" fill="#FF8A4C" width="1.1" height="1.1"/>
			</g>
			<g>
				<rect x="35.7" y="72.4" fill="#FFCA22" width="1.1" height="1.1"/>
			</g>
			<g>
				<rect x="27.3" y="64.1" fill="#FF8A4C" width="1.1" height="1.1"/>
			</g>
			<g>
				<rect x="60.8" y="76.1" fill="#FF8A4C" width="1.1" height="1.1"/>
			</g>
			<g>
				<rect x="46.3" y="83" fill="#FF8A4C" width="1.1" height="1.1"/>
			</g>
			<g>
				<path fill="#B6673D" d="M63.6,56L44.8,45.1l-0.5,0.3L63,56.3c1.5,0.8,2.4,2.4,2.4,4.1v19c0,1.7-0.9,3.2-2.4,4.1l0.6-0.3
					c1.5-0.8,2.4-2.4,2.4-4.1v-19C66,58.4,65.1,56.8,63.6,56z"/>
			</g>
			<g>
				<g>
					<g>
						<path fill="#FF6D1F" d="M35.2,66.7h3c1.7,0,2.3,1.3,2.3,2.6c0,1.8-1.1,2.6-2.7,2.6h-0.9v3.4h-1.7V66.7z M36.9,70.5h0.8
							c0.7,0,1.1-0.4,1.1-1.3c0-0.8-0.3-1.3-1.2-1.3h-0.7V70.5z"/>
					</g>
					<g>
						<path fill="#FF6D1F" d="M41.4,66.7h1.7v3.3h2v-3.3h1.7v8.5h-1.7v-3.8h-2v3.8h-1.7V66.7z"/>
					</g>
					<g>
						<path fill="#FF6D1F" d="M48.1,66.7h3c1.7,0,2.3,1.3,2.3,2.6c0,1.8-1.1,2.6-2.7,2.6h-0.9v3.4h-1.7V66.7z M49.8,70.5h0.8
							c0.7,0,1.1-0.4,1.1-1.3c0-0.8-0.3-1.3-1.2-1.3h-0.7V70.5z"/>
					</g>
				</g>
				<g>
					<g>
						<path fill="#FFCA22" d="M34.9,67h3c1.7,0,2.3,1.3,2.3,2.6c0,1.8-1.1,2.6-2.7,2.6h-0.9v3.4h-1.7V67z M36.6,70.9h0.8
							c0.7,0,1.1-0.4,1.1-1.3c0-0.8-0.3-1.3-1.2-1.3h-0.7V70.9z"/>
					</g>
					<g>
						<path fill="#FFCA22" d="M41.1,67h1.7v3.3h2V67h1.7v8.5h-1.7v-3.8h-2v3.8h-1.7V67z"/>
					</g>
					<g>
						<path fill="#FFCA22" d="M47.7,67h3c1.7,0,2.3,1.3,2.3,2.6c0,1.8-1.1,2.6-2.7,2.6h-0.9v3.4h-1.7V67z M49.4,70.9h0.8
							c0.7,0,1.1-0.4,1.1-1.3c0-0.8-0.3-1.3-1.2-1.3h-0.7V70.9z"/>
					</g>
				</g>
				<g>
					<polygon fill="#FF6D1F" points="35.2,66.7 34.9,67 35.2,67 					"/>
				</g>
				<g>
					<polygon fill="#FF6D1F" points="36.6,75.5 36.9,75.2 36.6,75.2 					"/>
				</g>
				<g>
					<polygon fill="#FF6D1F" points="41.1,67 41.4,67 41.4,66.7 					"/>
				</g>
				<g>
					<polygon fill="#FF6D1F" points="44.8,67 45.1,67 45.1,66.7 					"/>
				</g>
				<g>
					<polygon fill="#FF6D1F" points="42.8,75.5 43.1,75.2 42.8,75.2 					"/>
				</g>
				<g>
					<polygon fill="#FF6D1F" points="46.5,75.5 46.9,75.2 46.5,75.2 					"/>
				</g>
				<g>
					<polygon fill="#FF6D1F" points="49.4,75.5 49.8,75.2 49.4,75.2 					"/>
				</g>
				<g>
					<polygon fill="#FF6D1F" points="47.7,67 48.1,67 48.1,66.7 					"/>
				</g>
			</g>
		</g>
		<g opacity="0.5">
			<g>
				<path fill="#FFAA22" d="M126.4,102.7l19.1-11l19.1,11c1.5,0.9,2.4,2.4,2.4,4.1v19.3c0,1.7-0.9,3.3-2.4,4.1l-19.1,11l-19.1-11
					c-1.5-0.9-2.4-2.4-2.4-4.1v-19.3C124,105.2,124.9,103.6,126.4,102.7z"/>
			</g>
			<g>
				
					<rect x="146.9" y="93.9" transform="matrix(0.7071 0.7071 -0.7071 0.7071 116.1113 -73.7828)" fill="#FF8A4C" width="0.4" height="18.8"/>
			</g>
			<g>
				
					<rect x="144.4" y="109.7" transform="matrix(0.7071 0.7071 -0.7071 0.7071 122.7614 -76.5343)" fill="#FFCA22" width="18.8" height="0.4"/>
			</g>
			<g>
				
					<rect x="142.1" y="105.2" transform="matrix(0.7071 0.7071 -0.7071 0.7071 127.5157 -65.058)" fill="#FF8A4C" width="0.4" height="32.5"/>
			</g>
			<g>
				
					<rect x="148.4" y="119.5" transform="matrix(0.7071 0.7071 -0.7071 0.7071 131.2758 -77.4638)" fill="#FFCA22" width="21.5" height="0.4"/>
			</g>
			<g>
				
					<rect x="159.2" y="116.2" transform="matrix(0.7071 0.7071 -0.7071 0.7071 136.3572 -75.5922)" fill="#FF8A4C" width="0.4" height="21.2"/>
			</g>
			<g>
				
					<rect x="131.7" y="102.9" transform="matrix(0.7071 0.7071 -0.7071 0.7071 113.3706 -67.4731)" fill="#FF8A4C" width="12.9" height="0.4"/>
			</g>
			<g>
				
					<rect x="127.2" y="108.2" transform="matrix(0.7071 0.7071 -0.7071 0.7071 117.3402 -66.4224)" fill="#FFCA22" width="23.2" height="0.4"/>
			</g>
			<g>
				
					<rect x="137.9" y="129.5" transform="matrix(0.7071 0.7071 -0.7071 0.7071 134.8362 -66.1867)" fill="#FFCA22" width="18.8" height="0.4"/>
			</g>
			<g>
				
					<rect x="125" y="109.7" transform="matrix(0.7071 0.7071 -0.7071 0.7071 117.831 -64.6421)" fill="#FFCA22" width="23.8" height="0.4"/>
			</g>
			<g>
				
					<rect x="129.4" y="102.5" transform="matrix(0.7071 0.7071 -0.7071 0.7071 116.0502 -59.2782)" fill="#FF8A4C" width="0.4" height="16"/>
			</g>
			<g>
				
					<rect x="137.1" y="113.1" transform="matrix(0.7071 0.7071 -0.7071 0.7071 124.8203 -62.038)" fill="#FFCA22" width="0.4" height="13.1"/>
			</g>
			<g>
				
					<rect x="127.2" y="115.3" transform="matrix(0.7071 0.7071 -0.7071 0.7071 120.6356 -60.3047)" fill="#FFCA22" width="11.8" height="0.4"/>
			</g>
			<g>
				
					<rect x="143.9" y="128.8" transform="matrix(0.7071 0.7071 -0.7071 0.7071 137.2345 -62.5729)" fill="#FFCA22" width="0.4" height="11.1"/>
			</g>
			<g>
				
					<rect x="151" y="103" transform="matrix(0.7071 0.7071 -0.7071 0.7071 119.9366 -83.1549)" fill="#FF8A4C" width="18.6" height="0.4"/>
			</g>
			<g>
				
					<rect x="163.9" y="102.8" transform="matrix(0.7071 0.7071 -0.7071 0.7071 121.9926 -85.4344)" fill="#FF8A4C" width="0.4" height="3.4"/>
			</g>
			<g>
				
					<rect x="134.6" y="101" transform="matrix(0.7071 0.7071 -0.7071 0.7071 112.7847 -69.8042)" fill="#FF8A4C" width="12.1" height="0.4"/>
			</g>
			<g>
				
					<rect x="141.1" y="125" transform="matrix(0.7071 0.7071 -0.7071 0.7071 131.7779 -67.6209)" fill="#FF8A4C" width="12.9" height="0.4"/>
			</g>
			<g>
				
					<rect x="143.9" y="123.9" transform="matrix(0.7071 0.7071 -0.7071 0.7071 133.1652 -64.2716)" fill="#FFCA22" width="0.4" height="9.5"/>
			</g>
			<g>
				
					<rect x="123.7" y="126" transform="matrix(0.7071 0.7071 -0.7071 0.7071 127.134 -54.5476)" fill="#FFCA22" width="11.4" height="0.4"/>
			</g>
			<g>
				
					<rect x="144.1" y="122.7" transform="matrix(0.7071 0.7071 -0.7071 0.7071 130.2009 -65.6171)" fill="#FF8A4C" width="0.4" height="3.3"/>
			</g>
			<g>
				
					<rect x="160.5" y="126.8" transform="matrix(0.7071 0.7072 -0.7072 0.7071 137.7349 -78.5089)" fill="#FF8A4C" width="6.2" height="0.4"/>
			</g>
			<g>
				
					<rect x="164.5" y="122.1" transform="matrix(0.707 0.7072 -0.7072 0.707 135.1297 -81.4916)" fill="#FF8A4C" width="2.9" height="0.4"/>
			</g>
			<g>
				<rect x="153.2" y="109.4" fill="#FF8A4C" width="1.1" height="1.1"/>
			</g>
			<g>
				<rect x="151.4" y="133.7" fill="#FFCA22" width="1.1" height="1.1"/>
			</g>
			<g>
				<rect x="139.8" y="109.5" fill="#FF8A4C" width="1.1" height="1.1"/>
			</g>
			<g>
				<rect x="132.9" y="129.7" fill="#FFCA22" width="1.1" height="1.1"/>
			</g>
			<g>
				<rect x="133" y="105.9" fill="#FF8A4C" width="1.1" height="1.1"/>
			</g>
			<g>
				<rect x="147" y="124.7" fill="#FF8A4C" width="1.1" height="1.1"/>
			</g>
			<g>
				<rect x="136.7" y="119.1" fill="#FFCA22" width="1.1" height="1.1"/>
			</g>
			<g>
				<rect x="128.3" y="110.6" fill="#FF8A4C" width="1.1" height="1.1"/>
			</g>
			<g>
				<rect x="162.3" y="122.9" fill="#FF8A4C" width="1.1" height="1.1"/>
			</g>
			<g>
				<rect x="147.5" y="129.9" fill="#FF8A4C" width="1.1" height="1.1"/>
			</g>
			<g>
				<path fill="#B6673D" d="M165.1,102.4l-19.1-11l-0.5,0.3l19.1,11c1.5,0.9,2.4,2.4,2.4,4.1v19.3c0,1.7-0.9,3.3-2.4,4.1l0.6-0.3
					c1.5-0.9,2.4-2.4,2.4-4.1v-19.3C167.5,104.9,166.6,103.3,165.1,102.4z"/>
			</g>
			<g>
				<g>
					<g>
						<g>
							<g>
								<path fill="#FF6D1F" d="M143.6,115.2c0-1.6-0.3-2.3-1.3-2.3c-1.1,0-1.4,1.1-1.4,4.2c0,3.3,0.5,3.9,1.4,3.9
									c0.8,0,1.4-0.4,1.4-2.7h2.2c0,2.3-0.6,4.4-3.4,4.4c-3.3,0-3.7-2.3-3.7-5.6s0.4-5.6,3.7-5.6c3.1,0,3.4,2.3,3.4,3.9H143.6z"/>
							</g>
						</g>
						<g>
							<g>
								<path fill="#FF6D1F" d="M146.4,118h1.3l0.2-1.8h-1.1v-1.7h1.3l0.3-2.6h1.5l-0.3,2.6h1.5l0.3-2.6h1.5l-0.3,2.6h1.1v1.7h-1.3
									l-0.2,1.8h1.1v1.7h-1.3l-0.3,2.6h-1.5l0.3-2.6H149l-0.3,2.6h-1.5l0.3-2.6h-1.1V118z M149.2,118h1.5l0.2-1.8h-1.5L149.2,118z
									"/>
							</g>
						</g>
					</g>
					<g>
						<polyline fill="#FF6D1F" points="143.7,118.2 143.4,118.5 143.7,118.5 143.7,118.3 						"/>
					</g>
					<g>
						<polygon fill="#FF6D1F" points="145.5,115.5 145.8,115.2 145.5,115.2 						"/>
					</g>
					<g>
						<polygon fill="#FF6D1F" points="146.1,118.3 146.4,118 146.4,118.3 						"/>
					</g>
					<g>
						<polygon fill="#FF6D1F" points="148.3,122.7 148.6,122.4 148.4,122.4 						"/>
					</g>
					<g>
						<polygon fill="#FF6D1F" points="151.3,122.7 151.6,122.4 151.3,122.4 						"/>
					</g>
					<g>
						<polygon fill="#FF6D1F" points="152.9,120 153.2,119.7 152.9,119.7 						"/>
					</g>
					<g>
						<polygon fill="#FF6D1F" points="153.3,116.5 153.7,116.2 153.3,116.2 						"/>
					</g>
					<g>
						<polygon fill="#FF6D1F" points="151.1,112.2 151.4,111.8 151.4,112.2 						"/>
					</g>
					<g>
						<polygon fill="#FF6D1F" points="148.2,112.2 148.5,111.8 148.4,112.2 						"/>
					</g>
					<g>
						<polygon fill="#FF6D1F" points="146.5,114.8 146.8,114.5 146.8,114.8 						"/>
					</g>
				</g>
				<g>
					<g>
						<g>
							<path fill="#FFCA22" d="M143.3,115.5c0-1.6-0.3-2.3-1.3-2.3c-1.1,0-1.4,1.1-1.4,4.2c0,3.3,0.5,3.9,1.4,3.9
								c0.8,0,1.4-0.4,1.4-2.7h2.2c0,2.3-0.6,4.4-3.4,4.4c-3.3,0-3.7-2.3-3.7-5.6s0.4-5.6,3.7-5.6c3.1,0,3.4,2.3,3.4,3.9H143.3z"/>
						</g>
					</g>
					<g>
						<g>
							<path fill="#FFCA22" d="M146.1,118.3h1.3l0.2-1.8h-1.1v-1.7h1.3l0.3-2.6h1.5l-0.3,2.6h1.5l0.3-2.6h1.5l-0.3,2.6h1.1v1.7H152
								l-0.2,1.8h1.1v1.7h-1.3l-0.3,2.6h-1.5l0.3-2.6h-1.5l-0.3,2.6h-1.5l0.3-2.6h-1.1V118.3z M148.8,118.3h1.5l0.2-1.8h-1.5
								L148.8,118.3z"/>
						</g>
					</g>
				</g>
			</g>
		</g>
		<g opacity="0.75">
			<g>
				<path fill="#FFAA22" d="M18.8,101.5L35.3,92l16.4,9.5c1.3,0.7,2.1,2.1,2.1,3.6v16.6c0,1.5-0.8,2.8-2.1,3.6l-16.4,9.5l-16.4-9.5
					c-1.3-0.7-2.1-2.1-2.1-3.6v-16.6C16.8,103.6,17.6,102.2,18.8,101.5z"/>
			</g>
			<g>
				<g>
					
						<rect x="36.6" y="93.9" transform="matrix(0.7071 0.7071 -0.7071 0.7071 82.8457 3.9157)" fill="#FF8A4C" width="0.3" height="16.2"/>
				</g>
			</g>
			<g>
				<g>
					
						<rect x="34.3" y="107.5" transform="matrix(0.7071 0.7071 -0.7071 0.7071 88.5743 1.5457)" fill="#FFCA22" width="16.2" height="0.3"/>
				</g>
			</g>
			<g>
				<g>
					
						<rect x="32.4" y="103.6" transform="matrix(0.7071 0.7071 -0.7071 0.7071 92.6697 11.4315)" fill="#FF8A4C" width="0.3" height="28"/>
				</g>
			</g>
			<g>
				<g>
					
						<rect x="37.8" y="116" transform="matrix(0.7071 0.7071 -0.7071 0.7071 95.9086 0.7451)" fill="#FFCA22" width="18.5" height="0.3"/>
				</g>
			</g>
			<g>
				<g>
					
						<rect x="47.2" y="113.1" transform="matrix(0.7071 0.7071 -0.7071 0.7071 100.2858 2.3572)" fill="#FF8A4C" width="0.3" height="18.2"/>
				</g>
			</g>
			<g>
				<g>
					
						<rect x="23.4" y="101.7" transform="matrix(0.7071 0.7071 -0.7071 0.7071 80.4852 9.3509)" fill="#FF8A4C" width="11.1" height="0.3"/>
				</g>
			</g>
			<g>
				<g>
					
						<rect x="19.6" y="106.3" transform="matrix(0.7071 0.7071 -0.7071 0.7071 83.9045 10.2559)" fill="#FFCA22" width="20" height="0.3"/>
				</g>
			</g>
			<g>
				<g>
					
						<rect x="28.8" y="124.6" transform="matrix(0.7071 0.7071 -0.7071 0.7071 98.975 10.4588)" fill="#FFCA22" width="16.2" height="0.3"/>
				</g>
			</g>
			<g>
				<g>
					
						<rect x="17.7" y="107.5" transform="matrix(0.7071 0.7071 -0.7071 0.7071 84.3251 11.7902)" fill="#FFCA22" width="20.5" height="0.3"/>
				</g>
			</g>
			<g>
				<g>
					
						<rect x="21.4" y="101.3" transform="matrix(0.7071 0.7071 -0.7071 0.7071 82.7931 16.4101)" fill="#FF8A4C" width="0.3" height="13.7"/>
				</g>
			</g>
			<g>
				<g>
					
						<rect x="28.1" y="110.4" transform="matrix(0.7071 0.7071 -0.7071 0.7071 90.3477 14.0329)" fill="#FFCA22" width="0.3" height="11.3"/>
				</g>
			</g>
			<g>
				<g>
					
						<rect x="19.5" y="112.3" transform="matrix(0.7071 0.7071 -0.7071 0.7071 86.7425 15.5256)" fill="#FFCA22" width="10.2" height="0.3"/>
				</g>
			</g>
			<g>
				<g>
					
						<rect x="34" y="124" transform="matrix(0.7071 0.7071 -0.7071 0.7071 101.0415 13.5722)" fill="#FFCA22" width="0.3" height="9.6"/>
				</g>
			</g>
			<g>
				<g>
					
						<rect x="40.1" y="101.8" transform="matrix(0.7071 0.7071 -0.7071 0.7071 86.1447 -4.1578)" fill="#FF8A4C" width="16" height="0.3"/>
				</g>
			</g>
			<g>
				<g>
					
						<rect x="51.2" y="101.6" transform="matrix(0.7071 0.7071 -0.7071 0.7071 87.9122 -6.1209)" fill="#FF8A4C" width="0.3" height="3"/>
				</g>
			</g>
			<g>
				<g>
					
						<rect x="25.9" y="100.1" transform="matrix(0.7071 0.7071 -0.7071 0.7071 79.9792 7.3422)" fill="#FF8A4C" width="10.4" height="0.3"/>
				</g>
			</g>
			<g>
				<g>
					
						<rect x="31.5" y="120.8" transform="matrix(0.7071 0.7071 -0.7071 0.7071 96.3412 9.2237)" fill="#FF8A4C" width="11.1" height="0.3"/>
				</g>
			</g>
			<g>
				<g>
					
						<rect x="34" y="119.7" transform="matrix(0.7071 0.7071 -0.7071 0.7071 97.536 12.1089)" fill="#FFCA22" width="0.3" height="8.2"/>
				</g>
			</g>
			<g>
				<g>
					
						<rect x="16.5" y="121.6" transform="matrix(0.7071 0.7071 -0.7071 0.7071 92.347 20.4855)" fill="#FFCA22" width="9.8" height="0.3"/>
				</g>
			</g>
			<g>
				<g>
					
						<rect x="34.1" y="118.7" transform="matrix(0.7071 0.7071 -0.7071 0.7071 94.9826 10.9495)" fill="#FF8A4C" width="0.3" height="2.8"/>
				</g>
			</g>
			<g>
				<g>
					
						<rect x="48.2" y="122.3" transform="matrix(0.7071 0.7071 -0.7071 0.7071 101.4627 -0.1532)" fill="#FF8A4C" width="5.3" height="0.3"/>
				</g>
			</g>
			<g>
				<g>
					
						<rect x="51.7" y="118.2" transform="matrix(0.7071 0.7071 -0.7071 0.7071 99.2039 -2.721)" fill="#FF8A4C" width="2.5" height="0.3"/>
				</g>
			</g>
			<g>
				<g>
					<rect x="41.9" y="107.2" fill="#FF8A4C" width="1" height="1"/>
				</g>
			</g>
			<g>
				<g>
					<rect x="40.4" y="128.2" fill="#FFCA22" width="1" height="1"/>
				</g>
			</g>
			<g>
				<g>
					<rect x="30.4" y="107.3" fill="#FF8A4C" width="1" height="1"/>
				</g>
			</g>
			<g>
				<g>
					<rect x="24.4" y="124.7" fill="#FFCA22" width="1" height="1"/>
				</g>
			</g>
			<g>
				<g>
					<rect x="24.5" y="104.3" fill="#FF8A4C" width="1" height="1"/>
				</g>
			</g>
			<g>
				<g>
					<rect x="36.6" y="120.4" fill="#FF8A4C" width="1" height="1"/>
				</g>
			</g>
			<g>
				<g>
					<rect x="27.8" y="115.6" fill="#FFCA22" width="1" height="1"/>
				</g>
			</g>
			<g>
				<g>
					<rect x="20.5" y="108.3" fill="#FF8A4C" width="1" height="1"/>
				</g>
			</g>
			<g>
				<g>
					<rect x="49.7" y="118.8" fill="#FF8A4C" width="1" height="1"/>
				</g>
			</g>
			<g>
				<g>
					<rect x="37.1" y="124.9" fill="#FF8A4C" width="1" height="1"/>
				</g>
			</g>
			<g>
				<g>
					<g>
						<g>
							<path fill="#FF6D1F" d="M28.7,115.2v0.3c0,0.8,0.2,1.3,1.2,1.3c0.5,0,1.1-0.3,1.1-1.1c0-0.8-0.4-1.1-1.6-1.5
								c-1.6-0.5-2.3-1.2-2.3-2.6c0-1.7,1-2.6,2.7-2.6c1.6,0,2.7,0.7,2.7,2.3v0.2h-1.7c0-0.8-0.3-1.3-1-1.3c-0.8,0-1,0.5-1,1
								c0,0.5,0.2,0.9,0.9,1.2l1.4,0.6c1.3,0.6,1.7,1.2,1.7,2.3c0,1.8-1.1,2.7-3,2.7c-2,0-2.8-0.9-2.8-2.5v-0.4H28.7z"/>
						</g>
						<g>
							<path fill="#FF6D1F" d="M38.6,119l-1-1.1c-0.2,0.1-0.3,0.1-0.5,0.1c-0.2,0-0.4,0-0.6,0c-2.6,0-3-1.9-3-4.5
								c0-2.7,0.3-4.5,3-4.5c2.6,0,3,1.9,3,4.5c0,1.5-0.1,2.7-0.7,3.5l0.9,1L38.6,119z M36.4,116.8c1,0,1.2-0.9,1.2-3.2
								c0-2.3-0.2-3.2-1.2-3.2c-1,0-1.2,0.9-1.2,3.2C35.2,115.9,35.4,116.8,36.4,116.8z"/>
						</g>
						<g>
							<path fill="#FF6D1F" d="M40.4,117.9v-8.7h1.8v7.3h3.1v1.4H40.4z"/>
						</g>
					</g>
					<g>
						<g>
							<path fill="#FFCA22" d="M28.4,115.4v0.3c0,0.8,0.2,1.3,1.2,1.3c0.5,0,1.1-0.3,1.1-1.1c0-0.8-0.4-1.1-1.6-1.5
								c-1.6-0.5-2.3-1.2-2.3-2.6c0-1.7,1-2.6,2.7-2.6c1.6,0,2.7,0.7,2.7,2.3v0.2h-1.7c0-0.8-0.3-1.3-1-1.3c-0.8,0-1,0.5-1,1
								c0,0.5,0.2,0.9,0.9,1.2l1.4,0.6c1.3,0.6,1.7,1.2,1.7,2.3c0,1.8-1.1,2.7-3,2.7c-2,0-2.8-0.9-2.8-2.5v-0.4H28.4z"/>
						</g>
						<g>
							<path fill="#FFCA22" d="M38.3,119.2l-1-1.1c-0.2,0.1-0.3,0.1-0.5,0.1c-0.2,0-0.4,0-0.6,0c-2.6,0-3-1.9-3-4.5
								c0-2.7,0.3-4.5,3-4.5c2.6,0,3,1.9,3,4.5c0,1.5-0.1,2.7-0.7,3.5l0.9,1L38.3,119.2z M36.1,117c1,0,1.2-0.9,1.2-3.2
								c0-2.3-0.2-3.2-1.2-3.2c-1,0-1.2,0.9-1.2,3.2C34.9,116.1,35.1,117,36.1,117z"/>
						</g>
						<g>
							<path fill="#FFCA22" d="M40.2,118.2v-8.7h1.8v7.3H45v1.4H40.2z"/>
						</g>
					</g>
				</g>
				<g>
					<g>
						<polygon fill="#FF6D1F" points="26.7,115.4 26.9,115.2 27,115.4 						"/>
					</g>
					<g>
						<polygon fill="#FF6D1F" points="32.5,111.6 32.2,111.8 32.2,111.5 						"/>
					</g>
					<g>
						<polygon fill="#FF6D1F" points="40.2,109.4 40.4,109.1 40.4,109.4 						"/>
					</g>
					<g>
						<polygon fill="#FF6D1F" points="45,118.2 45.3,117.9 45,117.9 						"/>
					</g>
				</g>
			</g>
			<g>
				<path fill="#B6673D" d="M52.2,101.3l-16.5-9.5L35.3,92l16.4,9.5c1.3,0.7,2.1,2.1,2.1,3.6v16.6c0,1.5-0.8,2.8-2.1,3.6l0.5-0.2
					c1.3-0.7,2.1-2.1,2.1-3.6v-16.6C54.2,103.4,53.5,102,52.2,101.3z"/>
			</g>
		</g>
		<g>
			<path fill="#FFAA22" d="M57.2,27.7c-0.8,0-1.4-0.6-1.4-1.4c0-0.8,0.6-1.4,1.4-1.4c0.8,0,1.4,0.6,1.4,1.4
				C58.7,27.1,58,27.7,57.2,27.7z M57.2,25.4c-0.5,0-0.9,0.4-0.9,0.9c0,0.5,0.4,0.9,0.9,0.9c0.5,0,0.9-0.4,0.9-0.9
				C58.1,25.8,57.7,25.4,57.2,25.4z"/>
		</g>
		<g opacity="0.8">
			<g>
				<path fill="#FFAA22" d="M140.2,59.9l18-10.4l18,10.4c1.4,0.8,2.3,2.3,2.3,3.9V82c0,1.6-0.9,3.1-2.3,3.9l-18,10.4l-18-10.4
					c-1.4-0.8-2.3-2.3-2.3-3.9V63.8C138,62.2,138.8,60.7,140.2,59.9z"/>
			</g>
			<g>
				<g>
					
						<rect x="159.7" y="51.5" transform="matrix(0.7071 0.7071 -0.7071 0.7071 89.5242 -95.3228)" fill="#FF8A4C" width="0.3" height="17.8"/>
				</g>
			</g>
			<g>
				<g>
					
						<rect x="157.2" y="66.5" transform="matrix(0.7071 0.7071 -0.7071 0.7071 95.8065 -97.9218)" fill="#FFCA22" width="17.8" height="0.3"/>
				</g>
			</g>
			<g>
				<g>
					
						<rect x="155.1" y="62.2" transform="matrix(0.7071 0.7071 -0.7071 0.7071 100.2965 -87.0815)" fill="#FF8A4C" width="0.3" height="30.7"/>
				</g>
			</g>
			<g>
				<g>
					
						<rect x="161" y="75.8" transform="matrix(0.7071 0.7071 -0.7071 0.7071 103.8481 -98.7994)" fill="#FFCA22" width="20.3" height="0.3"/>
				</g>
			</g>
			<g>
				<g>
					
						<rect x="171.3" y="72.6" transform="matrix(0.7071 0.7071 -0.7071 0.7071 108.6479 -97.0318)" fill="#FF8A4C" width="0.3" height="20"/>
				</g>
			</g>
			<g>
				<g>
					
						<rect x="145.2" y="60.1" transform="matrix(0.7071 0.7071 -0.7071 0.7071 86.9349 -89.3624)" fill="#FF8A4C" width="12.2" height="0.3"/>
				</g>
			</g>
			<g>
				<g>
					
						<rect x="141.1" y="65.1" transform="matrix(0.7071 0.7071 -0.7071 0.7071 90.6857 -88.3706)" fill="#FFCA22" width="21.9" height="0.3"/>
				</g>
			</g>
			<g>
				<g>
					
						<rect x="151.1" y="85.2" transform="matrix(0.7071 0.7071 -0.7071 0.7071 107.2111 -88.1477)" fill="#FFCA22" width="17.8" height="0.3"/>
				</g>
			</g>
			<g>
				<g>
					
						<rect x="139" y="66.5" transform="matrix(0.7071 0.7071 -0.7071 0.7071 91.1465 -86.6885)" fill="#FFCA22" width="22.5" height="0.3"/>
				</g>
			</g>
			<g>
				<g>
					
						<rect x="143.1" y="59.6" transform="matrix(0.7071 0.7071 -0.7071 0.7071 89.4665 -81.6222)" fill="#FF8A4C" width="0.3" height="15.1"/>
				</g>
			</g>
			<g>
				<g>
					
						<rect x="150.4" y="69.7" transform="matrix(0.7071 0.7071 -0.7071 0.7071 97.7505 -84.2289)" fill="#FFCA22" width="0.3" height="12.4"/>
				</g>
			</g>
			<g>
				<g>
					
						<rect x="141" y="71.8" transform="matrix(0.7071 0.7071 -0.7071 0.7071 93.7979 -82.5917)" fill="#FFCA22" width="11.2" height="0.3"/>
				</g>
			</g>
			<g>
				<g>
					
						<rect x="156.9" y="84.5" transform="matrix(0.7071 0.7071 -0.7071 0.7071 109.4765 -84.7344)" fill="#FFCA22" width="0.3" height="10.5"/>
				</g>
			</g>
			<g>
				<g>
					
						<rect x="163.5" y="60.2" transform="matrix(0.7071 0.7071 -0.7071 0.7071 93.1419 -104.1761)" fill="#FF8A4C" width="17.6" height="0.3"/>
				</g>
			</g>
			<g>
				<g>
					
						<rect x="175.7" y="60" transform="matrix(0.7071 0.7071 -0.7071 0.7071 95.0797 -106.3282)" fill="#FF8A4C" width="0.3" height="3.3"/>
				</g>
			</g>
			<g>
				<g>
					
						<rect x="148" y="58.3" transform="matrix(0.7071 0.7071 -0.7071 0.7071 86.3813 -91.5642)" fill="#FF8A4C" width="11.4" height="0.3"/>
				</g>
			</g>
			<g>
				<g>
					
						<rect x="154.1" y="81" transform="matrix(0.7071 0.7071 -0.7071 0.7071 104.3214 -89.5019)" fill="#FF8A4C" width="12.1" height="0.3"/>
				</g>
			</g>
			<g>
				<g>
					
						<rect x="156.9" y="79.9" transform="matrix(0.7071 0.7071 -0.7071 0.7071 105.6327 -86.3387)" fill="#FFCA22" width="0.3" height="8.9"/>
				</g>
			</g>
			<g>
				<g>
					
						<rect x="137.7" y="81.9" transform="matrix(0.7071 0.7071 -0.7071 0.7071 99.943 -77.1542)" fill="#FFCA22" width="10.8" height="0.3"/>
				</g>
			</g>
			<g>
				<g>
					
						<rect x="157" y="78.8" transform="matrix(0.7071 0.7071 -0.7071 0.7071 102.8327 -87.6097)" fill="#FF8A4C" width="0.3" height="3.1"/>
				</g>
			</g>
			<g>
				<g>
					
						<rect x="172.5" y="82.7" transform="matrix(0.7071 0.7071 -0.7071 0.7071 109.9322 -99.7835)" fill="#FF8A4C" width="5.9" height="0.3"/>
				</g>
			</g>
			<g>
				<g>
					
						<rect x="176.2" y="78.3" transform="matrix(0.7071 0.7071 -0.7071 0.7071 107.4614 -102.5999)" fill="#FF8A4C" width="2.7" height="0.3"/>
				</g>
			</g>
			<g>
				<g>
					<rect x="165.6" y="66.2" fill="#FF8A4C" width="1" height="1"/>
				</g>
			</g>
			<g>
				<g>
					<rect x="163.9" y="89.2" fill="#FFCA22" width="1" height="1"/>
				</g>
			</g>
			<g>
				<g>
					<rect x="152.9" y="66.3" fill="#FF8A4C" width="1" height="1"/>
				</g>
			</g>
			<g>
				<g>
					<rect x="146.4" y="85.4" fill="#FFCA22" width="1" height="1"/>
				</g>
			</g>
			<g>
				<g>
					<rect x="146.5" y="62.9" fill="#FF8A4C" width="1" height="1"/>
				</g>
			</g>
			<g>
				<g>
					<rect x="159.7" y="80.7" fill="#FF8A4C" width="1" height="1"/>
				</g>
			</g>
			<g>
				<g>
					<rect x="150" y="75.4" fill="#FFCA22" width="1" height="1"/>
				</g>
			</g>
			<g>
				<g>
					<rect x="142" y="67.4" fill="#FF8A4C" width="1" height="1"/>
				</g>
			</g>
			<g>
				<g>
					<rect x="174.1" y="78.9" fill="#FF8A4C" width="1" height="1"/>
				</g>
			</g>
			<g>
				<g>
					<rect x="160.2" y="85.5" fill="#FF8A4C" width="1" height="1"/>
				</g>
			</g>
			<g opacity="0.75">
				<path fill="#B6673D" d="M176.8,59.6l-18-10.4l-0.5,0.3l18,10.4c1.4,0.8,2.3,2.3,2.3,3.9V82c0,1.6-0.9,3.1-2.3,3.9l0.5-0.3
					c1.4-0.8,2.3-2.3,2.3-3.9V63.5C179.1,61.9,178.2,60.4,176.8,59.6z"/>
			</g>
			<g>
				<g>
					<g>
						<g>
							<path fill="#FF6D1F" d="M151.7,69.2v6.3c0,1.9-0.8,2.6-2.6,2.6c-1.9,0-2.3-1.2-2.3-2.6v-0.4h1.6v0.3c0,0.9,0.1,1.4,0.8,1.4
								c0.6,0,0.8-0.4,0.8-1.4v-6.3H151.7z"/>
						</g>
						<g>
							<path fill="#FF6D1F" d="M154.5,69.2h2.2l2.3,8.8h-1.8l-0.4-1.9h-2.3l-0.4,1.9h-1.8L154.5,69.2z M154.8,74.6h1.7l-0.8-3.9h0
								L154.8,74.6z"/>
						</g>
						<g>
							<path fill="#FF6D1F" d="M160.8,69.2l1.2,6.5h0l1.3-6.5h1.8l-2,8.8H161l-2-8.8H160.8z"/>
						</g>
						<g>
							<path fill="#FF6D1F" d="M167.1,69.2h2.2l2.3,8.8h-1.8l-0.4-1.9h-2.3l-0.4,1.9h-1.8L167.1,69.2z M167.4,74.6h1.7l-0.8-3.9h0
								L167.4,74.6z"/>
						</g>
					</g>
					<g>
						<polygon fill="#FF6D1F" points="149.9,69.2 149.9,69.4 149.6,69.4 						"/>
					</g>
					<g>
						<polygon fill="#FF6D1F" points="146.7,75.2 146.7,75.4 146.4,75.4 						"/>
					</g>
					<g>
						<polygon fill="#FF6D1F" points="153.7,78.2 154,77.9 153.8,77.9 						"/>
					</g>
					<g>
						<polygon fill="#FF6D1F" points="154.2,69.4 154.5,69.2 154.4,69.4 						"/>
					</g>
					<g>
						<polygon fill="#FF6D1F" points="158.6,69.4 158.9,69.2 159,69.4 						"/>
					</g>
					<g>
						<polygon fill="#FF6D1F" points="166.8,69.4 167.1,69.2 167.1,69.4 						"/>
					</g>
					<g>
						<polygon fill="#FF6D1F" points="166.4,78.2 166.7,77.9 166.4,77.9 						"/>
					</g>
					<g>
						<polygon fill="#FF6D1F" points="171.3,78.2 171.6,77.9 171.3,77.9 						"/>
					</g>
				</g>
				<g>
					<g>
						<path fill="#FFCA22" d="M151.4,69.4v6.3c0,1.9-0.8,2.6-2.6,2.6c-1.9,0-2.3-1.2-2.3-2.6v-0.4h1.6v0.3c0,0.9,0.1,1.4,0.8,1.4
							s0.8-0.4,0.8-1.4v-6.3H151.4z"/>
					</g>
					<g>
						<path fill="#FFCA22" d="M154.2,69.4h2.2l2.3,8.8h-1.8l-0.4-1.9h-2.3l-0.4,1.9h-1.8L154.2,69.4z M154.4,74.9h1.7l-0.8-3.9h0
							L154.4,74.9z"/>
					</g>
					<g>
						<path fill="#FFCA22" d="M160.5,69.4l1.2,6.5h0l1.3-6.5h1.8l-2,8.8h-2.3l-2-8.8H160.5z"/>
					</g>
					<g>
						<path fill="#FFCA22" d="M166.8,69.4h2.2l2.3,8.8h-1.8l-0.4-1.9h-2.3l-0.4,1.9h-1.8L166.8,69.4z M167.1,74.9h1.7l-0.8-3.9h0
							L167.1,74.9z"/>
					</g>
				</g>
				<g>
					<polygon fill="#FF6D1F" points="158.7,78.2 159,77.9 158.6,77.9 					"/>
				</g>
				<g>
					<polygon fill="#FF6D1F" points="162.9,78.2 163.2,77.9 163,77.9 					"/>
				</g>
				<g>
					<polygon fill="#FF6D1F" points="163.1,69.4 163.4,69.2 163.4,69.4 					"/>
				</g>
			</g>
		</g>
		<g>
			<path fill="#FFAA22" d="M103.8,154.7c-0.8,0-1.4-0.6-1.4-1.4c0-0.8,0.6-1.4,1.4-1.4s1.4,0.6,1.4,1.4
				C105.1,154.1,104.5,154.7,103.8,154.7z M103.8,152.6c-0.4,0-0.8,0.4-0.8,0.8c0,0.4,0.4,0.8,0.8,0.8c0.4,0,0.8-0.4,0.8-0.8
				C104.5,152.9,104.2,152.6,103.8,152.6z"/>
		</g>
		<g opacity="0.8">
			<g>
				<path fill="#FFCA22" d="M55,55.1l39.6-22.8l39.6,22.8c3.1,1.8,5,5,5,8.6v40c0,3.5-1.9,6.8-5,8.6L94.6,135L55,112.2
					c-3.1-1.8-5-5-5-8.6v-40C50.1,60.1,52,56.8,55,55.1z"/>
			</g>
			<g>
				
					<rect x="97.8" y="36.7" transform="matrix(0.7071 0.7071 -0.7071 0.7071 68.4202 -52.8618)" fill="#FF8A4C" width="0.4" height="39"/>
			</g>
			<g>
				
					<rect x="92.3" y="69.7" transform="matrix(0.7071 0.7071 -0.7071 0.7071 82.2047 -58.5648)" fill="#FFAA22" width="39" height="0.4"/>
			</g>
			<g>
				
					<rect x="87.8" y="60.1" transform="matrix(0.7071 0.7071 -0.7071 0.7071 92.0594 -34.777)" fill="#FF8A4C" width="0.4" height="67.3"/>
			</g>
			<g>
				
					<rect x="100.7" y="90.1" transform="matrix(0.7071 0.7071 -0.7071 0.7071 99.8532 -60.4915)" fill="#FFAA22" width="44.5" height="0.4"/>
			</g>
			<g>
				
					<rect x="123.3" y="83" transform="matrix(0.7071 0.7071 -0.7071 0.7071 110.386 -56.6122)" fill="#FFAA22" width="0.4" height="43.9"/>
			</g>
			<g>
				
					<rect x="66" y="55.6" transform="matrix(0.7071 0.7071 -0.7071 0.7071 62.7415 -39.7836)" fill="#FFAA22" width="26.8" height="0.4"/>
			</g>
			<g>
				
					<rect x="56.8" y="66.6" transform="matrix(0.7071 0.7071 -0.7071 0.7071 70.9676 -37.6053)" fill="#FFAA22" width="48.1" height="0.4"/>
			</g>
			<g>
				
					<rect x="78.9" y="110.7" transform="matrix(0.7071 0.7071 -0.7071 0.7071 107.2316 -37.1168)" fill="#FFAA22" width="39" height="0.4"/>
			</g>
			<g>
				
					<rect x="52.3" y="69.7" transform="matrix(0.7071 0.7071 -0.7071 0.7071 71.9799 -33.9141)" fill="#FFAA22" width="49.3" height="0.4"/>
			</g>
			<g>
				
					<rect x="61.4" y="54.5" transform="matrix(0.7071 0.7071 -0.7071 0.7071 68.2936 -22.7966)" fill="#FFAA22" width="0.4" height="33.1"/>
			</g>
			<g>
				
					<rect x="77.4" y="76.5" transform="matrix(0.7071 0.7071 -0.7071 0.7071 86.4722 -28.5174)" fill="#FFAA22" width="0.4" height="27.2"/>
			</g>
			<g>
				
					<rect x="56.7" y="81.2" transform="matrix(0.7071 0.7071 -0.7071 0.7071 77.7986 -24.9247)" fill="#FFAA22" width="24.5" height="0.4"/>
			</g>
			<g>
				
					<rect x="91.6" y="109.1" transform="matrix(0.7071 0.7071 -0.7071 0.7071 112.2044 -29.626)" fill="#FFAA22" width="0.4" height="23.1"/>
			</g>
			<g>
				
					<rect x="106.1" y="55.8" transform="matrix(0.7071 0.7071 -0.7071 0.7071 76.3578 -72.2898)" fill="#FF8A4C" width="38.6" height="0.4"/>
			</g>
			<g>
				
					<rect x="133.1" y="55.2" transform="matrix(0.7071 0.7071 -0.7071 0.7071 80.6113 -77.0128)" fill="#FF8A4C" width="0.4" height="7.1"/>
			</g>
			<g>
				
					<rect x="72.1" y="51.7" transform="matrix(0.7071 0.7071 -0.7071 0.7071 61.5237 -44.615)" fill="#FFAA22" width="25.1" height="0.4"/>
			</g>
			<g>
				
					<rect x="85.5" y="101.5" transform="matrix(0.7071 0.7071 -0.7071 0.7071 100.8939 -40.0892)" fill="#FF8A4C" width="26.6" height="0.4"/>
			</g>
			<g>
				
					<rect x="91.7" y="98.9" transform="matrix(0.7071 0.7071 -0.7071 0.7071 103.7693 -33.1469)" fill="#FFAA22" width="0.4" height="19.6"/>
			</g>
			<g>
				
					<rect x="49.5" y="103.5" transform="matrix(0.7071 0.7071 -0.7071 0.7071 91.2813 -12.9916)" fill="#FFAA22" width="23.7" height="0.4"/>
			</g>
			<g>
				
					<rect x="92" y="96.5" transform="matrix(0.7071 0.7071 -0.7071 0.7071 97.6248 -35.9365)" fill="#FF8A4C" width="0.4" height="6.8"/>
			</g>
			<g>
				
					<rect x="125.8" y="105.1" transform="matrix(0.7071 0.7071 -0.7071 0.7071 113.2142 -62.6543)" fill="#FF8A4C" width="12.9" height="0.4"/>
			</g>
			<g>
				
					<rect x="134" y="95.5" transform="matrix(0.7071 0.7071 -0.7071 0.7071 107.7825 -68.8315)" fill="#FFAA22" width="5.9" height="0.4"/>
			</g>
			<g>
				<rect x="110.7" y="68.8" fill="#FF8A4C" width="2.3" height="2.3"/>
			</g>
			<g>
				<rect x="106.9" y="119.3" fill="#FFAA22" width="2.3" height="2.3"/>
			</g>
			<g>
				<rect x="82.9" y="69" fill="#FF8A4C" width="2.3" height="2.3"/>
			</g>
			<g>
				<rect x="68.5" y="110.9" fill="#FFAA22" width="2.3" height="2.3"/>
			</g>
			<g>
				<rect x="68.7" y="61.7" fill="#FFAA22" width="2.3" height="2.3"/>
			</g>
			<g>
				<rect x="97.7" y="100.6" fill="#FF8A4C" width="2.3" height="2.3"/>
			</g>
			<g>
				<rect x="76.5" y="89" fill="#FFAA22" width="2.3" height="2.3"/>
			</g>
			<g>
				<rect x="59" y="71.4" fill="#FF8A4C" width="2.3" height="2.3"/>
			</g>
			<g>
				<rect x="129.4" y="96.8" fill="#FF8A4C" width="2.3" height="2.3"/>
			</g>
			<g>
				<rect x="98.9" y="111.3" fill="#FF8A4C" width="2.3" height="2.3"/>
			</g>
			<g>
				<g>
					<path fill="#0F3B7A" d="M88.4,95.5c0,1.6-0.3,3.1-0.8,4.5c-0.5,1.4-1.3,2.7-2.3,3.8c-1,1.1-2.3,2-3.7,2.6c-1.5,0.6-3.1,1-5,1
						c-2.2,0-4.1-0.5-5.6-1.5c-1.5-1-2.6-1.9-3.5-2.9l5.4-4.4c0.5,0.5,1.1,0.9,1.7,1.3c0.7,0.3,1.4,0.5,2.1,0.5
						c0.4,0,0.9-0.1,1.4-0.2c0.5-0.2,1.1-0.5,1.5-0.9c0.5-0.4,0.9-1,1.2-1.8c0.3-0.7,0.5-1.7,0.5-3V58.4h6.9V95.5z"/>
				</g>
				<g>
					<path fill="#0F3B7A" d="M117.4,72.4h-6.9v-1.6c0-1.6-0.4-3-1.1-4.1c-0.7-1.2-2-1.7-3.8-1.7c-1,0-1.7,0.2-2.3,0.5
						c-0.6,0.4-1.1,0.8-1.4,1.4c-0.3,0.6-0.6,1.2-0.7,2c-0.1,0.7-0.2,1.5-0.2,2.3c0,1,0,1.8,0.1,2.4c0.1,0.7,0.2,1.2,0.5,1.7
						c0.3,0.5,0.7,0.9,1.2,1.3c0.5,0.4,1.2,0.7,2.1,1.1l5.3,2.1c1.5,0.6,2.8,1.3,3.7,2.1c1,0.8,1.7,1.7,2.2,2.8
						c0.5,1.1,0.9,2.3,1.1,3.7c0.2,1.4,0.3,3,0.3,4.7c0,2-0.2,3.9-0.6,5.7c-0.4,1.7-1.1,3.2-2,4.5c-0.9,1.2-2.2,2.2-3.7,3
						c-1.5,0.7-3.4,1.1-5.7,1.1c-1.7,0-3.2-0.3-4.7-0.9c-1.5-0.6-2.7-1.4-3.7-2.4c-1-1-1.9-2.2-2.5-3.6c-0.6-1.4-0.9-2.9-0.9-4.6
						v-2.6h6.9v2.2c0,1.3,0.4,2.4,1.1,3.4c0.7,1,2,1.5,3.8,1.5c1.2,0,2.1-0.2,2.8-0.5c0.7-0.3,1.2-0.8,1.5-1.4s0.6-1.4,0.6-2.3
						c0.1-0.9,0.1-1.9,0.1-3c0-1.3,0-2.3-0.1-3.1c-0.1-0.8-0.3-1.5-0.6-2c-0.3-0.5-0.7-0.9-1.2-1.2c-0.5-0.3-1.2-0.7-2.1-1l-5-2
						c-3-1.2-5-2.8-6-4.9c-1-2-1.5-4.6-1.5-7.6c0-1.8,0.2-3.5,0.7-5.2c0.5-1.6,1.2-3,2.2-4.2c1-1.2,2.2-2.1,3.7-2.8
						c1.5-0.7,3.2-1.1,5.2-1.1c1.7,0,3.3,0.3,4.7,1c1.4,0.6,2.7,1.5,3.7,2.5c1,1,1.8,2.2,2.3,3.5c0.5,1.3,0.8,2.6,0.8,4V72.4z"/>
				</g>
			</g>
			<g>
				<g>
					<path fill="#FF6D1F" d="M86.7,96.7c0,1.6-0.3,3.1-0.8,4.5c-0.5,1.4-1.3,2.7-2.3,3.8c-1,1.1-2.3,2-3.7,2.6c-1.5,0.6-3.1,1-5,1
						c-2.2,0-4.1-0.5-5.6-1.5c-1.5-1-2.6-1.9-3.5-2.9l5.4-4.4c0.5,0.5,1.1,0.9,1.7,1.3c0.7,0.3,1.4,0.5,2.1,0.5
						c0.4,0,0.9-0.1,1.4-0.2c0.5-0.2,1.1-0.5,1.5-0.9c0.5-0.4,0.9-1,1.2-1.8c0.3-0.7,0.5-1.7,0.5-3V59.6h6.9V96.7z"/>
				</g>
				<g>
					<path fill="#FF6D1F" d="M115.7,73.6h-6.9V72c0-1.6-0.4-3-1.1-4.1c-0.7-1.2-2-1.7-3.8-1.7c-1,0-1.7,0.2-2.3,0.5
						c-0.6,0.4-1.1,0.8-1.4,1.4c-0.3,0.6-0.6,1.2-0.7,2c-0.1,0.7-0.2,1.5-0.2,2.3c0,1,0,1.8,0.1,2.4c0.1,0.7,0.2,1.2,0.5,1.7
						c0.3,0.5,0.7,0.9,1.2,1.3c0.5,0.4,1.2,0.7,2.1,1.1l5.3,2.1c1.5,0.6,2.8,1.3,3.7,2.1c1,0.8,1.7,1.7,2.2,2.8
						c0.5,1.1,0.9,2.3,1.1,3.7c0.2,1.4,0.3,3,0.3,4.7c0,2-0.2,3.9-0.6,5.7c-0.4,1.7-1.1,3.2-2,4.5c-0.9,1.2-2.2,2.2-3.7,3
						c-1.5,0.7-3.4,1.1-5.7,1.1c-1.7,0-3.2-0.3-4.7-0.9c-1.5-0.6-2.7-1.4-3.7-2.4c-1-1-1.9-2.2-2.5-3.6c-0.6-1.4-0.9-2.9-0.9-4.6
						v-2.6h6.9v2.2c0,1.3,0.4,2.4,1.1,3.4c0.7,1,2,1.5,3.8,1.5c1.2,0,2.1-0.2,2.8-0.5c0.7-0.3,1.2-0.8,1.5-1.4s0.6-1.4,0.6-2.3
						c0.1-0.9,0.1-1.9,0.1-3c0-1.3,0-2.3-0.1-3.1c-0.1-0.8-0.3-1.5-0.6-2c-0.3-0.5-0.7-0.9-1.2-1.2c-0.5-0.3-1.2-0.7-2.1-1l-5-2
						c-3-1.2-5-2.8-6-4.9c-1-2-1.5-4.6-1.5-7.6c0-1.8,0.2-3.5,0.7-5.2c0.5-1.6,1.2-3,2.2-4.2c1-1.2,2.2-2.1,3.7-2.8
						c1.5-0.7,3.2-1.1,5.2-1.1c1.7,0,3.3,0.3,4.7,1c1.4,0.6,2.7,1.5,3.7,2.5c1,1,1.8,2.2,2.3,3.5c0.5,1.3,0.8,2.6,0.8,4V73.6z"/>
				</g>
			</g>
			<g>
				<polygon fill="#0F3B7A" points="79.7,59.6 81.5,58.4 81.5,59.6 				"/>
			</g>
			<g>
				<polygon fill="#0F3B7A" points="91.8,94.4 93.6,93.2 93.6,94.4 				"/>
			</g>
			<g>
				<polygon fill="#0F3B7A" points="115.7,73.6 117.4,72.4 115.7,72.4 				"/>
			</g>
			<g>
				<path fill="#B6673D" d="M135.3,54.5L95.8,31.6l-1.1,0.6l39.5,22.8c3.1,1.8,5,5,5,8.6v40c0,3.5-1.9,6.8-5,8.6l1.2-0.6
					c3.1-1.8,5-5,5-8.6v-40C140.3,59.5,138.4,56.2,135.3,54.5z"/>
			</g>
			<g>
				<path fill="#FFCA22" d="M94.6,139.6l-43-24.8c-3.4-2-5.5-5.6-5.5-9.5V62c0-3.9,2.1-7.6,5.5-9.5l43-24.8l43,24.8
					c3.4,2,5.5,5.6,5.5,9.5v43.3c0,3.9-2.1,7.6-5.5,9.5L94.6,139.6z M94.6,28.3L51.9,53c-3.2,1.9-5.2,5.3-5.2,9v43.3
					c0,3.7,2,7.2,5.2,9l42.7,24.6l42.7-24.6c3.2-1.9,5.2-5.3,5.2-9V62c0-3.7-2-7.2-5.2-9L94.6,28.3z"/>
			</g>
		</g>
		<g>
			<path fill="#FFCA22" d="M65.2,149.8c-0.7,0-1.3-0.6-1.3-1.3c0-0.7,0.6-1.3,1.3-1.3c0.7,0,1.3,0.6,1.3,1.3
				C66.4,149.3,65.9,149.8,65.2,149.8z M65.2,147.9c-0.4,0-0.7,0.3-0.7,0.7c0,0.4,0.3,0.7,0.7,0.7c0.4,0,0.7-0.3,0.7-0.7
				C65.8,148.2,65.5,147.9,65.2,147.9z"/>
		</g>
		<g>
			<path fill="#FFAA22" d="M140,36.3c-0.8,0-1.4-0.6-1.4-1.4c0-0.8,0.6-1.4,1.4-1.4c0.8,0,1.4,0.6,1.4,1.4
				C141.4,35.7,140.8,36.3,140,36.3z M140,34c-0.5,0-0.9,0.4-0.9,0.9c0,0.5,0.4,0.9,0.9,0.9c0.5,0,0.9-0.4,0.9-0.9
				C140.8,34.4,140.5,34,140,34z"/>
		</g>
		<g>
			<rect x="77.8" y="162.6" fill="#FFAA22" width="3.2" height="0.6"/>
		</g>
		<g>
			<g>
				<rect x="115.4" y="15.4" fill="#FFCA22" width="0.6" height="3.1"/>
			</g>
			<g>
				<rect x="114.1" y="16.7" fill="#FFCA22" width="3.1" height="0.6"/>
			</g>
		</g>
		<g>
			<rect x="79.8" y="17.3" fill="#FFCA22" width="3" height="0.6"/>
		</g>
		<g>
			<g>
				<rect x="125.9" y="160.2" fill="#FFCA22" width="0.6" height="3.1"/>
			</g>
			<g>
				<rect x="124.6" y="161.4" fill="#FFCA22" width="3.1" height="0.6"/>
			</g>
		</g>
	</g>
</g>
<g id="grid">
</g>
</svg>
