<?xml version="1.0" encoding="utf-8"?>
<!-- Generator: Adobe Illustrator 18.1.1, SVG Export Plug-In . SVG Version: 6.00 Build 0)  -->
<svg version="1.1" xmlns="http://www.w3.org/2000/svg" xmlns:xlink="http://www.w3.org/1999/xlink" x="0px" y="0px"
	 viewBox="0 0 146.5 193.9" enable-background="new 0 0 146.5 193.9" xml:space="preserve">
<g id="Layer_1">
	<g>
		<g>
			<g>
				<defs>
					<rect id="SVGID_184_" x="-207.6" y="337.6" width="2.8" height="1.5"/>
				</defs>
				<clipPath id="SVGID_2_">
					<use xlink:href="#SVGID_184_"  overflow="visible"/>
				</clipPath>
				<g clip-path="url(#SVGID_2_)">
					<g>
						<defs>
							<rect id="SVGID_186_" x="-323.9" y="155.1" width="360.7" height="306.3"/>
						</defs>
						<clipPath id="SVGID_4_">
							<use xlink:href="#SVGID_186_"  overflow="visible"/>
						</clipPath>
						<rect x="-323.9" y="155.1" clip-path="url(#SVGID_4_)" fill="#FF6D1F" width="360.7" height="306.3"/>
						<circle clip-path="url(#SVGID_4_)" fill="#FFAA22" cx="8.5" cy="178.8" r="11.7"/>
						<path clip-path="url(#SVGID_4_)" fill="#FFC5A5" d="M14.5,185.7c0,1-0.8,1.8-1.8,1.8s-1.8-0.8-1.8-1.8H14.5z"/>
						<path opacity="0.1" clip-path="url(#SVGID_4_)" fill="#231F20" d="M8.5,167.2c-6,0-11,4.5-11.6,10.4l5.2,4.1
							c0-1.1,0.4-2.5,2.3-3.9c3.1-2.2,10.5-2.6,14.7-3.9C17.2,169.9,13.2,167.2,8.5,167.2z"/>
						<path clip-path="url(#SVGID_4_)" fill="#FFA779" d="M21.4,170.8c-0.5,0.2-1.3-0.1-1.3-0.1c-0.3,0.1,0.9,0.2,1.2-0.3
							c0.3-0.4,0.2-1.3,0.2-1.3c-1,1.2-3,0.7-6.1-1.2S4.7,163.3-0.5,169c-7.2,7.9-3.1,14.8-1.5,16.7c1.5,1.7,2.1,2.2,1.2,3.6
							c-0.1,0.2,2.3-0.1,1.7-1.9c-0.8-2.7-4-4-2-6.5c0.7-0.9,1.5-0.6,1.9-0.3c0.2,0.1,1.3,1.2,1.3,1c-0.1-1.2-0.1-2.9,2.3-4.6
							c3.8-2.7,13.9-2.7,16.8-4.8c1.6-1.1,1.1-2.6,1.2-2.3C22.4,170.3,21.9,170.6,21.4,170.8"/>
						
							<linearGradient id="SVGID_6_" gradientUnits="userSpaceOnUse" x1="-43269.9062" y1="87966.5703" x2="-43269.9062" y2="87971.4922" gradientTransform="matrix(1 0 0 1 43278.4805 -87788.4141)">
							<stop  offset="0" style="stop-color:#FFAA22"/>
							<stop  offset="0.3373" style="stop-color:#FFAF22"/>
							<stop  offset="0.7317" style="stop-color:#FFBD20"/>
							<stop  offset="1" style="stop-color:#FFCB1F"/>
						</linearGradient>
						<path clip-path="url(#SVGID_4_)" fill="url(#SVGID_6_)" d="M11.4,180.6c0,1.4-1.2,2.5-2.8,2.5S6,182,5.8,180.6
							c-0.1-0.7,0.1-1.6,0.3-2.1c0-0.1,0.1-0.2,0.3-0.2c0.4-0.1,1.5-0.2,2.3-0.2C10.1,178.2,11.4,179.3,11.4,180.6z"/>
						
							<linearGradient id="SVGID_7_" gradientUnits="userSpaceOnUse" x1="-43261.4688" y1="87966.5703" x2="-43261.4688" y2="87971.4922" gradientTransform="matrix(1 0 0 1 43278.4805 -87788.4141)">
							<stop  offset="0" style="stop-color:#FFAA22"/>
							<stop  offset="0.3373" style="stop-color:#FFAF22"/>
							<stop  offset="0.7317" style="stop-color:#FFBD20"/>
							<stop  offset="1" style="stop-color:#FFCB1F"/>
						</linearGradient>
						<path clip-path="url(#SVGID_4_)" fill="url(#SVGID_7_)" d="M14.2,180.6c0,1.4,1.2,2.5,2.8,2.5s2.6-1.1,2.8-2.5
							c0.1-0.7-0.1-1.6-0.3-2.1c0-0.1-0.1-0.2-0.3-0.2c-0.4-0.1-1.5-0.2-2.3-0.2C15.5,178.2,14.2,179.3,14.2,180.6z"/>
						<path clip-path="url(#SVGID_4_)" fill="#FFAA22" d="M13.7,179.8c-0.6-0.5-1.1-0.5-1.7,0c-0.1-0.2-0.2-0.2-0.3-0.4
							c0.8-0.7,1.5-0.7,2.3,0C13.8,179.5,13.8,179.6,13.7,179.8z"/>
						<path clip-path="url(#SVGID_4_)" fill="#FF6D1F" d="M12.2,179.8c-0.4-1.4-1.8-2.5-3.5-2.5c-1,0-2.5,0.1-3.2,0.2
							c-0.3,0-0.5,0.2-0.5,0.5c-0.1,0.5,0,1.3,0.1,2c0,0.3,0.2,0.5,0.5,0.5c-0.1-0.8,0.1-1.7,0.3-2.2c0.1-0.1,0.2-0.2,0.3-0.2
							c0.5-0.1,1.6-0.2,2.5-0.2c1.7,0,3,1.2,3.1,2.7C12,180.5,12.3,180.2,12.2,179.8z"/>
						<path clip-path="url(#SVGID_4_)" fill="#FF6D1F" d="M20.7,178c0-0.3-0.3-0.4-0.5-0.5c-0.7-0.1-2.2-0.2-3.2-0.2
							c-1.7,0-3.1,1-3.5,2.5c-0.1,0.3,0.1,0.7,0.5,0.7c0-1.5,1.4-2.7,3.1-2.7c0.9,0,2,0.2,2.5,0.2c0.1,0,0.3,0.1,0.3,0.2
							c0.2,0.5,0.4,1.4,0.3,2.2c0.3,0,0.5-0.2,0.5-0.5C20.7,179.3,20.8,178.5,20.7,178z"/>
						<path clip-path="url(#SVGID_4_)" fill="#FFD54E" d="M11.7,180.6c0,1.5-1.4,2.7-3.1,2.7c-1.7,0-2.9-1.2-3.1-2.7
							c-0.1-0.8,0.1-1.8,0.3-2.3c0.1-0.1,0.2-0.2,0.3-0.2c0.5-0.1,1.6-0.2,2.5-0.2C10.3,177.9,11.7,179.1,11.7,180.6z M11.4,180.6
							c0-1.4-1.2-2.5-2.8-2.5c-0.8,0-1.9,0.1-2.3,0.2c-0.1,0-0.2,0.1-0.3,0.2c-0.2,0.5-0.4,1.3-0.3,2.1c0.2,1.3,1.2,2.5,2.8,2.5
							S11.4,182,11.4,180.6z"/>
						<path clip-path="url(#SVGID_4_)" fill="#FFD54E" d="M20.1,180.6c-0.2,1.5-1.4,2.7-3.1,2.7s-3.1-1.2-3.1-2.7s1.4-2.7,3.1-2.7
							c0.9,0,2,0.2,2.5,0.2c0.1,0,0.3,0.1,0.3,0.2C20,178.8,20.2,179.8,20.1,180.6z M19.5,178.5c0-0.1-0.1-0.2-0.3-0.2
							c-0.4-0.1-1.5-0.2-2.3-0.2c-1.5,0-2.8,1.1-2.8,2.5s1.2,2.5,2.8,2.5c1.5,0,2.6-1.1,2.8-2.5C19.9,179.9,19.7,179,19.5,178.5z"/>
					</g>
				</g>
			</g>
		</g>
		<g>
			<g>
				<defs>
					<rect id="SVGID_211_" x="-207.6" y="356.9" width="2.8" height="1.5"/>
				</defs>
				<clipPath id="SVGID_8_">
					<use xlink:href="#SVGID_211_"  overflow="visible"/>
				</clipPath>
				<g clip-path="url(#SVGID_8_)">
					<g>
						<defs>
							<rect id="SVGID_213_" x="-323.9" y="155.1" width="360.7" height="306.3"/>
						</defs>
						<clipPath id="SVGID_9_">
							<use xlink:href="#SVGID_213_"  overflow="visible"/>
						</clipPath>
						<rect x="-323.9" y="155.1" clip-path="url(#SVGID_9_)" fill="#FF6D1F" width="360.7" height="306.3"/>
						<circle clip-path="url(#SVGID_9_)" fill="#FFAA22" cx="8.5" cy="178.8" r="11.7"/>
						<path clip-path="url(#SVGID_9_)" fill="#FFC5A5" d="M14.5,185.7c0,1-0.8,1.8-1.8,1.8s-1.8-0.8-1.8-1.8H14.5z"/>
						<path opacity="0.1" clip-path="url(#SVGID_9_)" fill="#231F20" d="M8.5,167.2c-6,0-11,4.5-11.6,10.4l5.2,4.1
							c0-1.1,0.4-2.5,2.3-3.9c3.1-2.2,10.5-2.6,14.7-3.9C17.2,169.9,13.2,167.2,8.5,167.2z"/>
						<path clip-path="url(#SVGID_9_)" fill="#FFA779" d="M21.4,170.8c-0.5,0.2-1.3-0.1-1.3-0.1c-0.3,0.1,0.9,0.2,1.2-0.3
							c0.3-0.4,0.2-1.3,0.2-1.3c-1,1.2-3,0.7-6.1-1.2S4.7,163.3-0.5,169c-7.2,7.9-3.1,14.8-1.5,16.7c1.5,1.7,2.1,2.2,1.2,3.6
							c-0.1,0.2,2.3-0.1,1.7-1.9c-0.8-2.7-4-4-2-6.5c0.7-0.9,1.5-0.6,1.9-0.3c0.2,0.1,1.3,1.2,1.3,1c-0.1-1.2-0.1-2.9,2.3-4.6
							c3.8-2.7,13.9-2.7,16.8-4.8c1.6-1.1,1.1-2.6,1.2-2.3C22.4,170.3,21.9,170.6,21.4,170.8"/>
						
							<linearGradient id="SVGID_10_" gradientUnits="userSpaceOnUse" x1="-43269.9062" y1="87966.5703" x2="-43269.9062" y2="87971.4922" gradientTransform="matrix(1 0 0 1 43278.4805 -87788.4141)">
							<stop  offset="0" style="stop-color:#FFAA22"/>
							<stop  offset="0.3373" style="stop-color:#FFAF22"/>
							<stop  offset="0.7317" style="stop-color:#FFBD20"/>
							<stop  offset="1" style="stop-color:#FFCB1F"/>
						</linearGradient>
						<path clip-path="url(#SVGID_9_)" fill="url(#SVGID_10_)" d="M11.4,180.6c0,1.4-1.2,2.5-2.8,2.5S6,182,5.8,180.6
							c-0.1-0.7,0.1-1.6,0.3-2.1c0-0.1,0.1-0.2,0.3-0.2c0.4-0.1,1.5-0.2,2.3-0.2C10.1,178.2,11.4,179.3,11.4,180.6z"/>
						
							<linearGradient id="SVGID_11_" gradientUnits="userSpaceOnUse" x1="-43261.4688" y1="87966.5703" x2="-43261.4688" y2="87971.4922" gradientTransform="matrix(1 0 0 1 43278.4805 -87788.4141)">
							<stop  offset="0" style="stop-color:#FFAA22"/>
							<stop  offset="0.3373" style="stop-color:#FFAF22"/>
							<stop  offset="0.7317" style="stop-color:#FFBD20"/>
							<stop  offset="1" style="stop-color:#FFCB1F"/>
						</linearGradient>
						<path clip-path="url(#SVGID_9_)" fill="url(#SVGID_11_)" d="M14.2,180.6c0,1.4,1.2,2.5,2.8,2.5s2.6-1.1,2.8-2.5
							c0.1-0.7-0.1-1.6-0.3-2.1c0-0.1-0.1-0.2-0.3-0.2c-0.4-0.1-1.5-0.2-2.3-0.2C15.5,178.2,14.2,179.3,14.2,180.6z"/>
						<path clip-path="url(#SVGID_9_)" fill="#FFAA22" d="M13.7,179.8c-0.6-0.5-1.1-0.5-1.7,0c-0.1-0.2-0.2-0.2-0.3-0.4
							c0.8-0.7,1.5-0.7,2.3,0C13.8,179.5,13.8,179.6,13.7,179.8z"/>
						<path clip-path="url(#SVGID_9_)" fill="#FF6D1F" d="M12.2,179.8c-0.4-1.4-1.8-2.5-3.5-2.5c-1,0-2.5,0.1-3.2,0.2
							c-0.3,0-0.5,0.2-0.5,0.5c-0.1,0.5,0,1.3,0.1,2c0,0.3,0.2,0.5,0.5,0.5c-0.1-0.8,0.1-1.7,0.3-2.2c0.1-0.1,0.2-0.2,0.3-0.2
							c0.5-0.1,1.6-0.2,2.5-0.2c1.7,0,3,1.2,3.1,2.7C12,180.5,12.3,180.2,12.2,179.8z"/>
						<path clip-path="url(#SVGID_9_)" fill="#FF6D1F" d="M20.7,178c0-0.3-0.3-0.4-0.5-0.5c-0.7-0.1-2.2-0.2-3.2-0.2
							c-1.7,0-3.1,1-3.5,2.5c-0.1,0.3,0.1,0.7,0.5,0.7c0-1.5,1.4-2.7,3.1-2.7c0.9,0,2,0.2,2.5,0.2c0.1,0,0.3,0.1,0.3,0.2
							c0.2,0.5,0.4,1.4,0.3,2.2c0.3,0,0.5-0.2,0.5-0.5C20.7,179.3,20.8,178.5,20.7,178z"/>
						<path clip-path="url(#SVGID_9_)" fill="#FFD54E" d="M11.7,180.6c0,1.5-1.4,2.7-3.1,2.7c-1.7,0-2.9-1.2-3.1-2.7
							c-0.1-0.8,0.1-1.8,0.3-2.3c0.1-0.1,0.2-0.2,0.3-0.2c0.5-0.1,1.6-0.2,2.5-0.2C10.3,177.9,11.7,179.1,11.7,180.6z M11.4,180.6
							c0-1.4-1.2-2.5-2.8-2.5c-0.8,0-1.9,0.1-2.3,0.2c-0.1,0-0.2,0.1-0.3,0.2c-0.2,0.5-0.4,1.3-0.3,2.1c0.2,1.3,1.2,2.5,2.8,2.5
							S11.4,182,11.4,180.6z"/>
						<path clip-path="url(#SVGID_9_)" fill="#FFD54E" d="M20.1,180.6c-0.2,1.5-1.4,2.7-3.1,2.7s-3.1-1.2-3.1-2.7s1.4-2.7,3.1-2.7
							c0.9,0,2,0.2,2.5,0.2c0.1,0,0.3,0.1,0.3,0.2C20,178.8,20.2,179.8,20.1,180.6z M19.5,178.5c0-0.1-0.1-0.2-0.3-0.2
							c-0.4-0.1-1.5-0.2-2.3-0.2c-1.5,0-2.8,1.1-2.8,2.5s1.2,2.5,2.8,2.5c1.5,0,2.6-1.1,2.8-2.5C19.9,179.9,19.7,179,19.5,178.5z"/>
					</g>
				</g>
			</g>
		</g>
		<g>
			<g>
				<g>
					<defs>
						<rect id="SVGID_238_" x="-206.9" y="337.6" width="3.1" height="1.9"/>
					</defs>
					<clipPath id="SVGID_12_">
						<use xlink:href="#SVGID_238_"  overflow="visible"/>
					</clipPath>
					<g clip-path="url(#SVGID_12_)">
						<g>
							<defs>
								<rect id="SVGID_240_" x="-323.9" y="155.1" width="360.7" height="306.3"/>
							</defs>
							<clipPath id="SVGID_13_">
								<use xlink:href="#SVGID_240_"  overflow="visible"/>
							</clipPath>
							<rect x="-323.9" y="155.1" clip-path="url(#SVGID_13_)" fill="#FF6D1F" width="360.7" height="306.3"/>
							<circle clip-path="url(#SVGID_13_)" fill="#FFAA22" cx="8.5" cy="178.8" r="11.7"/>
							<path clip-path="url(#SVGID_13_)" fill="#FFC5A5" d="M14.5,185.7c0,1-0.8,1.8-1.8,1.8s-1.8-0.8-1.8-1.8H14.5z"/>
							<path opacity="0.1" clip-path="url(#SVGID_13_)" fill="#231F20" d="M8.5,167.2c-6,0-11,4.5-11.6,10.4l5.2,4.1
								c0-1.1,0.4-2.5,2.3-3.9c3.1-2.2,10.5-2.6,14.7-3.9C17.2,169.9,13.2,167.2,8.5,167.2z"/>
							<path clip-path="url(#SVGID_13_)" fill="#FFA779" d="M21.4,170.8c-0.5,0.2-1.3-0.1-1.3-0.1c-0.3,0.1,0.9,0.2,1.2-0.3
								c0.3-0.4,0.2-1.3,0.2-1.3c-1,1.2-3,0.7-6.1-1.2S4.7,163.3-0.5,169c-7.2,7.9-3.1,14.8-1.5,16.7c1.5,1.7,2.1,2.2,1.2,3.6
								c-0.1,0.2,2.3-0.1,1.7-1.9c-0.8-2.7-4-4-2-6.5c0.7-0.9,1.5-0.6,1.9-0.3c0.2,0.1,1.3,1.2,1.3,1c-0.1-1.2-0.1-2.9,2.3-4.6
								c3.8-2.7,13.9-2.7,16.8-4.8c1.6-1.1,1.1-2.6,1.2-2.3C22.4,170.3,21.9,170.6,21.4,170.8"/>
							
								<linearGradient id="SVGID_14_" gradientUnits="userSpaceOnUse" x1="-43269.9062" y1="87966.5703" x2="-43269.9062" y2="87971.4922" gradientTransform="matrix(1 0 0 1 43278.4805 -87788.4141)">
								<stop  offset="0" style="stop-color:#FFAA22"/>
								<stop  offset="0.3373" style="stop-color:#FFAF22"/>
								<stop  offset="0.7317" style="stop-color:#FFBD20"/>
								<stop  offset="1" style="stop-color:#FFCB1F"/>
							</linearGradient>
							<path clip-path="url(#SVGID_13_)" fill="url(#SVGID_14_)" d="M11.4,180.6c0,1.4-1.2,2.5-2.8,2.5S6,182,5.8,180.6
								c-0.1-0.7,0.1-1.6,0.3-2.1c0-0.1,0.1-0.2,0.3-0.2c0.4-0.1,1.5-0.2,2.3-0.2C10.1,178.2,11.4,179.3,11.4,180.6z"/>
							
								<linearGradient id="SVGID_15_" gradientUnits="userSpaceOnUse" x1="-43261.4688" y1="87966.5703" x2="-43261.4688" y2="87971.4922" gradientTransform="matrix(1 0 0 1 43278.4805 -87788.4141)">
								<stop  offset="0" style="stop-color:#FFAA22"/>
								<stop  offset="0.3373" style="stop-color:#FFAF22"/>
								<stop  offset="0.7317" style="stop-color:#FFBD20"/>
								<stop  offset="1" style="stop-color:#FFCB1F"/>
							</linearGradient>
							<path clip-path="url(#SVGID_13_)" fill="url(#SVGID_15_)" d="M14.2,180.6c0,1.4,1.2,2.5,2.8,2.5s2.6-1.1,2.8-2.5
								c0.1-0.7-0.1-1.6-0.3-2.1c0-0.1-0.1-0.2-0.3-0.2c-0.4-0.1-1.5-0.2-2.3-0.2C15.5,178.2,14.2,179.3,14.2,180.6z"/>
							<path clip-path="url(#SVGID_13_)" fill="#FFAA22" d="M13.7,179.8c-0.6-0.5-1.1-0.5-1.7,0c-0.1-0.2-0.2-0.2-0.3-0.4
								c0.8-0.7,1.5-0.7,2.3,0C13.8,179.5,13.8,179.6,13.7,179.8z"/>
							<path clip-path="url(#SVGID_13_)" fill="#FF6D1F" d="M12.2,179.8c-0.4-1.4-1.8-2.5-3.5-2.5c-1,0-2.5,0.1-3.2,0.2
								c-0.3,0-0.5,0.2-0.5,0.5c-0.1,0.5,0,1.3,0.1,2c0,0.3,0.2,0.5,0.5,0.5c-0.1-0.8,0.1-1.7,0.3-2.2c0.1-0.1,0.2-0.2,0.3-0.2
								c0.5-0.1,1.6-0.2,2.5-0.2c1.7,0,3,1.2,3.1,2.7C12,180.5,12.3,180.2,12.2,179.8z"/>
							<path clip-path="url(#SVGID_13_)" fill="#FF6D1F" d="M20.7,178c0-0.3-0.3-0.4-0.5-0.5c-0.7-0.1-2.2-0.2-3.2-0.2
								c-1.7,0-3.1,1-3.5,2.5c-0.1,0.3,0.1,0.7,0.5,0.7c0-1.5,1.4-2.7,3.1-2.7c0.9,0,2,0.2,2.5,0.2c0.1,0,0.3,0.1,0.3,0.2
								c0.2,0.5,0.4,1.4,0.3,2.2c0.3,0,0.5-0.2,0.5-0.5C20.7,179.3,20.8,178.5,20.7,178z"/>
							<path clip-path="url(#SVGID_13_)" fill="#FFD54E" d="M11.7,180.6c0,1.5-1.4,2.7-3.1,2.7c-1.7,0-2.9-1.2-3.1-2.7
								c-0.1-0.8,0.1-1.8,0.3-2.3c0.1-0.1,0.2-0.2,0.3-0.2c0.5-0.1,1.6-0.2,2.5-0.2C10.3,177.9,11.7,179.1,11.7,180.6z M11.4,180.6
								c0-1.4-1.2-2.5-2.8-2.5c-0.8,0-1.9,0.1-2.3,0.2c-0.1,0-0.2,0.1-0.3,0.2c-0.2,0.5-0.4,1.3-0.3,2.1c0.2,1.3,1.2,2.5,2.8,2.5
								S11.4,182,11.4,180.6z"/>
							<path clip-path="url(#SVGID_13_)" fill="#FFD54E" d="M20.1,180.6c-0.2,1.5-1.4,2.7-3.1,2.7s-3.1-1.2-3.1-2.7s1.4-2.7,3.1-2.7
								c0.9,0,2,0.2,2.5,0.2c0.1,0,0.3,0.1,0.3,0.2C20,178.8,20.2,179.8,20.1,180.6z M19.5,178.5c0-0.1-0.1-0.2-0.3-0.2
								c-0.4-0.1-1.5-0.2-2.3-0.2c-1.5,0-2.8,1.1-2.8,2.5s1.2,2.5,2.8,2.5c1.5,0,2.6-1.1,2.8-2.5C19.9,179.9,19.7,179,19.5,178.5z"
								/>
						</g>
					</g>
				</g>
			</g>
			<g>
				<g>
					<defs>
						<rect id="SVGID_265_" x="-206.9" y="356.6" width="3.1" height="1.9"/>
					</defs>
					<clipPath id="SVGID_16_">
						<use xlink:href="#SVGID_265_"  overflow="visible"/>
					</clipPath>
					<g clip-path="url(#SVGID_16_)">
						<g>
							<defs>
								<rect id="SVGID_267_" x="-323.9" y="155.1" width="360.7" height="306.3"/>
							</defs>
							<clipPath id="SVGID_17_">
								<use xlink:href="#SVGID_267_"  overflow="visible"/>
							</clipPath>
							<rect x="-323.9" y="155.1" clip-path="url(#SVGID_17_)" fill="#FF6D1F" width="360.7" height="306.3"/>
							<circle clip-path="url(#SVGID_17_)" fill="#FFAA22" cx="8.5" cy="178.8" r="11.7"/>
							<path clip-path="url(#SVGID_17_)" fill="#FFC5A5" d="M14.5,185.7c0,1-0.8,1.8-1.8,1.8s-1.8-0.8-1.8-1.8H14.5z"/>
							<path opacity="0.1" clip-path="url(#SVGID_17_)" fill="#231F20" d="M8.5,167.2c-6,0-11,4.5-11.6,10.4l5.2,4.1
								c0-1.1,0.4-2.5,2.3-3.9c3.1-2.2,10.5-2.6,14.7-3.9C17.2,169.9,13.2,167.2,8.5,167.2z"/>
							<path clip-path="url(#SVGID_17_)" fill="#FFA779" d="M21.4,170.8c-0.5,0.2-1.3-0.1-1.3-0.1c-0.3,0.1,0.9,0.2,1.2-0.3
								c0.3-0.4,0.2-1.3,0.2-1.3c-1,1.2-3,0.7-6.1-1.2S4.7,163.3-0.5,169c-7.2,7.9-3.1,14.8-1.5,16.7c1.5,1.7,2.1,2.2,1.2,3.6
								c-0.1,0.2,2.3-0.1,1.7-1.9c-0.8-2.7-4-4-2-6.5c0.7-0.9,1.5-0.6,1.9-0.3c0.2,0.1,1.3,1.2,1.3,1c-0.1-1.2-0.1-2.9,2.3-4.6
								c3.8-2.7,13.9-2.7,16.8-4.8c1.6-1.1,1.1-2.6,1.2-2.3C22.4,170.3,21.9,170.6,21.4,170.8"/>
							
								<linearGradient id="SVGID_18_" gradientUnits="userSpaceOnUse" x1="-43269.9062" y1="87966.5703" x2="-43269.9062" y2="87971.4922" gradientTransform="matrix(1 0 0 1 43278.4805 -87788.4141)">
								<stop  offset="0" style="stop-color:#FFAA22"/>
								<stop  offset="0.3373" style="stop-color:#FFAF22"/>
								<stop  offset="0.7317" style="stop-color:#FFBD20"/>
								<stop  offset="1" style="stop-color:#FFCB1F"/>
							</linearGradient>
							<path clip-path="url(#SVGID_17_)" fill="url(#SVGID_18_)" d="M11.4,180.6c0,1.4-1.2,2.5-2.8,2.5S6,182,5.8,180.6
								c-0.1-0.7,0.1-1.6,0.3-2.1c0-0.1,0.1-0.2,0.3-0.2c0.4-0.1,1.5-0.2,2.3-0.2C10.1,178.2,11.4,179.3,11.4,180.6z"/>
							
								<linearGradient id="SVGID_19_" gradientUnits="userSpaceOnUse" x1="-43261.4688" y1="87966.5703" x2="-43261.4688" y2="87971.4922" gradientTransform="matrix(1 0 0 1 43278.4805 -87788.4141)">
								<stop  offset="0" style="stop-color:#FFAA22"/>
								<stop  offset="0.3373" style="stop-color:#FFAF22"/>
								<stop  offset="0.7317" style="stop-color:#FFBD20"/>
								<stop  offset="1" style="stop-color:#FFCB1F"/>
							</linearGradient>
							<path clip-path="url(#SVGID_17_)" fill="url(#SVGID_19_)" d="M14.2,180.6c0,1.4,1.2,2.5,2.8,2.5s2.6-1.1,2.8-2.5
								c0.1-0.7-0.1-1.6-0.3-2.1c0-0.1-0.1-0.2-0.3-0.2c-0.4-0.1-1.5-0.2-2.3-0.2C15.5,178.2,14.2,179.3,14.2,180.6z"/>
							<path clip-path="url(#SVGID_17_)" fill="#FFAA22" d="M13.7,179.8c-0.6-0.5-1.1-0.5-1.7,0c-0.1-0.2-0.2-0.2-0.3-0.4
								c0.8-0.7,1.5-0.7,2.3,0C13.8,179.5,13.8,179.6,13.7,179.8z"/>
							<path clip-path="url(#SVGID_17_)" fill="#FF6D1F" d="M12.2,179.8c-0.4-1.4-1.8-2.5-3.5-2.5c-1,0-2.5,0.1-3.2,0.2
								c-0.3,0-0.5,0.2-0.5,0.5c-0.1,0.5,0,1.3,0.1,2c0,0.3,0.2,0.5,0.5,0.5c-0.1-0.8,0.1-1.7,0.3-2.2c0.1-0.1,0.2-0.2,0.3-0.2
								c0.5-0.1,1.6-0.2,2.5-0.2c1.7,0,3,1.2,3.1,2.7C12,180.5,12.3,180.2,12.2,179.8z"/>
							<path clip-path="url(#SVGID_17_)" fill="#FF6D1F" d="M20.7,178c0-0.3-0.3-0.4-0.5-0.5c-0.7-0.1-2.2-0.2-3.2-0.2
								c-1.7,0-3.1,1-3.5,2.5c-0.1,0.3,0.1,0.7,0.5,0.7c0-1.5,1.4-2.7,3.1-2.7c0.9,0,2,0.2,2.5,0.2c0.1,0,0.3,0.1,0.3,0.2
								c0.2,0.5,0.4,1.4,0.3,2.2c0.3,0,0.5-0.2,0.5-0.5C20.7,179.3,20.8,178.5,20.7,178z"/>
							<path clip-path="url(#SVGID_17_)" fill="#FFD54E" d="M11.7,180.6c0,1.5-1.4,2.7-3.1,2.7c-1.7,0-2.9-1.2-3.1-2.7
								c-0.1-0.8,0.1-1.8,0.3-2.3c0.1-0.1,0.2-0.2,0.3-0.2c0.5-0.1,1.6-0.2,2.5-0.2C10.3,177.9,11.7,179.1,11.7,180.6z M11.4,180.6
								c0-1.4-1.2-2.5-2.8-2.5c-0.8,0-1.9,0.1-2.3,0.2c-0.1,0-0.2,0.1-0.3,0.2c-0.2,0.5-0.4,1.3-0.3,2.1c0.2,1.3,1.2,2.5,2.8,2.5
								S11.4,182,11.4,180.6z"/>
							<path clip-path="url(#SVGID_17_)" fill="#FFD54E" d="M20.1,180.6c-0.2,1.5-1.4,2.7-3.1,2.7s-3.1-1.2-3.1-2.7s1.4-2.7,3.1-2.7
								c0.9,0,2,0.2,2.5,0.2c0.1,0,0.3,0.1,0.3,0.2C20,178.8,20.2,179.8,20.1,180.6z M19.5,178.5c0-0.1-0.1-0.2-0.3-0.2
								c-0.4-0.1-1.5-0.2-2.3-0.2c-1.5,0-2.8,1.1-2.8,2.5s1.2,2.5,2.8,2.5c1.5,0,2.6-1.1,2.8-2.5C19.9,179.9,19.7,179,19.5,178.5z"
								/>
						</g>
					</g>
				</g>
			</g>
		</g>
		<g>
			<g>
				<g>
					<g>
						<g>
							<defs>
								<path id="SVGID_294_" d="M-158.9,355.8c2.7,0,4.4-2.3,4.9-5.1c0.3-1.7,0.3-2.8,0.4-4.5c0.1-1.1,2.2-0.8,2.2-1.2
									c0-1.1,0.2-1.2-0.8-1.4c-4.5-0.7-10.7-1.1-15.2-0.4c-1,0.2-1.8,1.1-1.8,2.1c0,2.1,0,3.2,0.4,5.3c0.5,2.8,2.2,5.1,4.9,5.1"/>
							</defs>
							<use xlink:href="#SVGID_294_"  overflow="visible" fill="#FF6D1F"/>
							<clipPath id="SVGID_20_">
								<use xlink:href="#SVGID_294_"  overflow="visible"/>
							</clipPath>
							<g clip-path="url(#SVGID_20_)">
								<g>
									<defs>
										<rect id="SVGID_296_" x="-323.9" y="155.1" width="360.7" height="306.3"/>
									</defs>
									<use xlink:href="#SVGID_296_"  overflow="visible" fill="#FF6D1F"/>
									<clipPath id="SVGID_21_">
										<use xlink:href="#SVGID_296_"  overflow="visible"/>
									</clipPath>
									<rect x="-323.9" y="155.1" clip-path="url(#SVGID_21_)" fill="#FF6D1F" width="360.7" height="306.3"/>
									<circle clip-path="url(#SVGID_21_)" fill="#FF6D1F" cx="8.5" cy="178.8" r="11.7"/>
									<path clip-path="url(#SVGID_21_)" fill="#FF6D1F" d="M14.5,185.7c0,1-0.8,1.8-1.8,1.8s-1.8-0.8-1.8-1.8H14.5z"/>
									<path opacity="0.1" clip-path="url(#SVGID_21_)" fill="#FF6D1F" d="M8.5,167.2c-6,0-11,4.5-11.6,10.4l5.2,4.1
										c0-1.1,0.4-2.5,2.3-3.9c3.1-2.2,10.5-2.6,14.7-3.9C17.2,169.9,13.2,167.2,8.5,167.2z"/>
									<path clip-path="url(#SVGID_21_)" fill="#FF6D1F" d="M21.4,170.8c-0.5,0.2-1.3-0.1-1.3-0.1c-0.3,0.1,0.9,0.2,1.2-0.3
										c0.3-0.4,0.2-1.3,0.2-1.3c-1,1.2-3,0.7-6.1-1.2S4.7,163.3-0.5,169c-7.2,7.9-3.1,14.8-1.5,16.7c1.5,1.7,2.1,2.2,1.2,3.6
										c-0.1,0.2,2.3-0.1,1.7-1.9c-0.8-2.7-4-4-2-6.5c0.7-0.9,1.5-0.6,1.9-0.3c0.2,0.1,1.3,1.2,1.3,1c-0.1-1.2-0.1-2.9,2.3-4.6
										c3.8-2.7,13.9-2.7,16.8-4.8c1.6-1.1,1.1-2.6,1.2-2.3C22.4,170.3,21.9,170.6,21.4,170.8"/>
									<path clip-path="url(#SVGID_21_)" fill="#FF6D1F" d="M11.4,180.6c0,1.4-1.2,2.5-2.8,2.5S6,182,5.8,180.6
										c-0.1-0.7,0.1-1.6,0.3-2.1c0-0.1,0.1-0.2,0.3-0.2c0.4-0.1,1.5-0.2,2.3-0.2C10.1,178.2,11.4,179.3,11.4,180.6z"/>
									<path clip-path="url(#SVGID_21_)" fill="#FF6D1F" d="M14.2,180.6c0,1.4,1.2,2.5,2.8,2.5s2.6-1.1,2.8-2.5
										c0.1-0.7-0.1-1.6-0.3-2.1c0-0.1-0.1-0.2-0.3-0.2c-0.4-0.1-1.5-0.2-2.3-0.2C15.5,178.2,14.2,179.3,14.2,180.6z"/>
									<path clip-path="url(#SVGID_21_)" fill="#FF6D1F" d="M13.7,179.8c-0.6-0.5-1.1-0.5-1.7,0c-0.1-0.2-0.2-0.2-0.3-0.4
										c0.8-0.7,1.5-0.7,2.3,0C13.8,179.5,13.8,179.6,13.7,179.8z"/>
									<path clip-path="url(#SVGID_21_)" fill="#FF6D1F" d="M12.2,179.8c-0.4-1.4-1.8-2.5-3.5-2.5c-1,0-2.5,0.1-3.2,0.2
										c-0.3,0-0.5,0.2-0.5,0.5c-0.1,0.5,0,1.3,0.1,2c0,0.3,0.2,0.5,0.5,0.5c-0.1-0.8,0.1-1.7,0.3-2.2c0.1-0.1,0.2-0.2,0.3-0.2
										c0.5-0.1,1.6-0.2,2.5-0.2c1.7,0,3,1.2,3.1,2.7C12,180.5,12.3,180.2,12.2,179.8z"/>
									<path clip-path="url(#SVGID_21_)" fill="#FF6D1F" d="M20.7,178c0-0.3-0.3-0.4-0.5-0.5c-0.7-0.1-2.2-0.2-3.2-0.2
										c-1.7,0-3.1,1-3.5,2.5c-0.1,0.3,0.1,0.7,0.5,0.7c0-1.5,1.4-2.7,3.1-2.7c0.9,0,2,0.2,2.5,0.2c0.1,0,0.3,0.1,0.3,0.2
										c0.2,0.5,0.4,1.4,0.3,2.2c0.3,0,0.5-0.2,0.5-0.5C20.7,179.3,20.8,178.5,20.7,178z"/>
									<path clip-path="url(#SVGID_21_)" fill="#FF6D1F" d="M11.7,180.6c0,1.5-1.4,2.7-3.1,2.7c-1.7,0-2.9-1.2-3.1-2.7
										c-0.1-0.8,0.1-1.8,0.3-2.3c0.1-0.1,0.2-0.2,0.3-0.2c0.5-0.1,1.6-0.2,2.5-0.2C10.3,177.9,11.7,179.1,11.7,180.6z
										 M11.4,180.6c0-1.4-1.2-2.5-2.8-2.5c-0.8,0-1.9,0.1-2.3,0.2c-0.1,0-0.2,0.1-0.3,0.2c-0.2,0.5-0.4,1.3-0.3,2.1
										c0.2,1.3,1.2,2.5,2.8,2.5S11.4,182,11.4,180.6z"/>
									<path clip-path="url(#SVGID_21_)" fill="#FF6D1F" d="M20.1,180.6c-0.2,1.5-1.4,2.7-3.1,2.7s-3.1-1.2-3.1-2.7
										s1.4-2.7,3.1-2.7c0.9,0,2,0.2,2.5,0.2c0.1,0,0.3,0.1,0.3,0.2C20,178.8,20.2,179.8,20.1,180.6z M19.5,178.5
										c0-0.1-0.1-0.2-0.3-0.2c-0.4-0.1-1.5-0.2-2.3-0.2c-1.5,0-2.8,1.1-2.8,2.5s1.2,2.5,2.8,2.5c1.5,0,2.6-1.1,2.8-2.5
										C19.9,179.9,19.7,179,19.5,178.5z"/>
								</g>
							</g>
						</g>
					</g>
				</g>
			</g>
			<g>
				<g>
					<g>
						<defs>
							<path id="SVGID_300_" d="M-169.3,346.6c-0.9-0.7-1.8-0.7-2.6,0c-0.2-0.5-1.2-2.7-1.4-3.2c1.8,0.6,3.1,1.1,5.2,0.1
								C-168.4,343.9-169.1,346.1-169.3,346.6z"/>
						</defs>
						<use xlink:href="#SVGID_300_"  overflow="visible" fill="#FF6D1F"/>
						<clipPath id="SVGID_22_">
							<use xlink:href="#SVGID_300_"  overflow="visible"/>
						</clipPath>
						<g clip-path="url(#SVGID_22_)">
							<g>
								<defs>
									<rect id="SVGID_302_" x="-323.9" y="155.1" width="360.7" height="306.3"/>
								</defs>
								<use xlink:href="#SVGID_302_"  overflow="visible" fill="#FF6D1F"/>
								<clipPath id="SVGID_23_">
									<use xlink:href="#SVGID_302_"  overflow="visible"/>
								</clipPath>
								<rect x="-323.9" y="155.1" clip-path="url(#SVGID_23_)" fill="#FF6D1F" width="360.7" height="306.3"/>
								<circle clip-path="url(#SVGID_23_)" fill="#FF6D1F" cx="8.5" cy="178.8" r="11.7"/>
								<path clip-path="url(#SVGID_23_)" fill="#FF6D1F" d="M14.5,185.7c0,1-0.8,1.8-1.8,1.8s-1.8-0.8-1.8-1.8H14.5z"/>
								<path opacity="0.1" clip-path="url(#SVGID_23_)" fill="#FF6D1F" d="M8.5,167.2c-6,0-11,4.5-11.6,10.4l5.2,4.1
									c0-1.1,0.4-2.5,2.3-3.9c3.1-2.2,10.5-2.6,14.7-3.9C17.2,169.9,13.2,167.2,8.5,167.2z"/>
								<path clip-path="url(#SVGID_23_)" fill="#FF6D1F" d="M21.4,170.8c-0.5,0.2-1.3-0.1-1.3-0.1c-0.3,0.1,0.9,0.2,1.2-0.3
									c0.3-0.4,0.2-1.3,0.2-1.3c-1,1.2-3,0.7-6.1-1.2S4.7,163.3-0.5,169c-7.2,7.9-3.1,14.8-1.5,16.7c1.5,1.7,2.1,2.2,1.2,3.6
									c-0.1,0.2,2.3-0.1,1.7-1.9c-0.8-2.7-4-4-2-6.5c0.7-0.9,1.5-0.6,1.9-0.3c0.2,0.1,1.3,1.2,1.3,1c-0.1-1.2-0.1-2.9,2.3-4.6
									c3.8-2.7,13.9-2.7,16.8-4.8c1.6-1.1,1.1-2.6,1.2-2.3C22.4,170.3,21.9,170.6,21.4,170.8"/>
								<path clip-path="url(#SVGID_23_)" fill="#FF6D1F" d="M11.4,180.6c0,1.4-1.2,2.5-2.8,2.5S6,182,5.8,180.6
									c-0.1-0.7,0.1-1.6,0.3-2.1c0-0.1,0.1-0.2,0.3-0.2c0.4-0.1,1.5-0.2,2.3-0.2C10.1,178.2,11.4,179.3,11.4,180.6z"/>
								<path clip-path="url(#SVGID_23_)" fill="#FF6D1F" d="M14.2,180.6c0,1.4,1.2,2.5,2.8,2.5s2.6-1.1,2.8-2.5
									c0.1-0.7-0.1-1.6-0.3-2.1c0-0.1-0.1-0.2-0.3-0.2c-0.4-0.1-1.5-0.2-2.3-0.2C15.5,178.2,14.2,179.3,14.2,180.6z"/>
								<path clip-path="url(#SVGID_23_)" fill="#FF6D1F" d="M13.7,179.8c-0.6-0.5-1.1-0.5-1.7,0c-0.1-0.2-0.2-0.2-0.3-0.4
									c0.8-0.7,1.5-0.7,2.3,0C13.8,179.5,13.8,179.6,13.7,179.8z"/>
								<path clip-path="url(#SVGID_23_)" fill="#FF6D1F" d="M12.2,179.8c-0.4-1.4-1.8-2.5-3.5-2.5c-1,0-2.5,0.1-3.2,0.2
									c-0.3,0-0.5,0.2-0.5,0.5c-0.1,0.5,0,1.3,0.1,2c0,0.3,0.2,0.5,0.5,0.5c-0.1-0.8,0.1-1.7,0.3-2.2c0.1-0.1,0.2-0.2,0.3-0.2
									c0.5-0.1,1.6-0.2,2.5-0.2c1.7,0,3,1.2,3.1,2.7C12,180.5,12.3,180.2,12.2,179.8z"/>
								<path clip-path="url(#SVGID_23_)" fill="#FF6D1F" d="M20.7,178c0-0.3-0.3-0.4-0.5-0.5c-0.7-0.1-2.2-0.2-3.2-0.2
									c-1.7,0-3.1,1-3.5,2.5c-0.1,0.3,0.1,0.7,0.5,0.7c0-1.5,1.4-2.7,3.1-2.7c0.9,0,2,0.2,2.5,0.2c0.1,0,0.3,0.1,0.3,0.2
									c0.2,0.5,0.4,1.4,0.3,2.2c0.3,0,0.5-0.2,0.5-0.5C20.7,179.3,20.8,178.5,20.7,178z"/>
								<path clip-path="url(#SVGID_23_)" fill="#FF6D1F" d="M11.7,180.6c0,1.5-1.4,2.7-3.1,2.7c-1.7,0-2.9-1.2-3.1-2.7
									c-0.1-0.8,0.1-1.8,0.3-2.3c0.1-0.1,0.2-0.2,0.3-0.2c0.5-0.1,1.6-0.2,2.5-0.2C10.3,177.9,11.7,179.1,11.7,180.6z M11.4,180.6
									c0-1.4-1.2-2.5-2.8-2.5c-0.8,0-1.9,0.1-2.3,0.2c-0.1,0-0.2,0.1-0.3,0.2c-0.2,0.5-0.4,1.3-0.3,2.1c0.2,1.3,1.2,2.5,2.8,2.5
									S11.4,182,11.4,180.6z"/>
								<path clip-path="url(#SVGID_23_)" fill="#FF6D1F" d="M20.1,180.6c-0.2,1.5-1.4,2.7-3.1,2.7s-3.1-1.2-3.1-2.7
									s1.4-2.7,3.1-2.7c0.9,0,2,0.2,2.5,0.2c0.1,0,0.3,0.1,0.3,0.2C20,178.8,20.2,179.8,20.1,180.6z M19.5,178.5
									c0-0.1-0.1-0.2-0.3-0.2c-0.4-0.1-1.5-0.2-2.3-0.2c-1.5,0-2.8,1.1-2.8,2.5s1.2,2.5,2.8,2.5c1.5,0,2.6-1.1,2.8-2.5
									C19.9,179.9,19.7,179,19.5,178.5z"/>
							</g>
						</g>
					</g>
				</g>
			</g>
		</g>
	</g>
	<g>
		<g>
			<g>
				<polyline fill="#FFBB4E" points="74.5,192.9 3.7,153.6 3.7,141.9 74.5,114.3 				"/>
			</g>
			<g>
				<polygon fill="#FFCA22" points="74.4,193.1 3.5,153.7 3.5,147.1 4,147.1 4,153.4 74.7,192.7 				"/>
			</g>
			<g>
				<polygon fill="#FFCA22" points="74.7,193.1 74.4,192.7 145.1,153.4 145.1,147.2 74.4,114.5 74.7,114 145.6,146.9 145.6,153.7 
					145.5,153.8 				"/>
			</g>
			<g>
				
					<rect x="-1.3" y="170.5" transform="matrix(0.8742 0.4856 -0.4856 0.8742 87.8286 2.4721)" fill="#FFCA22" width="81" height="0.5"/>
			</g>
			<g>
				<polygon fill="#FFCA22" points="74.7,190.6 74.4,190.2 145.1,150.9 145.1,144.7 74.4,112 74.7,111.5 145.6,144.4 145.6,151.2 
					145.5,151.3 				"/>
			</g>
			<g>
				<polygon fill="#FFCA22" points="74.4,188.3 3.5,148.9 3.5,142.1 74.4,109.2 74.7,109.7 4,142.4 4,148.6 74.7,187.8 				"/>
			</g>
			<g>
				<polygon fill="#FFCA22" points="74.7,188.3 74.4,187.8 145.1,148.6 145.1,142.4 74.4,109.7 74.7,109.2 145.6,142.1 145.6,148.9 
					145.5,149 				"/>
			</g>
			<g>
				<polygon fill="#FFFFFF" points="145.3,141.8 74.5,181.1 3.7,141.8 74.5,102.5 				"/>
			</g>
		</g>
		<linearGradient id="SVGID_24_" gradientUnits="userSpaceOnUse" x1="74.5409" y1="172.9482" x2="74.5409" y2="48.6267">
			<stop  offset="0" style="stop-color:#FF6D1F"/>
			<stop  offset="0.4367" style="stop-color:#FF6D1F;stop-opacity:0.5711"/>
			<stop  offset="0.5113" style="stop-color:#FF6D1F;stop-opacity:0.4978"/>
			<stop  offset="1" style="stop-color:#FF6D1F;stop-opacity:0"/>
		</linearGradient>
		<polygon fill="url(#SVGID_24_)" points="131.6,141.2 74.5,172.9 17.4,141.2 0,48.6 149.1,48.6 		"/>
		<g>
			<g>
				<rect x="45.5" y="12" fill="#FFFFFF" width="0.4" height="1.4"/>
			</g>
			<g>
				<rect x="45.5" y="17.4" fill="#FFFFFF" width="0.4" height="1.4"/>
			</g>
			<g>
				<rect x="47.7" y="15.2" fill="#FFFFFF" width="1.4" height="0.4"/>
			</g>
			<g>
				<rect x="42.3" y="15.2" fill="#FFFFFF" width="1.4" height="0.4"/>
			</g>
			<g>
				
					<rect x="47.4" y="12.8" transform="matrix(0.7078 0.7065 -0.7065 0.7078 23.4124 -29.7111)" fill="#FFFFFF" width="0.4" height="1.4"/>
			</g>
			<g>
				
					<rect x="43.6" y="16.6" transform="matrix(0.7065 0.7078 -0.7078 0.7065 25.0814 -25.9135)" fill="#FFFFFF" width="0.4" height="1.4"/>
			</g>
			<g>
				
					<rect x="46.9" y="17.1" transform="matrix(0.7071 0.7071 -0.7071 0.7071 26.1654 -28.6094)" fill="#FFFFFF" width="1.4" height="0.4"/>
			</g>
			<g>
				
					<rect x="43.1" y="13.2" transform="matrix(0.7073 0.7069 -0.7069 0.7073 22.3175 -27.0145)" fill="#FFFFFF" width="1.4" height="0.4"/>
			</g>
		</g>
		<g>
			<g>
				<polygon fill="#FFCA22" points="131.6,140.7 74.5,172.4 17.4,140.7 74.5,109 				"/>
			</g>
			<g>
				
					<rect x="50" y="121.6" transform="matrix(0.6587 0.7524 -0.7524 0.6587 118.0173 8.001)" fill="#FBA925" width="0.4" height="25"/>
			</g>
			<g>
				
					<rect x="51.4" y="128.2" transform="matrix(0.263 0.9648 -0.9648 0.263 172.4621 52.9513)" fill="#FBA925" width="0.4" height="22.3"/>
			</g>
			<g>
				
					<rect x="57.5" y="143.8" transform="matrix(0.4164 0.9092 -0.9092 0.4164 169.2886 24.1925)" fill="#FBA925" width="16.6" height="0.4"/>
			</g>
			<g>
				
					<rect x="69.2" y="153" transform="matrix(0.9927 0.1204 -0.1204 0.9927 19.0652 -8.9332)" fill="#FBA925" width="28.5" height="0.4"/>
			</g>
			<g>
				
					<rect x="86.3" y="148" transform="matrix(0.4326 0.9016 -0.9016 0.4326 193.5844 12.9682)" fill="#FBA925" width="0.4" height="24.6"/>
			</g>
			<g>
				
					<rect x="74.4" y="122" transform="matrix(0.1589 0.9873 -0.9873 0.1589 195.4969 39.3756)" fill="#FF8A4C" width="0.4" height="24.9"/>
			</g>
			<g>
				
					<rect x="74" y="124.1" transform="matrix(0.4336 0.9011 -0.9011 0.4336 159.0512 -4.4065)" fill="#FBA925" width="18" height="0.4"/>
			</g>
			<g>
				
					<rect x="59.1" y="129.2" transform="matrix(0.9703 0.2417 -0.2417 0.9703 33.4569 -13.9653)" fill="#FBA925" width="29" height="0.4"/>
			</g>
			<g>
				
					<rect x="107.8" y="132.5" transform="matrix(0.9912 0.1327 -0.1327 0.9912 19.2284 -13.1051)" fill="#FBA925" width="0.4" height="10.4"/>
			</g>
			<g>
				
					<rect x="89.1" y="120.4" transform="matrix(0.4326 0.9016 -0.9016 0.4326 178.5819 -5.802593e-02)" fill="#FF8A4C" width="0.4" height="42.8"/>
			</g>
			<g>
				
					<rect x="109.2" y="128.7" transform="matrix(0.9287 0.3707 -0.3707 0.9287 56.2485 -31.2442)" fill="#FBA925" width="0.4" height="4.1"/>
			</g>
			<g>
				
					<rect x="82.8" y="112.2" transform="matrix(4.168478e-02 0.9991 -0.9991 4.168478e-02 195.4685 28.2738)" fill="#FFCA22" width="0.4" height="7.8"/>
			</g>
			<g>
				
					<rect x="31.7" y="134.2" transform="matrix(9.898788e-02 0.9951 -0.9951 9.898788e-02 171.2345 97.2864)" fill="#FBA925" width="0.4" height="17.9"/>
			</g>
			<g>
				
					<rect x="57.8" y="134.8" transform="matrix(0.7451 0.6669 -0.6669 0.7451 108.9849 -2.6947)" fill="#FBA925" width="0.4" height="13"/>
			</g>
			<g>
				
					<rect x="58" y="163.2" transform="matrix(0.9698 0.2437 -0.2437 0.9698 41.8479 -11.3531)" fill="#FBA925" width="17.7" height="0.4"/>
			</g>
			<g>
				
					<rect x="99.3" y="136.6" transform="matrix(0.2161 0.9764 -0.9764 0.2161 219.164 16.2237)" fill="#FF8A4C" width="0.4" height="15.9"/>
			</g>
			<g>
				
					<rect x="105.8" y="146.3" transform="matrix(0.7226 0.6913 -0.6913 0.7226 132.0573 -36.1199)" fill="#FBA925" width="10.4" height="0.4"/>
			</g>
			<g>
				
					<rect x="95.6" y="123.5" transform="matrix(0.9998 1.973607e-02 -1.973607e-02 0.9998 2.4604 -1.9165)" fill="#FBA925" width="5.5" height="0.4"/>
			</g>
			<g>
				
					<rect x="62.2" y="115.3" transform="matrix(0.8709 0.4915 -0.4915 0.8709 67.4845 -15.0359)" fill="#FBA925" width="0.4" height="11.3"/>
			</g>
			<g>
				
					<rect x="48" y="153.5" transform="matrix(0.2852 0.9585 -0.9585 0.2852 187.2942 56.2112)" fill="#FF8A4C" width="15.9" height="0.4"/>
			</g>
			<g>
				
					<rect x="48.6" y="144" transform="matrix(0.6953 0.7187 -0.7187 0.6953 123.2328 10.8447)" fill="#FBA925" width="0.4" height="13.5"/>
			</g>
			<g>
				
					<rect x="97.6" y="155.2" transform="matrix(0.9928 0.1199 -0.1199 0.9928 19.3651 -10.999)" fill="#FFCA22" width="7" height="0.4"/>
			</g>
			<g>
				
					<rect x="74.8" y="165.6" transform="matrix(0.9925 0.1224 -0.1224 0.9925 21.2574 -7.906)" fill="#FFCA22" width="0.4" height="6.9"/>
			</g>
			<g>
				
					<rect x="62.4" y="124" transform="matrix(0.798 0.6027 -0.6027 0.798 90.218 -20.7365)" fill="#FBA925" width="27.3" height="0.4"/>
			</g>
			<g>
				
					<rect x="29.1" y="137.6" transform="matrix(0.7449 0.6672 -0.6672 0.7449 101.0758 11.2756)" fill="#FFCA22" width="13.5" height="0.4"/>
			</g>
			<g>
				
					<rect x="108.4" y="134.5" transform="matrix(0.969 0.2471 -0.2471 0.969 36.9327 -24.7539)" fill="#FBA925" width="17.4" height="0.4"/>
			</g>
			<g>
				
					<rect x="107.3" y="143.2" transform="matrix(0.9985 5.439237e-02 -5.439237e-02 0.9985 7.9716 -6.1303)" fill="#FBA925" width="18.7" height="0.4"/>
			</g>
			<g>
				
					<rect x="38.9" y="142" transform="matrix(0.938 0.3466 -0.3466 0.938 53.3761 -4.4228)" fill="#FBA925" width="0.4" height="10.1"/>
			</g>
			<g>
				
					<rect x="48.1" y="124.5" transform="matrix(0.9812 0.1932 -0.1932 0.9812 25.1149 -8.0645)" fill="#FF8A4C" width="11.5" height="0.4"/>
			</g>
			<g>
				<rect x="78.9" y="111.6" fill="#FBA925" width="0.4" height="4.6"/>
			</g>
			<g>
				<polygon fill="#B6673D" points="74.5,172.4 17.4,140.7 17.4,141.6 74.5,173.3 131.6,141.6 131.6,140.7 131.6,140.7 				"/>
			</g>
			<g>
				
					<rect x="86.9" y="132.3" transform="matrix(1 7.096020e-03 -7.096020e-03 1 0.9428 -0.6906)" fill="#FBA925" width="21.7" height="0.4"/>
			</g>
			<g>
				<path fill="#FFAA22" d="M60.3,125.4c0.4,0.2,0.4,0.6,0,0.9c-0.4,0.2-1.1,0.2-1.5,0c-0.4-0.2-0.4-0.6,0-0.9
					C59.2,125.2,59.9,125.2,60.3,125.4z"/>
				<path fill="#FFD54E" d="M59.6,126.7c-0.3,0-0.6-0.1-0.9-0.2c-0.3-0.2-0.4-0.4-0.4-0.6c0-0.2,0.1-0.4,0.4-0.6
					c0.5-0.3,1.3-0.3,1.7,0c0.3,0.2,0.4,0.4,0.4,0.6c0,0.2-0.1,0.4-0.4,0.6C60.2,126.6,59.9,126.7,59.6,126.7z M59.6,125.5
					c-0.3,0-0.5,0.1-0.7,0.2c-0.1,0.1-0.2,0.2-0.2,0.3c0,0.1,0.1,0.2,0.2,0.3c0.3,0.2,1,0.2,1.3,0c0.1-0.1,0.2-0.2,0.2-0.3
					c0-0.1-0.1-0.2-0.2-0.3C60.1,125.5,59.8,125.5,59.6,125.5z"/>
			</g>
			<g>
				<path fill="#FFAA22" d="M54.5,145.6c0.4,0.2,0.4,0.6,0,0.9c-0.4,0.2-1.1,0.2-1.5,0c-0.4-0.2-0.4-0.6,0-0.9
					C53.4,145.4,54,145.4,54.5,145.6z"/>
				<path fill="#FFD54E" d="M53.7,146.9c-0.3,0-0.6-0.1-0.9-0.2c-0.3-0.2-0.4-0.4-0.4-0.6c0-0.2,0.1-0.4,0.4-0.6
					c0.5-0.3,1.3-0.3,1.7,0c0.3,0.2,0.4,0.4,0.4,0.6c0,0.2-0.1,0.4-0.4,0.6C54.3,146.8,54,146.9,53.7,146.9z M53.7,145.6
					c-0.3,0-0.5,0.1-0.7,0.2c-0.1,0.1-0.2,0.2-0.2,0.3c0,0.1,0.1,0.2,0.2,0.3c0.3,0.2,1,0.2,1.3,0c0.1-0.1,0.2-0.2,0.2-0.3
					c0-0.1-0.1-0.2-0.2-0.3C54.2,145.7,54,145.6,53.7,145.6z"/>
			</g>
			<g>
				<path fill="#FFAA22" d="M65.9,115.6c0.4,0.2,0.4,0.6,0,0.9s-1.1,0.2-1.5,0c-0.4-0.2-0.4-0.6,0-0.9
					C64.8,115.3,65.5,115.3,65.9,115.6z"/>
				<path fill="#FFD54E" d="M65.1,116.8c-0.3,0-0.6-0.1-0.9-0.2c-0.3-0.2-0.4-0.4-0.4-0.6c0-0.2,0.1-0.4,0.4-0.6
					c0.5-0.3,1.3-0.3,1.7,0c0.3,0.2,0.4,0.4,0.4,0.6c0,0.2-0.1,0.4-0.4,0.6C65.8,116.7,65.5,116.8,65.1,116.8z M65.1,115.6
					c-0.3,0-0.5,0.1-0.7,0.2c-0.1,0.1-0.2,0.2-0.2,0.3c0,0.1,0.1,0.2,0.2,0.3c0.3,0.2,1,0.2,1.3,0c0.1-0.1,0.2-0.2,0.2-0.3
					c0-0.1-0.1-0.2-0.2-0.3C65.6,115.6,65.4,115.6,65.1,115.6z"/>
			</g>
			<g>
				<path fill="#FFAA22" d="M92.5,145.9c0.4,0.2,0.4,0.6,0,0.9c-0.4,0.2-1.1,0.2-1.5,0s-0.4-0.6,0-0.9S92,145.7,92.5,145.9z"/>
				<path fill="#FFD54E" d="M91.7,147.1c-0.3,0-0.6-0.1-0.9-0.2c-0.3-0.2-0.4-0.4-0.4-0.6c0-0.2,0.1-0.4,0.4-0.6
					c0.5-0.3,1.3-0.3,1.7,0c0.3,0.2,0.4,0.4,0.4,0.6c0,0.2-0.1,0.4-0.4,0.6C92.3,147.1,92,147.1,91.7,147.1z M91.7,145.9
					c-0.3,0-0.5,0.1-0.7,0.2c-0.1,0.1-0.2,0.2-0.2,0.3c0,0.1,0.1,0.2,0.2,0.3c0.3,0.2,1,0.2,1.4,0c0.1-0.1,0.2-0.2,0.2-0.3
					c0-0.1-0.1-0.2-0.2-0.3C92.2,146,91.9,145.9,91.7,145.9z"/>
			</g>
			<g>
				<path fill="#FFD54E" d="M79.9,115.8c0.4,0.2,0.4,0.6,0,0.9c-0.4,0.2-1.1,0.2-1.5,0c-0.4-0.2-0.4-0.6,0-0.9
					C78.8,115.5,79.5,115.5,79.9,115.8z"/>
				<path fill="#FFAA22" d="M79.1,117c-0.3,0-0.6-0.1-0.9-0.2c-0.3-0.2-0.4-0.4-0.4-0.6c0-0.2,0.1-0.4,0.4-0.6
					c0.5-0.3,1.3-0.3,1.7,0c0.3,0.2,0.4,0.4,0.4,0.6c0,0.2-0.1,0.4-0.4,0.6C79.8,116.9,79.4,117,79.1,117z M79.1,115.8
					c-0.3,0-0.5,0.1-0.7,0.2c-0.1,0.1-0.2,0.2-0.2,0.3c0,0.1,0.1,0.2,0.2,0.3c0.3,0.2,1,0.2,1.3,0c0.1-0.1,0.2-0.2,0.2-0.3
					c0-0.1-0.1-0.2-0.2-0.3C79.6,115.8,79.4,115.8,79.1,115.8z"/>
			</g>
			<g>
				<path fill="#FFD54E" d="M109.4,132.2c0.4,0.2,0.4,0.6,0,0.9s-1.1,0.2-1.5,0s-0.4-0.6,0-0.9S109,131.9,109.4,132.2z"/>
				<path fill="#FFAA22" d="M108.6,133.4c-0.3,0-0.6-0.1-0.9-0.2c-0.3-0.2-0.4-0.4-0.4-0.6c0-0.2,0.1-0.4,0.4-0.6
					c0.5-0.3,1.3-0.3,1.7,0c0.3,0.2,0.4,0.4,0.4,0.6c0,0.2-0.1,0.4-0.4,0.6C109.3,133.3,109,133.4,108.6,133.4z M108.6,132.2
					c-0.3,0-0.5,0.1-0.7,0.2c-0.1,0.1-0.2,0.2-0.2,0.3c0,0.1,0.1,0.2,0.2,0.3c0.3,0.2,1,0.2,1.3,0c0.1-0.1,0.2-0.2,0.2-0.3
					c0-0.1-0.1-0.2-0.2-0.3C109.1,132.2,108.9,132.2,108.6,132.2z"/>
			</g>
			<g>
				<path fill="#FFD54E" d="M96.4,123.2c0.4,0.2,0.4,0.6,0,0.9c-0.4,0.2-1.1,0.2-1.5,0c-0.4-0.2-0.4-0.6,0-0.9
					C95.3,123,95.9,123,96.4,123.2z"/>
				<path fill="#FFAA22" d="M95.6,124.4c-0.3,0-0.6-0.1-0.9-0.2c-0.3-0.2-0.4-0.4-0.4-0.6c0-0.2,0.1-0.4,0.4-0.6
					c0.5-0.3,1.3-0.3,1.7,0c0.3,0.2,0.4,0.4,0.4,0.6c0,0.2-0.1,0.4-0.4,0.6C96.2,124.4,95.9,124.4,95.6,124.4z M95.6,123.2
					c-0.3,0-0.5,0.1-0.7,0.2c-0.1,0.1-0.2,0.2-0.2,0.3c0,0.1,0.1,0.2,0.2,0.3c0.3,0.2,1,0.2,1.4,0c0.1-0.1,0.2-0.2,0.2-0.3
					c0-0.1-0.1-0.2-0.2-0.3C96.1,123.3,95.9,123.2,95.6,123.2z"/>
			</g>
			<g>
				<path fill="#FFD54E" d="M41.6,141.9c0.4,0.2,0.4,0.6,0,0.9c-0.4,0.2-1.1,0.2-1.5,0c-0.4-0.2-0.4-0.6,0-0.9
					C40.5,141.6,41.2,141.6,41.6,141.9z"/>
				<path fill="#FFAA22" d="M40.8,143.1c-0.3,0-0.6-0.1-0.9-0.2c-0.3-0.2-0.4-0.4-0.4-0.6c0-0.2,0.1-0.4,0.4-0.6
					c0.5-0.3,1.3-0.3,1.7,0c0.3,0.2,0.4,0.4,0.4,0.6c0,0.2-0.1,0.4-0.4,0.6C41.4,143,41.1,143.1,40.8,143.1z M40.8,141.9
					c-0.3,0-0.5,0.1-0.7,0.2c-0.1,0.1-0.2,0.2-0.2,0.3c0,0.1,0.1,0.2,0.2,0.3c0.3,0.2,1,0.2,1.3,0c0.1-0.1,0.2-0.2,0.2-0.3
					c0-0.1-0.1-0.2-0.2-0.3C41.3,142,41.1,141.9,40.8,141.9z"/>
			</g>
			<g>
				<path fill="#FFD54E" d="M63.1,136c0.4,0.2,0.4,0.6,0,0.9c-0.4,0.2-1.1,0.2-1.5,0c-0.4-0.2-0.4-0.6,0-0.9
					C62,135.7,62.7,135.7,63.1,136z"/>
				<path fill="#FFAA22" d="M62.3,137.2c-0.3,0-0.6-0.1-0.9-0.2c-0.3-0.2-0.4-0.4-0.4-0.6c0-0.2,0.1-0.4,0.4-0.6
					c0.5-0.3,1.3-0.3,1.7,0c0.3,0.2,0.4,0.4,0.4,0.6c0,0.2-0.1,0.4-0.4,0.6C63,137.1,62.7,137.2,62.3,137.2z M62.3,136
					c-0.3,0-0.5,0.1-0.7,0.2c-0.1,0.1-0.2,0.2-0.2,0.3c0,0.1,0.1,0.2,0.2,0.3c0.3,0.2,1,0.2,1.3,0c0.1-0.1,0.2-0.2,0.2-0.3
					c0-0.1-0.1-0.2-0.2-0.3C62.8,136.1,62.6,136,62.3,136z"/>
			</g>
			<g>
				<path fill="#FFD54E" d="M108,142.4c0.4,0.2,0.4,0.6,0,0.9c-0.4,0.2-1.1,0.2-1.5,0s-0.4-0.6,0-0.9S107.6,142.2,108,142.4z"/>
				<path fill="#FFAA22" d="M107.3,143.7c-0.3,0-0.6-0.1-0.9-0.2c-0.3-0.2-0.4-0.4-0.4-0.6c0-0.2,0.1-0.4,0.4-0.6
					c0.5-0.3,1.3-0.3,1.7,0c0.3,0.2,0.4,0.4,0.4,0.6c0,0.2-0.1,0.4-0.4,0.6C107.9,143.6,107.6,143.7,107.3,143.7z M107.3,142.5
					c-0.3,0-0.5,0.1-0.7,0.2c-0.1,0.1-0.2,0.2-0.2,0.3c0,0.1,0.1,0.2,0.2,0.3c0.3,0.2,1,0.2,1.3,0c0.1-0.1,0.2-0.2,0.2-0.3
					c0-0.1-0.1-0.2-0.2-0.3C107.8,142.5,107.5,142.5,107.3,142.5z"/>
			</g>
			<g>
				<path fill="#FFD54E" d="M98.4,154.5c0.4,0.2,0.4,0.6,0,0.9c-0.4,0.2-1.1,0.2-1.5,0s-0.4-0.6,0-0.9S97.9,154.3,98.4,154.5z"/>
				<path fill="#FFAA22" d="M97.6,155.8c-0.3,0-0.6-0.1-0.9-0.2c-0.3-0.2-0.4-0.4-0.4-0.6c0-0.2,0.1-0.4,0.4-0.6
					c0.5-0.3,1.3-0.3,1.7,0c0.3,0.2,0.4,0.4,0.4,0.6c0,0.2-0.1,0.4-0.4,0.6C98.2,155.7,97.9,155.8,97.6,155.8z M97.6,154.6
					c-0.3,0-0.5,0.1-0.7,0.2c-0.1,0.1-0.2,0.2-0.2,0.3c0,0.1,0.1,0.2,0.2,0.3c0.3,0.2,1,0.2,1.3,0c0.1-0.1,0.2-0.2,0.2-0.3
					c0-0.1-0.1-0.2-0.2-0.3C98.1,154.6,97.9,154.6,97.6,154.6z"/>
			</g>
			<g>
				<path fill="#FFD54E" d="M59,160.9c0.4,0.2,0.4,0.6,0,0.9c-0.4,0.2-1.1,0.2-1.5,0c-0.4-0.2-0.4-0.6,0-0.9
					C57.9,160.6,58.6,160.6,59,160.9z"/>
				<path fill="#FFAA22" d="M58.2,162.1c-0.3,0-0.6-0.1-0.9-0.2c-0.3-0.2-0.4-0.4-0.4-0.6c0-0.2,0.1-0.4,0.4-0.6
					c0.5-0.3,1.3-0.3,1.7,0c0.3,0.2,0.4,0.4,0.4,0.6c0,0.2-0.1,0.4-0.4,0.6C58.9,162,58.6,162.1,58.2,162.1z M58.2,160.9
					c-0.3,0-0.5,0.1-0.7,0.2c-0.1,0.1-0.2,0.2-0.2,0.3c0,0.1,0.1,0.2,0.2,0.3c0.3,0.2,1,0.2,1.4,0c0.1-0.1,0.2-0.2,0.2-0.3
					c0-0.1-0.1-0.2-0.2-0.3C58.7,160.9,58.5,160.9,58.2,160.9z"/>
			</g>
			<g>
				<path fill="#FFD54E" d="M87.7,132c0.4,0.2,0.4,0.6,0,0.9s-1.1,0.2-1.5,0c-0.4-0.2-0.4-0.6,0-0.9C86.6,131.8,87.3,131.8,87.7,132
					z"/>
				<path fill="#FFAA22" d="M86.9,133.2c-0.3,0-0.6-0.1-0.9-0.2c-0.3-0.2-0.4-0.4-0.4-0.6c0-0.2,0.1-0.4,0.4-0.6
					c0.5-0.3,1.3-0.3,1.7,0c0.3,0.2,0.4,0.4,0.4,0.6c0,0.2-0.1,0.4-0.4,0.6C87.6,133.2,87.3,133.2,86.9,133.2z M86.9,132
					c-0.3,0-0.5,0.1-0.7,0.2c-0.1,0.1-0.2,0.2-0.2,0.3c0,0.1,0.1,0.2,0.2,0.3c0.3,0.2,1,0.2,1.4,0c0.1-0.1,0.2-0.2,0.2-0.3
					c0-0.1-0.1-0.2-0.2-0.3C87.4,132.1,87.2,132,86.9,132z"/>
			</g>
			<g>
				
					<rect x="64.9" y="158.1" transform="matrix(0.408 0.913 -0.913 0.408 187.2718 27.7094)" fill="#FFAA22" width="14.8" height="0.4"/>
			</g>
			<g>
				<path fill="#FFAA22" d="M70,151.1c0.4,0.2,0.4,0.6,0,0.9c-0.4,0.2-1.1,0.2-1.5,0s-0.4-0.6,0-0.9C68.9,150.9,69.6,150.9,70,151.1
					z"/>
				<path fill="#FFD54E" d="M69.3,152.3c-0.3,0-0.6-0.1-0.9-0.2c-0.3-0.2-0.4-0.4-0.4-0.6s0.1-0.4,0.4-0.6c0.5-0.3,1.3-0.3,1.7,0
					c0.3,0.2,0.4,0.4,0.4,0.6s-0.1,0.4-0.4,0.6C69.9,152.3,69.6,152.3,69.3,152.3z M69.3,151.1c-0.3,0-0.5,0.1-0.7,0.2
					c-0.1,0.1-0.2,0.2-0.2,0.3c0,0.1,0.1,0.2,0.2,0.3c0.3,0.2,1,0.2,1.4,0c0.1-0.1,0.2-0.2,0.2-0.3c0-0.1-0.1-0.2-0.2-0.3
					C69.8,151.2,69.5,151.1,69.3,151.1z"/>
			</g>
			<g>
				<path fill="#FFD54E" d="M76.1,165.2c0.4,0.2,0.4,0.6,0,0.9c-0.4,0.2-1.1,0.2-1.5,0c-0.4-0.2-0.4-0.6,0-0.9
					S75.7,164.9,76.1,165.2z"/>
				<path fill="#FFAA22" d="M75.4,166.4c-0.3,0-0.6-0.1-0.9-0.2c-0.3-0.2-0.4-0.4-0.4-0.6c0-0.2,0.1-0.4,0.4-0.6
					c0.5-0.3,1.3-0.3,1.7,0c0.3,0.2,0.4,0.4,0.4,0.6c0,0.2-0.1,0.4-0.4,0.6C76,166.3,75.7,166.4,75.4,166.4z M75.4,165.2
					c-0.3,0-0.5,0.1-0.7,0.2c-0.1,0.1-0.2,0.2-0.2,0.3c0,0.1,0.1,0.2,0.2,0.3c0.3,0.2,1,0.2,1.3,0c0.1-0.1,0.2-0.2,0.2-0.3
					c0-0.1-0.1-0.2-0.2-0.3C75.9,165.2,75.6,165.2,75.4,165.2z"/>
			</g>
		</g>
		<g opacity="0.8">
			<g>
				<polygon fill="#FFAA22" points="17.4,116.6 74.5,84.8 131.6,116.6 74.5,148.3 				"/>
				<path fill="#FFCA22" d="M74.5,148.6l-0.1-0.1l-57.5-31.9l57.6-32l0.1,0.1l57.5,31.9L74.5,148.6z M18,116.6L74.5,148l56.6-31.4
					L74.5,85.1L18,116.6z"/>
			</g>
			<g>
				
					<rect x="98.7" y="110.7" transform="matrix(0.6587 0.7524 -0.7524 0.6587 126.4545 -32.3565)" fill="#FF8A4C" width="0.4" height="25"/>
			</g>
			<g>
				
					<rect x="97.3" y="106.8" transform="matrix(0.263 0.9648 -0.9648 0.263 185.641 -7.1636)" fill="#FF8A4C" width="0.4" height="22.3"/>
			</g>
			<g>
				
					<rect x="75" y="113.1" transform="matrix(0.4164 0.9092 -0.9092 0.4164 151.6287 -9.5869)" fill="#FF8A4C" width="16.6" height="0.4"/>
			</g>
			<g>
				
					<rect x="51.4" y="103.9" transform="matrix(0.9927 0.1204 -0.1204 0.9927 13.0101 -7.1501)" fill="#FBA925" width="28.5" height="0.4"/>
			</g>
			<g>
				
					<rect x="62.4" y="84.7" transform="matrix(0.4321 0.9018 -0.9018 0.4321 123.0393 -1.3509)" fill="#FF8A4C" width="0.4" height="24.6"/>
			</g>
			<g>
				
					<rect x="74.2" y="110.4" transform="matrix(0.1589 0.9873 -0.9873 0.1589 183.9152 29.8421)" fill="#FFCA22" width="0.4" height="24.9"/>
			</g>
			<g>
				
					<rect x="57" y="132.8" transform="matrix(0.4336 0.9011 -0.9011 0.4336 157.2315 15.796)" fill="#FBA925" width="18" height="0.4"/>
			</g>
			<g>
				
					<rect x="60.9" y="127.7" transform="matrix(0.9703 0.2417 -0.2417 0.9703 33.1628 -14.443)" fill="#FBA925" width="29" height="0.4"/>
			</g>
			<g>
				
					<rect x="40.9" y="114.4" transform="matrix(0.9912 0.1327 -0.1327 0.9912 16.2254 -4.3997)" fill="#FBA925" width="0.4" height="10.4"/>
			</g>
			<g>
				
					<rect x="59.5" y="94" transform="matrix(0.4321 0.9018 -0.9018 0.4321 138.0444 11.6854)" fill="#FFCA22" width="0.4" height="42.8"/>
			</g>
			<g>
				
					<rect x="39.5" y="124.5" transform="matrix(0.9287 0.3707 -0.3707 0.9287 49.756 -5.6899)" fill="#FBA925" width="0.4" height="4.1"/>
			</g>
			<g>
				
					<rect x="65.9" y="137.4" transform="matrix(4.168478e-02 0.9991 -0.9991 4.168478e-02 204.4643 69.339)" fill="#FFCA22" width="0.4" height="7.8"/>
			</g>
			<g>
				
					<rect x="117" y="105.1" transform="matrix(9.898788e-02 0.9951 -0.9951 9.898788e-02 219.1155 -13.8149)" fill="#FF8A4C" width="0.4" height="17.9"/>
			</g>
			<g>
				
					<rect x="90.9" y="109.6" transform="matrix(0.7451 0.6669 -0.6669 0.7451 100.6138 -31.1531)" fill="#FBA925" width="0.4" height="13"/>
			</g>
			<g>
				
					<rect x="73.4" y="93.7" transform="matrix(0.9698 0.2437 -0.2437 0.9698 25.3543 -17.2226)" fill="#FBA925" width="17.7" height="0.4"/>
			</g>
			<g>
				
					<rect x="49.4" y="104.7" transform="matrix(0.2161 0.9764 -0.9764 0.2161 148.9108 39.9057)" fill="#FFCA22" width="0.4" height="15.9"/>
			</g>
			<g>
				
					<rect x="32.8" y="110.6" transform="matrix(0.7226 0.6913 -0.6913 0.7226 87.1527 4.4364)" fill="#FF8A4C" width="10.4" height="0.4"/>
			</g>
			<g>
				
					<rect x="48" y="133.4" transform="matrix(0.9998 1.973423e-02 -1.973423e-02 0.9998 2.6463 -0.9756)" fill="#FFCA22" width="5.5" height="0.4"/>
			</g>
			<g>
				
					<rect x="86.5" y="130.7" transform="matrix(0.8709 0.4915 -0.4915 0.8709 78.2226 -25.0156)" fill="#FBA925" width="0.4" height="11.3"/>
			</g>
			<g>
				
					<rect x="85.2" y="103.4" transform="matrix(0.2852 0.9585 -0.9585 0.2852 165.8784 -15.1841)" fill="#FFCA22" width="15.9" height="0.4"/>
			</g>
			<g>
				
					<rect x="100.1" y="99.8" transform="matrix(0.6946 0.7194 -0.7194 0.6946 107.2469 -39.5894)" fill="#FBA925" width="0.4" height="13.5"/>
			</g>
			<g>
				
					<rect x="44.5" y="101.7" transform="matrix(0.9928 0.1199 -0.1199 0.9928 12.5692 -5.024)" fill="#FFCA22" width="7" height="0.4"/>
			</g>
			<g>
				
					<rect x="73.9" y="84.8" transform="matrix(0.9926 0.1211 -0.1211 0.9926 11.2396 -8.3295)" fill="#FFCA22" width="0.4" height="6.9"/>
			</g>
			<g>
				
					<rect x="59.4" y="132.9" transform="matrix(0.798 0.6027 -0.6027 0.798 94.9572 -17.1356)" fill="#FF8A4C" width="27.3" height="0.4"/>
			</g>
			<g>
				
					<rect x="106.6" y="119.3" transform="matrix(0.7449 0.6672 -0.6672 0.7449 108.6051 -45.1066)" fill="#FFCA22" width="13.5" height="0.4"/>
			</g>
			<g>
				
					<rect x="23.3" y="122.3" transform="matrix(0.969 0.2471 -0.2471 0.969 31.2783 -4.1089)" fill="#FBA925" width="17.4" height="0.4"/>
			</g>
			<g>
				
					<rect x="23.1" y="113.7" transform="matrix(0.9985 5.439089e-02 -5.439089e-02 0.9985 6.2435 -1.5977)" fill="#FF8A4C" width="18.7" height="0.4"/>
			</g>
			<g>
				
					<rect x="109.8" y="105.2" transform="matrix(0.9376 0.3477 -0.3477 0.9376 45.199 -31.3769)" fill="#FF8A4C" width="0.4" height="10.1"/>
			</g>
			<g>
				
					<rect x="89.4" y="132.3" transform="matrix(0.9812 0.1932 -0.1932 0.9812 27.3993 -15.8896)" fill="#FBA925" width="11.5" height="0.4"/>
			</g>
			<g>
				<rect x="69.7" y="141.1" fill="#FBA925" width="0.4" height="4.6"/>
			</g>
			<g>
				<polygon fill="#B6673D" points="74.5,148.3 17.4,116.6 17.4,117.4 74.5,149.1 131.6,117.4 131.6,116.6 131.6,116.6 				"/>
			</g>
			<g>
				
					<rect x="40.4" y="124.6" transform="matrix(1 7.084105e-03 -7.084105e-03 1 0.8852 -0.3602)" fill="#FF8A4C" width="21.7" height="0.4"/>
			</g>
			<g>
				<path fill="#FFAA22" d="M88.7,131.9c-0.4-0.2-0.4-0.6,0-0.9c0.4-0.2,1.1-0.2,1.5,0s0.4,0.6,0,0.9S89.2,132.1,88.7,131.9z"/>
				<path fill="#FFD54E" d="M89.5,132.2c-0.3,0-0.6-0.1-0.9-0.2c-0.3-0.2-0.4-0.4-0.4-0.6c0-0.2,0.1-0.4,0.4-0.6
					c0.5-0.3,1.3-0.3,1.7,0c0.3,0.2,0.4,0.4,0.4,0.6c0,0.2-0.1,0.4-0.4,0.6C90.1,132.2,89.8,132.2,89.5,132.2z M89.5,131
					c-0.3,0-0.5,0.1-0.7,0.2c-0.1,0.1-0.2,0.2-0.2,0.3c0,0.1,0.1,0.2,0.2,0.3c0.3,0.2,1,0.2,1.3,0c0.1-0.1,0.2-0.2,0.2-0.3
					c0-0.1-0.1-0.2-0.2-0.3C90,131.1,89.8,131,89.5,131z"/>
			</g>
			<g>
				<path fill="#FFAA22" d="M94.6,111.7c-0.4-0.2-0.4-0.6,0-0.9c0.4-0.2,1.1-0.2,1.5,0s0.4,0.6,0,0.9
					C95.7,111.9,95,111.9,94.6,111.7z"/>
				<path fill="#FFD54E" d="M95.4,112c-0.3,0-0.6-0.1-0.9-0.2c-0.3-0.2-0.4-0.4-0.4-0.6c0-0.2,0.1-0.4,0.4-0.6
					c0.5-0.3,1.3-0.3,1.7,0c0.3,0.2,0.4,0.4,0.4,0.6c0,0.2-0.1,0.4-0.4,0.6C96,112,95.7,112,95.4,112z M95.4,110.8
					c-0.3,0-0.5,0.1-0.7,0.2c-0.1,0.1-0.2,0.2-0.2,0.3c0,0.1,0.1,0.2,0.2,0.3c0.3,0.2,1,0.2,1.4,0c0.1-0.1,0.2-0.2,0.2-0.3
					c0-0.1-0.1-0.2-0.2-0.3C95.9,110.9,95.6,110.8,95.4,110.8z"/>
			</g>
			<g>
				<path fill="#FFAA22" d="M83.2,141.7c-0.4-0.2-0.4-0.6,0-0.9c0.4-0.2,1.1-0.2,1.5,0s0.4,0.6,0,0.9S83.6,142,83.2,141.7z"/>
				<path fill="#FFD54E" d="M83.9,142.1c-0.3,0-0.6-0.1-0.9-0.2c-0.3-0.2-0.4-0.4-0.4-0.6c0-0.2,0.1-0.4,0.4-0.6
					c0.5-0.3,1.3-0.3,1.7,0c0.3,0.2,0.4,0.4,0.4,0.6c0,0.2-0.1,0.4-0.4,0.6C84.6,142,84.3,142.1,83.9,142.1z M83.9,140.9
					c-0.3,0-0.5,0.1-0.7,0.2c-0.1,0.1-0.2,0.2-0.2,0.3s0.1,0.2,0.2,0.3c0.3,0.2,1,0.2,1.3,0c0.1-0.1,0.2-0.2,0.2-0.3
					s-0.1-0.2-0.2-0.3C84.4,141,84.2,140.9,83.9,140.9z"/>
			</g>
			<g>
				<path fill="#FFAA22" d="M56.6,111.4c-0.4-0.2-0.4-0.6,0-0.9c0.4-0.2,1.1-0.2,1.5,0c0.4,0.2,0.4,0.6,0,0.9
					C57.7,111.6,57,111.6,56.6,111.4z"/>
				<path fill="#FFD54E" d="M57.4,111.8c-0.3,0-0.6-0.1-0.9-0.2c-0.3-0.2-0.4-0.4-0.4-0.6c0-0.2,0.1-0.4,0.4-0.6
					c0.5-0.3,1.3-0.3,1.7,0c0.3,0.2,0.4,0.4,0.4,0.6c0,0.2-0.1,0.4-0.4,0.6C58,111.7,57.7,111.8,57.4,111.8z M57.4,110.6
					c-0.3,0-0.5,0.1-0.7,0.2c-0.1,0.1-0.2,0.2-0.2,0.3c0,0.1,0.1,0.2,0.2,0.3c0.3,0.2,1,0.2,1.3,0c0.1-0.1,0.2-0.2,0.2-0.3
					c0-0.1-0.1-0.2-0.2-0.3C57.9,110.6,57.6,110.6,57.4,110.6z"/>
			</g>
			<g>
				<path fill="#FFD54E" d="M69.2,141.5c-0.4-0.2-0.4-0.6,0-0.9c0.4-0.2,1.1-0.2,1.5,0s0.4,0.6,0,0.9S69.6,141.8,69.2,141.5z"/>
				<path fill="#FFAA22" d="M70,141.9c-0.3,0-0.6-0.1-0.9-0.2c-0.3-0.2-0.4-0.4-0.4-0.6c0-0.2,0.1-0.4,0.4-0.6
					c0.5-0.3,1.3-0.3,1.7,0c0.3,0.2,0.4,0.4,0.4,0.6c0,0.2-0.1,0.4-0.4,0.6C70.6,141.8,70.3,141.9,70,141.9z M70,140.7
					c-0.3,0-0.5,0.1-0.7,0.2c-0.1,0.1-0.2,0.2-0.2,0.3c0,0.1,0.1,0.2,0.2,0.3c0.3,0.2,1,0.2,1.3,0c0.1-0.1,0.2-0.2,0.2-0.3
					c0-0.1-0.1-0.2-0.2-0.3C70.5,140.7,70.2,140.7,70,140.7z"/>
			</g>
			<g>
				<path fill="#FFD54E" d="M39.7,125.1c-0.4-0.2-0.4-0.6,0-0.9c0.4-0.2,1.1-0.2,1.5,0c0.4,0.2,0.4,0.6,0,0.9
					C40.8,125.4,40.1,125.4,39.7,125.1z"/>
				<path fill="#FFAA22" d="M40.4,125.5c-0.3,0-0.6-0.1-0.9-0.2c-0.3-0.2-0.4-0.4-0.4-0.6c0-0.2,0.1-0.4,0.4-0.6
					c0.5-0.3,1.3-0.3,1.7,0c0.3,0.2,0.4,0.4,0.4,0.6c0,0.2-0.1,0.4-0.4,0.6C41.1,125.4,40.8,125.5,40.4,125.5z M40.4,124.3
					c-0.3,0-0.5,0.1-0.7,0.2c-0.1,0.1-0.2,0.2-0.2,0.3c0,0.1,0.1,0.2,0.2,0.3c0.3,0.2,1,0.2,1.3,0c0.1-0.1,0.2-0.2,0.2-0.3
					c0-0.1-0.1-0.2-0.2-0.3C40.9,124.3,40.7,124.3,40.4,124.3z"/>
			</g>
			<g>
				<path fill="#FFD54E" d="M52.7,134.1c-0.4-0.2-0.4-0.6,0-0.9c0.4-0.2,1.1-0.2,1.5,0c0.4,0.2,0.4,0.6,0,0.9
					C53.8,134.3,53.1,134.3,52.7,134.1z"/>
				<path fill="#FFAA22" d="M53.5,134.5c-0.3,0-0.6-0.1-0.9-0.2c-0.3-0.2-0.4-0.4-0.4-0.6c0-0.2,0.1-0.4,0.4-0.6
					c0.5-0.3,1.3-0.3,1.7,0c0.3,0.2,0.4,0.4,0.4,0.6c0,0.2-0.1,0.4-0.4,0.6C54.1,134.4,53.8,134.5,53.5,134.5z M53.5,133.2
					c-0.3,0-0.5,0.1-0.7,0.2c-0.1,0.1-0.2,0.2-0.2,0.3c0,0.1,0.1,0.2,0.2,0.3c0.3,0.2,1,0.2,1.3,0c0.1-0.1,0.2-0.2,0.2-0.3
					c0-0.1-0.1-0.2-0.2-0.3C54,133.3,53.7,133.2,53.5,133.2z"/>
			</g>
			<g>
				<path fill="#FFD54E" d="M107.5,115.4c-0.4-0.2-0.4-0.6,0-0.9c0.4-0.2,1.1-0.2,1.5,0s0.4,0.6,0,0.9S107.9,115.6,107.5,115.4z"/>
				<path fill="#FFAA22" d="M108.3,115.8c-0.3,0-0.6-0.1-0.9-0.2c-0.3-0.2-0.4-0.4-0.4-0.6c0-0.2,0.1-0.4,0.4-0.6
					c0.5-0.3,1.3-0.3,1.7,0c0.3,0.2,0.4,0.4,0.4,0.6c0,0.2-0.1,0.4-0.4,0.6C108.9,115.7,108.6,115.8,108.3,115.8z M108.3,114.6
					c-0.3,0-0.5,0.1-0.7,0.2c-0.1,0.1-0.2,0.2-0.2,0.3c0,0.1,0.1,0.2,0.2,0.3c0.3,0.2,1,0.2,1.3,0c0.1-0.1,0.2-0.2,0.2-0.3
					c0-0.1-0.1-0.2-0.2-0.3C108.8,114.6,108.5,114.6,108.3,114.6z"/>
			</g>
			<g>
				<path fill="#FFD54E" d="M86,121.3c-0.4-0.2-0.4-0.6,0-0.9s1.1-0.2,1.5,0c0.4,0.2,0.4,0.6,0,0.9C87.1,121.5,86.4,121.5,86,121.3z
					"/>
				<path fill="#FFAA22" d="M86.7,121.7c-0.3,0-0.6-0.1-0.9-0.2c-0.3-0.2-0.4-0.4-0.4-0.6c0-0.2,0.1-0.4,0.4-0.6
					c0.5-0.3,1.3-0.3,1.7,0c0.3,0.2,0.4,0.4,0.4,0.6c0,0.2-0.1,0.4-0.4,0.6C87.4,121.6,87.1,121.7,86.7,121.7z M86.7,120.5
					c-0.3,0-0.5,0.1-0.7,0.2c-0.1,0.1-0.2,0.2-0.2,0.3c0,0.1,0.1,0.2,0.2,0.3c0.3,0.2,1,0.2,1.3,0c0.1-0.1,0.2-0.2,0.2-0.3
					c0-0.1-0.1-0.2-0.2-0.3C87.2,120.5,87,120.5,86.7,120.5z"/>
			</g>
			<g>
				<path fill="#FFD54E" d="M41,114.8c-0.4-0.2-0.4-0.6,0-0.9c0.4-0.2,1.1-0.2,1.5,0c0.4,0.2,0.4,0.6,0,0.9
					C42.2,115.1,41.5,115.1,41,114.8z"/>
				<path fill="#FFAA22" d="M41.8,115.2c-0.3,0-0.6-0.1-0.9-0.2c-0.3-0.2-0.4-0.4-0.4-0.6c0-0.2,0.1-0.4,0.4-0.6
					c0.5-0.3,1.3-0.3,1.7,0c0.3,0.2,0.4,0.4,0.4,0.6c0,0.2-0.1,0.4-0.4,0.6C42.4,115.1,42.1,115.2,41.8,115.2z M41.8,114
					c-0.3,0-0.5,0.1-0.7,0.2c-0.1,0.1-0.2,0.2-0.2,0.3c0,0.1,0.1,0.2,0.2,0.3c0.3,0.2,1,0.2,1.3,0c0.1-0.1,0.2-0.2,0.2-0.3
					c0-0.1-0.1-0.2-0.2-0.3C42.3,114.1,42.1,114,41.8,114z"/>
			</g>
			<g>
				<path fill="#FFD54E" d="M50.7,102.8c-0.4-0.2-0.4-0.6,0-0.9c0.4-0.2,1.1-0.2,1.5,0c0.4,0.2,0.4,0.6,0,0.9
					C51.8,103,51.1,103,50.7,102.8z"/>
				<path fill="#FFAA22" d="M51.5,103.1c-0.3,0-0.6-0.1-0.9-0.2c-0.3-0.2-0.4-0.4-0.4-0.6c0-0.2,0.1-0.4,0.4-0.6
					c0.5-0.3,1.3-0.3,1.7,0c0.3,0.2,0.4,0.4,0.4,0.6c0,0.2-0.1,0.4-0.4,0.6C52.1,103.1,51.8,103.1,51.5,103.1z M51.5,101.9
					c-0.3,0-0.5,0.1-0.7,0.2c-0.1,0.1-0.2,0.2-0.2,0.3c0,0.1,0.1,0.2,0.2,0.3c0.3,0.2,1,0.2,1.3,0c0.1-0.1,0.2-0.2,0.2-0.3
					c0-0.1-0.1-0.2-0.2-0.3C52,102,51.7,101.9,51.5,101.9z"/>
			</g>
			<g>
				<path fill="#FFD54E" d="M90.1,96.4c-0.4-0.2-0.4-0.6,0-0.9s1.1-0.2,1.5,0c0.4,0.2,0.4,0.6,0,0.9C91.2,96.7,90.5,96.7,90.1,96.4z
					"/>
				<path fill="#FFAA22" d="M90.9,96.8c-0.3,0-0.6-0.1-0.9-0.2c-0.3-0.2-0.4-0.4-0.4-0.6c0-0.2,0.1-0.4,0.4-0.6
					c0.5-0.3,1.3-0.3,1.7,0c0.3,0.2,0.4,0.4,0.4,0.6c0,0.2-0.1,0.4-0.4,0.6C91.5,96.7,91.2,96.8,90.9,96.8z M90.9,95.6
					c-0.3,0-0.5,0.1-0.7,0.2C90,95.8,90,95.9,90,96c0,0.1,0.1,0.2,0.2,0.3c0.3,0.2,1,0.2,1.3,0c0.1-0.1,0.2-0.2,0.2-0.3
					c0-0.1-0.1-0.2-0.2-0.3C91.4,95.7,91.1,95.6,90.9,95.6z"/>
			</g>
			<g>
				<path fill="#FFD54E" d="M61.4,125.3c-0.4-0.2-0.4-0.6,0-0.9s1.1-0.2,1.5,0s0.4,0.6,0,0.9S61.8,125.5,61.4,125.3z"/>
				<path fill="#FFAA22" d="M62.1,125.6c-0.3,0-0.6-0.1-0.9-0.2c-0.3-0.2-0.4-0.4-0.4-0.6c0-0.2,0.1-0.4,0.4-0.6
					c0.5-0.3,1.3-0.3,1.7,0c0.3,0.2,0.4,0.4,0.4,0.6c0,0.2-0.1,0.4-0.4,0.6C62.8,125.6,62.5,125.6,62.1,125.6z M62.1,124.4
					c-0.3,0-0.5,0.1-0.7,0.2c-0.1,0.1-0.2,0.2-0.2,0.3c0,0.1,0.1,0.2,0.2,0.3c0.3,0.2,1,0.2,1.3,0c0.1-0.1,0.2-0.2,0.2-0.3
					c0-0.1-0.1-0.2-0.2-0.3C62.6,124.5,62.4,124.4,62.1,124.4z"/>
			</g>
			<g>
				
					<rect x="69.4" y="98.8" transform="matrix(0.408 0.913 -0.913 0.408 135.8912 -11.4994)" fill="#FF8A4C" width="14.8" height="0.4"/>
			</g>
			<g>
				<path fill="#FFAA22" d="M79.1,106.2c-0.4-0.2-0.4-0.6,0-0.9s1.1-0.2,1.5,0s0.4,0.6,0,0.9S79.5,106.4,79.1,106.2z"/>
				<path fill="#FFD54E" d="M79.8,106.6c-0.3,0-0.6-0.1-0.9-0.2c-0.3-0.2-0.4-0.4-0.4-0.6c0-0.2,0.1-0.4,0.4-0.6
					c0.5-0.3,1.3-0.3,1.7,0c0.3,0.2,0.4,0.4,0.4,0.6c0,0.2-0.1,0.4-0.4,0.6C80.5,106.5,80.1,106.6,79.8,106.6z M79.8,105.4
					c-0.3,0-0.5,0.1-0.7,0.2c-0.1,0.1-0.2,0.2-0.2,0.3c0,0.1,0.1,0.2,0.2,0.3c0.3,0.2,1,0.2,1.3,0c0.1-0.1,0.2-0.2,0.2-0.3
					c0-0.1-0.1-0.2-0.2-0.3C80.3,105.4,80.1,105.4,79.8,105.4z"/>
			</g>
			<g>
				<path fill="#FFD54E" d="M72.9,92.1c-0.4-0.2-0.4-0.6,0-0.9s1.1-0.2,1.5,0c0.4,0.2,0.4,0.6,0,0.9C74,92.4,73.4,92.4,72.9,92.1z"
					/>
				<path fill="#FFAA22" d="M73.7,92.5c-0.3,0-0.6-0.1-0.9-0.2c-0.3-0.2-0.4-0.4-0.4-0.6c0-0.2,0.1-0.4,0.4-0.6
					c0.5-0.3,1.3-0.3,1.7,0c0.3,0.2,0.4,0.4,0.4,0.6c0,0.2-0.1,0.4-0.4,0.6C74.3,92.4,74,92.5,73.7,92.5z M73.7,91.3
					c-0.3,0-0.5,0.1-0.7,0.2c-0.1,0.1-0.2,0.2-0.2,0.3c0,0.1,0.1,0.2,0.2,0.3c0.3,0.2,1,0.2,1.3,0c0.1-0.1,0.2-0.2,0.2-0.3
					c0-0.1-0.1-0.2-0.2-0.3C74.2,91.3,74,91.3,73.7,91.3z"/>
			</g>
		</g>
		<g opacity="0.8">
			<g>
				<polygon fill="#FF6D1F" points="131.6,92.4 74.5,124.1 17.4,92.4 74.5,60.7 				"/>
			</g>
			<g>
				
					<rect x="50" y="73.2" transform="matrix(0.6587 0.7524 -0.7524 0.6587 81.6285 -8.5057)" fill="#FFA779" width="0.4" height="25"/>
			</g>
			<g>
				
					<rect x="51.4" y="79.8" transform="matrix(0.263 0.9648 -0.9648 0.263 125.8021 17.3084)" fill="#FBA925" width="0.4" height="22.3"/>
			</g>
			<g>
				
					<rect x="57.7" y="95.6" transform="matrix(0.4164 0.9092 -0.9092 0.4164 125.585 -4.0886)" fill="#FFA779" width="16.6" height="0.4"/>
			</g>
			<g>
				
					<rect x="69.2" y="104.7" transform="matrix(0.9927 0.1204 -0.1204 0.9927 13.24 -9.2853)" fill="#FBA925" width="28.5" height="0.4"/>
			</g>
			<g>
				
					<rect x="86.3" y="99.6" transform="matrix(0.4321 0.9018 -0.9018 0.4321 150.0514 -14.439)" fill="#FBA925" width="0.4" height="24.6"/>
			</g>
			<g>
				
					<rect x="74.4" y="73.6" transform="matrix(0.1589 0.9873 -0.9873 0.1589 147.7487 -1.302)" fill="#FFCA22" width="0.4" height="24.9"/>
			</g>
			<g>
				
					<rect x="74" y="75.8" transform="matrix(0.4336 0.9011 -0.9011 0.4336 115.4725 -31.7979)" fill="#FFA779" width="18" height="0.4"/>
			</g>
			<g>
				
					<rect x="59.1" y="80.8" transform="matrix(0.9703 0.2417 -0.2417 0.9703 21.7656 -15.3997)" fill="#FBA925" width="29" height="0.4"/>
			</g>
			<g>
				
					<rect x="107.8" y="84.2" transform="matrix(0.9912 0.1327 -0.1327 0.9912 12.8119 -13.5327)" fill="#FBA925" width="0.4" height="10.4"/>
			</g>
			<g>
				
					<rect x="89.1" y="72.1" transform="matrix(0.4321 0.9018 -0.9018 0.4321 135.0461 -27.4751)" fill="#FFCA22" width="0.4" height="42.8"/>
			</g>
			<g>
				
					<rect x="109.2" y="80.3" transform="matrix(0.9287 0.3707 -0.3707 0.9287 38.3196 -34.6903)" fill="#FBA925" width="0.4" height="4.1"/>
			</g>
			<g>
				
					<rect x="82.8" y="63.8" transform="matrix(4.168478e-02 0.9991 -0.9991 4.168478e-02 147.1478 -18.0729)" fill="#FFCA22" width="0.4" height="7.8"/>
			</g>
			<g>
				
					<rect x="31.7" y="85.9" transform="matrix(9.898788e-02 0.9951 -0.9951 9.898788e-02 123.1095 53.7111)" fill="#FFA779" width="0.4" height="17.9"/>
			</g>
			<g>
				
					<rect x="57.8" y="86.4" transform="matrix(0.7451 0.6669 -0.6669 0.7451 76.7295 -15.0222)" fill="#FBA925" width="0.4" height="13"/>
			</g>
			<g>
				
					<rect x="58" y="114.9" transform="matrix(0.9698 0.2437 -0.2437 0.9698 30.0608 -12.8115)" fill="#FBA925" width="17.7" height="0.4"/>
			</g>
			<g>
				
					<rect x="99.5" y="88.4" transform="matrix(0.2161 0.9764 -0.9764 0.2161 172.2577 -21.722)" fill="#FFA779" width="0.4" height="15.9"/>
			</g>
			<g>
				
					<rect x="105.8" y="97.9" transform="matrix(0.7226 0.6913 -0.6913 0.7226 98.6285 -49.5358)" fill="#FBA925" width="10.4" height="0.4"/>
			</g>
			<g>
				
					<rect x="95.6" y="75.1" transform="matrix(0.9998 1.973607e-02 -1.973607e-02 0.9998 1.5059 -1.9259)" fill="#FBA925" width="5.5" height="0.4"/>
			</g>
			<g>
				
					<rect x="62.2" y="66.9" transform="matrix(0.8709 0.4915 -0.4915 0.8709 43.7143 -21.2806)" fill="#FBA925" width="0.4" height="11.3"/>
			</g>
			<g>
				
					<rect x="48" y="105.1" transform="matrix(0.2852 0.9585 -0.9585 0.2852 140.9389 21.639)" fill="#FFCA22" width="15.9" height="0.4"/>
			</g>
			<g>
				
					<rect x="48.6" y="95.6" transform="matrix(0.6946 0.7194 -0.7194 0.6946 88.5694 -3.8559)" fill="#FFA779" width="0.4" height="13.5"/>
			</g>
			<g>
				
					<rect x="97.6" y="106.8" transform="matrix(0.9928 0.12 -0.12 0.9928 13.569 -11.3513)" fill="#FFCA22" width="7" height="0.4"/>
			</g>
			<g>
				
					<rect x="74.8" y="117.2" transform="matrix(0.9926 0.1211 -0.1211 0.9926 15.1696 -8.1926)" fill="#FFCA22" width="0.4" height="6.9"/>
			</g>
			<g>
				
					<rect x="62.4" y="75.7" transform="matrix(0.798 0.6027 -0.6027 0.798 61.0726 -30.5059)" fill="#FBA925" width="27.3" height="0.4"/>
			</g>
			<g>
				
					<rect x="29.1" y="89.3" transform="matrix(0.7449 0.6672 -0.6672 0.7449 68.8118 -1.0602)" fill="#FFCA22" width="13.5" height="0.4"/>
			</g>
			<g>
				
					<rect x="108.4" y="86.2" transform="matrix(0.969 0.2471 -0.2471 0.969 24.9803 -26.2541)" fill="#FBA925" width="17.4" height="0.4"/>
			</g>
			<g>
				
					<rect x="107.3" y="94.8" transform="matrix(0.9985 5.440595e-02 -5.440595e-02 0.9985 5.3425 -6.2034)" fill="#FFA779" width="18.7" height="0.4"/>
			</g>
			<g>
				
					<rect x="38.9" y="93.6" transform="matrix(0.9376 0.3477 -0.3477 0.9376 36.7456 -7.4227)" fill="#FBA925" width="0.4" height="10.1"/>
			</g>
			<g>
				
					<rect x="48.1" y="76.2" transform="matrix(0.9812 0.1932 -0.1932 0.9812 15.7717 -8.9756)" fill="#FBA925" width="11.5" height="0.4"/>
			</g>
			<g>
				<rect x="78.9" y="63.2" fill="#FBA925" width="0.4" height="4.6"/>
			</g>
			<g>
				<polygon fill="#B6673D" points="74.5,124.1 17.4,92.4 17.4,93.2 74.5,125 131.6,93.2 131.6,92.4 131.6,92.4 				"/>
			</g>
			<g>
				
					<rect x="86.9" y="84" transform="matrix(1 7.084272e-03 -7.084272e-03 1 0.5986 -0.6907)" fill="#FBA925" width="21.7" height="0.4"/>
			</g>
			<g>
				<path fill="#FFAA22" d="M60.3,77.1c0.4,0.2,0.4,0.6,0,0.9c-0.4,0.2-1.1,0.2-1.5,0c-0.4-0.2-0.4-0.6,0-0.9
					C59.2,76.8,59.9,76.8,60.3,77.1z"/>
				<path fill="#FFD54E" d="M59.6,78.3c-0.3,0-0.6-0.1-0.9-0.2c-0.3-0.2-0.4-0.4-0.4-0.6c0-0.2,0.1-0.4,0.4-0.6
					c0.5-0.3,1.3-0.3,1.7,0c0.3,0.2,0.4,0.4,0.4,0.6c0,0.2-0.1,0.4-0.4,0.6C60.2,78.2,59.9,78.3,59.6,78.3z M59.6,77.1
					c-0.3,0-0.5,0.1-0.7,0.2c-0.1,0.1-0.2,0.2-0.2,0.3c0,0.1,0.1,0.2,0.2,0.3c0.3,0.2,1,0.2,1.3,0c0.1-0.1,0.2-0.2,0.2-0.3
					c0-0.1-0.1-0.2-0.2-0.3C60.1,77.1,59.8,77.1,59.6,77.1z"/>
			</g>
			<g>
				<path fill="#FFAA22" d="M54.5,97.3c0.4,0.2,0.4,0.6,0,0.9c-0.4,0.2-1.1,0.2-1.5,0c-0.4-0.2-0.4-0.6,0-0.9
					C53.4,97,54,97,54.5,97.3z"/>
				<path fill="#FFD54E" d="M53.7,98.5c-0.3,0-0.6-0.1-0.9-0.2c-0.3-0.2-0.4-0.4-0.4-0.6c0-0.2,0.1-0.4,0.4-0.6
					c0.5-0.3,1.3-0.3,1.7,0c0.3,0.2,0.4,0.4,0.4,0.6c0,0.2-0.1,0.4-0.4,0.6C54.3,98.4,54,98.5,53.7,98.5z M53.7,97.3
					c-0.3,0-0.5,0.1-0.7,0.2c-0.1,0.1-0.2,0.2-0.2,0.3c0,0.1,0.1,0.2,0.2,0.3c0.3,0.2,1,0.2,1.3,0c0.1-0.1,0.2-0.2,0.2-0.3
					c0-0.1-0.1-0.2-0.2-0.3C54.2,97.3,54,97.3,53.7,97.3z"/>
			</g>
			<g>
				<path fill="#FFAA22" d="M65.9,67.2c0.4,0.2,0.4,0.6,0,0.9s-1.1,0.2-1.5,0c-0.4-0.2-0.4-0.6,0-0.9C64.8,67,65.5,67,65.9,67.2z"/>
				<path fill="#FFD54E" d="M65.1,68.4c-0.3,0-0.6-0.1-0.9-0.2c-0.3-0.2-0.4-0.4-0.4-0.6c0-0.2,0.1-0.4,0.4-0.6
					c0.5-0.3,1.3-0.3,1.7,0c0.3,0.2,0.4,0.4,0.4,0.6c0,0.2-0.1,0.4-0.4,0.6C65.8,68.3,65.5,68.4,65.1,68.4z M65.1,67.2
					c-0.3,0-0.5,0.1-0.7,0.2c-0.1,0.1-0.2,0.2-0.2,0.3c0,0.1,0.1,0.2,0.2,0.3c0.3,0.2,1,0.2,1.3,0c0.1-0.1,0.2-0.2,0.2-0.3
					c0-0.1-0.1-0.2-0.2-0.3C65.6,67.3,65.4,67.2,65.1,67.2z"/>
			</g>
			<g>
				<path fill="#FFAA22" d="M92.5,97.5c0.4,0.2,0.4,0.6,0,0.9c-0.4,0.2-1.1,0.2-1.5,0s-0.4-0.6,0-0.9S92,97.3,92.5,97.5z"/>
				<path fill="#FFD54E" d="M91.7,98.8c-0.3,0-0.6-0.1-0.9-0.2c-0.3-0.2-0.4-0.4-0.4-0.6c0-0.2,0.1-0.4,0.4-0.6
					c0.5-0.3,1.3-0.3,1.7,0c0.3,0.2,0.4,0.4,0.4,0.6c0,0.2-0.1,0.4-0.4,0.6C92.3,98.7,92,98.8,91.7,98.8z M91.7,97.6
					c-0.3,0-0.5,0.1-0.7,0.2c-0.1,0.1-0.2,0.2-0.2,0.3c0,0.1,0.1,0.2,0.2,0.3c0.3,0.2,1,0.2,1.4,0c0.1-0.1,0.2-0.2,0.2-0.3
					c0-0.1-0.1-0.2-0.2-0.3C92.2,97.6,91.9,97.6,91.7,97.6z"/>
			</g>
			<g>
				<path fill="#FFD54E" d="M79.9,67.4c0.4,0.2,0.4,0.6,0,0.9s-1.1,0.2-1.5,0c-0.4-0.2-0.4-0.6,0-0.9C78.8,67.2,79.5,67.2,79.9,67.4
					z"/>
				<path fill="#FFAA22" d="M79.1,68.6c-0.3,0-0.6-0.1-0.9-0.2c-0.3-0.2-0.4-0.4-0.4-0.6c0-0.2,0.1-0.4,0.4-0.6
					c0.5-0.3,1.3-0.3,1.7,0c0.3,0.2,0.4,0.4,0.4,0.6c0,0.2-0.1,0.4-0.4,0.6C79.8,68.6,79.4,68.6,79.1,68.6z M79.1,67.4
					c-0.3,0-0.5,0.1-0.7,0.2c-0.1,0.1-0.2,0.2-0.2,0.3c0,0.1,0.1,0.2,0.2,0.3c0.3,0.2,1,0.2,1.3,0c0.1-0.1,0.2-0.2,0.2-0.3
					c0-0.1-0.1-0.2-0.2-0.3C79.6,67.5,79.4,67.4,79.1,67.4z"/>
			</g>
			<g>
				<path fill="#FFD54E" d="M109.4,83.8c0.4,0.2,0.4,0.6,0,0.9s-1.1,0.2-1.5,0s-0.4-0.6,0-0.9S109,83.6,109.4,83.8z"/>
				<path fill="#FFAA22" d="M108.6,85c-0.3,0-0.6-0.1-0.9-0.2c-0.3-0.2-0.4-0.4-0.4-0.6c0-0.2,0.1-0.4,0.4-0.6
					c0.5-0.3,1.3-0.3,1.7,0c0.3,0.2,0.4,0.4,0.4,0.6c0,0.2-0.1,0.4-0.4,0.6C109.3,85,109,85,108.6,85z M108.6,83.8
					c-0.3,0-0.5,0.1-0.7,0.2c-0.1,0.1-0.2,0.2-0.2,0.3c0,0.1,0.1,0.2,0.2,0.3c0.3,0.2,1,0.2,1.3,0c0.1-0.1,0.2-0.2,0.2-0.3
					c0-0.1-0.1-0.2-0.2-0.3C109.1,83.9,108.9,83.8,108.6,83.8z"/>
			</g>
			<g>
				<path fill="#FFD54E" d="M96.4,74.8c0.4,0.2,0.4,0.6,0,0.9s-1.1,0.2-1.5,0c-0.4-0.2-0.4-0.6,0-0.9C95.3,74.6,95.9,74.6,96.4,74.8
					z"/>
				<path fill="#FFAA22" d="M95.6,76.1c-0.3,0-0.6-0.1-0.9-0.2c-0.3-0.2-0.4-0.4-0.4-0.6c0-0.2,0.1-0.4,0.4-0.6
					c0.5-0.3,1.3-0.3,1.7,0c0.3,0.2,0.4,0.4,0.4,0.6c0,0.2-0.1,0.4-0.4,0.6C96.2,76,95.9,76.1,95.6,76.1z M95.6,74.9
					c-0.3,0-0.5,0.1-0.7,0.2c-0.1,0.1-0.2,0.2-0.2,0.3c0,0.1,0.1,0.2,0.2,0.3c0.3,0.2,1,0.2,1.4,0c0.1-0.1,0.2-0.2,0.2-0.3
					c0-0.1-0.1-0.2-0.2-0.3C96.1,74.9,95.9,74.9,95.6,74.9z"/>
			</g>
			<g>
				<path fill="#FFD54E" d="M41.6,93.5c0.4,0.2,0.4,0.6,0,0.9c-0.4,0.2-1.1,0.2-1.5,0c-0.4-0.2-0.4-0.6,0-0.9
					C40.5,93.3,41.2,93.3,41.6,93.5z"/>
				<path fill="#FFAA22" d="M40.8,94.7c-0.3,0-0.6-0.1-0.9-0.2c-0.3-0.2-0.4-0.4-0.4-0.6c0-0.2,0.1-0.4,0.4-0.6
					c0.5-0.3,1.3-0.3,1.7,0c0.3,0.2,0.4,0.4,0.4,0.6c0,0.2-0.1,0.4-0.4,0.6C41.4,94.7,41.1,94.7,40.8,94.7z M40.8,93.5
					c-0.3,0-0.5,0.1-0.7,0.2c-0.1,0.1-0.2,0.2-0.2,0.3c0,0.1,0.1,0.2,0.2,0.3c0.3,0.2,1,0.2,1.3,0c0.1-0.1,0.2-0.2,0.2-0.3
					c0-0.1-0.1-0.2-0.2-0.3C41.3,93.6,41.1,93.5,40.8,93.5z"/>
			</g>
			<g>
				<path fill="#FFD54E" d="M63.1,87.6c0.4,0.2,0.4,0.6,0,0.9c-0.4,0.2-1.1,0.2-1.5,0c-0.4-0.2-0.4-0.6,0-0.9
					C62,87.4,62.7,87.4,63.1,87.6z"/>
				<path fill="#FFAA22" d="M62.3,88.9c-0.3,0-0.6-0.1-0.9-0.2c-0.3-0.2-0.4-0.4-0.4-0.6c0-0.2,0.1-0.4,0.4-0.6
					c0.5-0.3,1.3-0.3,1.7,0c0.3,0.2,0.4,0.4,0.4,0.6c0,0.2-0.1,0.4-0.4,0.6C63,88.8,62.7,88.9,62.3,88.9z M62.3,87.6
					c-0.3,0-0.5,0.1-0.7,0.2c-0.1,0.1-0.2,0.2-0.2,0.3c0,0.1,0.1,0.2,0.2,0.3c0.3,0.2,1,0.2,1.4,0c0.1-0.1,0.2-0.2,0.2-0.3
					c0-0.1-0.1-0.2-0.2-0.3C62.8,87.7,62.6,87.6,62.3,87.6z"/>
			</g>
			<g>
				<path fill="#FFD54E" d="M108,94.1c0.4,0.2,0.4,0.6,0,0.9c-0.4,0.2-1.1,0.2-1.5,0s-0.4-0.6,0-0.9S107.6,93.8,108,94.1z"/>
				<path fill="#FFAA22" d="M107.3,95.3c-0.3,0-0.6-0.1-0.9-0.2c-0.3-0.2-0.4-0.4-0.4-0.6c0-0.2,0.1-0.4,0.4-0.6
					c0.5-0.3,1.3-0.3,1.7,0c0.3,0.2,0.4,0.4,0.4,0.6c0,0.2-0.1,0.4-0.4,0.6C107.9,95.2,107.6,95.3,107.3,95.3z M107.3,94.1
					c-0.3,0-0.5,0.1-0.7,0.2c-0.1,0.1-0.2,0.2-0.2,0.3c0,0.1,0.1,0.2,0.2,0.3c0.3,0.2,1,0.2,1.3,0c0.1-0.1,0.2-0.2,0.2-0.3
					c0-0.1-0.1-0.2-0.2-0.3C107.8,94.2,107.5,94.1,107.3,94.1z"/>
			</g>
			<g>
				<path fill="#FFD54E" d="M98.4,106.2c0.4,0.2,0.4,0.6,0,0.9c-0.4,0.2-1.1,0.2-1.5,0s-0.4-0.6,0-0.9S97.9,105.9,98.4,106.2z"/>
				<path fill="#FFAA22" d="M97.6,107.4c-0.3,0-0.6-0.1-0.9-0.2c-0.3-0.2-0.4-0.4-0.4-0.6c0-0.2,0.1-0.4,0.4-0.6
					c0.5-0.3,1.3-0.3,1.7,0c0.3,0.2,0.4,0.4,0.4,0.6c0,0.2-0.1,0.4-0.4,0.6C98.2,107.3,97.9,107.4,97.6,107.4z M97.6,106.2
					c-0.3,0-0.5,0.1-0.7,0.2c-0.1,0.1-0.2,0.2-0.2,0.3c0,0.1,0.1,0.2,0.2,0.3c0.3,0.2,1,0.2,1.3,0c0.1-0.1,0.2-0.2,0.2-0.3
					c0-0.1-0.1-0.2-0.2-0.3C98.1,106.2,97.9,106.2,97.6,106.2z"/>
			</g>
			<g>
				<path fill="#FFD54E" d="M59,112.5c0.4,0.2,0.4,0.6,0,0.9c-0.4,0.2-1.1,0.2-1.5,0c-0.4-0.2-0.4-0.6,0-0.9
					C57.9,112.3,58.6,112.3,59,112.5z"/>
				<path fill="#FFAA22" d="M58.2,113.7c-0.3,0-0.6-0.1-0.9-0.2c-0.3-0.2-0.4-0.4-0.4-0.6c0-0.2,0.1-0.4,0.4-0.6
					c0.5-0.3,1.3-0.3,1.7,0c0.3,0.2,0.4,0.4,0.4,0.6c0,0.2-0.1,0.4-0.4,0.6C58.9,113.6,58.6,113.7,58.2,113.7z M58.2,112.5
					c-0.3,0-0.5,0.1-0.7,0.2c-0.1,0.1-0.2,0.2-0.2,0.3c0,0.1,0.1,0.2,0.2,0.3c0.3,0.2,1,0.2,1.4,0c0.1-0.1,0.2-0.2,0.2-0.3
					c0-0.1-0.1-0.2-0.2-0.3C58.7,112.6,58.5,112.5,58.2,112.5z"/>
			</g>
			<g>
				<path fill="#FFD54E" d="M87.7,83.7c0.4,0.2,0.4,0.6,0,0.9s-1.1,0.2-1.5,0c-0.4-0.2-0.4-0.6,0-0.9C86.6,83.4,87.3,83.4,87.7,83.7
					z"/>
				<path fill="#FFAA22" d="M86.9,84.9c-0.3,0-0.6-0.1-0.9-0.2c-0.3-0.2-0.4-0.4-0.4-0.6c0-0.2,0.1-0.4,0.4-0.6
					c0.5-0.3,1.3-0.3,1.7,0c0.3,0.2,0.4,0.4,0.4,0.6c0,0.2-0.1,0.4-0.4,0.6C87.6,84.8,87.3,84.9,86.9,84.9z M86.9,83.7
					c-0.3,0-0.5,0.1-0.7,0.2C86.1,83.9,86,84,86,84.1c0,0.1,0.1,0.2,0.2,0.3c0.3,0.2,1,0.2,1.3,0c0.1-0.1,0.2-0.2,0.2-0.3
					c0-0.1-0.1-0.2-0.2-0.3C87.4,83.7,87.2,83.7,86.9,83.7z"/>
			</g>
			<g>
				
					<rect x="64.9" y="109.7" transform="matrix(0.408 0.913 -0.913 0.408 143.1172 -0.9218)" fill="#FFAA22" width="14.8" height="0.4"/>
			</g>
			<g>
				<path fill="#FFAA22" d="M70,102.7c0.4,0.2,0.4,0.6,0,0.9c-0.4,0.2-1.1,0.2-1.5,0s-0.4-0.6,0-0.9C68.9,102.5,69.6,102.5,70,102.7
					z"/>
				<path fill="#FFD54E" d="M69.3,104c-0.3,0-0.6-0.1-0.9-0.2c-0.3-0.2-0.4-0.4-0.4-0.6c0-0.2,0.1-0.4,0.4-0.6
					c0.5-0.3,1.3-0.3,1.7,0c0.3,0.2,0.4,0.4,0.4,0.6c0,0.2-0.1,0.4-0.4,0.6C69.9,103.9,69.6,104,69.3,104z M69.3,102.8
					c-0.3,0-0.5,0.1-0.7,0.2c-0.1,0.1-0.2,0.2-0.2,0.3c0,0.1,0.1,0.2,0.2,0.3c0.3,0.2,1,0.2,1.4,0c0.1-0.1,0.2-0.2,0.2-0.3
					c0-0.1-0.1-0.2-0.2-0.3C69.8,102.8,69.5,102.8,69.3,102.8z"/>
			</g>
			<g>
				<path fill="#FFD54E" d="M76.1,116.8c0.4,0.2,0.4,0.6,0,0.9s-1.1,0.2-1.5,0s-0.4-0.6,0-0.9S75.7,116.6,76.1,116.8z"/>
				<path fill="#FFAA22" d="M75.4,118c-0.3,0-0.6-0.1-0.9-0.2c-0.3-0.2-0.4-0.4-0.4-0.6c0-0.2,0.1-0.4,0.4-0.6
					c0.5-0.3,1.3-0.3,1.7,0c0.3,0.2,0.4,0.4,0.4,0.6c0,0.2-0.1,0.4-0.4,0.6C76,118,75.7,118,75.4,118z M75.4,116.8
					c-0.3,0-0.5,0.1-0.7,0.2c-0.1,0.1-0.2,0.2-0.2,0.3c0,0.1,0.1,0.2,0.2,0.3c0.3,0.2,1,0.2,1.3,0c0.1-0.1,0.2-0.2,0.2-0.3
					c0-0.1-0.1-0.2-0.2-0.3C75.9,116.9,75.6,116.8,75.4,116.8z"/>
			</g>
		</g>
		<g>
			<path fill="#FF8A4C" d="M41.5,48.7c-0.5-0.2-1-0.5-1.5-1c-0.5-0.5-0.9-1.1-1-1.6c-0.2,0.5-0.5,1-1,1.5c-0.5,0.5-1,0.8-1.5,1
				c0.5,0.2,1.1,0.5,1.6,1c0.5,0.5,0.8,1,1,1.5c0.2-0.5,0.5-1,1-1.5C40.4,49.2,41,48.8,41.5,48.7z"/>
		</g>
		<g>
			<path fill="#FFCA22" d="M78.6,32.2c0.2,0.3,0.4,0.5,0.6,0.8c0.2,0.2,0.5,0.4,0.8,0.6c-0.3,0.2-0.5,0.4-0.7,0.6
				c-0.2,0.2-0.4,0.5-0.6,0.7c-0.2-0.3-0.4-0.5-0.6-0.8c-0.2-0.2-0.5-0.5-0.8-0.6c0.3-0.2,0.5-0.4,0.7-0.6
				C78.2,32.7,78.4,32.5,78.6,32.2 M78.6,31.1c-0.2,0.5-0.5,1-1,1.5c-0.5,0.5-1,0.8-1.5,1c0.5,0.2,1.1,0.5,1.6,1
				c0.5,0.5,0.8,1,1,1.5c0.2-0.5,0.5-1,1-1.5c0.5-0.5,1-0.8,1.5-1c-0.5-0.2-1-0.5-1.5-1C79.1,32.1,78.7,31.6,78.6,31.1L78.6,31.1z"
				/>
		</g>
		<g>
			<path fill="#FF8A4C" d="M128.6,29.1c-0.5-0.2-1-0.5-1.5-1c-0.5-0.5-0.9-1.1-1-1.6c-0.2,0.5-0.5,1-1,1.5c-0.5,0.5-1,0.8-1.5,1
				c0.5,0.2,1.1,0.5,1.6,1c0.5,0.5,0.8,1,1,1.5c0.2-0.5,0.5-1,1-1.5C127.6,29.6,128.1,29.3,128.6,29.1z"/>
		</g>
		<g>
			<g>
				<rect x="106.6" y="48.8" fill="#FFFFFF" width="0.4" height="1.4"/>
			</g>
			<g>
				<rect x="106.6" y="54.3" fill="#FFFFFF" width="0.4" height="1.4"/>
			</g>
			<g>
				<rect x="108.8" y="52" fill="#FFFFFF" width="1.4" height="0.4"/>
			</g>
			<g>
				<rect x="103.4" y="52" fill="#FFFFFF" width="1.4" height="0.4"/>
			</g>
			<g>
				
					<rect x="108.5" y="49.6" transform="matrix(0.7078 0.7065 -0.7065 0.7078 67.3216 -62.1073)" fill="#FFFFFF" width="0.4" height="1.4"/>
			</g>
			<g>
				
					<rect x="104.7" y="53.5" transform="matrix(0.7078 0.7065 -0.7065 0.7078 68.9108 -58.2751)" fill="#FFFFFF" width="0.4" height="1.4"/>
			</g>
			<g>
				
					<rect x="108.1" y="54" transform="matrix(0.7071 0.7071 -0.7071 0.7071 70.1382 -61.0216)" fill="#FFFFFF" width="1.4" height="0.4"/>
			</g>
			<g>
				
					<rect x="104.2" y="50.1" transform="matrix(0.7071 0.7071 -0.7071 0.7071 66.3011 -59.4319)" fill="#FFFFFF" width="1.4" height="0.4"/>
			</g>
		</g>
		<g>
			<path fill="#FFCA22" d="M103.5,7.5c0.2,0.3,0.4,0.5,0.6,0.8c0.2,0.2,0.5,0.4,0.8,0.6c-0.3,0.2-0.5,0.4-0.7,0.6
				c-0.2,0.2-0.4,0.5-0.6,0.7c-0.2-0.3-0.4-0.5-0.6-0.8c-0.2-0.2-0.5-0.5-0.8-0.6c0.3-0.2,0.5-0.4,0.7-0.6
				C103.2,8,103.4,7.7,103.5,7.5 M103.6,6.3c-0.2,0.5-0.5,1-1,1.5c-0.5,0.5-1,0.8-1.5,1c0.5,0.2,1.1,0.5,1.6,1c0.5,0.5,0.8,1,1,1.5
				c0.2-0.5,0.5-1,1-1.5c0.5-0.5,1-0.8,1.5-1c-0.5-0.2-1-0.5-1.5-1C104.1,7.4,103.7,6.8,103.6,6.3L103.6,6.3z"/>
		</g>
	</g>
</g>
<g id="grid">
</g>
</svg>
