<?xml version="1.0" encoding="utf-8"?>
<!-- Generator: Adobe Illustrator 18.1.1, SVG Export Plug-In . SVG Version: 6.00 Build 0)  -->
<svg version="1.1" xmlns="http://www.w3.org/2000/svg" xmlns:xlink="http://www.w3.org/1999/xlink" x="0px" y="0px"
	 viewBox="0 0 190.7 126.6" enable-background="new 0 0 190.7 126.6" xml:space="preserve">
<g id="Layer_1">
	<g>
		<g>
			<g opacity="0.15">
				<path fill="#231F20" d="M61.6,46.1H28.9c-1.8,0-3.3-1.5-3.3-3.3V10.1c0-1.8,1.5-3.3,3.3-3.3h32.8c1.8,0,3.3,1.5,3.3,3.3v32.8
					C64.9,44.7,63.4,46.1,61.6,46.1z"/>
			</g>
			<g>
				<path fill="#F6F6F6" d="M61.6,45.5H28.9c-1.8,0-3.3-1.5-3.3-3.3V9.5c0-1.8,1.5-3.3,3.3-3.3h32.8c1.8,0,3.3,1.5,3.3,3.3v32.8
					C64.9,44.1,63.4,45.5,61.6,45.5z"/>
			</g>
			<g>
				<rect x="28.8" y="9.6" fill="#FFDF7A" width="16.4" height="16.4"/>
			</g>
			<g>
				<rect x="45.2" y="9.6" fill="#FF8A4C" width="16.4" height="16.4"/>
			</g>
			<g>
				<rect x="28.8" y="25.6" fill="#FFBB4E" width="16.4" height="16.4"/>
			</g>
			<g>
				<rect x="45.2" y="25.6" fill="#FFD54E" width="16.4" height="16.4"/>
			</g>
			<g opacity="0.15">
				<rect x="28.8" y="41.2" fill="#231F20" width="32.8" height="0.9"/>
			</g>
			<g>
				<path fill="#FFD54E" d="M37,22.3L37,22.3c-2.5,0-4.5-2-4.5-4.5v0c0-2.5,2-4.5,4.5-4.5h0c2.5,0,4.5,2,4.5,4.5v0
					C41.5,20.3,39.5,22.3,37,22.3z"/>
			</g>
			<g>
				<polygon fill="#FFA779" points="57.3,21.7 49.5,21.7 49.5,14 				"/>
			</g>
			<g>
				<polygon fill="#FF6D1F" points="49.5,14 57.3,14 57.3,21.7 				"/>
			</g>
			<g>
				<polygon fill="#FFDF7A" points="48.6,37.4 53.7,28.6 58.8,37.4 				"/>
			</g>
			<g>
				<rect x="32.8" y="32.2" fill="#FFCC7A" width="8.4" height="1.8"/>
			</g>
		</g>
		<g>
			<path fill="#F25F1D" d="M42.8,93h7.8c0-2.2-1.7-3.9-3.9-3.9C44.6,89.1,42.8,90.8,42.8,93z"/>
		</g>
		<g opacity="0.15">
			<path fill="#231F20" d="M47.9,92.2c-0.2,0-0.3,0-0.5,0c-1.5-0.1-2.8-0.7-3.8-1.5c0.7-0.9,1.8-1.5,3.1-1.5c1.9,0,3.4,1.3,3.8,3.1
				H47.9z"/>
		</g>
		<g>
			<path fill="#F25F1D" d="M65.8,93H58c0-2.2,1.7-3.9,3.9-3.9S65.8,90.8,65.8,93z"/>
		</g>
		<g opacity="0.15">
			<path fill="#231F20" d="M60.8,92.2c0.2,0,0.3,0,0.5,0c1.5-0.1,2.8-0.7,3.8-1.5c-0.7-0.9-1.8-1.5-3.1-1.5c-1.9,0-3.4,1.3-3.8,3.1
				H60.8z"/>
		</g>
		<g>
			<g>
				<path fill="#F25F1D" d="M41.6,75.3c0.3-1.3,1.8-2.1,3.2-1.8s2.3,1.7,2,3.1c-0.8,3.1-3.4,5.2,0.6,6.2l2.3,0.6
					c1.4,0.4,2.3,1.7,2,3.1c-0.3,1.3-1.8,2.1-3.2,1.8l-2.3-0.6C39.3,85.9,40.1,81.1,41.6,75.3z"/>
			</g>
		</g>
		<g opacity="0.15">
			<path fill="#231F20" d="M43.7,73.5v5.3h0.8v-5.3C44.2,73.4,43.9,73.5,43.7,73.5z"/>
		</g>
		<g>
			<g>
				<path fill="#F25F1D" d="M60.8,78.1c-1.3,0-2.4-1.2-2.4-2.6c0-1.4,1.1-2.6,2.4-2.6c3.1,0,5.7,2,5.7-2v-2.3c0-1.4,1.1-2.6,2.4-2.6
					s2.4,1.2,2.4,2.6v2.3C71.3,77.8,66.6,78.1,60.8,78.1z"/>
			</g>
		</g>
		<g opacity="0.15">
			<path fill="#231F20" d="M64,73.4V78c0.3,0,0.6-0.1,0.8-0.1v-4.5C64.6,73.5,64.3,73.4,64,73.4z"/>
		</g>
		<g>
			<rect x="8.8" y="96" fill="#FFBB4E" width="63.1" height="24.9"/>
		</g>
		<g>
			<path fill="#FFAA22" d="M184.6,96H4.9c-0.7,0-1.2-0.6-1.2-1.2v-0.5c0-0.7,0.6-1.2,1.2-1.2h179.7c0.7,0,1.2,0.6,1.2,1.2v0.5
				C185.8,95.4,185.3,96,184.6,96z"/>
		</g>
		<g>
			<g>
				<path fill="#FF6D1F" d="M60.6,91.7H48c-0.1,0-0.3,0-0.4,0c-3.4-0.2-5.9-3.4-5.3-6.8l1.9-11.4h20.2l1.9,11.4
					c0.6,3.4-1.9,6.6-5.3,6.8C60.9,91.7,60.8,91.7,60.6,91.7z"/>
			</g>
		</g>
		<g>
			<g>
				<g>
					<g>
						<path fill="#F25F1D" d="M62.5,65.1c1.8-1.6,2.6-3.1,2.5-6.1c-3-0.1-4.5,0.7-6.1,2.5C61.2,61.7,62.3,62.7,62.5,65.1z"/>
					</g>
				</g>
			</g>
			<g>
				<g>
					<path fill="#FF8A4C" d="M62.7,64.2c-0.1-0.8-0.3-1.4-0.7-1.8c0.7-0.9,1.4-1.6,2.4-2.3C64.5,62,63.9,63.1,62.7,64.2z"/>
				</g>
			</g>
		</g>
		<g>
			<line fill="#FFBB4E" x1="71.9" y1="99.4" x2="71.9" y2="113.7"/>
		</g>
		<g>
			<line fill="#9DD6FF" x1="71.9" y1="96.3" x2="71.9" y2="97.5"/>
		</g>
		<g>
			<rect x="68.8" y="96" fill="#FFBB4E" width="108.8" height="9.7"/>
		</g>
		<g>
			<line fill="#9DD6FF" x1="136.8" y1="96.3" x2="136.8" y2="97.5"/>
		</g>
		<g>
			<polygon fill="#FFBB4E" points="180.2,120.9 175.1,120.9 174,96 181.3,96 			"/>
		</g>
		<g opacity="0.15">
			<rect x="8.2" y="95.9" fill="#231F20" width="173.1" height="0.7"/>
		</g>
		<g>
			<path fill="#E6E7E8" d="M164.6,92H84c-1.7,0-3.1-1.4-3.1-3.1v-54c0-1.7,1.4-3.1,3.1-3.1h80.6c1.7,0,3.1,1.4,3.1,3.1v54
				C167.7,90.6,166.3,92,164.6,92z"/>
		</g>
		<g>
			<rect x="84.9" y="36.1" fill="#FFFFFF" width="78.8" height="48.6"/>
		</g>
		<g>
			<circle fill="#BCBEC0" cx="123.6" cy="33.8" r="0.5"/>
		</g>
		<g>
			<path fill="#D0D2D3" d="M172.6,92.8H76v-0.9c0-1.5,1.3-2.8,2.8-2.8h91.1c1.5,0,2.8,1.3,2.8,2.8V92.8z"/>
		</g>
		<g>
			<rect x="84.9" y="35.9" fill="#FFFFFF" width="78.8" height="2.7"/>
		</g>
		<g>
			<rect x="136.1" y="36.9" fill="#D1D3D4" width="3.2" height="0.5"/>
		</g>
		<g>
			<rect x="142.6" y="36.9" fill="#D1D3D4" width="3.2" height="0.5"/>
		</g>
		<g>
			<rect x="149.5" y="36.9" fill="#D1D3D4" width="3.2" height="0.5"/>
		</g>
		<g>
			<rect x="156" y="36.9" fill="#D1D3D4" width="3.2" height="0.5"/>
		</g>
		<g>
			<rect x="84.9" y="38.4" fill="#3F6295" width="78.8" height="4.4"/>
		</g>
		<g>
			<g>
				<rect x="107.3" y="46.6" fill="#FFCC7A" width="51.8" height="8.4"/>
			</g>
			<g>
				<rect x="107.3" y="55" fill="#FFD695" width="51.8" height="8.4"/>
			</g>
			<g>
				<rect x="107.3" y="63.4" fill="#FFDEAA" width="51.8" height="8.4"/>
			</g>
			<g>
				<rect x="107.3" y="71.7" fill="#FFE5BB" width="51.8" height="8.4"/>
			</g>
		</g>
		<g>
			<path fill="#FFFFFF" d="M134.1,90.9h-21.9c-0.4,0-0.7-0.1-1-0.4l-0.4-0.3l0.2-0.3l0.4,0.3c0.2,0.2,0.5,0.3,0.7,0.3h21.9
				c0.3,0,0.5-0.1,0.7-0.3l0.4-0.3l0.2,0.3l-0.4,0.3C134.8,90.8,134.4,90.9,134.1,90.9z"/>
		</g>
		<g>
			<rect x="13.5" y="102.4" fill="#FFAA22" width="53.5" height="16"/>
		</g>
		<g>
			<rect x="15.6" y="104.4" fill="#FFBB4E" width="49.5" height="12.1"/>
		</g>
		<g opacity="0.15">
			<path fill="#231F20" d="M63.8,73.4h-19c2,2.6,5.5,4.4,9.5,4.4C58.3,77.8,61.8,76.1,63.8,73.4z"/>
		</g>
		<g>
			<g>
				<g>
					<g>
						<path fill="#F25F1D" d="M46.2,65.1c-1.8-1.6-2.6-3.1-2.5-6.1c3-0.1,4.5,0.7,6.1,2.5C47.5,61.7,46.4,62.7,46.2,65.1z"/>
					</g>
				</g>
			</g>
			<g>
				<g>
					<path fill="#FF8A4C" d="M46,64.2c0.1-0.8,0.3-1.4,0.7-1.8c-0.7-0.9-1.4-1.6-2.4-2.3C44.2,62,44.8,63.1,46,64.2z"/>
				</g>
			</g>
		</g>
		<g>
			<g>
				<ellipse fill="#FF6D1F" cx="54.3" cy="68.4" rx="10.6" ry="8.9"/>
			</g>
		</g>
		<g opacity="0.15">
			<g>
				<ellipse fill="#231F20" cx="54.3" cy="70.2" rx="3.8" ry="3.4"/>
			</g>
		</g>
		<g>
			<g>
				<ellipse fill="#FFC5A5" cx="54.3" cy="69.8" rx="3.8" ry="3.4"/>
			</g>
		</g>
		<g>
			<g>
				<circle fill="#FF6D1F" cx="52.7" cy="69.8" r="0.7"/>
			</g>
		</g>
		<g>
			<path fill="#F25F1D" d="M52.7,69.5c-0.3,0-0.6,0.2-0.6,0.5c0.1,0.3,0.3,0.5,0.6,0.5c0.3,0,0.6-0.2,0.6-0.5
				C53.2,69.7,53,69.5,52.7,69.5z"/>
		</g>
		<g>
			<g>
				<g>
					<circle fill="#FF6D1F" cx="56.1" cy="69.8" r="0.7"/>
				</g>
			</g>
			<g>
				<path fill="#F25F1D" d="M56.1,69.5c-0.3,0-0.6,0.2-0.6,0.5c0.1,0.3,0.3,0.5,0.6,0.5s0.6-0.2,0.6-0.5
					C56.7,69.7,56.4,69.5,56.1,69.5z"/>
			</g>
		</g>
		<g>
			<path fill="#FF8A4C" d="M47.3,69.3H46c-0.2,0-0.5-0.2-0.5-0.5l0,0c0-0.2,0.2-0.5,0.5-0.5h1.4c0.2,0,0.5,0.2,0.5,0.5l0,0
				C47.8,69.1,47.6,69.3,47.3,69.3z"/>
		</g>
		<g>
			<path fill="#FF8A4C" d="M62.6,69.3h-1.4c-0.2,0-0.5-0.2-0.5-0.5l0,0c0-0.2,0.2-0.5,0.5-0.5h1.4c0.2,0,0.5,0.2,0.5,0.5l0,0
				C63.1,69.1,62.8,69.3,62.6,69.3z"/>
		</g>
		<g>
			<path fill="#404041" d="M49.7,66.3h-2c0-0.5,0.4-1,1-1S49.7,65.7,49.7,66.3z"/>
		</g>
		<g>
			<path fill="#404041" d="M60.5,66.3h-2c0-0.5,0.4-1,1-1S60.5,65.7,60.5,66.3z"/>
		</g>
		<g>
			<g opacity="0.15">
				<ellipse fill="#231F20" cx="54.3" cy="81.4" rx="1.7" ry="2.4"/>
			</g>
			<g>
				<ellipse fill="#FFCA22" cx="54.3" cy="80.6" rx="1.7" ry="2.4"/>
			</g>
			<g opacity="0.25">
				<path fill="#FFFFFF" d="M55.1,82.8l-0.7-4.6c0,0-0.1,0-0.1,0v4.9C54.6,83.1,54.8,83,55.1,82.8z"/>
			</g>
		</g>
		<g opacity="0.15">
			<rect x="15.6" y="116.5" fill="#231F20" width="49.5" height="0.5"/>
		</g>
		<g>
			<rect x="35.7" y="108.5" fill="#FFAA22" width="9.7" height="1.6"/>
		</g>
		<g opacity="0.15">
			<rect x="35.7" y="109.7" fill="#231F20" width="9.7" height="0.4"/>
		</g>
		<g opacity="0.15">
			<rect x="71.9" y="104.7" fill="#231F20" width="102.5" height="1"/>
		</g>
		<g>
			<g>
				<rect x="90.2" y="46.7" fill="#FFA779" width="17.1" height="8.4"/>
			</g>
			<g>
				<rect x="90.2" y="55.1" fill="#FFB994" width="17.1" height="8.4"/>
			</g>
			<g>
				<rect x="90.2" y="63.5" fill="#FFCAAF" width="17.1" height="8.4"/>
			</g>
			<g>
				<rect x="90.2" y="71.8" fill="#FFDCC9" width="17.1" height="8.4"/>
			</g>
		</g>
		<g opacity="0.5">
			<circle fill="#FFFFFF" cx="107.3" cy="63.4" r="14.4"/>
		</g>
		<g>
			<defs>
				<circle id="SVGID_182_" cx="107.3" cy="63.4" r="12.4"/>
			</defs>
			<clipPath id="SVGID_2_">
				<use xlink:href="#SVGID_182_"  overflow="visible"/>
			</clipPath>
			<g clip-path="url(#SVGID_2_)">
				<g>
					<circle fill="#FFFFFF" cx="107.3" cy="63.4" r="12.4"/>
				</g>
				<g>
					<rect x="94.1" y="59.6" fill="#FFCA22" width="26.7" height="7.7"/>
				</g>
				<g>
					<path fill="#0F3B7A" d="M100.2,63.8c0,0.4,0.3,0.5,0.6,0.5c0.4,0,0.5-0.2,0.5-0.4c0-0.2-0.1-0.3-0.2-0.3
						c-0.2-0.1-0.4-0.1-0.8-0.2c-0.4-0.1-0.6-0.4-0.6-0.6c0-0.5,0.5-0.7,0.9-0.7c0.5,0,1,0.3,1,0.8h-0.4c0-0.3-0.2-0.4-0.5-0.4
						c-0.2,0-0.5,0.1-0.5,0.3c0,0.2,0.1,0.3,0.3,0.3c0,0,0.6,0.2,0.7,0.2c0.3,0.1,0.5,0.4,0.5,0.6c0,0.6-0.5,0.8-1,0.8
						c-0.6,0-1-0.3-1.1-0.9H100.2z"/>
					<path fill="#0F3B7A" d="M102.2,62.8h0.4v0.2h0c0.1-0.2,0.3-0.3,0.6-0.3c0.6,0,0.9,0.4,0.9,1c0,0.5-0.2,1-0.8,1
						c-0.2,0-0.5-0.1-0.6-0.3h0v0.9h-0.4V62.8z M103.1,63.1c-0.3,0-0.5,0.3-0.5,0.6c0,0.4,0.2,0.6,0.5,0.6c0.4,0,0.5-0.3,0.5-0.6
						C103.6,63.4,103.4,63.1,103.1,63.1z"/>
					<path fill="#0F3B7A" d="M105.9,64.3c0,0.1,0,0.1,0.1,0.1c0,0,0.1,0,0.1,0v0.3c-0.1,0-0.2,0-0.3,0c-0.2,0-0.3-0.1-0.3-0.2
						c-0.2,0.2-0.4,0.2-0.6,0.2c-0.3,0-0.6-0.2-0.6-0.5c0-0.5,0.4-0.5,0.7-0.6c0.3-0.1,0.5,0,0.5-0.3c0-0.2-0.2-0.2-0.4-0.2
						c-0.2,0-0.4,0.1-0.4,0.3h-0.4c0-0.5,0.4-0.6,0.8-0.6c0.4,0,0.7,0.1,0.7,0.5V64.3z M105.5,63.7c-0.1,0.1-0.3,0.1-0.5,0.1
						c-0.2,0-0.3,0.1-0.3,0.3c0,0.2,0.2,0.2,0.4,0.2c0.2,0,0.5-0.1,0.5-0.3V63.7z"/>
					<path fill="#0F3B7A" d="M106.5,62.8h0.4v0.3h0c0.1-0.2,0.3-0.3,0.6-0.3c0.2,0,0.4,0.1,0.5,0.3c0.1-0.2,0.3-0.3,0.6-0.3
						c0.4,0,0.6,0.2,0.6,0.6v1.3h-0.4v-1.1c0-0.3,0-0.5-0.3-0.5c-0.3,0-0.4,0.2-0.4,0.5v1.1h-0.4v-1.2c0-0.3-0.1-0.4-0.3-0.4
						c-0.2,0-0.4,0.2-0.4,0.5v1.1h-0.4V62.8z"/>
					<path fill="#0F3B7A" d="M111.1,65.3c-0.3-0.4-0.5-1-0.5-1.6c0-0.6,0.2-1.1,0.5-1.6h0.3c-0.3,0.5-0.4,1-0.4,1.6
						c0,0.6,0.1,1.1,0.4,1.6H111.1z"/>
					<path fill="#0F3B7A" d="M113.3,63.4c0,0.6-0.1,1.3-0.9,1.3s-0.9-0.7-0.9-1.3c0-0.6,0.1-1.3,0.9-1.3S113.3,62.9,113.3,63.4z
						 M112.9,63.4c0-0.5-0.1-1-0.5-1s-0.5,0.4-0.5,1c0,0.5,0.1,1,0.5,1S112.9,63.9,112.9,63.4z"/>
					<path fill="#0F3B7A" d="M113.8,62.1c0.3,0.5,0.5,1,0.5,1.6c0,0.6-0.2,1.1-0.5,1.6h-0.3c0.3-0.5,0.4-1,0.4-1.6s-0.1-1.1-0.4-1.6
						H113.8z"/>
				</g>
				<g>
					<rect x="94.1" y="56.5" fill="#FFEAA7" width="26.7" height="3.4"/>
				</g>
				<g>
					<rect x="94.1" y="53.3" fill="#FFF4D3" width="26.7" height="3.4"/>
				</g>
				<g>
					<rect x="94.1" y="67.3" fill="#FFEAA7" width="26.7" height="3.4"/>
				</g>
				<g>
					<rect x="94.1" y="70.4" fill="#FFF4D3" width="26.7" height="3.4"/>
				</g>
				<g>
					<path fill="#3F6295" d="M119.9,67.9l-1.6-1.6l0.8-0.8c0,0,0-0.1,0-0.1c0,0,0-0.1-0.1-0.1l-3.5-1.3c0,0-0.1,0-0.1,0
						c0,0,0,0.1,0,0.1l1.2,3.5c0,0,0,0.1,0.1,0.1c0,0,0.1,0,0.1,0l0.9-0.8l1.6,1.6c0,0,0,0,0.1,0c0,0,0,0,0.1,0l0.5-0.5
						C119.9,68,119.9,68,119.9,67.9z"/>
				</g>
				<g>
					<rect x="94.1" y="50" fill="#FFF8E5" width="26.7" height="3.4"/>
				</g>
				<g>
					<rect x="94.1" y="73.5" fill="#FFF8E5" width="26.7" height="3.4"/>
				</g>
			</g>
		</g>
		<g>
			<rect x="84.9" y="38.4" fill="#0F3B7A" width="5.1" height="4.4"/>
		</g>
	</g>
</g>
<g id="grid">
</g>
</svg>
