<?xml version="1.0" encoding="utf-8"?>
<!-- Generator: Adobe Illustrator 18.1.1, SVG Export Plug-In . SVG Version: 6.00 Build 0)  -->
<svg version="1.1" xmlns="http://www.w3.org/2000/svg" xmlns:xlink="http://www.w3.org/1999/xlink" x="0px" y="0px"
	 viewBox="0 0 204.7 172.9" enable-background="new 0 0 204.7 172.9" xml:space="preserve">
<g id="Layer_1">
	<g>
		<g>
			<g>
				<polygon fill="#F1F1F2" points="32.1,164 10.7,164 32.1,143.2 				"/>
			</g>
			<g>
				<polygon fill="#F1F1F2" points="51.7,164 30.3,164 51.7,143.2 				"/>
			</g>
			<g>
				<polygon fill="#F1F1F2" points="70.9,164 49.5,164 70.9,143.2 				"/>
			</g>
			<g>
				<polygon fill="#F1F1F2" points="90.5,164 69.1,164 90.5,143.2 				"/>
			</g>
			<g>
				<polygon fill="#FFFFFF" points="32.1,148.1 32.1,143.2 27.1,148.1 				"/>
			</g>
			<g>
				<polygon fill="#FFFFFF" points="51.7,148.1 51.7,143.2 46.7,148.1 				"/>
			</g>
			<g>
				<polygon fill="#FFFFFF" points="70.9,148.1 70.9,143.2 65.9,148.1 				"/>
			</g>
		</g>
		<g>
			<rect x="91.6" y="151.7" fill="#EFEFEF" width="102.3" height="2.4"/>
		</g>
		<g>
			<polygon fill="#FFFFFF" points="193.9,18.8 181.5,6.2 91.6,6.2 91.6,152.6 193.9,152.6 			"/>
		</g>
		<g>
			<polygon fill="#E6E7E8" points="181.5,18.6 193.9,18.6 181.5,6.2 			"/>
		</g>
		<g>
			<polygon fill="#8C9AAF" points="105.1,24.5 110.7,20.3 116.2,24.5 			"/>
		</g>
		<g>
			<polygon fill="#8C9AAF" points="116.2,49 110.7,53.2 105.1,49 			"/>
		</g>
		<g>
			<path fill="#58595B" d="M106.6,33.8h3.8v0.8c-1.2,1.3-1.9,2.8-2.1,4.8h-1c0.1-1.8,1-3.5,2.2-4.8h-2.9V33.8z"/>
			<path fill="#58595B" d="M115,39.4h-3.8c0-0.9,0.5-1.6,1.2-2.1c0.7-0.5,1.7-1,1.7-1.8c0-0.4-0.2-1-0.9-1c-0.7,0-0.9,0.6-1,1.4
				h-0.9c0-1.2,0.7-2.2,1.9-2.2c1.4,0,1.8,1,1.8,1.7c0,0.9-0.6,1.4-1.2,1.9c-0.6,0.4-1.3,0.8-1.5,1.3h2.7V39.4z"/>
		</g>
		<g>
			<path fill="#37AA75" d="M117.1,61.9l-1.6-1.6c-0.1-0.1-0.2-0.1-0.3,0l-5.6,5.6l-1.5-1.5c-0.1-0.1-0.2-0.1-0.3,0l-1.6,1.6
				c-0.1,0.1-0.1,0.2,0,0.3l3.2,3.2c0,0,0.1,0.1,0.1,0.1c0,0,0.1,0,0.1-0.1l7.4-7.4c0,0,0.1-0.1,0.1-0.1
				C117.2,62,117.1,61.9,117.1,61.9z"/>
		</g>
		<g>
			<path fill="#D1D3D4" d="M137.7,72.9c-0.7,0-1.3-0.6-1.3-1.3c0-0.7,0.6-1.3,1.3-1.3c0.7,0,1.3,0.6,1.3,1.3
				C139,72.3,138.4,72.9,137.7,72.9z M137.7,70.8c-0.4,0-0.8,0.4-0.8,0.8c0,0.4,0.4,0.8,0.8,0.8s0.8-0.4,0.8-0.8
				C138.5,71.2,138.2,70.8,137.7,70.8z"/>
		</g>
		<g>
			<path fill="#D1D3D4" d="M137.7,81.5c-0.7,0-1.3-0.6-1.3-1.3c0-0.7,0.6-1.3,1.3-1.3c0.7,0,1.3,0.6,1.3,1.3
				C139,80.9,138.4,81.5,137.7,81.5z M137.7,79.4c-0.4,0-0.8,0.4-0.8,0.8c0,0.4,0.4,0.8,0.8,0.8s0.8-0.4,0.8-0.8
				C138.5,79.7,138.2,79.4,137.7,79.4z"/>
		</g>
		<g>
			<path fill="#D1D3D4" d="M137.7,90c-0.7,0-1.3-0.6-1.3-1.3s0.6-1.3,1.3-1.3c0.7,0,1.3,0.6,1.3,1.3S138.4,90,137.7,90z M137.7,87.9
				c-0.4,0-0.8,0.4-0.8,0.8s0.4,0.8,0.8,0.8s0.8-0.4,0.8-0.8S138.2,87.9,137.7,87.9z"/>
		</g>
		<g>
			<rect x="154" y="126.9" fill="#EFEFEF" width="6.1" height="6.1"/>
		</g>
		<g>
			<rect x="129.8" y="21.5" fill="#D1D3D4" width="46.7" height="0.5"/>
		</g>
		<g>
			<rect x="129.8" y="30" fill="#D1D3D4" width="46.7" height="0.5"/>
		</g>
		<g>
			<rect x="129.8" y="38.5" fill="#D1D3D4" width="46.7" height="0.5"/>
		</g>
		<g>
			<rect x="129.8" y="47.1" fill="#D1D3D4" width="30.8" height="0.5"/>
		</g>
		<g>
			<rect x="129.8" y="62.9" fill="#D1D3D4" width="46.7" height="0.5"/>
		</g>
		<g>
			<rect x="144" y="71.4" fill="#D1D3D4" width="32.4" height="0.5"/>
		</g>
		<g>
			<rect x="144" y="80" fill="#D1D3D4" width="32.4" height="0.5"/>
		</g>
		<g>
			<rect x="144" y="88.5" fill="#D1D3D4" width="32.4" height="0.5"/>
		</g>
		<g>
			<rect x="129.8" y="103.5" fill="#D1D3D4" width="46.7" height="0.5"/>
		</g>
		<g>
			<rect x="129.8" y="112" fill="#D1D3D4" width="33.4" height="0.5"/>
		</g>
		<g>
			<rect x="154.3" y="122.2" fill="#D1D3D4" width="22.2" height="0.5"/>
		</g>
		<g>
			<rect x="166" y="129.7" fill="#D1D3D4" width="10.4" height="0.5"/>
		</g>
		<g>
			<g>
				<path fill="#D0D2D3" d="M112.1,168.1h29.2c2.7,0,4.9-2.2,4.9-4.9V90.5c0-2.7-2.2-4.9-4.9-4.9h-29.2c-2.7,0-4.9,2.2-4.9,4.9v72.7
					C107.2,165.9,109.4,168.1,112.1,168.1z"/>
			</g>
			<g>
				<path fill="#EFEFEF" d="M112.1,167.7h29.2c2.7,0,4.9-2.2,4.9-4.9V90.1c0-2.7-2.2-4.9-4.9-4.9h-29.2c-2.7,0-4.9,2.2-4.9,4.9v72.7
					C107.2,165.5,109.4,167.7,112.1,167.7z"/>
			</g>
			<g>
				<rect x="109.1" y="94.9" fill="#FFDF7A" width="35.6" height="60.8"/>
			</g>
			<g>
				<circle fill="#BBBDBF" cx="126.7" cy="88" r="0.6"/>
			</g>
			<g>
				<rect x="109.1" y="94.9" fill="#D0D2D3" width="35.6" height="1.4"/>
			</g>
			<g>
				<g>
					<g>
						<path fill="#F2BE2A" d="M131.8,110.5c-1.1,0-1.9-0.9-1.9-2c0-1.1,0.9-2,1.9-2c2.5,0,4.5-2.6,4.5-5.7v-1.8c0-1.1,0.9-2,1.9-2
							s1.9,0.9,1.9,2v1.8C140.1,106.1,136.4,110.5,131.8,110.5z"/>
					</g>
				</g>
				<g>
					<g>
						<path fill="#F2BE2A" d="M122.5,105.9c1,0,1.8,0.8,1.8,1.9s-0.8,1.9-1.8,1.9c-2.3,0-4.1,2.4-4.1,5.3v1.6c0,1-0.8,1.9-1.8,1.9
							s-1.8-0.8-1.8-1.9V115C114.9,110,118.3,105.9,122.5,105.9z"/>
					</g>
				</g>
				<g>
					<path fill="#FFCA22" d="M134.6,119.6v-9.2c0-4.4-3.4-8-7.5-8c-4.1,0-7.5,3.6-7.5,8v9.2H134.6z"/>
				</g>
				<g>
					<path fill="#F2BE2A" d="M123.5,93.2c0.3,0.8-0.1,1.7-0.9,2c-0.8,0.3-1.6-0.1-1.9-1c-0.3-0.8-0.1-2.5,0.6-2.8
						C122.1,91.2,123.2,92.4,123.5,93.2z"/>
				</g>
				<g>
					<path fill="#FF8A4C" d="M123,93.3c0.2,0.5-0.1,1.1-0.6,1.3c-0.5,0.2-1-0.1-1.2-0.6s-0.1-1.6,0.4-1.8
						C122.1,92,122.8,92.7,123,93.3z"/>
				</g>
				<g>
					<path fill="#F2BE2A" d="M130.8,93.2c-0.3,0.8,0.1,1.7,0.9,2c0.8,0.3,1.6-0.1,1.9-1c0.3-0.8,0.1-2.5-0.6-2.8
						C132.2,91.2,131.1,92.4,130.8,93.2z"/>
				</g>
				<g>
					<path fill="#FF8A4C" d="M131.3,93.3c-0.2,0.5,0.1,1.1,0.6,1.3c0.5,0.2,1-0.1,1.2-0.6s0.1-1.6-0.4-1.8S131.5,92.7,131.3,93.3z"
						/>
				</g>
				<g opacity="0.15">
					<path fill="#231F20" d="M127.2,102.2c-2.4,0-4.6,1.2-5.9,3.2c0.8,0.4,1.7,0.6,2.6,0.6h6.7c0.9,0,1.8-0.2,2.6-0.6
						C131.7,103.4,129.6,102.2,127.2,102.2z"/>
				</g>
				<g>
					<path fill="#FFCA22" d="M129.9,105.2l-5.6,0c-3.1,0-5.7-2.5-5.7-5.7v-1.1c0-3.1,2.5-5.7,5.7-5.7l5.6,0c3.1,0,5.7,2.5,5.7,5.7
						v1.1C135.6,102.7,133.1,105.2,129.9,105.2z"/>
				</g>
				<g>
					<g>
						<g>
							<path fill="#20314B" d="M121.2,98.3C121.2,98.3,121.1,98.3,121.2,98.3c-0.1,0-0.2-0.1-0.1-0.2c0.2-0.5,0.6-0.8,1.1-0.8
								c0.5,0,0.9,0.3,1.1,0.8c0,0.1,0,0.2-0.1,0.2c-0.1,0-0.2,0-0.2-0.1c-0.1-0.3-0.4-0.6-0.8-0.6s-0.6,0.2-0.8,0.6
								C121.3,98.3,121.2,98.3,121.2,98.3z"/>
						</g>
					</g>
					<g>
						<g>
							<path fill="#20314B" d="M131.3,98.3C131.3,98.3,131.3,98.3,131.3,98.3c-0.1,0-0.2-0.1-0.1-0.2c0.2-0.5,0.6-0.8,1.1-0.8
								c0.5,0,0.9,0.3,1.1,0.8c0,0.1,0,0.2-0.1,0.2c-0.1,0-0.2,0-0.2-0.1c-0.1-0.3-0.4-0.6-0.8-0.6c-0.3,0-0.6,0.2-0.8,0.6
								C131.4,98.3,131.4,98.3,131.3,98.3z"/>
						</g>
					</g>
				</g>
				<g>
					<g>
						<path fill="#FFD54E" d="M127.2,105.7L127.2,105.7c-1.8,0-3.3-1.6-3.3-3.6v0h6.7v0C130.5,104.1,129,105.7,127.2,105.7z"/>
					</g>
					<g>
						<path fill="#FFD54E" d="M127.2,102.5L127.2,102.5c-1.5,0-2.7-1.3-2.7-2.8v0h5.5v0C129.9,101.3,128.7,102.5,127.2,102.5z"/>
					</g>
					<g>
						<path fill="#3E5270" d="M128.5,102.2c0,0.8-0.6,1.4-1.3,1.4s-1.3-0.6-1.3-1.4H128.5z"/>
					</g>
					<g>
						<polygon fill="#FFDF7A" points="128.3,99.7 126,99.7 126.5,95.2 127.8,95.2 						"/>
					</g>
					<g>
						<polygon fill="#FF6D1F" points="127.2,101.2 126,99.7 128.3,99.7 						"/>
					</g>
					<g>
						<g>
							<polygon fill="#FFFFFF" points="126.5,102.6 126.1,102.2 126.8,102.2 							"/>
						</g>
						<g>
							<polygon fill="#FFFFFF" points="127.9,102.6 127.5,102.2 128.2,102.2 							"/>
						</g>
					</g>
				</g>
				<g>
					<g>
						<g>
							<path fill="#FFFFFF" d="M128.9,100.6c-0.1,0-0.2-0.1-0.2-0.1c0-0.1,0-0.2,0.1-0.2l2.8-0.7c0.1,0,0.2,0,0.2,0.1
								c0,0.1,0,0.2-0.1,0.2L128.9,100.6C129,100.6,128.9,100.6,128.9,100.6z"/>
						</g>
						<g>
							<path fill="#FFFFFF" d="M131.7,102.1C131.7,102.1,131.7,102.1,131.7,102.1l-2.8-0.7c-0.1,0-0.2-0.1-0.1-0.2
								c0-0.1,0.1-0.2,0.2-0.1l2.8,0.7c0.1,0,0.2,0.1,0.1,0.2C131.9,102.1,131.8,102.1,131.7,102.1z"/>
						</g>
					</g>
					<g>
						<g>
							<path fill="#FFFFFF" d="M122.6,102.1c-0.1,0-0.2-0.1-0.2-0.1c0-0.1,0-0.2,0.1-0.2l2.8-0.7c0.1,0,0.2,0,0.2,0.1
								c0,0.1,0,0.2-0.1,0.2L122.6,102.1C122.6,102.1,122.6,102.1,122.6,102.1z"/>
						</g>
						<g>
							<path fill="#FFFFFF" d="M125.4,100.6C125.4,100.6,125.4,100.6,125.4,100.6l-2.8-0.7c-0.1,0-0.2-0.1-0.1-0.2
								c0-0.1,0.1-0.2,0.2-0.1l2.8,0.7c0.1,0,0.2,0.1,0.1,0.2C125.5,100.6,125.5,100.6,125.4,100.6z"/>
						</g>
					</g>
				</g>
				<g>
					<path fill="#BF9F3B" d="M118.7,98.4c0,0.1,0,0.2,0,0.3v0.7c0,1,0.2,1.9,0.6,2.7h1.2l-1.7-1.8h1.7L118.7,98.4z"/>
				</g>
				<g>
					<path fill="#BF9F3B" d="M135.6,98.4c0,0.1,0,0.2,0,0.3v0.7c0,1-0.2,1.9-0.6,2.7h-1.2l1.7-1.8h-1.7L135.6,98.4z"/>
				</g>
				<g>
					<g>
						<polygon fill="#BF9F3B" points="125.8,94.4 125.8,92.8 127.3,92.8 						"/>
					</g>
					<g>
						<polygon fill="#BF9F3B" points="127.1,94.4 127.1,92.8 128.7,92.8 						"/>
					</g>
					<g>
						<polygon fill="#BF9F3B" points="128.5,94.4 128.5,92.8 130.1,92.8 						"/>
					</g>
					<g>
						<polygon fill="#BF9F3B" points="124.3,94.4 124.3,92.8 125.8,92.8 						"/>
					</g>
				</g>
				<g>
					<path fill="#FFEAA7" d="M131.8,119.6V114c0-2.7-2.1-5-4.6-5c-2.5,0-4.6,2.2-4.6,5v5.7H131.8z"/>
				</g>
				<g>
					<ellipse fill="#FFEAA7" cx="138.1" cy="99" rx="1.2" ry="1.3"/>
				</g>
			</g>
			<g>
				<polygon fill="#FFCA22" points="109.1,155.7 144.6,155.7 144.6,117 109.1,120.1 				"/>
			</g>
			<g>
				<path fill="#FF6D1F" d="M116.5,136.5c0-0.6-0.1-0.8-0.4-0.8c-0.4,0-0.5,0.4-0.5,1.8s0,1.8,0.5,1.8c0.3,0,0.4-0.3,0.4-1.3h1.4
					v0.4c0,1.5-0.9,1.9-1.8,1.9c-1.6,0-1.9-0.8-1.9-2.8c0-2.1,0.5-2.8,1.9-2.8c1.3,0,1.7,0.7,1.7,1.7v0.3h-1.4V136.5z"/>
				<path fill="#FF6D1F" d="M119.4,134.9h1.8l1.3,5.4H121l-0.1-0.9h-1.1l-0.1,0.9h-1.5L119.4,134.9z M120.3,136L120.3,136l-0.4,2.3
					h0.8L120.3,136z"/>
				<path fill="#FF6D1F" d="M123.1,136.1h-1.1v-1.2h3.5v1.2h-1.1v4.2h-1.4V136.1z"/>
				<path fill="#FF8A4C" d="M125.8,139.3l1.7-3.2h-1.6v-1.1h3.2v1l-1.7,3.2h1.7v1.1h-3.3V139.3z"/>
				<path fill="#FF8A4C" d="M131.5,134.8c1.4,0,1.9,0.8,1.9,2.8c0,2-0.5,2.8-1.9,2.8c-1.4,0-1.9-0.8-1.9-2.8
					C129.6,135.6,130,134.8,131.5,134.8z M131.5,139.4c0.4,0,0.5-0.4,0.5-1.8s0-1.8-0.5-1.8c-0.4,0-0.5,0.4-0.5,1.8
					S131,139.4,131.5,139.4z"/>
				<path fill="#FF8A4C" d="M134,134.9h1.6l0.9,3.3h0v-3.3h1.3v5.4h-1.5l-0.9-3.3h0v3.3H134V134.9z"/>
				<path fill="#FF8A4C" d="M138.6,134.9h3.2v1.1H140v0.9h1.7v1.1H140v1.1h1.8v1.1h-3.2V134.9z"/>
			</g>
			<g>
				<path fill="#FFFFFF" d="M120.1,131.6l0.6-2.8c-0.2-0.1-0.4-0.2-0.5-0.2c-0.2,0-0.3-0.1-0.5-0.1c-0.1,0.3-0.3,0.6-0.4,1
					c-0.1,0.3-0.2,0.6-0.3,1c-0.1,0.3-0.2,0.6-0.2,0.9c-0.1,0.3-0.1,0.5-0.1,0.7c0,0.1,0,0.2,0,0.3c0,0.1,0,0.1,0.1,0.1
					c-0.1,0-0.2,0-0.3,0c-0.1,0-0.2,0-0.3-0.1c-0.1-0.1-0.2-0.1-0.3-0.2c-0.1-0.1-0.1-0.3-0.1-0.5c0-0.2,0-0.4,0.1-0.6
					c0.1-0.2,0.1-0.5,0.2-0.8c0.1-0.3,0.2-0.6,0.4-0.9c0.1-0.3,0.3-0.6,0.5-0.9c-0.2,0-0.4,0.1-0.6,0.1c-0.2,0.1-0.3,0.2-0.3,0.3
					c0,0,0,0,0.1,0.1c0,0.1,0,0.1,0,0.2c0,0.1,0,0.2-0.1,0.2c-0.1,0.1-0.2,0.1-0.3,0.1c-0.1,0-0.1,0-0.2,0c-0.1,0-0.1,0-0.1-0.1
					c0,0-0.1-0.1-0.1-0.1c0-0.1,0-0.1,0-0.2c0-0.1,0-0.3,0.1-0.4c0.1-0.1,0.2-0.2,0.3-0.3c0.1-0.1,0.3-0.2,0.5-0.2s0.4-0.1,0.6-0.1
					c0.1,0,0.2,0,0.4,0c0.2-0.3,0.4-0.6,0.6-0.9c0.2-0.3,0.4-0.5,0.7-0.7c0.2-0.2,0.5-0.4,0.7-0.5c0.2-0.1,0.5-0.2,0.7-0.2
					c0.1,0,0.2,0,0.3,0c0.1,0,0.2,0,0.3,0.1l-1.2,5.6H120.1z M121.2,126.4c-0.1,0.1-0.2,0.2-0.3,0.3c-0.1,0.1-0.2,0.3-0.4,0.4
					c-0.1,0.2-0.2,0.3-0.3,0.5c-0.1,0.2-0.2,0.4-0.3,0.6c0.2,0,0.3,0.1,0.5,0.1c0.2,0,0.3,0.1,0.5,0.2L121.2,126.4z"/>
				<path fill="#FFFFFF" d="M123.2,126.4l1.1-0.2l-0.4,1.7c0.1,0,0.1-0.1,0.2-0.1c0.1,0,0.1-0.1,0.2-0.1c0,0,0.1,0,0.1,0
					c0,0,0.1,0,0.1,0c0.1,0,0.3,0,0.4,0.1c0.1,0,0.2,0.1,0.3,0.2c0.1,0.1,0.1,0.2,0.2,0.4c0,0.2,0.1,0.4,0.1,0.6c0,0.1,0,0.3,0,0.5
					c0,0.2-0.1,0.4-0.1,0.6c-0.1,0.2-0.2,0.4-0.3,0.6c-0.1,0.2-0.2,0.3-0.4,0.5c-0.2,0.1-0.3,0.3-0.5,0.3c-0.2,0.1-0.4,0.1-0.7,0.1
					c-0.4,0-0.6-0.1-0.8-0.3c-0.2-0.2-0.3-0.4-0.3-0.7c0-0.1,0-0.1,0-0.2c0-0.1,0-0.1,0-0.2L123.2,126.4z M123.4,130.4
					c0,0.1,0,0.1,0,0.2c0,0.2,0.1,0.4,0.4,0.4c0.1,0,0.2,0,0.2-0.1c0.1-0.1,0.1-0.1,0.2-0.2c0.1-0.1,0.1-0.2,0.2-0.3
					c0.1-0.1,0.1-0.3,0.1-0.4c0-0.1,0.1-0.3,0.1-0.4c0-0.1,0-0.3,0-0.4c0-0.1,0-0.2,0-0.3c0-0.1,0-0.2-0.1-0.2
					c0-0.1-0.1-0.1-0.1-0.2c-0.1,0-0.1-0.1-0.2-0.1c0,0-0.1,0-0.1,0c0,0-0.1,0-0.1,0c0,0-0.1,0-0.1,0c0,0-0.1,0-0.1,0.1L123.4,130.4
					z"/>
				<path fill="#FFFFFF" d="M126.7,126.4l1.1-0.2l-0.4,1.7c0.1,0,0.1-0.1,0.2-0.1c0.1,0,0.1-0.1,0.2-0.1c0.1,0,0.1,0,0.1,0
					c0,0,0.1,0,0.1,0c0.1,0,0.3,0,0.4,0.1c0.1,0,0.2,0.1,0.3,0.2c0.1,0.1,0.1,0.2,0.2,0.4c0,0.2,0.1,0.4,0.1,0.6c0,0.1,0,0.3,0,0.5
					c0,0.2-0.1,0.4-0.1,0.6c-0.1,0.2-0.2,0.4-0.3,0.6c-0.1,0.2-0.2,0.3-0.4,0.5c-0.2,0.1-0.3,0.3-0.5,0.3c-0.2,0.1-0.4,0.1-0.7,0.1
					c-0.4,0-0.6-0.1-0.8-0.3c-0.2-0.2-0.3-0.4-0.3-0.7c0-0.1,0-0.1,0-0.2c0-0.1,0-0.1,0-0.2L126.7,126.4z M126.9,130.4
					c0,0.1,0,0.1,0,0.2c0,0.2,0.1,0.4,0.4,0.4c0.1,0,0.2,0,0.2-0.1c0.1-0.1,0.1-0.1,0.2-0.2c0.1-0.1,0.1-0.2,0.2-0.3
					c0.1-0.1,0.1-0.3,0.1-0.4c0-0.1,0.1-0.3,0.1-0.4c0-0.1,0-0.3,0-0.4c0-0.1,0-0.2,0-0.3c0-0.1,0-0.2-0.1-0.2
					c0-0.1-0.1-0.1-0.1-0.2c-0.1,0-0.1-0.1-0.2-0.1c0,0-0.1,0-0.1,0c0,0-0.1,0-0.1,0s-0.1,0-0.1,0c0,0-0.1,0-0.1,0.1L126.9,130.4z"
					/>
				<path fill="#FFFFFF" d="M131.1,131.2c-0.1,0.1-0.2,0.2-0.2,0.2c-0.1,0.1-0.2,0.1-0.2,0.1c-0.1,0-0.2,0.1-0.2,0.1
					c-0.1,0-0.1,0-0.2,0c-0.1,0-0.2,0-0.3-0.1c-0.1,0-0.2-0.1-0.3-0.2c-0.1-0.1-0.1-0.2-0.2-0.3c0-0.1-0.1-0.3-0.1-0.4
					c0-0.1,0-0.1,0-0.2c0-0.1,0-0.2,0-0.3l0.5-2.5h1.1l-0.5,2.6c0,0.1,0,0.1,0,0.2c0,0,0,0.1,0,0.1c0,0,0,0.1,0,0.1
					c0,0,0,0.1,0.1,0.1c0,0,0.1,0,0.1,0c0.1,0,0.1,0,0.2-0.1c0.1,0,0.1-0.1,0.2-0.1c0.1-0.1,0.1-0.1,0.1-0.2c0-0.1,0.1-0.2,0.1-0.3
					l0.5-2.5h1.1l-0.9,4.4c-0.1,0.3-0.1,0.5-0.2,0.7c-0.1,0.2-0.2,0.3-0.4,0.4c-0.1,0.1-0.3,0.2-0.4,0.2c-0.1,0-0.3,0-0.4,0
					c-0.1,0-0.2,0-0.3-0.1c-0.1,0-0.2-0.1-0.3-0.2c-0.1-0.1-0.2-0.2-0.2-0.3c-0.1-0.1-0.1-0.2-0.1-0.3c0-0.2,0-0.3,0.1-0.5
					c0.1-0.1,0.2-0.2,0.3-0.3c0.1-0.1,0.3-0.2,0.4-0.2c0.2-0.1,0.3-0.1,0.5-0.2L131.1,131.2z M130.9,131.8c-0.1,0-0.2,0.1-0.3,0.1
					c-0.1,0-0.2,0.1-0.3,0.2c-0.1,0.1-0.1,0.1-0.2,0.2c0,0.1-0.1,0.2-0.1,0.3c0,0,0,0.1,0,0.1c0,0,0,0.1,0.1,0.1c0,0,0.1,0,0.1,0.1
					c0,0,0.1,0,0.1,0c0,0,0.1,0,0.1,0c0,0,0.1-0.1,0.1-0.1s0.1-0.1,0.1-0.2c0-0.1,0.1-0.2,0.1-0.3L130.9,131.8z"/>
				<path fill="#FFFFFF" d="M133.8,126.4c0-0.1,0-0.1,0-0.2c0-0.1,0.1-0.1,0.1-0.2c0,0,0.1-0.1,0.2-0.1c0.1,0,0.1,0,0.2,0
					c0.1,0,0.1,0,0.2,0c0.1,0,0.1,0.1,0.2,0.1c0,0,0.1,0.1,0.1,0.2c0,0.1,0,0.1,0,0.2c0,0.1,0,0.2-0.1,0.3c0,0.1-0.1,0.2-0.2,0.3
					c-0.1,0.1-0.2,0.2-0.3,0.3c-0.1,0.1-0.2,0.2-0.4,0.3l-0.1-0.1c0.1-0.1,0.2-0.2,0.3-0.3c0.1-0.1,0.1-0.2,0.1-0.2
					c0,0,0-0.1-0.1-0.1c0,0-0.1-0.1-0.1-0.1c0,0-0.1-0.1-0.1-0.1C133.9,126.5,133.8,126.5,133.8,126.4z"/>
				<path fill="#FFFFFF" d="M136.9,127.5c0,0.3,0,0.6,0,0.9c0,0.2,0,0.5,0,0.6c0,0.2,0,0.3,0,0.5c0,0.1,0,0.2,0,0.3
					c0,0.1,0,0.2,0,0.3c0,0.1,0,0.2,0,0.2c0,0.2,0,0.3-0.1,0.4c0,0.1-0.1,0.2-0.2,0.3c-0.1,0.1-0.2,0.2-0.3,0.2
					c-0.1,0.1-0.2,0.1-0.3,0.2c-0.1,0-0.2,0.1-0.3,0.1c-0.1,0-0.2,0-0.3,0c-0.2,0-0.4,0-0.5-0.1c-0.1-0.1-0.3-0.1-0.3-0.2
					c-0.1-0.1-0.2-0.2-0.2-0.3c0-0.1-0.1-0.2-0.1-0.3c0-0.1,0-0.2,0-0.2c0-0.1,0.1-0.1,0.1-0.2c0-0.1,0.1-0.1,0.1-0.2
					c0,0,0.1-0.1,0.2-0.1c0.2-0.4,0.4-0.8,0.5-1.1c0.1-0.4,0.3-0.8,0.4-1.1L136.9,127.5z M134.9,130.5c0,0.2,0,0.3,0.1,0.4
					c0.1,0.1,0.2,0.1,0.4,0.1c0.1,0,0.2,0,0.2,0c0.1,0,0.2-0.1,0.2-0.1c0.1-0.1,0.1-0.1,0.1-0.2c0-0.1,0.1-0.2,0.1-0.3
					c0-0.1,0-0.1,0-0.2s0-0.1,0-0.2c0-0.1,0-0.1,0-0.2c0-0.1,0-0.2,0-0.3c0-0.1,0-0.2,0-0.4c0-0.1,0-0.3,0-0.5
					c-0.1,0.2-0.2,0.5-0.3,0.7c-0.1,0.2-0.2,0.5-0.3,0.7c0.1,0,0.1,0.1,0.1,0.1c0,0,0.1,0.1,0.1,0.2c0,0,0,0.1,0,0.1
					c0,0,0,0.1-0.1,0.1c0,0-0.1,0.1-0.1,0.1c0,0-0.1,0-0.1,0C135,130.6,135,130.6,134.9,130.5C134.9,130.6,134.9,130.5,134.9,130.5z
					"/>
			</g>
			<g>
				<g>
					<circle fill="#FFAA22" cx="122.1" cy="148" r="1.5"/>
				</g>
				<g>
					<path fill="#FFAA22" d="M128.8,149.5h-0.4c-0.7,0-1.2-0.5-1.2-1.2v-0.6c0-0.4-0.3-0.7-0.7-0.7s-0.7,0.3-0.7,0.7v0.6
						c0,0.7-0.5,1.2-1.2,1.2h-0.2c-0.7,0-1.2-0.5-1.2-1.2v-0.2h0.5v0.2c0,0.4,0.3,0.7,0.7,0.7h0.2c0.4,0,0.7-0.3,0.7-0.7v-0.6
						c0-0.7,0.5-1.2,1.2-1.2c0.7,0,1.2,0.5,1.2,1.2v0.6c0,0.4,0.3,0.7,0.7,0.7h0.4c0.4,0,0.7-0.3,0.7-0.7v-0.6
						c0-0.7,0.5-1.2,1.2-1.2h0.1c0.7,0,1.2,0.5,1.2,1.2v0.7h-0.5v-0.7c0-0.4-0.3-0.7-0.7-0.7h-0.1c-0.4,0-0.7,0.3-0.7,0.7v0.6
						C130,148.9,129.5,149.5,128.8,149.5z"/>
				</g>
				<g>
					<path fill="#FFCA22" d="M122,149.1c-0.6,0-1.1-0.5-1.1-1.1v-0.2c0-0.1,0.1-0.2,0.2-0.2c0.1,0,0.2,0.1,0.2,0.2v0.2
						c0,0.4,0.3,0.7,0.7,0.7c0.1,0,0.2,0.1,0.2,0.2S122.1,149.1,122,149.1z"/>
				</g>
			</g>
			<g>
				<path fill="#D0D2D3" d="M126.7,87.8c-0.3,0-0.5,0.2-0.6,0.4c0.1,0.2,0.3,0.4,0.6,0.4c0.3,0,0.5-0.2,0.6-0.4
					C127.1,88,126.9,87.8,126.7,87.8z"/>
			</g>
			<g>
				<circle fill="#D0D2D3" cx="126.7" cy="161.3" r="3.1"/>
			</g>
			<g>
				<circle fill="#FFFFFF" cx="126.7" cy="160.8" r="3.1"/>
			</g>
			<g>
				<path fill="#D0D2D3" d="M126.7,163.1c-1.2,0-2.3-1-2.3-2.3s1-2.3,2.3-2.3s2.3,1,2.3,2.3S127.9,163.1,126.7,163.1z M126.7,158.9
					c-1,0-1.9,0.9-1.9,1.9c0,1,0.9,1.9,1.9,1.9c1,0,1.9-0.9,1.9-1.9C128.6,159.8,127.7,158.9,126.7,158.9z"/>
			</g>
		</g>
		<g>
			<g>
				<circle fill="#0F3B7A" cx="73.7" cy="99.6" r="5.5"/>
			</g>
			<g>
				<circle fill="#0F3B7A" cx="74.2" cy="105.1" r="3.8"/>
			</g>
			<g>
				<circle fill="#0F3B7A" cx="66.8" cy="105.6" r="2.7"/>
			</g>
			<g>
				<circle fill="#0F3B7A" cx="76.1" cy="108.9" r="5.5"/>
			</g>
			<g>
				<circle fill="#0F3B7A" cx="69.5" cy="109.3" r="3.3"/>
			</g>
			<g>
				<circle fill="#0F3B7A" cx="105.7" cy="98.7" r="5.5"/>
			</g>
			<g>
				<circle fill="#0F3B7A" cx="104.7" cy="104.7" r="5.5"/>
			</g>
			<g>
				<circle fill="#0F3B7A" cx="101.8" cy="109.1" r="5.5"/>
			</g>
			<g>
				<circle fill="#0F3B7A" cx="80.3" cy="111.9" r="2.7"/>
			</g>
			<g>
				<circle fill="#0F3B7A" cx="111.2" cy="103" r="3.3"/>
			</g>
			<g>
				<circle fill="#0F3B7A" cx="110.8" cy="108" r="4.1"/>
			</g>
			<g>
				<path fill="#FFBB4E" d="M79.9,142v2.4c0,1.2-1.1,2.1-2.4,2.1h-0.6c-1.3,0-2.4-1-2.4-2.1V142H79.9z"/>
			</g>
			<g>
				<path fill="#F25F1D" d="M80.2,116.7c-3.2,0-5.8,2.6-5.8,5.8V142h5.8v-16.6v-1.8V116.7z"/>
			</g>
			<g>
				<rect x="83.4" y="114.5" fill="#F25F1D" width="13.8" height="3"/>
			</g>
			<g opacity="0.15">
				<polygon fill="#231F20" points="96.3,114.5 97.3,114.5 97.3,117.4 92.7,117.4 				"/>
			</g>
			<g>
				<rect x="74.5" y="125.4" fill="#FF8A4C" width="5.5" height="2.5"/>
			</g>
			<g opacity="0.15">
				<polygon fill="#231F20" points="84.4,114.5 83.4,114.5 83.4,117.4 88,117.4 				"/>
			</g>
			<g opacity="0.15">
				<rect x="74.5" y="142" fill="#231F20" width="5.8" height="0.9"/>
			</g>
			<g>
				<polygon fill="#FFBB4E" points="94.9,117.4 85.8,117.4 86.9,114.6 93.8,114.6 				"/>
			</g>
			<g opacity="0.15">
				<path fill="#231F20" d="M86.3,116.2c1.3,0.3,2.7,0.5,4.2,0.5c1.4,0,2.7-0.2,4-0.4l-0.6-1.6h-6.9L86.3,116.2z"/>
			</g>
			<g>
				<g>
					<path fill="#FFBB4E" d="M101.1,142v2.4c0,1.2,1.1,2.1,2.4,2.1h0.6c1.3,0,2.4-1,2.4-2.1V142H101.1z"/>
				</g>
				<g>
					<path fill="#F25F1D" d="M100.8,116.7c3.2,0,5.8,2.6,5.8,5.8V142h-5.8v-16.6v-1.8V116.7z"/>
				</g>
				<g>
					<rect x="101.1" y="125.4" fill="#FF8A4C" width="5.5" height="2.5"/>
				</g>
				<g opacity="0.15">
					<rect x="100.8" y="142" fill="#231F20" width="5.8" height="0.9"/>
				</g>
			</g>
			<g>
				<polygon fill="#FF6D1F" points="100.8,116.7 79.9,116.7 78.3,141.2 102.4,141.2 				"/>
			</g>
			<g>
				<circle fill="#FFBB4E" cx="90.4" cy="99.5" r="16.3"/>
			</g>
			<g>
				<circle fill="#FFCC7A" cx="86.4" cy="104.3" r="0.6"/>
			</g>
			<g>
				<rect x="81" y="124.3" fill="#20314B" width="8.3" height="0.8"/>
			</g>
			<g>
				<path fill="#FFBB4E" d="M90.4,119.9c2.4,0,4.3-1.3,4.3-2.9c0-0.1,0-0.2,0-0.3h-8.5c0,0.1,0,0.2,0,0.3
					C86.1,118.6,88,119.9,90.4,119.9z"/>
			</g>
			<g>
				<path fill="#0F3B7A" d="M99.1,85.5c-2.6-1.7-5.7-2.8-9.1-2.8c-9,0-16.3,7.3-16.3,16.3c0,0.6,0,1.3,0.1,1.9
					C87.9,101.5,96.1,90.5,99.1,85.5z"/>
			</g>
			<g>
				<circle fill="#0F3B7A" cx="107.3" cy="111.5" r="2.7"/>
			</g>
			<g>
				<path fill="#0F3B7A" d="M96.5,84.1L94.6,90c0,0,9.7,5.3,12.3,12.1c0.1-0.9,0.2-1.7,0.2-2.7C107.2,92.4,102.7,86.4,96.5,84.1z"/>
			</g>
			<g opacity="0.15">
				<path fill="#231F20" d="M90,98.2c6.9,0,13.4-1.1,18.8-2.9c-1.3-8.6-9.2-15.2-18.8-15.2s-17.5,6.6-18.8,15.2
					C76.6,97.1,83.1,98.2,90,98.2z"/>
			</g>
			<g>
				<path fill="#FF6D1F" d="M90,97.3c6.9,0,13.4-1.1,18.8-2.9c-1.3-8.6-9.2-15.2-18.8-15.2s-17.5,6.6-18.8,15.2
					C76.6,96.2,83.1,97.3,90,97.3z"/>
			</g>
			<g>
				<path fill="#FF8A4C" d="M90,79.2c-7.8,0-14.4,4.4-17.4,10.6c5.1,1.5,11,2.4,17.4,2.4c6.3,0,12.3-0.9,17.4-2.4
					C104.4,83.5,97.8,79.2,90,79.2z"/>
			</g>
			<g>
				<path fill="#FF6D1F" d="M81.7,80.9c1.5,1.1,4.7,1.9,8.5,1.9c3.6,0,6.7-0.7,8.3-1.7c-2.6-1.2-5.4-1.9-8.5-1.9
					C87,79.2,84.2,79.8,81.7,80.9z"/>
			</g>
			<g>
				<path fill="#081E3D" d="M100.8,141v1.9c0,2-1.5,3.6-3.3,3.6H83.2c-1.8,0-3.3-1.6-3.3-3.6V141H100.8z"/>
			</g>
			<g>
				<circle fill="#0F3B7A" cx="74.8" cy="102.1" r="3.6"/>
			</g>
			<g>
				<circle fill="#0F3B7A" cx="68.2" cy="101.5" r="2.7"/>
			</g>
			<g>
				<circle fill="#0F3B7A" cx="69.6" cy="105.2" r="2.7"/>
			</g>
			<g>
				<circle fill="#FFCC7A" cx="87.5" cy="101.7" r="0.6"/>
			</g>
			<g>
				<path fill="#FFFFFF" d="M92.9,109c0,1.3-1.1,2.4-2.4,2.4S88,110.4,88,109H92.9z"/>
			</g>
			<g>
				<path fill="#FF8A4C" d="M92.1,105.1c0,0.9-0.7,1.6-1.6,1.6s-1.6-0.7-1.6-1.6c0-0.9,0.7-3.4,1.6-3.4S92.1,104.2,92.1,105.1z"/>
			</g>
			<g>
				<circle fill="#FFCC7A" cx="84.7" cy="102" r="0.6"/>
			</g>
			<g>
				<circle fill="#FFCC7A" cx="94.3" cy="104.3" r="0.6"/>
			</g>
			<g>
				<circle fill="#FFCC7A" cx="93.2" cy="101.7" r="0.6"/>
			</g>
			<g>
				<circle fill="#FFCC7A" cx="96" cy="102" r="0.6"/>
			</g>
			<g opacity="0.15">
				<path fill="#231F20" d="M86.6,79.5c1,0.8,2.4,1.3,3.8,1.3c1.4,0,2.6-0.5,3.6-1.2c-1.3-0.3-2.7-0.4-4.1-0.4
					C88.8,79.2,87.7,79.3,86.6,79.5z"/>
			</g>
			<g>
				<polygon fill="#F25F1D" points="90,119.9 83.4,119.9 83.4,114.5 				"/>
			</g>
			<g>
				<polygon fill="#F25F1D" points="90.7,119.9 97.3,119.9 97.3,114.5 				"/>
			</g>
			<g>
				<circle fill="#FFCA22" cx="90.4" cy="74.8" r="5.5"/>
			</g>
			<g>
				<polygon fill="#081E3D" points="87.3,167.6 88.8,145.2 82.7,145.2 84.2,167.6 				"/>
			</g>
			<g>
				<polygon fill="#081E3D" points="93.5,167.6 92,145.2 98.1,145.2 96.6,167.6 				"/>
			</g>
			<g>
				<path fill="#BFA75C" d="M88.8,157.8H83l0.5,7.6h-1c-0.3,0-0.6,0.1-0.9,0.3l-0.1,0.1c-1.1,0.8-0.5,2.6,0.9,2.6l0,0h1.3h4.3h0
					l0.2-3h0L88.8,157.8z"/>
			</g>
			<g>
				<g>
					<path fill="#FFFFFF" d="M83.4,163.8c-0.1,0-0.1,0-0.2-0.1c-0.1-0.1-0.1-0.2,0-0.3l1.1-1.2h-1.1c-0.1,0-0.2-0.1-0.2-0.2
						c0-0.1,0.1-0.2,0.2-0.2h1.7c0.1,0,0.2,0.1,0.2,0.1c0,0.1,0,0.2,0,0.3l-1.5,1.6C83.5,163.8,83.4,163.8,83.4,163.8z"/>
				</g>
				<g>
					<path fill="#FFFFFF" d="M84.8,164.1h-1.7c-0.1,0-0.2-0.1-0.2-0.2s0.1-0.2,0.2-0.2h1.7c0.1,0,0.2,0.1,0.2,0.2
						S85,164.1,84.8,164.1z"/>
				</g>
			</g>
			<g>
				<path fill="#8F8156" d="M81.1,167.3c0.2,0.6,0.7,1.1,1.4,1.1l0,0h1.3h4.3h0l0.1-1.1H81.1z"/>
			</g>
			<g opacity="0.15">
				<path fill="#231F20" d="M87.5,158.5c-0.1-0.1-0.3-0.2-0.4-0.3h-0.9c-0.2,0.1-0.3,0.2-0.4,0.3c-0.1-0.1-0.3-0.2-0.4-0.3h-0.9
					c-0.2,0.1-0.3,0.2-0.4,0.3c-0.1-0.1-0.3-0.2-0.4-0.3H83l0.2,2.4c0.3-0.1,0.5-0.2,0.7-0.4c0.2,0.2,0.6,0.4,0.9,0.4
					s0.7-0.2,0.9-0.4c0.2,0.2,0.6,0.4,0.9,0.4s0.7-0.2,0.9-0.4c0.2,0.2,0.6,0.4,0.9,0.4c0.1,0,0.1,0,0.2,0l0.2-2.4h-0.8
					C87.8,158.3,87.6,158.4,87.5,158.5z"/>
			</g>
			<g>
				<g>
					<circle fill="#FFFFFF" cx="82.9" cy="158.5" r="1.3"/>
				</g>
				<g>
					<circle fill="#FFFFFF" cx="84.8" cy="158.5" r="1.3"/>
				</g>
				<g>
					<circle fill="#FFFFFF" cx="86.6" cy="158.5" r="1.3"/>
				</g>
				<g>
					<circle fill="#FFFFFF" cx="88.4" cy="158.5" r="1.3"/>
				</g>
			</g>
			<g>
				<path fill="#BFA75C" d="M92.3,157.8H98l-0.5,7.6h1c0.3,0,0.6,0.1,0.9,0.3l0.1,0.1c1.1,0.8,0.5,2.6-0.9,2.6l0,0h-1.3H93h0l-0.2-3
					h0L92.3,157.8z"/>
			</g>
			<g>
				<g>
					<path fill="#FFFFFF" d="M97.7,163.8c-0.1,0-0.1,0-0.2-0.1l-1.5-1.6c-0.1-0.1-0.1-0.2,0-0.3c0-0.1,0.1-0.1,0.2-0.1h1.7
						c0.1,0,0.2,0.1,0.2,0.2c0,0.1-0.1,0.2-0.2,0.2h-1.1l1.1,1.2c0.1,0.1,0.1,0.2,0,0.3C97.8,163.8,97.7,163.8,97.7,163.8z"/>
				</g>
				<g>
					<path fill="#FFFFFF" d="M97.9,164.1h-1.7c-0.1,0-0.2-0.1-0.2-0.2s0.1-0.2,0.2-0.2h1.7c0.1,0,0.2,0.1,0.2,0.2
						S98,164.1,97.9,164.1z"/>
				</g>
			</g>
			<g>
				<path fill="#8F8156" d="M100,167.3c-0.2,0.6-0.7,1.1-1.4,1.1l0,0h-1.3H93h0l-0.1-1.1H100z"/>
			</g>
			<g opacity="0.15">
				<path fill="#231F20" d="M93.6,158.5c0.1-0.1,0.3-0.2,0.4-0.3h0.9c0.2,0.1,0.3,0.2,0.4,0.3c0.1-0.1,0.3-0.2,0.4-0.3h0.9
					c0.2,0.1,0.3,0.2,0.4,0.3c0.1-0.1,0.3-0.2,0.4-0.3H98l-0.2,2.4c-0.3-0.1-0.5-0.2-0.7-0.4c-0.2,0.2-0.6,0.4-0.9,0.4
					s-0.7-0.2-0.9-0.4c-0.2,0.2-0.6,0.4-0.9,0.4c-0.4,0-0.7-0.2-0.9-0.4c-0.2,0.2-0.6,0.4-0.9,0.4c-0.1,0-0.1,0-0.2,0l-0.2-2.4h0.8
					C93.3,158.3,93.4,158.4,93.6,158.5z"/>
			</g>
			<g>
				<g>
					<circle fill="#FFFFFF" cx="98.1" cy="158.5" r="1.3"/>
				</g>
				<g>
					<circle fill="#FFFFFF" cx="96.3" cy="158.5" r="1.3"/>
				</g>
				<g>
					<circle fill="#FFFFFF" cx="94.5" cy="158.5" r="1.3"/>
				</g>
				<g>
					<circle fill="#FFFFFF" cx="92.6" cy="158.5" r="1.3"/>
				</g>
			</g>
		</g>
		<g>
			<g>
				<g>
					
						<rect x="59.6" y="19.6" transform="matrix(0.6987 0.7154 -0.7154 0.6987 38.7064 -39.4576)" fill="#FFFFFF" width="13.3" height="13.3"/>
					<path fill="#FFAA22" d="M66.1,35.9l-9.6-9.8l9.8-9.6l9.6,9.8L66.1,35.9z M57.2,26.1l8.9,9.1l9.1-8.9l-8.9-9.1L57.2,26.1z"/>
				</g>
			</g>
			<g>
				<g>
					
						<rect x="59.3" y="41.4" transform="matrix(0.7156 0.6986 -0.6986 0.7156 52.321 -32.4003)" fill="#FFFFFF" width="13.3" height="13.3"/>
					<path fill="#FFAA22" d="M66.1,57.8l-9.8-9.6l9.6-9.8l9.8,9.6L66.1,57.8z M56.9,48.2l9.1,8.9l8.9-9.1L65.8,39L56.9,48.2z"/>
				</g>
			</g>
			<g>
				<g>
					
						<rect x="70.9" y="30.7" transform="matrix(0.6987 0.7154 -0.7154 0.6987 50.0526 -44.2412)" fill="#FFFFFF" width="13.3" height="13.3"/>
					<path fill="#FFAA22" d="M77.4,47l-9.6-9.8l9.8-9.6l9.6,9.8L77.4,47z M68.5,37.2l8.9,9.1l9.1-8.9l-8.9-9.1L68.5,37.2z"/>
				</g>
			</g>
			<g>
				
					<rect x="47.8" y="30.4" transform="matrix(0.6987 0.7154 -0.7154 0.6987 42.8821 -27.758)" fill="#FFAA22" width="13.3" height="13.3"/>
			</g>
			<g>
				<g>
					<path fill="#FFFFFF" d="M57.7,36.3c0-0.3-0.3-0.6-0.5-0.6l-2,0c0.1-0.3,0.4-1,0.2-1.4c-0.2-0.6-0.5-0.7-0.6-0.7
						c-0.2,0-0.4,0.2-0.4,0.5c0,0.9-0.8,1.9-1.5,2.2l0,2.7c0.2,0,0.4,0.1,0.6,0.1c0.3,0.1,0.6,0.2,1.1,0.2l1.9,0
						c0.3,0,0.4-0.1,0.4-0.4c0-0.1,0-0.2-0.1-0.2c0.2,0,0.4-0.2,0.4-0.4c0-0.1,0-0.3-0.1-0.3c0.2-0.1,0.4-0.3,0.4-0.5
						c0-0.1-0.1-0.3-0.2-0.4C57.6,36.8,57.7,36.5,57.7,36.3z"/>
				</g>
				<g>
					<path fill="#FFFFFF" d="M52.5,35.9l-1.3,0c0,0-0.1,0-0.1,0c0,0,0,0,0,0.1l0,3.3c0,0.1,0,0.1,0.1,0.1l1.3,0c0.1,0,0.1,0,0.1-0.1
						l0-0.6l0-2.1l0-0.5C52.6,35.9,52.6,35.9,52.5,35.9z M52,38.9c-0.1,0-0.1-0.1-0.1-0.1c0-0.1,0.1-0.1,0.1-0.1s0.1,0.1,0.1,0.1
						C52.2,38.8,52.1,38.9,52,38.9z"/>
				</g>
			</g>
			<g>
				<path fill="#FFAA22" d="M73.5,35.6l0.6,0l0,1.4l0,0c0.1-0.2,0.5-0.4,0.8-0.4c0.6,0,0.9,0.3,0.9,0.9l0,1.8l-0.6,0l0-1.7
					c0-0.4-0.2-0.6-0.5-0.6c-0.4,0-0.6,0.3-0.6,0.7l0,1.6l-0.6,0L73.5,35.6z"/>
				<path fill="#FFAA22" d="M76.3,36.6l0.4,0l0-0.8l0.6,0l0,0.8l0.5,0l0,0.4l-0.5,0l0,1.4c0,0.2,0,0.4,0.3,0.4c0.1,0,0.2,0,0.2,0
					l0,0.5c-0.1,0-0.3,0-0.4,0c-0.6,0-0.7-0.2-0.7-0.7l0-1.6l-0.4,0L76.3,36.6z"/>
				<path fill="#FFAA22" d="M78.1,36.6l0.4,0l0-0.8l0.6,0l0,0.8l0.5,0l0,0.4l-0.5,0l0,1.4c0,0.2,0,0.4,0.3,0.4c0.1,0,0.2,0,0.2,0
					l0,0.5c-0.1,0-0.3,0-0.4,0c-0.6,0-0.7-0.2-0.7-0.7l0-1.6l-0.4,0L78.1,36.6z"/>
				<path fill="#FFAA22" d="M80.1,36.7l0.6,0l0,0.4l0,0c0.2-0.3,0.5-0.4,0.8-0.4c0.8,0,1.2,0.7,1.2,1.4c0,0.7-0.4,1.4-1.2,1.4
					c-0.3,0-0.7-0.1-0.9-0.4h0l0,1.3l-0.6,0L80.1,36.7z M81.4,37.1c-0.5,0-0.7,0.4-0.8,0.9c0,0.5,0.3,0.9,0.7,0.9
					c0.5,0,0.7-0.5,0.7-0.9C82.2,37.5,81.9,37.1,81.4,37.1z"/>
			</g>
			<g>
				<path fill="#FFAA22" d="M65.3,26.4c0-0.3-0.3-0.5-0.6-0.5c-0.3,0-0.7,0.2-0.7,1c0,0.4,0.2,0.9,0.7,0.9c0.3,0,0.6-0.2,0.6-0.6
					l0.6,0c-0.1,0.7-0.5,1.1-1.2,1.1c-0.8,0-1.3-0.6-1.3-1.4c0-0.8,0.5-1.4,1.3-1.4c0.6,0,1.1,0.3,1.2,1L65.3,26.4z"/>
				<path fill="#FFAA22" d="M68.6,27.1l-0.5,0L68,28.2l-0.4,0l0.2-1.1l-0.6,0L67,28.2l-0.4,0l0.2-1.1l-0.5,0l0-0.4l0.5,0l0.1-0.7
					l-0.5,0l0-0.4l0.5,0l0.2-1.1l0.4,0l-0.2,1.1l0.6,0l0.2-1.1l0.4,0l-0.2,1.1l0.4,0l0,0.4l-0.5,0l-0.1,0.7l0.4,0L68.6,27.1z
					 M67.3,26.1l-0.1,0.7l0.6,0l0.1-0.7L67.3,26.1z"/>
			</g>
			<g>
				<path fill="#FFAA22" d="M63.7,48.2c0-0.3-0.3-0.5-0.6-0.5c-0.3,0-0.7,0.2-0.7,1c0,0.4,0.2,0.9,0.7,0.9c0.3,0,0.6-0.2,0.6-0.6
					l0.6,0c-0.1,0.7-0.5,1.1-1.2,1.1c-0.8,0-1.3-0.6-1.3-1.4c0-0.8,0.5-1.4,1.3-1.4c0.6,0,1.1,0.3,1.2,1L63.7,48.2z"/>
				<path fill="#FFAA22" d="M65.3,49.2c0,0.3,0.3,0.5,0.6,0.5c0.2,0,0.6,0,0.6-0.3c0-0.3-0.4-0.3-0.9-0.5c-0.4-0.1-0.8-0.3-0.8-0.8
					c0-0.6,0.6-0.8,1.1-0.7c0.5,0,1,0.2,1.1,0.8l-0.6,0c0-0.3-0.3-0.4-0.5-0.4c-0.2,0-0.5,0-0.5,0.3c0,0.3,0.4,0.3,0.9,0.4
					c0.4,0.1,0.9,0.3,0.8,0.8c0,0.6-0.6,0.9-1.2,0.8c-0.7,0-1.2-0.3-1.2-0.9L65.3,49.2z"/>
				<path fill="#FFAA22" d="M68,49.2c0,0.3,0.3,0.5,0.6,0.5c0.2,0,0.6,0,0.6-0.3c0-0.3-0.4-0.3-0.9-0.5c-0.4-0.1-0.8-0.3-0.8-0.8
					c0-0.6,0.6-0.8,1.1-0.7c0.5,0,1,0.2,1.1,0.8l-0.6,0c0-0.3-0.3-0.4-0.5-0.4c-0.2,0-0.5,0-0.5,0.3c0,0.3,0.4,0.3,0.9,0.4
					c0.4,0.1,0.9,0.3,0.8,0.8c0,0.6-0.6,0.9-1.2,0.8c-0.7,0-1.2-0.3-1.2-0.9L68,49.2z"/>
			</g>
		</g>
		<g>
			<path fill="#FFDDA7" d="M53.2,126.7c-0.4,0-0.7-0.3-0.7-0.7V95.3c0-0.4,0.3-0.7,0.7-0.7c0.4,0,0.7,0.3,0.7,0.7V126
				C53.9,126.4,53.6,126.7,53.2,126.7z"/>
		</g>
		<g>
			<g>
				<g>
					
						<rect x="46.8" y="53.1" transform="matrix(0.6987 0.7154 -0.7154 0.6987 58.7994 -20.2569)" fill="#FFFFFF" width="13.3" height="13.3"/>
					<path fill="#FF8A4C" d="M53.3,69.4l-9.6-9.8l9.8-9.6l9.6,9.8L53.3,69.4z M44.4,59.6l8.9,9.1l9.1-8.9l-8.9-9.1L44.4,59.6z"/>
				</g>
			</g>
			<g>
				<g>
					
						<rect x="46.6" y="74.9" transform="matrix(0.7156 0.6986 -0.6986 0.7156 72.0659 -13.9762)" fill="#FFFFFF" width="13.3" height="13.3"/>
					<path fill="#FF8A4C" d="M53.3,91.2l-9.8-9.6l9.6-9.8l9.8,9.6L53.3,91.2z M44.2,81.6l9.1,8.9l8.9-9.1l-9.1-8.9L44.2,81.6z"/>
				</g>
			</g>
			<g>
				<g>
					
						<rect x="58.2" y="64.1" transform="matrix(0.6987 0.7154 -0.7154 0.6987 70.1457 -25.0405)" fill="#FFFFFF" width="13.3" height="13.3"/>
					<path fill="#FF8A4C" d="M64.7,80.5l-9.6-9.8l9.8-9.6l9.6,9.8L64.7,80.5z M55.8,70.7l8.9,9.1l9.1-8.9l-8.9-9.1L55.8,70.7z"/>
				</g>
			</g>
			<g>
				
					<rect x="35" y="63.9" transform="matrix(0.6987 0.7154 -0.7154 0.6987 62.9751 -8.5573)" fill="#FF6D1F" width="13.3" height="13.3"/>
			</g>
			<g>
				<g>
					<path fill="#FFFFFF" d="M38.3,71.6c0,0.3,0.3,0.6,0.5,0.6l2,0c-0.1,0.3-0.4,1-0.2,1.4c0.2,0.6,0.5,0.7,0.6,0.7
						c0.2,0,0.4-0.2,0.4-0.5c0-0.9,0.8-1.9,1.5-2.2l0-2.7c-0.2,0-0.4-0.1-0.6-0.1c-0.3-0.1-0.6-0.2-1.1-0.2l-1.9,0
						c-0.3,0-0.4,0.1-0.4,0.4c0,0.1,0,0.2,0.1,0.2c-0.2,0-0.4,0.2-0.4,0.4c0,0.1,0,0.3,0.1,0.3c-0.2,0.1-0.4,0.3-0.4,0.5
						c0,0.1,0.1,0.3,0.2,0.4C38.4,71.1,38.3,71.4,38.3,71.6z"/>
				</g>
				<g>
					<path fill="#FFFFFF" d="M43.5,72l1.3,0c0,0,0.1,0,0.1,0c0,0,0,0,0-0.1l0-3.3c0-0.1,0-0.1-0.1-0.1l-1.3,0c-0.1,0-0.1,0-0.1,0.1
						l0,0.6l0,2.1l0,0.5C43.4,72,43.4,72,43.5,72z M44,69c0.1,0,0.1,0.1,0.1,0.1c0,0.1-0.1,0.1-0.1,0.1c-0.1,0-0.1-0.1-0.1-0.1
						C43.9,69,43.9,69,44,69z"/>
				</g>
			</g>
			<g>
				<path fill="#FF6D1F" d="M60.3,69.1l0.5,0l0,0.5h0c0.1-0.3,0.4-0.6,0.8-0.6c0.1,0,0.2,0,0.2,0l0,0.6c-0.1,0-0.2,0-0.3,0
					c-0.4,0-0.7,0.3-0.7,0.9l0,1.3l-0.6,0L60.3,69.1z"/>
				<path fill="#FF6D1F" d="M64.5,71.8l-0.6,0l0-0.4h0c-0.1,0.3-0.5,0.4-0.8,0.4c-0.7,0-1-0.4-1-1.1l0-1.7l0.6,0l0,1.6
					c0,0.5,0.2,0.6,0.5,0.6c0.5,0,0.7-0.3,0.7-0.7l0-1.5l0.6,0L64.5,71.8z"/>
				<path fill="#FF6D1F" d="M65.3,68.2l0.6,0l0,1.4l0,0c0.2-0.3,0.5-0.4,0.8-0.4c0.8,0,1.2,0.7,1.2,1.4c0,0.7-0.4,1.4-1.2,1.4
					c-0.4,0-0.7-0.1-0.9-0.4l0,0l0,0.4l-0.6,0L65.3,68.2z M66.5,69.6c-0.5,0-0.7,0.4-0.8,0.9c0,0.5,0.3,0.9,0.7,0.9
					c0.5,0,0.7-0.5,0.7-0.9C67.3,70.1,67,69.6,66.5,69.6z"/>
				<path fill="#FF6D1F" d="M68.1,69.2l0.6,0l0.7,2l0,0l0.7-2l0.6,0L69.7,72c-0.2,0.5-0.3,0.9-0.9,0.9c-0.1,0-0.3,0-0.4,0l0-0.5
					c0.1,0,0.2,0,0.3,0c0.3,0,0.3-0.1,0.4-0.4l0.1-0.2L68.1,69.2z"/>
			</g>
			<g>
				<path fill="#FF6D1F" d="M48.5,59.6c0,0.4,0.2,0.8,0.7,0.8c0.3,0,0.5-0.1,0.7-0.4l0.6,0c-0.1,0.6-0.6,0.9-1.2,0.9
					c-0.8,0-1.3-0.6-1.3-1.4c0-0.8,0.5-1.4,1.3-1.4c0.8,0,1.3,0.8,1.2,1.6L48.5,59.6z M49.8,59.2c0-0.4-0.3-0.7-0.7-0.7
					c-0.4,0-0.7,0.3-0.7,0.7L49.8,59.2z"/>
				<path fill="#FF6D1F" d="M51.7,59.4l-0.9-1.3l0.7,0l0.5,0.8l0.6-0.8l0.7,0l-0.9,1.2l1,1.4l-0.7,0l-0.7-1l-0.7,1l-0.7,0L51.7,59.4
					z"/>
				<path fill="#FF6D1F" d="M53.5,58.1l0.4,0l0-0.8l0.6,0l0,0.8l0.5,0l0,0.4l-0.5,0l0,1.4c0,0.2,0,0.4,0.3,0.4c0.1,0,0.2,0,0.2,0
					l0,0.5c-0.1,0-0.3,0-0.4,0c-0.6,0-0.7-0.2-0.7-0.7l0-1.6l-0.4,0L53.5,58.1z"/>
				<path fill="#FF6D1F" d="M55.6,58.2l0.6,0l0,2.9c0,0.5-0.2,0.8-0.8,0.8c-0.1,0-0.2,0-0.3,0l0-0.5c0.1,0,0.1,0,0.2,0
					c0.2,0,0.2-0.1,0.2-0.4L55.6,58.2z M55.6,57.1l0.6,0l0,0.6l-0.6,0L55.6,57.1z"/>
				<path fill="#FF6D1F" d="M57.3,60c0,0.3,0.3,0.5,0.6,0.5c0.2,0,0.6,0,0.6-0.3c0-0.3-0.4-0.3-0.9-0.5c-0.4-0.1-0.8-0.3-0.8-0.8
					c0-0.6,0.6-0.8,1.1-0.7c0.5,0,1,0.2,1.1,0.8l-0.6,0c0-0.3-0.3-0.4-0.5-0.4c-0.2,0-0.5,0-0.5,0.3c0,0.3,0.4,0.3,0.9,0.4
					c0.4,0.1,0.9,0.3,0.8,0.8c0,0.6-0.6,0.9-1.2,0.8c-0.7,0-1.2-0.3-1.2-0.9L57.3,60z"/>
			</g>
			<g>
				<path fill="#FF6D1F" d="M50.7,80.8l0.4,0l0-0.2c0-0.7,0.4-0.8,0.7-0.8c0.2,0,0.3,0,0.4,0l0,0.5c-0.1,0-0.2,0-0.3,0
					c-0.2,0-0.3,0.1-0.3,0.3l0,0.3l0.5,0l0,0.4l-0.5,0l0,2.2l-0.6,0l0-2.2l-0.4,0L50.7,80.8z"/>
				<path fill="#FF6D1F" d="M54.9,82.4l-0.5,0l-0.2,1.1l-0.4,0l0.2-1.1l-0.6,0l-0.2,1.1l-0.4,0l0.2-1.1l-0.5,0l0-0.4l0.5,0l0.1-0.7
					l-0.5,0l0-0.4l0.5,0l0.2-1.1l0.4,0l-0.2,1.1l0.6,0l0.2-1.1l0.4,0L54.6,81l0.4,0l0,0.4l-0.5,0L54.4,82l0.4,0L54.9,82.4z
					 M53.6,81.3L53.5,82l0.6,0l0.1-0.7L53.6,81.3z"/>
			</g>
		</g>
		<g>
			<path fill="#FFEAA7" d="M68.2,135.3h-6.4c-5.1,0-9.3-4.2-9.3-9.3c0-0.4,0.3-0.7,0.7-0.7c0.4,0,0.7,0.3,0.7,0.7
				c0,4.3,3.5,7.9,7.9,7.9h6.4c0.4,0,0.7,0.3,0.7,0.7S68.5,135.3,68.2,135.3z"/>
		</g>
	</g>
</g>
<g id="grid">
</g>
</svg>
