<?xml version="1.0" encoding="utf-8"?>
<!-- Generator: Adobe Illustrator 18.1.1, SVG Export Plug-In . SVG Version: 6.00 Build 0)  -->
<svg version="1.1" xmlns="http://www.w3.org/2000/svg" xmlns:xlink="http://www.w3.org/1999/xlink" x="0px" y="0px"
	 viewBox="0 0 214 144.9" enable-background="new 0 0 214 144.9" xml:space="preserve">
<g id="Layer_1">
	<g>
		<g opacity="0.1">
			<g>
				<rect x="54.8" y="137.2" fill="#231F20" width="154.5" height="1.5"/>
			</g>
		</g>
		<g>
			<rect x="54.8" y="19" fill="#FFFFFF" width="154.5" height="118.7"/>
		</g>
		<g>
			<rect x="54.8" y="9.2" fill="#6F89AF" width="154.5" height="9.8"/>
		</g>
		<g>
			<path fill="#CFD8E4" d="M207.4,5.9H56.7c-1,0-1.9,0.8-1.9,1.9V10h154.5V7.8C209.3,6.8,208.5,5.9,207.4,5.9z"/>
		</g>
		<g>
			<circle fill="#6F89AF" cx="59.2" cy="8.1" r="0.6"/>
		</g>
		<g>
			<circle fill="#6F89AF" cx="62.1" cy="8.1" r="0.6"/>
		</g>
		<g>
			<circle fill="#6F89AF" cx="65.1" cy="8.1" r="0.6"/>
		</g>
		<g>
			<rect x="68.6" y="13.1" fill="#F1F2F2" width="137.4" height="3.1"/>
		</g>
		<g>
			<path fill="#E2E8EF" d="M60.4,15.1h-1.4l0.3,0.3c0.1,0.1,0.1,0.4,0,0.5c-0.1,0.1-0.2,0.1-0.3,0.1c-0.1,0-0.2,0-0.3-0.1l-1.2-1.2
				c0,0,0-0.1,0-0.1l1.2-1.2c0.1-0.1,0.2-0.1,0.3-0.1c0.1,0,0.2,0,0.3,0.1c0.1,0.1,0.1,0.4,0,0.5l-0.3,0.3h1.4
				c0.2,0,0.4,0.2,0.4,0.4S60.6,15.1,60.4,15.1z"/>
		</g>
		<g>
			<g>
				<path fill="#E2E8EF" d="M62,14.7c0-0.2,0.2-0.4,0.4-0.4H64l-0.4-0.4c-0.1-0.1-0.1-0.3,0-0.4c0.1-0.1,0.3-0.1,0.4,0l1.2,1.2
					L64,15.9c-0.1,0.1-0.3,0.1-0.4,0c-0.1-0.1-0.1-0.3,0-0.4l0.4-0.4h-1.6C62.2,15.1,62,14.9,62,14.7z"/>
			</g>
			<g>
				<path fill="#E2E8EF" d="M64.1,13.4l1.2,1.2c0,0,0,0.1,0,0.1L64.1,16c-0.1,0.1-0.2,0.1-0.3,0.1c-0.1,0-0.2,0-0.3-0.1
					c-0.1-0.1-0.1-0.4,0-0.5l0.3-0.3h-1.4c-0.2,0-0.4-0.2-0.4-0.4s0.2-0.4,0.4-0.4h1.4l-0.3-0.3c-0.1-0.1-0.1-0.4,0-0.5
					c0.1-0.1,0.2-0.1,0.3-0.1C63.9,13.3,64,13.3,64.1,13.4z M64,15C64,15,64,15,64,15C64,15.1,64,15.1,64,15l-0.4,0.5
					c-0.1,0.1-0.1,0.3,0,0.4c0,0,0.1,0.1,0.2,0.1s0.1,0,0.2-0.1l1.2-1.2L64,13.5c0,0-0.1-0.1-0.2-0.1s-0.1,0-0.2,0.1
					c-0.1,0.1-0.1,0.3,0,0.4l0.4,0.4c0,0,0,0,0,0.1c0,0,0,0-0.1,0h-1.6c-0.2,0-0.3,0.2-0.3,0.3s0.2,0.3,0.3,0.3H64z"/>
			</g>
		</g>
		<g>
			<path fill="#FF6D1F" d="M18,53.7c0.2-0.3,0.5-0.7,0.9-1.1s0.7-0.7,1.1-0.9c-0.3-0.2-0.7-0.5-1.1-0.9c-0.4-0.4-0.7-0.7-0.9-1.1
				c-0.2,0.3-0.5,0.7-0.9,1.1c-0.4,0.4-0.7,0.7-1.1,0.9c0.3,0.2,0.7,0.5,1.1,0.9C17.5,53,17.8,53.4,18,53.7z"/>
		</g>
		<g>
			<path fill="#FF6D1F" d="M4,32.6c0.3,0.2,0.8,0.6,1.2,1c0.4,0.4,0.7,0.8,1,1.2c0.2-0.3,0.6-0.8,1-1.2c0.4-0.4,0.8-0.7,1.2-1
				c-0.3-0.2-0.8-0.6-1.2-1c-0.4-0.4-0.7-0.8-1-1.2c-0.2,0.3-0.6,0.8-1,1.2C4.8,32,4.4,32.3,4,32.6z"/>
		</g>
		<g>
			<path fill="#FFC5A5" d="M23.2,22.9c-0.2,0-0.3-0.1-0.4-0.2c-0.2-0.3-0.6-0.7-0.9-1.1c-0.4-0.4-0.8-0.7-1.1-0.9
				c-0.1-0.1-0.2-0.2-0.2-0.4c0-0.2,0.1-0.3,0.2-0.4c0.3-0.2,0.7-0.6,1.1-0.9c0.4-0.4,0.7-0.8,0.9-1.1c0.2-0.3,0.6-0.3,0.8,0
				c0.2,0.3,0.6,0.7,0.9,1.1c0.4,0.4,0.8,0.7,1.1,0.9c0.1,0.1,0.2,0.2,0.2,0.4c0,0.2-0.1,0.3-0.2,0.4c-0.3,0.2-0.7,0.6-1.1,0.9
				c-0.4,0.4-0.7,0.8-0.9,1.1C23.5,22.9,23.4,22.9,23.2,22.9z M21.8,20.3c0.2,0.2,0.5,0.4,0.7,0.7c0.2,0.2,0.5,0.5,0.7,0.7
				c0.2-0.2,0.4-0.5,0.7-0.7c0.2-0.2,0.5-0.5,0.7-0.7c-0.2-0.2-0.5-0.4-0.7-0.7c-0.2-0.2-0.5-0.5-0.7-0.7c-0.2,0.2-0.4,0.5-0.7,0.7
				C22.3,19.9,22.1,20.1,21.8,20.3z"/>
		</g>
		<g>
			<path fill="#FFC5A5" d="M5.4,73.5c-0.2,0-0.3-0.1-0.4-0.2c-0.2-0.3-0.5-0.7-0.9-1.1c-0.4-0.4-0.7-0.7-1.1-0.9
				c-0.1-0.1-0.2-0.2-0.2-0.4c0-0.2,0.1-0.3,0.2-0.4c0.3-0.2,0.7-0.5,1.1-0.9c0.4-0.4,0.7-0.7,0.9-1.1c0.2-0.3,0.6-0.3,0.8,0
				c0.2,0.3,0.5,0.7,0.9,1.1C7,70,7.4,70.3,7.7,70.5c0.1,0.1,0.2,0.2,0.2,0.4c0,0.2-0.1,0.3-0.2,0.4c-0.3,0.2-0.7,0.5-1.1,0.9
				c-0.4,0.4-0.7,0.7-0.9,1.1C5.7,73.4,5.5,73.5,5.4,73.5z M4,70.9c0.2,0.2,0.5,0.4,0.7,0.6C5,71.8,5.2,72,5.4,72.2
				C5.5,72,5.8,71.8,6,71.5c0.2-0.2,0.5-0.4,0.7-0.6c-0.2-0.2-0.5-0.4-0.7-0.6s-0.4-0.5-0.6-0.7c-0.2,0.2-0.4,0.5-0.6,0.7
				C4.5,70.5,4.3,70.7,4,70.9z"/>
		</g>
		<g>
			<path fill="#FF6D1F" d="M38,10c0.3,0.2,0.8,0.6,1.2,1c0.4,0.4,0.7,0.8,1,1.2c0.2-0.3,0.6-0.8,1-1.2c0.4-0.4,0.8-0.7,1.2-1
				c-0.3-0.2-0.8-0.6-1.2-1c-0.4-0.4-0.7-0.8-1-1.2c-0.2,0.3-0.6,0.8-1,1.2C38.8,9.4,38.4,9.7,38,10z"/>
		</g>
		<g>
			<path fill="#FFC5A5" d="M26.6,86.2c-0.2,0-0.3-0.1-0.4-0.2c-0.2-0.3-0.5-0.7-0.9-1.1c-0.4-0.4-0.7-0.7-1.1-0.9
				c-0.1-0.1-0.2-0.2-0.2-0.4c0-0.2,0.1-0.3,0.2-0.4c0.3-0.2,0.7-0.5,1.1-0.9c0.4-0.4,0.7-0.7,0.9-1.1c0.2-0.3,0.6-0.3,0.8,0
				c0.2,0.3,0.5,0.7,0.9,1.1c0.4,0.4,0.7,0.7,1.1,0.9c0.1,0.1,0.2,0.2,0.2,0.4c0,0.2-0.1,0.3-0.2,0.4c-0.3,0.2-0.7,0.5-1.1,0.9
				c-0.4,0.4-0.7,0.7-0.9,1.1C26.9,86.1,26.7,86.2,26.6,86.2z M25.2,83.6c0.2,0.2,0.5,0.4,0.7,0.6c0.2,0.2,0.4,0.5,0.6,0.7
				c0.2-0.2,0.4-0.5,0.6-0.7c0.2-0.2,0.5-0.4,0.7-0.6c-0.2-0.2-0.5-0.4-0.7-0.6c-0.2-0.2-0.4-0.5-0.6-0.7c-0.2,0.2-0.4,0.5-0.6,0.7
				C25.7,83.2,25.5,83.5,25.2,83.6z"/>
		</g>
		<g>
			<g>
				<path fill="#E6E7E8" d="M183.9,81.3h-1.4v-1.9h1.4V81.3z M183.9,77.5h-1.4v-1.9h1.4V77.5z M183.9,73.7h-1.4v-1.9h1.4V73.7z
					 M183.9,70h-1.4v-1.9h1.4V70z M182.3,66.4c-0.2-0.5-0.4-1-0.8-1.4l1-1c0.5,0.5,0.9,1.2,1.1,1.9L182.3,66.4z M180.2,64.2
					c-0.4-0.2-0.8-0.2-1.3-0.2h-0.3v-1.4h0.3c0.6,0,1.2,0.1,1.8,0.3L180.2,64.2z M176.7,63.9h-1.9v-1.4h1.9V63.9z M172.9,63.9H171
					v-1.4h1.9V63.9z M169.1,63.9h-1.9v-1.4h1.9V63.9z M165.4,63.9h-1.9v-1.4h1.9V63.9z M161.6,63.9h-1.9v-1.4h1.9V63.9z M157.8,63.9
					h-1.9v-1.4h1.9V63.9z M154,63.9h-1.9v-1.4h1.9V63.9z M150.2,63.9h-1.9v-1.4h1.9V63.9z M146.5,63.9h-1.9v-1.4h1.9V63.9z
					 M142.7,63.9h-1.9v-1.4h1.9V63.9z M138.9,63.9H137v-1.4h1.9V63.9z M135.1,63.9h-1.9v-1.4h1.9V63.9z M131.3,63.9h-0.9
					c-0.4,0-0.8,0-1.1-0.1l0.3-1.4c0.3,0.1,0.5,0.1,0.8,0.1h0.9V63.9z M127.3,62.8c-0.6-0.5-1-1.1-1.3-1.7l1.3-0.6
					c0.2,0.5,0.5,0.9,1,1.2L127.3,62.8z M126.9,58.9h-1.4V57h1.4V58.9z M126.9,55.1h-1.4v-1.9h1.4V55.1z M126.9,51.4h-1.4v-1.9h1.4
					V51.4z M125.5,47.7c-0.1-0.5-0.2-1.1-0.5-1.6l1.3-0.7c0.3,0.6,0.6,1.3,0.7,2L125.5,47.7z M124,44.8c-0.4-0.4-0.9-0.7-1.4-0.9
					l0.5-1.3c0.7,0.3,1.3,0.6,1.8,1.1L124,44.8z M121,43.7h-1.9v-1.4h1.9L121,43.7z M117.2,43.7h-1.9v-1.4h1.9V43.7z M113.4,43.7
					h-1.9v-1.4h1.9V43.7z M109.7,43.7h-1.9v-1.4h1.9V43.7z M105.9,43.7H104v-1.4h1.9V43.7z M102.1,43.7h-1.9v-1.4h1.9V43.7z
					 M98.3,43.7h-1.9v-1.4h1.9V43.7z M94.5,43.7h-1.9v-1.4h1.9V43.7z M90.6,43.4c-0.7-0.2-1.3-0.5-1.9-1l0.9-1.1
					c0.4,0.3,0.9,0.6,1.4,0.8L90.6,43.4z M87.3,40.8c-0.4-0.6-0.6-1.3-0.8-2l1.4-0.3c0.1,0.5,0.3,1.1,0.6,1.5L87.3,40.8z M87.8,36.8
					h-1.4V35h1.4V36.8z M87.8,33.1h-1.4v-1.9h1.4V33.1z M87.8,29.3h-1.4v-1.9h1.4V29.3z"/>
			</g>
			<g>
				<path fill="#E6E7E8" d="M139.2,60.6h-1.4v-1.9h1.4V60.6z M139.4,57l-1.4-0.4c0.2-0.7,0.6-1.4,1-1.9l1.1,0.9
					C139.8,56,139.5,56.5,139.4,57z M141.4,54.7l-0.6-1.3c0.7-0.3,1.4-0.5,2.1-0.5l0,1.4C142.4,54.3,141.9,54.4,141.4,54.7z
					 M160,54.3L160,54.3l-0.1-1.4h0.1c0.4,0,0.8-0.2,1.2-0.5l1,1C161.6,54,160.8,54.3,160,54.3z M158.1,54.3h-1.9v-1.4h1.9V54.3z
					 M154.3,54.3h-1.9v-1.4h1.9V54.3z M150.5,54.3h-1.9v-1.4h1.9V54.3z M146.7,54.3h-1.9v-1.4h1.9V54.3z M163.2,51.4l-1.4-0.3
					c0.1-0.3,0.1-0.7,0.1-1v-0.7h1.4v0.7C163.3,50.6,163.3,51,163.2,51.4z M163.3,47.5h-1.4v-1.9h1.4V47.5z M163.3,43.7h-1.4v-1.9
					h1.4V43.7z M163.3,39.9h-1.4V38h1.4V39.9z"/>
			</g>
			<g>
				<path fill="#E6E7E8" d="M102.3,68.1h-0.6v-1.4h0.6c0.3,0,0.7-0.1,1-0.2l0.5,1.3C103.3,68,102.8,68.1,102.3,68.1z M99.8,68.1
					h-1.9v-1.4h1.9V68.1z M96,68.1h-1.9v-1.4H96V68.1z M92.2,68.1h-1.9v-1.4h1.9V68.1z M88.4,68.1h-1.9v-1.4h1.9V68.1z M84.6,68.1
					h-1.9v-1.4h1.9V68.1z M80.9,68.1H79v-1.4h1.9V68.1z M77.1,68.1h-1.9v-1.4h1.9V68.1z M105.6,66.7l-1-1c0.4-0.4,0.6-0.8,0.7-1.3
					l1.4,0.4C106.5,65.5,106.1,66.1,105.6,66.7z M106.8,62.7h-1.4v-1.9h1.4V62.7z M106.8,58.9h-1.4V57h1.4V58.9z M106.8,55.1h-1.4
					v-1.9h1.4V55.1z M106.8,51.3h-1.4v-1.9h1.4V51.3z M106.8,47.6h-1.4v-1.9h1.4V47.6z M106.8,43.8h-1.4v-1.9h1.4V43.8z M106.8,40
					h-1.4v-1.9h1.4V40z M106.8,36.2h-1.4v-1.9h1.4V36.2z M106.8,32.4h-1.4v-1.9h1.4V32.4z M106.8,28.7h-1.4v-1.3h1.4V28.7z"/>
			</g>
			<g>
				<path fill="#E6E7E8" d="M175.1,57.8h-1.4V56h1.4V57.8z M175.1,54.1h-1.4v-1.9h1.4V54.1z M175.1,50.3h-1.4v-1.9h1.4V50.3z
					 M175.1,46.5h-1.4v-1.9h1.4V46.5z M175.1,42.7h-1.4v-1.9h1.4V42.7z M173.4,39.2c-0.2-0.5-0.4-1-0.8-1.5l1.1-0.9
					c0.4,0.6,0.8,1.2,1,1.9L173.4,39.2z M171.5,36.6c-0.5-0.3-1-0.5-1.5-0.6l0.3-1.4c0.7,0.2,1.4,0.4,2,0.8L171.5,36.6z M168.2,35.8
					h-1.9v-1.4h1.9V35.8z M164.5,35.8h-1.9v-1.4h1.9V35.8z M160.7,35.8h-1.9v-1.4h1.9V35.8z M156.9,35.8H155v-1.4h1.9V35.8z
					 M153.1,35.8h-1.9v-1.4h1.9V35.8z M149.3,35.8h-1.9v-1.4h1.9V35.8z M145.6,35.8h-1.9v-1.4h1.9V35.8z M141.8,35.8h-1.9v-1.4h1.9
					V35.8z M138,35.8h-1.9v-1.4h1.9V35.8z M134.2,35.8h-1.9v-1.4h1.9V35.8z M130.4,35.8h-1.9v-1.4h1.9V35.8z M126.7,35.8h-1.9v-1.4
					h1.9V35.8z M122.9,35.8H121v-1.4h1.9V35.8z M119.1,35.8h-1.9v-1.4h1.9V35.8z M115.3,35.8h-1.9v-1.4h1.9V35.8z M111.5,35.8h-1.9
					v-1.4h1.9V35.8z"/>
			</g>
			<g>
				<path fill="#E6E7E8" d="M102.2,35.8H101v-1.4h1.3V35.8z M99.1,35.8h-1.9v-1.4h1.9V35.8z M95.3,35.8h-1.9v-1.4h1.9V35.8z
					 M91.5,35.8h-1.9v-1.4h1.9V35.8z"/>
			</g>
			<g>
				<path fill="#E6E7E8" d="M174.1,108.6h-1.9v-1.4h1.9V108.6z M170.3,108.6h-1.9v-1.4h1.9V108.6z M166.3,108.5
					c-0.8-0.3-1.4-0.8-1.8-1.5l1.3-0.7c0.2,0.4,0.6,0.7,1,0.9L166.3,108.5z M165.6,104.8h-1.4v-1.9h1.4V104.8z M165.6,101h-1.4v-1.9
					h1.4V101z M165.6,97.2h-1.4v-1.9h1.4V97.2z M165.6,93.4h-1.4v-1.9h1.4V93.4z M165.6,89.6h-1.4v-1.9h1.4V89.6z M165.9,86.4
					l-1.2-0.8c0.5-0.7,1.2-1.2,2-1.3l0.3,1.4C166.5,85.7,166.1,86,165.9,86.4z M191.5,85.6L191.5,85.6l-0.1-1.4h0.1
					c0.4,0,0.8-0.2,1.1-0.5l1,1C193,85.2,192.3,85.6,191.5,85.6z M189.5,85.6h-1.9v-1.4h1.9V85.6z M185.7,85.6h-1.9v-1.4h1.9V85.6z
					 M181.9,85.6h-1.9v-1.4h1.9V85.6z M178.2,85.6h-1.9v-1.4h1.9V85.6z M174.4,85.6h-1.9v-1.4h1.9V85.6z M170.6,85.6h-1.9v-1.4h1.9
					V85.6z M194.4,82.4H193v-1.9h1.4V82.4z M194.4,78.7H193v-1.9h1.4V78.7z M194.4,74.9H193V73h1.4V74.9z M194.4,71.1H193v-1.9h1.4
					V71.1z M194.4,67.3H193v-1.9h1.4V67.3z M194.4,63.5H193v-1.9h1.4V63.5z M194.4,59.8H193v-1.9h1.4V59.8z M194.4,56H193v-1.9h1.4
					V56z M192.8,52.5c-0.2-0.5-0.5-0.9-0.9-1.1l0.8-1.2c0.6,0.4,1.1,1.1,1.4,1.8L192.8,52.5z M190.5,50.9c0,0-0.1,0-0.1,0h-1.7v-1.4
					h1.7c0.1,0,0.1,0,0.2,0L190.5,50.9z M186.8,50.9h-1.9v-1.4h1.9V50.9z M183,50.9h-1.9v-1.4h1.9V50.9z M179.2,50.9h-1v-1.4h1V50.9
					z"/>
			</g>
			<g>
				<path fill="#E6E7E8" d="M200.4,108.6h-1.9v-1.4h1.9V108.6z M196.7,108.6h-1.9v-1.4h1.9V108.6z M192.9,108.6H191v-1.4h1.9V108.6z
					 M189.1,108.6h-1.9v-1.4h1.9V108.6z M185.3,108.6h-1.9v-1.4h1.9V108.6z M181.5,108.6h-1.9v-1.4h1.9V108.6z"/>
			</g>
			<g>
				<path fill="#E6E7E8" d="M148.5,125.8h-1.4v-1.9h1.4V125.8z M146.9,122.3c-0.2-0.5-0.5-0.9-0.9-1.2l0.8-1.2
					c0.6,0.4,1.1,1,1.4,1.7L146.9,122.3z M144.6,120.7c-0.1,0-0.1,0-0.2,0h-1.7v-1.4h1.7c0.1,0,0.2,0,0.3,0L144.6,120.7z
					 M140.8,120.7h-1.9v-1.4h1.9V120.7z M137,120.7h-1.9v-1.4h1.9V120.7z M133.3,120.7h-1.9v-1.4h1.9V120.7z M129.5,120.7h-1.9v-1.4
					h1.9V120.7z M125.7,120.7h-1.9v-1.4h1.9V120.7z M121.9,120.7H120v-1.4h1.9V120.7z M118.1,120.7h-1.9v-1.4h1.9V120.7z
					 M114.4,120.7h-1.9v-1.4h1.9V120.7z M110.6,120.7h-1.9v-1.4h1.9V120.7z M106.8,120.7h-1.9v-1.4h1.9V120.7z M103,120.7h-1.2
					c-0.3,0-0.5,0-0.8-0.1l0.2-1.4c0.2,0,0.4,0,0.6,0h1.2V120.7z M99,119.9c-0.6-0.4-1.1-0.9-1.6-1.5l1.2-0.8
					c0.3,0.4,0.7,0.8,1.1,1.1L99,119.9z M96.6,116.3c-0.1-0.3-0.1-0.6-0.1-0.9v-1.1H98v1.1c0,0.2,0,0.4,0.1,0.7L96.6,116.3z
					 M98,112.4h-1.4v-1.9H98V112.4z M98,108.6h-1.4v-1.9H98V108.6z M98,104.9h-1.4V103H98V104.9z M98,101.1h-1.4v-1.9H98V101.1z
					 M98,97.4l-1.4-0.2c0.1-0.7,0.5-1.5,0.9-2l1.1,0.9C98.3,96.5,98.1,96.9,98,97.4z M99.9,95.2l-0.4-1.3c0.4-0.1,0.8-0.2,1.3-0.2
					h0.8v1.4h-0.8C100.4,95.1,100.1,95.2,99.9,95.2z M115.7,95.1h-1v-1.4h1c0.2,0,0.5,0,0.7-0.1l0.4,1.4
					C116.5,95.1,116.1,95.1,115.7,95.1z M112.9,95.1H111v-1.4h1.9V95.1z M109.1,95.1h-1.9v-1.4h1.9V95.1z M105.3,95.1h-1.9v-1.4h1.9
					V95.1z M118.7,93.8l-1-1c0.3-0.4,0.6-0.8,0.7-1.3l1.4,0.3C119.6,92.5,119.3,93.2,118.7,93.8z M118.3,90
					c-0.2-0.5-0.4-0.9-0.8-1.3l0.9-1.1c0.6,0.5,1,1.2,1.2,1.9L118.3,90z M116.2,88.1c-0.2,0-0.3,0-0.5,0h-1.3v-1.4h1.3
					c0.2,0,0.5,0,0.7,0.1L116.2,88.1z M112.5,88h-1.9v-1.4h1.9V88z M108.7,88h-1.9v-1.4h1.9V88z M105,88h-1.9v-1.4h1.9V88z
					 M101.2,88h-1.9v-1.4h1.9V88z M97.4,88h-1.9v-1.4h1.9V88z M93.6,88h-1.9v-1.4h1.9V88z M89.8,88h-1.9v-1.4h1.9V88z M86.1,88h-1.9
					v-1.4h1.9V88z M82.1,87.9c-0.7-0.2-1.4-0.6-2-1.1l1-1c0.4,0.4,0.8,0.6,1.3,0.7L82.1,87.9z M79,84.9c-0.1-0.4-0.1-0.7-0.1-1.1v-1
					h1.4v1c0,0.3,0,0.5,0.1,0.7L79,84.9z M80.3,80.9h-1.4V79h1.4V80.9z M80.3,77.2h-1.4v-1.9h1.4V77.2z M80.3,73.4h-1.4v-1.9h1.4
					V73.4z M80.3,69.6h-1.4v-1.9h1.4V69.6z"/>
			</g>
			<g>
				<path fill="#E6E7E8" d="M126.9,114.9h-1.4v-1.9h1.4V114.9z M126.9,111.2h-1.4v-1.9h1.4V111.2z M126.9,107.4h-1.4v-1.5
					c0-0.2,0-0.3,0-0.5l1.4,0.1c0,0.1,0,0.2,0,0.3V107.4z M127.4,104.1l-1.2-0.8c0.4-0.6,0.9-1.2,1.6-1.5l0.7,1.2
					C128.1,103.3,127.7,103.7,127.4,104.1z M130,102.6l-0.1-1.4c0.1,0,0.2,0,0.3,0h1.6v1.4h-1.6C130.2,102.6,130.1,102.6,130,102.6z
					 M138.3,102.6h-0.8v-1.4h0.8c0.3,0,0.6,0,0.9-0.1l0.3,1.4C139.2,102.5,138.8,102.6,138.3,102.6z M135.6,102.6h-1.9v-1.4h1.9
					V102.6z M141.5,101.4l-0.9-1.1c0.4-0.3,0.8-0.8,1-1.2l1.3,0.6C142.6,100.4,142.1,101,141.5,101.4z M143.5,97.7l-1.4-0.1
					c0-0.1,0-0.1,0-0.2v-1.7h1.4v1.7C143.5,97.5,143.5,97.6,143.5,97.7z M143.5,93.8h-1.4v-1.9h1.4V93.8z M143.5,90.1h-1.4v-1.9h1.4
					V90.1z M143.5,86.3h-1.4v-1.9h1.4V86.3z M143.5,82.5h-1.4v-1.9h1.4V82.5z"/>
			</g>
			<g>
				<path fill="#E6E7E8" d="M177.7,128h-1.4v-1.1h1.4V128z M177.7,125h-1.4v-1.9h1.4V125z M177.7,121.2h-1.4v-1.9h1.4V121.2z
					 M177.7,117.4h-1.4v-1.9h1.4V117.4z M177.7,113.7h-1.4v-1.9h1.4V113.7z M177.7,109.9h-1.4V108h1.4V109.9z M177.7,106.1h-1.4
					v-1.9h1.4V106.1z M177.7,102.3h-1.4V102c0-0.6,0.1-1.2,0.3-1.7l1.3,0.5c-0.1,0.4-0.2,0.9-0.2,1.3V102.3z M178.7,99.3l-1.1-0.9
					c0.5-0.5,1.1-1,1.7-1.3l0.6,1.3C179.5,98.6,179,98.9,178.7,99.3z M181.5,97.9l-0.1-1.4c0.1,0,0.2,0,0.3,0h1.6v1.4h-1.6
					C181.6,97.9,181.6,97.9,181.5,97.9z M202.3,97.9h-1.9v-1.4h1.9V97.9z M198.5,97.9h-1.9v-1.4h1.9V97.9z M194.7,97.9h-1.9v-1.4
					h1.9V97.9z M190.9,97.9H189v-1.4h1.9V97.9z M187.1,97.9h-1.9v-1.4h1.9V97.9z"/>
			</g>
			<g>
				<path fill="#E6E7E8" d="M110.3,116.7h-1.4v-1.9h1.4V116.7z M110.3,113h-1.4v-1.9h1.4V113z M110.3,109.2h-1.4v-1.9h1.4V109.2z
					 M110.3,105.4h-1.4v-1.9h1.4V105.4z M110.3,101.6h-1.4v-1.9h1.4V101.6z M110.3,97.8h-1.4V96h1.4V97.8z"/>
			</g>
			<g>
				<path fill="#E6E7E8" d="M94.7,106.4h-0.8V105h0.8V106.4z M92,106.4h-1.9V105H92V106.4z M88.3,106.4h-1.9V105h1.9V106.4z
					 M84.5,106.4h-1.9V105h1.9V106.4z M80.7,106.4h-1.9V105h1.9V106.4z M76.9,106.4H75V105h1.9V106.4z"/>
			</g>
			<g>
				<path fill="#E6E7E8" d="M157.1,126.9h-1.4V125h1.4V126.9z M157.1,123.1h-1.4v-1.9h1.4V123.1z M157.1,119.4h-1.4v-1.9h1.4V119.4z
					 M157.1,115.6h-1.4v-1.9h1.4V115.6z M157.1,111.8h-1.4v-1.9h1.4V111.8z M157.1,108h-1.4v-1.9h1.4V108z M157.1,104.2h-1.4v-1.9
					h1.4V104.2z M157.1,100.5h-1.4v-1.9h1.4V100.5z M157.1,96.7h-1.4v-0.6c0-0.4-0.1-0.8-0.2-1.1l1.4-0.4c0.1,0.5,0.2,1,0.2,1.5
					V96.7z M154.8,93.6c-0.3-0.4-0.8-0.7-1.2-1l0.6-1.3c0.7,0.3,1.2,0.8,1.7,1.3L154.8,93.6z M152,92.2c-0.1,0-0.1,0-0.2,0h-1.6
					v-1.4h1.6c0.1,0,0.2,0,0.3,0L152,92.2z M148.2,92.2h-1.9v-1.4h1.9V92.2z M144.5,92.2h-1.9v-1.4h1.9V92.2z"/>
			</g>
			<g>
				<path fill="#E6E7E8" d="M186.3,47.4h-1.4v-1.9h1.4V47.4z M186.3,43.6h-1.4v-1.9h1.4V43.6z M186.3,39.8h-1.4v-1.9h1.4V39.8z
					 M186.3,36h-1.4v-1.9h1.4V36z M186.3,32.2h-1.4v-1.9h1.4V32.2z M186.3,28.5h-1.4v-1.9h1.4V28.5z"/>
			</g>
			<g>
				<path fill="#E6E7E8" d="M84.9,125.7h-1.4v-1.9h1.4V125.7z M84.9,121.9h-1.4V120h1.4V121.9z M84.9,118.1h-1.4v-1.9h1.4V118.1z
					 M84.9,114.3h-1.4v-1.9h1.4V114.3z M84.9,110.5h-1.4v-1.9h1.4V110.5z"/>
			</g>
		</g>
		<g>
			<g>
				<path fill="#FFD54E" d="M104.2,100.3V71.1c0-2.3,1.8-4.1,4.1-4.1h47.5c2.3,0,4.1,1.8,4.1,4.1v29.2"/>
			</g>
			<g>
				<path fill="#FFD54E" d="M160,102.5h-55.8v2.6c0,0.5,0.4,1,1,1H159c0.5,0,1-0.4,1-1V102.5z"/>
			</g>
			<g>
				<path fill="#FFD54E" d="M113.2,64.7V62c0-10.4,8.5-18.9,18.9-18.9c10.4,0,18.9,8.5,18.9,18.9v2.7h2.6V62
					c0-11.8-9.6-21.4-21.4-21.4c-11.8,0-21.4,9.6-21.4,21.4v2.7H113.2z"/>
			</g>
			<g>
				<path fill="#FFAA22" d="M159.7,92.6h-36.3c-0.4,0-0.7-0.3-0.7-0.7s0.3-0.7,0.7-0.7h36.3c0.4,0,0.7,0.3,0.7,0.7
					S160.1,92.6,159.7,92.6z"/>
			</g>
			<g>
				<path fill="#FFAA22" d="M159.7,87.8h-45.6c-0.4,0-0.7-0.3-0.7-0.7c0-0.4,0.3-0.7,0.7-0.7h45.6c0.4,0,0.7,0.3,0.7,0.7
					C160.5,87.5,160.1,87.8,159.7,87.8z"/>
			</g>
			<g>
				<path fill="#FFAA22" d="M159.7,83.3h-36.3c-0.4,0-0.7-0.3-0.7-0.7s0.3-0.7,0.7-0.7h36.3c0.4,0,0.7,0.3,0.7,0.7
					S160.1,83.3,159.7,83.3z"/>
			</g>
			<g>
				<path fill="#FFAA22" d="M159.7,78.6h-45.6c-0.4,0-0.7-0.3-0.7-0.7c0-0.4,0.3-0.7,0.7-0.7h45.6c0.4,0,0.7,0.3,0.7,0.7
					C160.5,78.3,160.1,78.6,159.7,78.6z"/>
			</g>
			<g opacity="0.15">
				
					<rect x="149.6" y="92.5" transform="matrix(0.7071 0.7071 -0.7071 0.7071 119.3522 -82.8999)" fill="#231F20" width="20.3" height="20.3"/>
			</g>
			<g>
				
					<rect x="149.6" y="91.5" transform="matrix(0.7071 0.7071 -0.7071 0.7071 118.682 -83.1775)" fill="#F1F1F2" width="20.3" height="20.3"/>
			</g>
			<g>
				<path fill="#FF6D1F" d="M165.6,98.7l-1.6-1.6c-0.1-0.1-0.2-0.1-0.3,0l-5.6,5.6l-1.5-1.5c-0.1-0.1-0.2-0.1-0.3,0l-1.6,1.6
					c-0.1,0.1-0.1,0.2,0,0.3l3.2,3.2c0,0,0.1,0.1,0.1,0.1c0,0,0.1,0,0.1-0.1l7.4-7.4c0,0,0.1-0.1,0.1-0.1
					C165.6,98.8,165.6,98.7,165.6,98.7z"/>
			</g>
		</g>
		<g>
			<g>
				<path fill="#FFBB4E" d="M43.2,122.5v2.5c0,1.2-1.1,2.2-2.5,2.2H40c-1.4,0-2.5-1-2.5-2.2v-2.5H43.2z"/>
			</g>
			<g>
				<path fill="#F25F1D" d="M43.2,93.9c-3.4,0-6.1,2.7-6.1,6.1v20.6h6.1v-17.4v-1.9V93.9z"/>
			</g>
			<g>
				<polygon fill="#0F3B7A" points="37.1,122.8 43.3,122.8 43.3,119 36,119 				"/>
			</g>
			<g>
				<circle fill="#FFCA22" cx="40.8" cy="120.6" r="0.4"/>
			</g>
			<g opacity="0.15">
				<rect x="37.1" y="118" fill="#231F20" width="6.1" height="0.9"/>
			</g>
			<g>
				<rect x="50.4" y="89.6" fill="#BF8C3B" width="9.6" height="3.2"/>
			</g>
			<g>
				<polygon fill="#3F6295" points="59.7,141.2 55.9,110.8 67.7,110.8 63.9,141.2 				"/>
			</g>
			<g>
				<polygon fill="#081E3D" points="64.4,137.7 69,141.2 63.9,141.2 63.9,141.2 59.7,141.2 59.7,141.2 59.7,141.2 59.7,141.1 
					59.3,137.7 				"/>
			</g>
			<g opacity="0.15">
				<path fill="#231F20" d="M42.1,94v6H43v-6.1C42.7,93.9,42.4,93.9,42.1,94z"/>
			</g>
			<g opacity="0.5">
				<polygon fill="#231F20" points="59.2,136.8 64.5,136.8 64.4,137.7 59.3,137.7 				"/>
			</g>
			<g>
				<polygon fill="#3F6295" points="51,141.2 54.8,110.8 43,110.8 46.8,141.2 				"/>
			</g>
			<g>
				<polygon fill="#FF6D1F" points="39.5,118.3 43.1,93.9 67.4,93.9 71,118.3 				"/>
			</g>
			<g>
				<path fill="#3F6295" d="M42.3,122.8h25.8c1.5,0,2.8-1.2,2.8-2.8v-1.7H39.6v1.7C39.6,121.5,40.8,122.8,42.3,122.8z"/>
			</g>
			<g>
				<path fill="#F25F1D" d="M67.4,93.9c3.4,0,6.1,2.7,6.1,6.1v10.2h-6.1V93.9z"/>
			</g>
			<g>
				<rect x="55.1" y="93.9" fill="#FFFFFF" width="0.4" height="24.5"/>
			</g>
			<g opacity="0.15">
				<polygon fill="#231F20" points="66.2,122.8 57.4,122.8 57.5,123.7 66.1,123.7 				"/>
			</g>
			<g>
				
					<rect x="53.2" y="108.8" transform="matrix(-0.7071 0.7071 -0.7071 -0.7071 172.7564 150.319)" fill="#FFD54E" width="4.2" height="4.2"/>
			</g>
			<g>
				<polygon fill="#081E3D" points="46.4,137.7 41.7,141.2 46.8,141.2 46.8,141.2 51,141.2 51,141.2 51,141.2 51,141.1 51.5,137.7 
									"/>
			</g>
			<g opacity="0.5">
				<polygon fill="#231F20" points="51.6,136.8 46.3,136.8 46.4,137.7 51.4,137.7 				"/>
			</g>
			<g>
				<g>
					
						<rect x="41.6" y="91.1" transform="matrix(6.930390e-04 -1 1 6.930390e-04 -28.1487 156.2972)" fill="#E6E7E8" width="45" height="2.3"/>
				</g>
				<g>
					
						<rect x="50.2" y="101.4" transform="matrix(6.930390e-04 -1 1 6.930390e-04 -40.2811 164.8651)" fill="#E6E7E8" width="24.3" height="2.3"/>
				</g>
				<g>
					<path fill="#E6E7E8" d="M57.4,122.9l4.4-9.9l3.5,0l0,10.2c0,0.5-0.4,1-1,1l-6,0C57.6,124.1,57.2,123.5,57.4,122.9z"/>
				</g>
				<g>
					<path fill="#E6E7E8" d="M62.9,108.9L62.9,108.9l-2.8,0c-0.3,0-0.5-0.1-0.7-0.3c-0.2-0.2-0.3-0.5-0.3-0.7l0-2
						c0-0.6,0.5-1.1,1.1-1.1l2.8,0c0.6,0,1.1,0.5,1.1,1.1l0,2C63.9,108.4,63.4,108.9,62.9,108.9z M60,105.2c-0.3,0-0.6,0.3-0.6,0.6
						l0,2c0,0.2,0.1,0.3,0.2,0.4c0.1,0.1,0.3,0.2,0.4,0.2l2.8,0l0,0.2l0-0.2c0.3,0,0.6-0.3,0.6-0.6l0-2c0-0.3-0.3-0.6-0.6-0.6
						L60,105.2z"/>
				</g>
				<g>
					
						<rect x="62.8" y="110.4" transform="matrix(-6.930073e-04 1 -1 -6.930073e-04 179.1661 43.7692)" fill="#E6E7E8" width="9.8" height="2"/>
				</g>
				<g>
					<rect x="58.4" y="110.1" fill="#E6E7E8" width="8.5" height="2.6"/>
				</g>
				<g>
					<rect x="63.7" y="114.3" fill="#E6E7E8" width="3.9" height="0.6"/>
				</g>
				<g>
					<rect x="63.7" y="107.6" fill="#E6E7E8" width="3.9" height="0.6"/>
				</g>
				<g>
					
						<rect x="40.7" y="92" transform="matrix(6.930390e-04 -1 1 6.930390e-04 -29.081 155.3629)" fill="#CECECE" width="45" height="0.4"/>
				</g>
				<g>
					
						<rect x="49.2" y="102.5" transform="matrix(6.930390e-04 -1 1 6.930390e-04 -41.3019 163.8421)" fill="#CECECE" width="24.3" height="0.2"/>
				</g>
			</g>
			<g>
				<path fill="#F25F1D" d="M73.1,107.8c1.3,3.1-0.1,6.7-3.1,8l-9.9,4.1l-2.4-5.6L73.1,107.8z"/>
			</g>
			<g>
				<g>
					<path fill="#FFBB4E" d="M59.9,119.9l-2.3,1c-1.1,0.5-2.5-0.2-3.1-1.4l-0.3-0.6c-0.6-1.3-0.1-2.7,1-3.2l2.3-1L59.9,119.9z"/>
				</g>
				<g>
					<polygon fill="#0F3B7A" points="57.3,114.5 59.7,120.2 63.2,118.7 60.3,111.9 					"/>
				</g>
				<g opacity="0.15">
					
						<rect x="59.4" y="115.1" transform="matrix(0.3984 0.9172 -0.9172 0.3984 143.5636 12.2934)" fill="#231F20" width="6.1" height="0.9"/>
				</g>
			</g>
			<g opacity="0.15">
				<path fill="#231F20" d="M67.5,93.9h-0.1v6.1l0.9-6C68.1,93.9,67.8,93.9,67.5,93.9z"/>
			</g>
			<g opacity="0.15">
				<polygon fill="#231F20" points="53.3,122.8 44.5,122.8 44.6,123.7 53.2,123.7 				"/>
			</g>
			<g>
				<polygon fill="#0F3B7A" points="49.9,93.9 60.6,93.9 60.6,90.8 55.3,92.4 49.9,90.8 				"/>
			</g>
			<g>
				<g>
					<circle fill="#1B365C" cx="70" cy="80" r="1.4"/>
				</g>
				<g>
					<g>
						<circle fill="#1B365C" cx="40.5" cy="80" r="1.4"/>
					</g>
					<g>
						<circle fill="#1B365C" cx="38.5" cy="78.6" r="1.4"/>
					</g>
				</g>
				<g>
					<circle fill="#1B365C" cx="72.1" cy="78.6" r="1.4"/>
				</g>
				<g>
					<ellipse fill="#1B365C" cx="55.2" cy="75.5" rx="19.2" ry="7.2"/>
				</g>
			</g>
			<g>
				<circle fill="#FFBB4E" cx="55.2" cy="75.2" r="15.9"/>
			</g>
			<g>
				<g>
					<path fill="#1B365C" d="M55.3,26.7c11.1,0,20.2,9.1,20.2,20.2v24c0,3.3-0.8,5.6-2.2,7.1c-3.4-4.8-10.2-8.1-18-8.1
						s-14.7,3.3-18,8.1c-1.4-1.6-2.2-3.8-2.2-7.1v-24C35.1,35.8,44.2,26.7,55.3,26.7z"/>
				</g>
				<g>
					<circle fill="#1B365C" cx="53.9" cy="26.6" r="1.4"/>
				</g>
				<g>
					<circle fill="#1B365C" cx="51.3" cy="27" r="1.4"/>
				</g>
				<g>
					<circle fill="#1B365C" cx="48.7" cy="28" r="1.4"/>
				</g>
				<g>
					<circle fill="#1B365C" cx="46.1" cy="28.8" r="1.4"/>
				</g>
				<g>
					<circle fill="#1B365C" cx="43.7" cy="30.2" r="1.4"/>
				</g>
				<g>
					<circle fill="#1B365C" cx="41.5" cy="32" r="1.4"/>
				</g>
				<g>
					<circle fill="#1B365C" cx="39.7" cy="34" r="1.4"/>
				</g>
				<g>
					<circle fill="#1B365C" cx="38.2" cy="36.1" r="1.4"/>
				</g>
				<g>
					<circle fill="#1B365C" cx="36.8" cy="38.6" r="1.4"/>
				</g>
				<g>
					<circle fill="#1B365C" cx="36" cy="41.1" r="1.4"/>
				</g>
				<g>
					<circle fill="#1B365C" cx="35.4" cy="43.7" r="1.4"/>
				</g>
				<g>
					<circle fill="#1B365C" cx="35.1" cy="46.4" r="1.4"/>
				</g>
				<g>
					<circle fill="#1B365C" cx="35.1" cy="49.2" r="1.4"/>
				</g>
				<g>
					<circle fill="#1B365C" cx="35.1" cy="52.1" r="1.4"/>
				</g>
				<g>
					<circle fill="#1B365C" cx="35.1" cy="54.9" r="1.4"/>
				</g>
				<g>
					<circle fill="#1B365C" cx="35.1" cy="57.7" r="1.4"/>
				</g>
				<g>
					<circle fill="#1B365C" cx="35.1" cy="60.6" r="1.4"/>
				</g>
				<g>
					<circle fill="#1B365C" cx="35.1" cy="63.4" r="1.4"/>
				</g>
				<g>
					<circle fill="#1B365C" cx="35.1" cy="66.3" r="1.4"/>
				</g>
				<g>
					<circle fill="#1B365C" cx="35.1" cy="69.1" r="1.4"/>
				</g>
				<g>
					<circle fill="#1B365C" cx="35.1" cy="72" r="1.4"/>
				</g>
				<g>
					<circle fill="#1B365C" cx="35.4" cy="74.6" r="1.4"/>
				</g>
				<g>
					<circle fill="#1B365C" cx="36.6" cy="76.9" r="1.3"/>
				</g>
				<g>
					<g>
						<circle fill="#1B365C" cx="56.7" cy="26.6" r="1.4"/>
					</g>
					<g>
						<circle fill="#1B365C" cx="59.2" cy="27" r="1.4"/>
					</g>
					<g>
						<circle fill="#1B365C" cx="61.7" cy="28" r="1.4"/>
					</g>
					<g>
						<circle fill="#1B365C" cx="64.3" cy="28.8" r="1.4"/>
					</g>
					<g>
						<circle fill="#1B365C" cx="66.7" cy="30.2" r="1.4"/>
					</g>
					<g>
						<circle fill="#1B365C" cx="68.9" cy="32" r="1.4"/>
					</g>
					<g>
						<circle fill="#1B365C" cx="70.8" cy="34" r="1.4"/>
					</g>
					<g>
						<circle fill="#1B365C" cx="72.2" cy="36.1" r="1.4"/>
					</g>
					<g>
						<circle fill="#1B365C" cx="73.6" cy="38.6" r="1.4"/>
					</g>
					<g>
						<circle fill="#1B365C" cx="74.5" cy="41.1" r="1.4"/>
					</g>
					<g>
						<circle fill="#1B365C" cx="75" cy="43.7" r="1.4"/>
					</g>
					<g>
						<circle fill="#1B365C" cx="75.3" cy="46.4" r="1.4"/>
					</g>
					<g>
						<circle fill="#1B365C" cx="75.3" cy="49.2" r="1.4"/>
					</g>
					<g>
						<circle fill="#1B365C" cx="75.3" cy="52.1" r="1.4"/>
					</g>
					<g>
						<circle fill="#1B365C" cx="75.3" cy="54.9" r="1.4"/>
					</g>
					<g>
						<circle fill="#1B365C" cx="75.3" cy="57.7" r="1.4"/>
					</g>
					<g>
						<circle fill="#1B365C" cx="75.3" cy="60.6" r="1.4"/>
					</g>
					<g>
						<circle fill="#1B365C" cx="75.3" cy="63.4" r="1.4"/>
					</g>
					<g>
						<circle fill="#1B365C" cx="75.3" cy="66.3" r="1.4"/>
					</g>
					<g>
						<circle fill="#1B365C" cx="75.3" cy="69.1" r="1.4"/>
					</g>
					<g>
						<circle fill="#1B365C" cx="75.3" cy="72" r="1.4"/>
					</g>
					<g>
						<circle fill="#1B365C" cx="75" cy="74.6" r="1.4"/>
					</g>
					<g>
						<circle fill="#1B365C" cx="73.8" cy="76.9" r="1.3"/>
					</g>
				</g>
				<g>
					<circle fill="#1B365C" cx="72.2" cy="76.6" r="1.4"/>
				</g>
				<g>
					<circle fill="#1B365C" cx="70.3" cy="75.2" r="1.4"/>
				</g>
				<g>
					<circle fill="#1B365C" cx="68.1" cy="73.7" r="1.4"/>
				</g>
				<g>
					<circle fill="#1B365C" cx="65.9" cy="72.2" r="1.4"/>
				</g>
				<g>
					<circle fill="#1B365C" cx="63.4" cy="71.2" r="1.4"/>
				</g>
				<g>
					<circle fill="#1B365C" cx="60.8" cy="70.4" r="1.4"/>
				</g>
				<g>
					<circle fill="#1B365C" cx="58.1" cy="70" r="1.4"/>
				</g>
				<g>
					<circle fill="#1B365C" cx="55.3" cy="69.8" r="1.4"/>
				</g>
				<g>
					<g>
						<circle fill="#1B365C" cx="38.4" cy="76.6" r="1.4"/>
					</g>
					<g>
						<circle fill="#1B365C" cx="40.2" cy="75.2" r="1.4"/>
					</g>
					<g>
						<circle fill="#1B365C" cx="42.5" cy="73.7" r="1.4"/>
					</g>
					<g>
						<circle fill="#1B365C" cx="44.7" cy="72.2" r="1.4"/>
					</g>
					<g>
						<circle fill="#1B365C" cx="47.2" cy="71.2" r="1.4"/>
					</g>
					<g>
						<circle fill="#1B365C" cx="49.8" cy="70.4" r="1.4"/>
					</g>
					<g>
						<circle fill="#1B365C" cx="52.5" cy="70" r="1.4"/>
					</g>
				</g>
			</g>
			<g>
				<path fill="#FFFFFF" d="M48.6,84.2c1.7,0,2-1.8,3.7-2c1.7-0.2,2.9,0.5,2.9,0.5s1.2-0.7,2.9-0.5c1.7,0.2,2,2,3.7,2
					c1.2,0,1.9-1,1.9-0.8c0,0.2-2.5,4.9-7.7,1.9c-0.5-0.3-0.8-0.5-0.8-0.5s-0.3,0.2-0.8,0.5c-5.2,3.1-7.7-1.7-7.7-1.9
					C46.7,83.2,47.4,84.2,48.6,84.2z"/>
			</g>
			<g opacity="0.25">
				<circle fill="#231F20" cx="51" cy="92.8" r="0.7"/>
			</g>
			<g>
				<circle fill="#FFBB4E" cx="51" cy="92.4" r="0.7"/>
			</g>
			<g opacity="0.25">
				<circle fill="#231F20" cx="59.3" cy="92.8" r="0.7"/>
			</g>
			<g>
				<circle fill="#FFBB4E" cx="59.3" cy="92.4" r="0.7"/>
			</g>
			<g>
				<g opacity="0.25">
					<circle fill="#231F20" cx="59.5" cy="115.5" r="0.7"/>
				</g>
				<g>
					<circle fill="#FFBB4E" cx="59.5" cy="115" r="0.7"/>
				</g>
			</g>
			<g>
				<g opacity="0.25">
					<circle fill="#231F20" cx="38.4" cy="121.3" r="0.7"/>
				</g>
				<g>
					<circle fill="#FFBB4E" cx="38.4" cy="120.8" r="0.7"/>
				</g>
			</g>
			<g opacity="0.15">
				<g>
					<polygon fill="#231F20" points="49.1,102 45.2,102 45.2,104.7 47.2,105.7 49.1,104.7 					"/>
				</g>
			</g>
			<g>
				<g opacity="0.25">
					<circle fill="#231F20" cx="53" cy="97.9" r="0.6"/>
				</g>
				<g>
					<circle fill="#FFBB4E" cx="53" cy="97.5" r="0.6"/>
				</g>
			</g>
			<g>
				<g opacity="0.25">
					<circle fill="#231F20" cx="53" cy="100.9" r="0.6"/>
				</g>
				<g>
					<circle fill="#FFBB4E" cx="53" cy="100.5" r="0.6"/>
				</g>
			</g>
			<g opacity="0.15">
				
					<rect x="54" y="110" transform="matrix(-0.7071 0.7071 -0.7071 -0.7071 173.0005 150.9084)" fill="#231F20" width="2.6" height="2.6"/>
			</g>
			<g>
				
					<rect x="54" y="109.5" transform="matrix(-0.7071 0.7071 -0.7071 -0.7071 172.6837 150.1436)" fill="#FFCA22" width="2.6" height="2.6"/>
			</g>
			<g>
				<g>
					<g>
						<polygon fill="#FFD54E" points="49.1,101.5 45.2,101.5 45.2,104.2 47.2,105.3 49.1,104.2 						"/>
					</g>
				</g>
				<g>
					<line fill="#FFD54E" x1="45.2" y1="101.2" x2="49.1" y2="101.2"/>
					<rect x="45.2" y="101" fill="#FFE66B" width="3.9" height="0.2"/>
				</g>
			</g>
			<g>
				<polygon fill="#FF664D" points="47.2,104 47.4,103.5 47.9,103.5 47.5,103 47.7,102.5 47.2,102.8 46.7,102.5 46.9,103 
					46.5,103.5 47,103.5 				"/>
			</g>
		</g>
	</g>
</g>
<g id="grid">
</g>
</svg>
