<?xml version="1.0" encoding="utf-8"?>
<!-- Generator: Adobe Illustrator 18.1.0, SVG Export Plug-In . SVG Version: 6.00 Build 0)  -->
<!DOCTYPE svg PUBLIC "-//W3C//DTD SVG 1.1//EN" "http://www.w3.org/Graphics/SVG/1.1/DTD/svg11.dtd">
<svg version="1.1" id="Layer_3" xmlns="http://www.w3.org/2000/svg" xmlns:xlink="http://www.w3.org/1999/xlink" x="0px" y="0px"
	 width="28.9px" height="37px" viewBox="0 0 28.9 37" enable-background="new 0 0 28.9 37" xml:space="preserve">
<rect x="0" y="22.1" fill="#818185" width="3" height="15"/>
<rect x="24" y="22.1" fill="#818185" width="3" height="15"/>
<rect x="6" y="28.1" fill="#818185" width="15" height="3"/>
<rect x="0" y="34.1" fill="#818185" width="27" height="3"/>
<rect x="7.1" y="18.7" transform="matrix(0.9718 0.2357 -0.2357 0.9718 5.1617 -2.8229)" fill="#BF9452" width="14.5" height="2.9"/>
<rect x="9" y="13.9" transform="matrix(0.8905 0.455 -0.455 0.8905 8.7514 -5.7144)" fill="#D28B29" width="14.5" height="2.9"/>
<rect x="12.3" y="9.1" transform="matrix(0.7531 0.6579 -0.6579 0.7531 11.761 -10.2488)" fill="#F68A1F" width="14.5" height="2.9"/>
<rect x="16.4" y="5.4" transform="matrix(0.5523 0.8336 -0.8336 0.5523 16.3265 -16.6739)" fill="#F47920" width="14.5" height="2.9"/>
<rect x="6.4" y="23.5" transform="matrix(0.9985 5.452314e-02 -5.452314e-02 0.9985 1.3831 -0.7101)" fill="#A68A6E" width="14.5" height="2.9"/>
</svg>
