<?xml version="1.0" encoding="utf-8"?>
<!-- Generator: Adobe Illustrator 18.0.0, SVG Export Plug-In . SVG Version: 6.00 Build 0)  -->
<!DOCTYPE svg PUBLIC "-//W3C//DTD SVG 1.1//EN" "http://www.w3.org/Graphics/SVG/1.1/DTD/svg11.dtd">
<svg version="1.1" id="Layer_3" xmlns="http://www.w3.org/2000/svg" xmlns:xlink="http://www.w3.org/1999/xlink" x="0px" y="0px"
	 width="270px" height="42px" viewBox="0 0 270 42" enable-background="new 0 0 270 42" xml:space="preserve">
<g>
	<g>
		<path d="M41.8,38.9c-2.3,0-4.1-0.5-5.6-2l1.3-1.3c1.1,1.1,2.6,1.6,4.3,1.6c2.3,0,3.7-0.8,3.7-2.4c0-1.2-0.7-1.9-2.3-2l-2.3-0.2
			c-2.7-0.2-4.1-1.4-4.1-3.7c0-2.5,2.1-4,5-4c2,0,3.7,0.5,4.9,1.5l-1.3,1.3c-1-0.8-2.2-1.1-3.7-1.1c-2,0-3.1,0.9-3.1,2.3
			c0,1.2,0.7,1.9,2.4,2l2.2,0.2c2.4,0.2,4,1.1,4,3.7C47.4,37.4,45.1,38.9,41.8,38.9z"/>
		<path d="M53.5,38.7c-2.3,0-3.5-1.6-3.5-3.7v-8.4h-1.7v-1.5H50v-4.3h2v4.3h2.9v1.5H52V35c0,1.3,0.6,2,1.9,2h1.1v1.7H53.5z"/>
		<path d="M65.3,38.7v-1.3c-1.1,1.1-2.1,1.5-4,1.5c-1.9,0-3-0.4-3.9-1.3c-0.7-0.7-1-1.7-1-2.8c0-2.4,1.7-4,4.7-4h4.1v-1.3
			c0-2-1-3-3.5-3c-1.8,0-2.6,0.4-3.5,1.6L57,26.9c1.2-1.6,2.6-2,4.8-2c3.7,0,5.5,1.6,5.5,4.6v9.3H65.3z M65.3,32.4h-3.8
			c-2.1,0-3.1,0.8-3.1,2.4c0,1.6,1,2.3,3.1,2.3c1.2,0,2.2-0.1,3.1-0.9c0.5-0.4,0.7-1.2,0.7-2.4V32.4z"/>
		<path d="M75.2,38.9c-3.5,0-6.1-2.3-6.1-7c0-4.7,2.6-7,6.1-7c1.9,0,3.1,0.5,4.5,2l-1.4,1.3c-1-1.1-1.8-1.5-3.1-1.5
			c-1.3,0-2.5,0.5-3.2,1.6c-0.6,0.9-0.9,2-0.9,3.7c0,1.7,0.3,2.8,0.9,3.7c0.7,1,1.8,1.6,3.2,1.6c1.3,0,2.1-0.4,3.1-1.6l1.4,1.3
			C78.3,38.4,77.1,38.9,75.2,38.9z"/>
		<path d="M90.7,38.7l-4.3-7l-2.7,3.1v4h-2V18.9h2v13.3l6.2-7.1h2.5l-4.7,5.2l5.5,8.5H90.7z"/>
		<path d="M103.9,37.2c-0.8,0.9-2.2,1.7-4.3,1.7c-2,0-3.4-0.8-4.3-1.7c-1.2-1.3-1.6-2.9-1.6-5.4c0-2.5,0.3-4,1.6-5.3
			c0.8-0.9,2.2-1.7,4.3-1.7c2,0,3.4,0.8,4.3,1.7c1.2,1.3,1.6,2.9,1.6,5.3C105.5,34.4,105.1,35.9,103.9,37.2z M101.2,28.5
			c-0.4-0.4-0.9-0.6-1.6-0.6c-0.7,0-1.2,0.2-1.6,0.6c-0.7,0.7-0.8,1.9-0.8,3.3c0,1.4,0.1,2.6,0.8,3.4c0.4,0.4,0.9,0.6,1.6,0.6
			c0.7,0,1.2-0.2,1.6-0.6c0.7-0.7,0.8-1.9,0.8-3.4C102,30.4,102,29.2,101.2,28.5z"/>
		<path d="M113.2,38.7h-2.7L105.4,25h3.6l2.8,8.5l2.8-8.5h3.6L113.2,38.7z"/>
		<path d="M121.5,32.9c0,1.8,1.1,3.1,3,3.1c1.5,0,2.2-0.4,3.1-1.3l2.1,2c-1.4,1.4-2.7,2.2-5.2,2.2c-3.2,0-6.4-1.5-6.4-7.1
			c0-4.5,2.4-7,6-7c3.8,0,6,2.8,6,6.6v1.5H121.5z M126.4,29.1c-0.4-0.8-1.1-1.4-2.3-1.4c-1.2,0-1.9,0.6-2.3,1.4
			c-0.2,0.5-0.3,0.9-0.3,1.5h5.2C126.7,30,126.6,29.6,126.4,29.1z"/>
		<path d="M139.3,28.7c-0.5-0.5-1-0.8-1.8-0.8c-1.1,0-2.2,0.8-2.2,2.5v8.3h-3.4V25h3.4v1.3c0.7-0.8,2-1.5,3.5-1.5
			c1.3,0,2.3,0.3,3.2,1.3L139.3,28.7z"/>
		<path d="M147.6,27.6v11.1h-3.4V27.6h-1.4V25h1.4v-1.7c0-2,1.2-3.9,4-3.9h2v2.9h-1.3c-0.8,0-1.2,0.4-1.2,1.2V25h2.5v2.6H147.6z
			 M155.8,38.7c-2.8,0-4-2-4-3.9V19.3h3.4v15.2c0,0.8,0.3,1.2,1.2,1.2h1.3v2.9H155.8z"/>
		<path d="M168.4,37.2c-0.8,0.9-2.2,1.7-4.3,1.7c-2,0-3.4-0.8-4.3-1.7c-1.2-1.3-1.6-2.9-1.6-5.4c0-2.5,0.3-4,1.6-5.3
			c0.8-0.9,2.2-1.7,4.3-1.7c2,0,3.4,0.8,4.3,1.7c1.2,1.3,1.6,2.9,1.6,5.3C169.9,34.4,169.6,35.9,168.4,37.2z M165.7,28.5
			c-0.4-0.4-0.9-0.6-1.6-0.6s-1.2,0.2-1.6,0.6c-0.7,0.7-0.8,1.9-0.8,3.3c0,1.4,0.1,2.6,0.8,3.4c0.4,0.4,0.9,0.6,1.6,0.6
			s1.2-0.2,1.6-0.6c0.7-0.7,0.8-1.9,0.8-3.4C166.5,30.4,166.4,29.2,165.7,28.5z"/>
		<path d="M185.3,38.7h-2.8l-2.9-8.6l-2.9,8.6h-2.8L169.7,25h3.6l2.2,8.5l2.8-8.5h2.5l2.8,8.5l2.2-8.5h3.6L185.3,38.7z"/>
	</g>
	<g>
		
			<rect x="7.5" y="21.7" transform="matrix(0.9718 0.2357 -0.2357 0.9718 5.9427 -3.0623)" fill="#BF9452" width="16.5" height="3.3"/>
		
			<rect x="9.6" y="16.1" transform="matrix(0.8905 0.455 -0.455 0.8905 10.059 -6.1929)" fill="#D28B29" width="16.5" height="3.3"/>
		
			<rect x="13.4" y="10.7" transform="matrix(0.7531 0.6579 -0.6579 0.7531 13.4761 -11.1823)" fill="#F68A1F" width="16.5" height="3.3"/>
		
			<rect x="18.7" y="6.1" transform="matrix(0.5616 0.8274 -0.8274 0.5616 18.2392 -18.8732)" fill="#F47920" width="16.5" height="3.3"/>
		
			<rect x="6.7" y="27.1" transform="matrix(0.9985 5.452314e-02 -5.452314e-02 0.9985 1.5928 -0.7751)" fill="#A68A6E" width="16.5" height="3.3"/>
		<polygon fill="#818185" points="26.6,38.7 26.6,25 29.9,25 29.9,42 0,42 0,25 3.3,25 3.3,38.7 		"/>
		<rect x="6.6" y="32.1" fill="#818185" width="16.7" height="3.3"/>
	</g>
	<g>
		<path fill="#F47920" d="M197.1,38.9c-3.5,0-6.1-2.4-6.1-7.1c0-4.7,2.6-7.1,6.1-7.1c1.9,0,3.1,0.5,4.5,2l-1.4,1.3
			c-1-1.2-1.9-1.5-3.2-1.5c-1.3,0-2.5,0.5-3.2,1.6c-0.6,0.9-0.9,2-0.9,3.7c0,1.7,0.3,2.8,0.9,3.7c0.7,1,1.9,1.6,3.2,1.6
			c1.3,0,2.1-0.4,3.2-1.6l1.4,1.3C200.2,38.4,199,38.9,197.1,38.9z"/>
		<path fill="#F47920" d="M211.4,38.7v-1.3c-1.1,1.1-2.1,1.5-4,1.5c-1.9,0-3-0.4-3.9-1.3c-0.7-0.7-1-1.7-1-2.8c0-2.4,1.7-4,4.8-4
			h4.2v-1.3c0-2-1-3-3.5-3c-1.8,0-2.7,0.4-3.5,1.6l-1.4-1.3c1.2-1.6,2.6-2,4.9-2c3.7,0,5.5,1.6,5.5,4.6v9.4H211.4z M211.4,32.4h-3.9
			c-2.1,0-3.1,0.8-3.1,2.4c0,1.6,1,2.4,3.2,2.4c1.2,0,2.2-0.1,3.1-0.9c0.5-0.4,0.7-1.2,0.7-2.4V32.4z"/>
		<path fill="#F47920" d="M222.8,27.6c-0.8-0.8-1.3-1-2.4-1c-2,0-3.3,1.6-3.3,3.7v8.5h-2V24.9h2v1.7c0.8-1.1,2.3-1.9,3.9-1.9
			c1.3,0,2.3,0.3,3.3,1.3L222.8,27.6z"/>
		<path fill="#F47920" d="M226.1,32.4c0,3,1.4,4.8,4.1,4.8c1.6,0,2.5-0.5,3.6-1.6l1.4,1.2c-1.4,1.4-2.7,2.1-5,2.1
			c-3.6,0-6-2.2-6-7.1c0-4.5,2.2-7.1,5.7-7.1c3.6,0,5.7,2.6,5.7,6.7v0.9H226.1z M232.9,28.5c-0.5-1.3-1.8-2.1-3.2-2.1
			c-1.5,0-2.7,0.8-3.2,2.1c-0.3,0.8-0.4,1.2-0.4,2.3h7.3C233.3,29.7,233.3,29.3,232.9,28.5z"/>
		<path fill="#F47920" d="M238.7,32.4c0,3,1.4,4.8,4.1,4.8c1.6,0,2.5-0.5,3.6-1.6l1.4,1.2c-1.4,1.4-2.7,2.1-5,2.1
			c-3.6,0-6-2.2-6-7.1c0-4.5,2.2-7.1,5.7-7.1c3.6,0,5.7,2.6,5.7,6.7v0.9H238.7z M245.6,28.5c-0.5-1.3-1.8-2.1-3.2-2.1
			c-1.5,0-2.7,0.8-3.2,2.1c-0.3,0.8-0.4,1.2-0.4,2.3h7.3C246,29.7,245.9,29.3,245.6,28.5z"/>
		<path fill="#F47920" d="M257.5,27.6c-0.8-0.8-1.3-1-2.4-1c-2,0-3.3,1.6-3.3,3.7v8.5h-2V24.9h2v1.7c0.8-1.1,2.3-1.9,3.9-1.9
			c1.3,0,2.3,0.3,3.3,1.3L257.5,27.6z"/>
		<path fill="#F47920" d="M264.5,38.9c-2.3,0-4.2-0.5-5.7-2l1.3-1.3c1.1,1.2,2.6,1.6,4.3,1.6c2.3,0,3.7-0.8,3.7-2.4
			c0-1.2-0.7-1.9-2.3-2l-2.3-0.2c-2.7-0.2-4.1-1.4-4.1-3.7c0-2.5,2.1-4,5.1-4c2,0,3.7,0.5,5,1.5l-1.3,1.3c-1-0.8-2.2-1.1-3.7-1.1
			c-2,0-3.1,0.9-3.1,2.3c0,1.2,0.7,1.9,2.4,2L266,31c2.4,0.2,4.1,1.2,4.1,3.7C270.1,37.4,267.8,38.9,264.5,38.9z"/>
	</g>
</g>
</svg>
